%FSLAX23Y23*%
%MOIN*%
G04 EasyPC Gerber Version 17.0 Build 3379 *
%ADD11C,0.00100*%
%ADD13C,0.00300*%
%ADD17C,0.00400*%
%ADD10C,0.00500*%
%ADD12C,0.00600*%
%ADD16C,0.00700*%
%ADD14C,0.00820*%
%ADD15C,0.01000*%
%ADD18C,0.01200*%
X0Y0D02*
D02*
D10*
X509Y2488D02*
Y2541D01*
X632*
Y2488*
X509*
X510Y2439D02*
Y2476D01*
X532*
X539Y2473*
X542Y2467*
X539Y2461*
X532Y2457*
X510*
X532D02*
X542Y2439D01*
X585D02*
X560D01*
X582Y2461*
X585Y2467*
X582Y2473*
X576Y2476*
X567*
X560Y2473*
X610Y2442D02*
X617Y2439D01*
X626*
X632Y2442*
X635Y2448*
Y2451*
X632Y2457*
X626Y2461*
X610*
Y2476*
X635*
X544Y582D02*
Y362D01*
X624*
Y582*
X544*
X551Y1675D02*
Y1713D01*
Y1694D02*
X582D01*
Y1675D02*
Y1713D01*
X601Y1685D02*
X604Y1678D01*
X611Y1675*
X617*
X623Y1678*
X626Y1685*
Y1691*
X623Y1697*
X617Y1700*
X611*
X604Y1697*
X601Y1691*
Y1685*
X657Y1700D02*
X670D01*
X664Y1706D02*
Y1678D01*
X667Y1675*
X670*
X673Y1678*
X551Y1863D02*
Y1900D01*
X582Y1863*
Y1900*
X626Y1866D02*
X623Y1863D01*
X617*
X611*
X604Y1866*
X601Y1872*
Y1881*
X604Y1885*
X611Y1888*
X617*
X623Y1885*
X626Y1881*
Y1878*
X623Y1875*
X617Y1872*
X611*
X604Y1875*
X601Y1878*
X651Y1888D02*
Y1872D01*
X654Y1866*
X661Y1863*
X667*
X673Y1866*
X676Y1872*
Y1888D02*
Y1863D01*
X707Y1888D02*
X720D01*
X714Y1894D02*
Y1866D01*
X717Y1863*
X720*
X723Y1866*
X751Y1863D02*
Y1888D01*
Y1878D02*
X754Y1885D01*
X761Y1888*
X767*
X773Y1885*
X801D02*
X807Y1888D01*
X817*
X823Y1885*
X826Y1878*
Y1869*
X823Y1866*
X817Y1863*
X811*
X804Y1866*
X801Y1869*
Y1872*
X804Y1875*
X811Y1878*
X817*
X823Y1875*
X826Y1872*
Y1869D02*
Y1863D01*
X867D02*
X864D01*
Y1900*
X573Y2091D02*
X582D01*
Y2088*
X579Y2081*
X576Y2078*
X570Y2075*
X564*
X557Y2078*
X554Y2081*
X551Y2088*
Y2100*
X554Y2106*
X557Y2110*
X564Y2113*
X570*
X576Y2110*
X579Y2106*
X582Y2100*
X601Y2075D02*
Y2113D01*
X632Y2075*
Y2113*
X651Y2075D02*
Y2113D01*
X670*
X676Y2110*
X679Y2106*
X682Y2100*
Y2088*
X679Y2081*
X676Y2078*
X670Y2075*
X651*
X562Y728D02*
X600D01*
Y706*
X597Y700*
X590Y697*
X584Y700*
X581Y706*
Y728*
Y706D02*
X562Y697D01*
Y653D02*
Y678D01*
X584Y656*
X590Y653*
X597Y656*
X600Y663*
Y672*
X597Y678*
X565Y625D02*
X562Y619D01*
Y613*
X565Y606*
X572Y603*
X590*
X597Y606*
X600Y613*
Y619*
X597Y625*
X590Y628*
X572*
X565Y625*
X597Y606*
X602Y914D02*
Y876D01*
X633*
X652Y886D02*
X655Y892D01*
X661Y895*
X667*
X673Y892*
X677Y886*
X673Y879*
X667Y876*
X661*
X655Y879*
X652Y886*
Y895*
X655Y904*
X661Y911*
X667Y914*
X613Y2576D02*
Y2613D01*
X635*
X641Y2610*
X644Y2604*
X641Y2598*
X635Y2595*
X613*
X635D02*
X644Y2576D01*
X663Y2579D02*
X669Y2576D01*
X678*
X685Y2579*
X688Y2585*
Y2588*
X685Y2595*
X678Y2598*
X663*
Y2613*
X688*
X722Y2576D02*
X728Y2579D01*
X735Y2585*
X738Y2595*
Y2604*
X735Y2610*
X728Y2613*
X722*
X716Y2610*
X713Y2604*
X716Y2598*
X722Y2595*
X728*
X735Y2598*
X738Y2604*
X691Y725D02*
X728D01*
Y703*
X725Y696*
X719Y693*
X713Y696*
X710Y703*
Y725*
Y703D02*
X691Y693D01*
Y668D02*
Y656D01*
Y662D02*
X728D01*
X722Y668*
X691Y615D02*
X694Y609D01*
X700Y603*
X710Y600*
X719*
X725Y603*
X728Y609*
Y615*
X725Y621*
X719Y625*
X713Y621*
X710Y615*
Y609*
X713Y603*
X719Y600*
X744Y2353D02*
Y2390D01*
X766*
X772Y2387*
X775Y2381*
X772Y2374*
X766Y2371*
X744*
X766D02*
X775Y2353D01*
X819D02*
X794D01*
X816Y2374*
X819Y2381*
X816Y2387*
X809Y2390*
X800*
X794Y2387*
X859Y2353D02*
Y2390D01*
X844Y2365*
X869*
X750Y2408D02*
Y2461D01*
X873*
Y2408*
X750*
X754Y362D02*
Y582D01*
X674*
Y362*
X754*
X765Y3080D02*
Y3118D01*
X787*
X793Y3115*
X796Y3108*
X793Y3102*
X787Y3099*
X765*
X787D02*
X796Y3080D01*
X818Y3083D02*
X824Y3080D01*
X831*
X837Y3083*
X840Y3090*
X837Y3096*
X831Y3099*
X824*
X831D02*
X837Y3102D01*
X840Y3108*
X837Y3115*
X831Y3118*
X824*
X818Y3115*
X865Y3090D02*
X868Y3096D01*
X874Y3099*
X881*
X887Y3096*
X890Y3090*
X887Y3083*
X881Y3080*
X874*
X868Y3083*
X865Y3090*
Y3099*
X868Y3108*
X874Y3115*
X881Y3118*
X785Y3170D02*
Y3208D01*
X807*
X813Y3204*
X816Y3198*
X813Y3192*
X807Y3189*
X785*
X807D02*
X816Y3170D01*
X838Y3173D02*
X844Y3170D01*
X851*
X857Y3173*
X860Y3179*
X857Y3186*
X851Y3189*
X844*
X851D02*
X857Y3192D01*
X860Y3198*
X857Y3204*
X851Y3208*
X844*
X838Y3204*
X894Y3189D02*
X901D01*
X907Y3192*
X910Y3198*
X907Y3204*
X901Y3208*
X894*
X888Y3204*
X885Y3198*
X888Y3192*
X894Y3189*
X888Y3186*
X885Y3179*
X888Y3173*
X894Y3170*
X901*
X907Y3173*
X910Y3179*
X907Y3186*
X901Y3189*
X788Y2975D02*
Y3013D01*
X809*
X816Y3010*
X819Y3003*
X816Y2997*
X809Y2994*
X788*
X809D02*
X819Y2975D01*
X841Y2978D02*
X847Y2975D01*
X853*
X859Y2978*
X863Y2985*
X859Y2991*
X853Y2994*
X847*
X853D02*
X859Y2997D01*
X863Y3003*
X859Y3010*
X853Y3013*
X847*
X841Y3010*
X888Y2975D02*
X913Y3013D01*
X888*
X802Y582D02*
Y362D01*
X882*
Y582*
X802*
X819Y2073D02*
Y2110D01*
X803D02*
X835D01*
X853Y2073D02*
Y2110D01*
X875*
X882Y2107*
X885Y2101*
X882Y2094*
X875Y2091*
X853*
X919Y2073D02*
Y2110D01*
X903Y2085*
X928*
X808Y954D02*
G75*
G03Y1037J41D01*
G01*
G75*
G03Y954J-41*
G01*
G36*
G75*
G03Y1037J41*
G01*
G75*
G03Y954J-41*
G01*
G37*
X821Y727D02*
X858D01*
Y705*
X855Y699*
X849Y696*
X842Y699*
X839Y705*
Y727*
Y705D02*
X821Y696D01*
Y671D02*
Y658D01*
Y665D02*
X858D01*
X852Y671*
X839Y618D02*
Y611D01*
X842Y605*
X849Y602*
X855Y605*
X858Y611*
Y618*
X855Y624*
X849Y627*
X842Y624*
X839Y618*
X836Y624*
X830Y627*
X824Y624*
X821Y618*
Y611*
X824Y605*
X830Y602*
X836Y605*
X839Y611*
X847Y3569D02*
X844Y3566D01*
X838Y3563*
X829*
X822Y3566*
X819Y3569*
X816Y3576*
Y3588*
X819Y3594*
X822Y3598*
X829Y3601*
X838*
X844Y3598*
X847Y3594*
X869Y3566D02*
X876Y3563D01*
X882*
X888Y3566*
X891Y3573*
X888Y3579*
X882Y3582*
X876*
X882D02*
X888Y3585D01*
X891Y3591*
X888Y3598*
X882Y3601*
X876*
X869Y3598*
X926Y3582D02*
X932D01*
X938Y3585*
X941Y3591*
X938Y3598*
X932Y3601*
X926*
X919Y3598*
X916Y3591*
X919Y3585*
X926Y3582*
X919Y3579*
X916Y3573*
X919Y3566*
X926Y3563*
X932*
X938Y3566*
X941Y3573*
X938Y3579*
X932Y3582*
X823Y3612D02*
Y3665D01*
X946*
Y3612*
X823*
X871Y2618D02*
Y2565D01*
X748*
Y2618*
X871*
X874Y2541D02*
Y2488D01*
X751*
Y2541*
X874*
X885Y2490D02*
Y2527D01*
X907*
X913Y2524*
X916Y2518*
X913Y2512*
X907Y2509*
X885*
X907D02*
X916Y2490D01*
X938Y2493D02*
X944Y2490D01*
X950*
X957Y2493*
X960Y2499*
X957Y2505*
X950Y2509*
X944*
X950D02*
X957Y2512D01*
X960Y2518*
X957Y2524*
X950Y2527*
X944*
X938Y2524*
X1000Y2490D02*
Y2527D01*
X985Y2502*
X1010*
X921Y2973D02*
Y3026D01*
X1044*
Y2973*
X921*
Y3063D02*
Y3116D01*
X1044*
Y3063*
X921*
Y3158D02*
Y3211D01*
X1044*
Y3158*
X921*
X978Y926D02*
Y1541D01*
X528*
Y926*
X978*
X1106Y481D02*
X1144D01*
Y459*
X1141Y453*
X1135Y450*
X1128Y453*
X1125Y459*
Y481*
Y459D02*
X1106Y450D01*
Y425D02*
Y412D01*
Y419D02*
X1144D01*
X1138Y425*
X1106Y381D02*
X1144Y356D01*
Y381*
X1102Y342D02*
X1155D01*
Y219*
X1102*
Y342*
X1107Y2857D02*
G75*
G03X1097I-5D01*
G01*
G75*
G03X1107I5*
G01*
G36*
G75*
G03X1097I-5*
G01*
G75*
G03X1107I5*
G01*
G37*
X1119Y2532D02*
X932D01*
Y2862*
X1119*
Y2712*
X1105*
Y2682*
X1119*
Y2532*
X1127Y3160D02*
Y3198D01*
X1149*
X1155Y3194*
X1158Y3188*
X1155Y3182*
X1149Y3179*
X1127*
X1149D02*
X1158Y3160D01*
X1202D02*
X1177D01*
X1199Y3182*
X1202Y3188*
X1199Y3194*
X1193Y3198*
X1183*
X1177Y3194*
X1233Y3160D02*
X1246D01*
X1239D02*
Y3198D01*
X1233Y3191*
X1161Y2859D02*
X1158Y2856D01*
X1151Y2853*
X1142*
X1136Y2856*
X1133Y2859*
X1129Y2866*
Y2878*
X1133Y2884*
X1136Y2887*
X1142Y2891*
X1151*
X1158Y2887*
X1161Y2884*
X1179Y2853D02*
X1204Y2891D01*
X1179*
X1229Y2862D02*
X1233Y2869D01*
X1239Y2872*
X1245*
X1251Y2869*
X1254Y2862*
X1251Y2856*
X1245Y2853*
X1239*
X1233Y2856*
X1229Y2862*
Y2872*
X1233Y2881*
X1239Y2887*
X1245Y2891*
X1133Y2502D02*
Y2540D01*
X1155*
X1161Y2537*
X1164Y2530*
X1161Y2524*
X1155Y2521*
X1133*
X1155D02*
X1164Y2502D01*
X1183Y2512D02*
X1186Y2518D01*
X1193Y2521*
X1199*
X1205Y2518*
X1208Y2512*
X1205Y2505*
X1199Y2502*
X1193*
X1186Y2505*
X1183Y2512*
Y2521*
X1186Y2530*
X1193Y2537*
X1199Y2540*
X1249Y2502D02*
Y2540D01*
X1233Y2515*
X1258*
X1136Y2741D02*
Y2778D01*
X1158*
X1164Y2775*
X1167Y2769*
X1164Y2763*
X1158Y2759*
X1136*
X1158D02*
X1167Y2741D01*
X1186Y2744D02*
X1192Y2741D01*
X1201*
X1208Y2744*
X1211Y2750*
Y2753*
X1208Y2759*
X1201Y2763*
X1186*
Y2778*
X1211*
X1236Y2750D02*
X1239Y2756D01*
X1245Y2759*
X1251*
X1258Y2756*
X1261Y2750*
X1258Y2744*
X1251Y2741*
X1245*
X1239Y2744*
X1236Y2750*
Y2759*
X1239Y2769*
X1245Y2775*
X1251Y2778*
X1169Y2688D02*
X1166Y2685D01*
X1160Y2682*
X1151*
X1144Y2685*
X1141Y2688*
X1138Y2695*
Y2707*
X1141Y2713*
X1144Y2716*
X1151Y2720*
X1160*
X1166Y2716*
X1169Y2713*
X1188Y2682D02*
X1213Y2720D01*
X1188*
X1254Y2682D02*
Y2720D01*
X1238Y2695*
X1263*
X1159Y3040D02*
Y3078D01*
X1181*
X1188Y3075*
X1191Y3068*
X1188Y3062*
X1181Y3059*
X1159*
X1181D02*
X1191Y3040D01*
X1234D02*
X1209D01*
X1231Y3062*
X1234Y3068*
X1231Y3075*
X1225Y3078*
X1216*
X1209Y3075*
X1229Y446D02*
X1226Y442D01*
X1220Y439*
X1211*
X1204Y442*
X1201Y446*
X1198Y452*
Y464*
X1201Y471*
X1204Y474*
X1211Y477*
X1220*
X1226Y474*
X1229Y471*
X1248Y442D02*
X1254Y439D01*
X1264*
X1270Y442*
X1273Y449*
Y452*
X1270Y458*
X1264Y461*
X1248*
Y477*
X1273*
X1249Y3146D02*
Y3093D01*
X1126*
Y3146*
X1249*
X1254Y2841D02*
Y2788D01*
X1131*
Y2841*
X1254*
Y2956D02*
Y2903D01*
X1131*
Y2956*
X1254*
Y3026D02*
Y2973D01*
X1131*
Y3026*
X1254*
X1259Y2606D02*
Y2553D01*
X1136*
Y2606*
X1259*
Y2676D02*
Y2623D01*
X1136*
Y2676*
X1259*
X1279Y206D02*
Y426D01*
X1199*
Y206*
X1279*
X1315Y1478D02*
X1312Y1475D01*
X1306Y1471*
X1297*
X1290Y1475*
X1287Y1478*
X1284Y1484*
Y1496*
X1287Y1503*
X1290Y1506*
X1297Y1509*
X1306*
X1312Y1506*
X1315Y1503*
X1359Y1471D02*
X1334D01*
X1356Y1493*
X1359Y1500*
X1356Y1506*
X1350Y1509*
X1340*
X1334Y1506*
X1300Y3175D02*
X1338D01*
Y3153*
X1335Y3146*
X1329Y3143*
X1322Y3146*
X1319Y3153*
Y3175*
Y3153D02*
X1300Y3143D01*
X1310Y3125D02*
X1316Y3121D01*
X1319Y3115*
Y3109*
X1316Y3103*
X1310Y3100*
X1304Y3103*
X1300Y3109*
Y3115*
X1304Y3121*
X1310Y3125*
X1319*
X1329Y3121*
X1335Y3115*
X1338Y3109*
X1300Y3068D02*
Y3056D01*
Y3062D02*
X1338D01*
X1332Y3068*
X1319Y1316D02*
Y1278D01*
X1350*
X1375D02*
X1388D01*
X1382D02*
Y1316D01*
X1375Y1309*
X1353Y3180D02*
X1406D01*
Y3057*
X1353*
Y3180*
X1353Y426D02*
Y463D01*
X1372*
X1378Y460*
X1381Y457*
X1384Y451*
Y438*
X1381Y432*
X1378Y429*
X1372Y426*
X1353*
X1406Y429D02*
X1412Y426D01*
X1418*
X1425Y429*
X1428Y435*
X1425Y441*
X1418Y444*
X1412*
X1418D02*
X1425Y448D01*
X1428Y454*
X1425Y460*
X1418Y463*
X1412*
X1406Y460*
X1357Y1621D02*
Y1659D01*
X1378*
X1385Y1656*
X1388Y1649*
X1385Y1643*
X1378Y1640*
X1357*
X1378D02*
X1388Y1621D01*
X1413D02*
X1425D01*
X1419D02*
Y1659D01*
X1413Y1652*
X1472Y1621D02*
Y1659D01*
X1457Y1634*
X1482*
X1397Y833D02*
G75*
G03Y885J26D01*
G01*
G75*
G03Y833J-26*
G01*
G36*
G75*
G03Y885J26*
G01*
G75*
G03Y833J-26*
G01*
G37*
X1450Y2338D02*
X1447Y2334D01*
X1441Y2331*
X1432*
X1425Y2334*
X1422Y2338*
X1419Y2344*
Y2356*
X1422Y2363*
X1425Y2366*
X1432Y2369*
X1441*
X1447Y2366*
X1450Y2363*
X1469Y2331D02*
X1494Y2369D01*
X1469*
X1525Y2331D02*
X1538D01*
X1532D02*
Y2369D01*
X1525Y2363*
X1459Y3129D02*
X1456Y3126D01*
X1450Y3123*
X1441*
X1434Y3126*
X1431Y3129*
X1428Y3135*
Y3148*
X1431Y3154*
X1434Y3157*
X1441Y3160*
X1450*
X1456Y3157*
X1459Y3154*
X1478Y3132D02*
X1481Y3138D01*
X1488Y3142*
X1494*
X1500Y3138*
X1503Y3132*
X1500Y3126*
X1494Y3123*
X1488*
X1481Y3126*
X1478Y3132*
Y3142*
X1481Y3151*
X1488Y3157*
X1494Y3160*
X1538Y3123D02*
X1544Y3126D01*
X1550Y3132*
X1553Y3142*
Y3151*
X1550Y3157*
X1544Y3160*
X1538*
X1531Y3157*
X1528Y3151*
X1531Y3145*
X1538Y3142*
X1544*
X1550Y3145*
X1553Y3151*
X1430Y3061D02*
Y3114D01*
X1553*
Y3061*
X1430*
X1432Y219D02*
Y412D01*
X1345*
Y219*
X1432*
X1449Y3264D02*
X1609D01*
Y3334*
X1449*
Y3264*
X1461Y1462D02*
X1170D01*
G75*
G03Y1352J-55*
G01*
X1461*
G75*
G03Y1462J55*
G01*
X1506Y3521D02*
X1503Y3518D01*
X1496Y3514*
X1487*
X1481Y3518*
X1478Y3521*
X1475Y3527*
Y3539*
X1478Y3546*
X1481Y3549*
X1487Y3552*
X1496*
X1503Y3549*
X1506Y3546*
X1528Y3518D02*
X1534Y3514D01*
X1540*
X1546Y3518*
X1550Y3524*
X1546Y3530*
X1540Y3533*
X1534*
X1540D02*
X1546Y3536D01*
X1550Y3543*
X1546Y3549*
X1540Y3552*
X1534*
X1528Y3549*
X1578Y3518D02*
X1584Y3514D01*
X1590*
X1596Y3518*
X1600Y3524*
X1596Y3530*
X1590Y3533*
X1584*
X1590D02*
X1596Y3536D01*
X1600Y3543*
X1596Y3549*
X1590Y3552*
X1584*
X1578Y3549*
X1506Y613D02*
Y666D01*
X1629*
Y613*
X1506*
X1520Y427D02*
Y464D01*
X1539*
X1545Y461*
X1548Y458*
X1551Y452*
Y439*
X1548Y433*
X1545Y430*
X1539Y427*
X1520*
X1595D02*
X1570D01*
X1592Y449*
X1595Y455*
X1592Y461*
X1586Y464*
X1576*
X1570Y461*
X1524Y1602D02*
X1304D01*
Y1522*
X1524*
Y1602*
X1526Y681D02*
Y719D01*
X1548*
X1554Y716*
X1558Y710*
X1554Y703*
X1548Y700*
X1526*
X1548D02*
X1558Y681D01*
X1583D02*
X1595D01*
X1589D02*
Y719D01*
X1583Y713*
X1626Y691D02*
X1629Y697D01*
X1636Y700*
X1642*
X1648Y697*
X1651Y691*
X1648Y685*
X1642Y681*
X1636*
X1629Y685*
X1626Y691*
Y700*
X1629Y710*
X1636Y716*
X1642Y719*
X1537Y2310D02*
Y2257D01*
X1414*
Y2310*
X1537*
X1548Y812D02*
Y1265D01*
X1148*
Y812*
X1548*
X1596Y2343D02*
Y2396D01*
X1719*
Y2343*
X1596*
X1598Y218D02*
Y411D01*
X1511*
Y218*
X1598*
X1600Y3421D02*
Y3368D01*
X1477*
Y3421*
X1600*
Y3501D02*
Y3448D01*
X1477*
Y3501*
X1600*
X1622Y3426D02*
X1619Y3430D01*
X1616Y3436*
Y3445*
X1619Y3451*
X1622Y3455*
X1629Y3458*
X1641*
X1647Y3455*
X1651Y3451*
X1654Y3445*
Y3436*
X1651Y3430*
X1647Y3426*
X1619Y3405D02*
X1616Y3398D01*
Y3392*
X1619Y3386*
X1626Y3383*
X1632Y3386*
X1635Y3392*
Y3398*
Y3392D02*
X1638Y3386D01*
X1644Y3383*
X1651Y3386*
X1654Y3392*
Y3398*
X1651Y3405*
X1616Y3342D02*
X1654D01*
X1629Y3358*
Y3333*
X1609Y1219D02*
Y1757D01*
X2323*
X2323Y1219*
X1972Y1219*
X1972Y1225*
X1960Y1225*
X1960Y1219*
X1609Y1219*
X1656Y3314D02*
X1619D01*
Y3283*
Y3239D02*
Y3264D01*
X1641Y3242*
X1647Y3239*
X1653Y3242*
X1656Y3249*
Y3258*
X1653Y3264*
X1646Y2258D02*
X1643Y2255D01*
X1637Y2251*
X1627*
X1621Y2255*
X1618Y2258*
X1615Y2264*
Y2276*
X1618Y2283*
X1621Y2286*
X1627Y2289*
X1637*
X1643Y2286*
X1646Y2283*
X1665Y2261D02*
X1668Y2267D01*
X1674Y2270*
X1681*
X1687Y2267*
X1690Y2261*
X1687Y2255*
X1681Y2251*
X1674*
X1668Y2255*
X1665Y2261*
Y2270*
X1668Y2280*
X1674Y2286*
X1681Y2289*
X1685Y506D02*
Y673D01*
X2134*
Y506*
X1925*
Y520*
X1895*
Y506*
X1685*
X1771Y3222D02*
X1931D01*
Y3292*
X1771*
Y3222*
X1778Y3349D02*
Y3402D01*
X1901*
Y3349*
X1778*
X1811Y3309D02*
X1808Y3305D01*
X1802Y3302*
X1792*
X1786Y3305*
X1783Y3309*
X1780Y3315*
Y3327*
X1783Y3334*
X1786Y3337*
X1792Y3340*
X1802*
X1808Y3337*
X1811Y3334*
X1833Y3305D02*
X1839Y3302D01*
X1845*
X1852Y3305*
X1855Y3312*
X1852Y3318*
X1845Y3321*
X1839*
X1845D02*
X1852Y3324D01*
X1855Y3330*
X1852Y3337*
X1845Y3340*
X1839*
X1833Y3337*
X1880Y3305D02*
X1886Y3302D01*
X1895*
X1902Y3305*
X1905Y3312*
Y3315*
X1902Y3321*
X1895Y3324*
X1880*
Y3340*
X1905*
X1812Y3415D02*
X1809Y3412D01*
X1803Y3408*
X1793*
X1787Y3412*
X1784Y3415*
X1781Y3421*
Y3433*
X1784Y3440*
X1787Y3443*
X1793Y3446*
X1803*
X1809Y3443*
X1812Y3440*
X1834Y3412D02*
X1840Y3408D01*
X1847*
X1853Y3412*
X1856Y3418*
X1853Y3424*
X1847Y3427*
X1840*
X1847D02*
X1853Y3430D01*
X1856Y3437*
X1853Y3443*
X1847Y3446*
X1840*
X1834Y3443*
X1881Y3418D02*
X1884Y3424D01*
X1890Y3427*
X1897*
X1903Y3424*
X1906Y3418*
X1903Y3412*
X1897Y3408*
X1890*
X1884Y3412*
X1881Y3418*
Y3427*
X1884Y3437*
X1890Y3443*
X1897Y3446*
X1786Y3451D02*
Y3504D01*
X1909*
Y3451*
X1786*
X1787Y3592D02*
Y3629D01*
X1809*
X1815Y3626*
X1818Y3620*
X1815Y3614*
X1809Y3611*
X1787*
X1809D02*
X1818Y3592D01*
X1837Y3601D02*
X1840Y3608D01*
X1847Y3611*
X1853*
X1859Y3608*
X1862Y3601*
X1859Y3595*
X1853Y3592*
X1847*
X1840Y3595*
X1837Y3601*
Y3611*
X1840Y3620*
X1847Y3626*
X1853Y3629*
X1887Y3601D02*
X1890Y3608D01*
X1897Y3611*
X1903*
X1909Y3608*
X1912Y3601*
X1909Y3595*
X1903Y3592*
X1897*
X1890Y3595*
X1887Y3601*
Y3611*
X1890Y3620*
X1897Y3626*
X1903Y3629*
X1792Y2254D02*
Y2307D01*
X1915*
Y2254*
X1792*
X1823Y2325D02*
X1820Y2322D01*
X1814Y2319*
X1805*
X1798Y2322*
X1795Y2325*
X1792Y2331*
Y2344*
X1795Y2350*
X1798Y2353*
X1805Y2356*
X1814*
X1820Y2353*
X1823Y2350*
X1842Y2328D02*
X1845Y2335D01*
X1852Y2338*
X1858*
X1864Y2335*
X1867Y2328*
X1864Y2322*
X1858Y2319*
X1852*
X1845Y2322*
X1842Y2328*
Y2338*
X1845Y2347*
X1852Y2353*
X1858Y2356*
X1902Y2338D02*
X1908D01*
X1914Y2341*
X1917Y2347*
X1914Y2353*
X1908Y2356*
X1902*
X1895Y2353*
X1892Y2347*
X1895Y2341*
X1902Y2338*
X1895Y2335*
X1892Y2328*
X1895Y2322*
X1902Y2319*
X1908*
X1914Y2322*
X1917Y2328*
X1914Y2335*
X1908Y2338*
X1806Y3215D02*
Y3178D01*
X1837*
X1859Y3181D02*
X1865Y3178D01*
X1872*
X1878Y3181*
X1881Y3187*
X1878Y3193*
X1872Y3196*
X1865*
X1872D02*
X1878Y3199D01*
X1881Y3206*
X1878Y3212*
X1872Y3215*
X1865*
X1859Y3212*
X1909Y3584D02*
Y3531D01*
X1786*
Y3584*
X1909*
X1952Y2776D02*
Y2814D01*
X1973*
X1980Y2811*
X1983Y2804*
X1980Y2798*
X1973Y2795*
X1952*
X1973D02*
X1983Y2776D01*
X2011D02*
X2017Y2779D01*
X2023Y2786*
X2027Y2795*
Y2804*
X2023Y2811*
X2017Y2814*
X2011*
X2005Y2811*
X2002Y2804*
X2005Y2798*
X2011Y2795*
X2017*
X2023Y2798*
X2027Y2804*
X1964Y2538D02*
X1911D01*
Y2661*
X1964*
Y2538*
X1974Y2878D02*
X1921D01*
Y3001*
X1974*
Y2878*
X1998Y2978D02*
X1994Y2982D01*
X1991Y2988*
Y2997*
X1994Y3003*
X1998Y3007*
X2004Y3010*
X2016*
X2023Y3007*
X2026Y3003*
X2029Y2997*
Y2988*
X2026Y2982*
X2023Y2978*
X1991Y2960D02*
X2029Y2935D01*
Y2960*
X1994Y2907D02*
X1991Y2900D01*
Y2894*
X1994Y2888*
X2001Y2885*
X2019*
X2026Y2888*
X2029Y2894*
Y2900*
X2026Y2907*
X2019Y2910*
X2001*
X1994Y2907*
X2026Y2888*
X2036Y367D02*
X2032Y364D01*
X2026Y361*
X2017*
X2011Y364*
X2007Y367*
X2004Y373*
Y386*
X2007Y392*
X2011Y395*
X2017Y398*
X2026*
X2032Y395*
X2036Y392*
X2070Y361D02*
Y398D01*
X2054Y373*
X2079*
X2047Y2764D02*
Y2711D01*
X1924*
Y2764*
X2047*
X2067Y2645D02*
Y2682D01*
X2089*
X2095Y2679*
X2098Y2673*
X2095Y2667*
X2089Y2663*
X2067*
X2089D02*
X2098Y2645D01*
X2120Y2648D02*
X2126Y2645D01*
X2132*
X2139Y2648*
X2142Y2654*
X2139Y2660*
X2132Y2663*
X2126*
X2132D02*
X2139Y2667D01*
X2142Y2673*
X2139Y2679*
X2132Y2682*
X2126*
X2120Y2679*
X2170Y2648D02*
X2176Y2645D01*
X2182*
X2189Y2648*
X2192Y2654*
Y2673*
X2189Y2679*
X2182Y2682*
X2176*
X2170Y2679*
X2167Y2673*
Y2654*
X2170Y2648*
X2189Y2679*
X2080Y3406D02*
X2112Y3443D01*
X2080D02*
X2112Y3406D01*
X2155D02*
X2130D01*
X2152Y3428*
X2155Y3434*
X2152Y3440*
X2146Y3443*
X2137*
X2130Y3440*
X2112Y3193D02*
X2150D01*
Y3171*
X2147Y3165*
X2140Y3162*
X2134Y3165*
X2131Y3171*
Y3193*
Y3171D02*
X2112Y3162D01*
X2115Y3143D02*
X2112Y3137D01*
Y3127*
X2115Y3121*
X2122Y3118*
X2125*
X2131Y3121*
X2134Y3127*
Y3143*
X2150*
Y3118*
X2131Y3084D02*
Y3077D01*
X2134Y3071*
X2140Y3068*
X2147Y3071*
X2150Y3077*
Y3084*
X2147Y3090*
X2140Y3093*
X2134Y3090*
X2131Y3084*
X2128Y3090*
X2122Y3093*
X2115Y3090*
X2112Y3084*
Y3077*
X2115Y3071*
X2122Y3068*
X2128Y3071*
X2131Y3077*
X2118Y523D02*
G75*
G03Y556J17D01*
G01*
G75*
G03Y523J-17*
G01*
G36*
G75*
G03Y556J17*
G01*
G75*
G03Y523J-17*
G01*
G37*
X2122Y462D02*
Y409D01*
X1999*
Y462*
X2122*
X2147Y2393D02*
Y2430D01*
X2168*
X2175Y2427*
X2178Y2421*
X2175Y2414*
X2168Y2411*
X2147*
X2168D02*
X2178Y2393D01*
X2222D02*
X2197D01*
X2218Y2414*
X2222Y2421*
X2218Y2427*
X2212Y2430*
X2203*
X2197Y2427*
X2247Y2402D02*
X2250Y2408D01*
X2256Y2411*
X2262*
X2268Y2408*
X2272Y2402*
X2268Y2396*
X2262Y2393*
X2256*
X2250Y2396*
X2247Y2402*
Y2411*
X2250Y2421*
X2256Y2427*
X2262Y2430*
X2147Y2507D02*
Y2545D01*
X2168*
X2175Y2542*
X2178Y2535*
X2175Y2529*
X2168Y2526*
X2147*
X2168D02*
X2178Y2507D01*
X2200Y2510D02*
X2206Y2507D01*
X2212*
X2218Y2510*
X2222Y2517*
X2218Y2523*
X2212Y2526*
X2206*
X2212D02*
X2218Y2529D01*
X2222Y2535*
X2218Y2542*
X2212Y2545*
X2206*
X2200Y2542*
X2247Y2510D02*
X2253Y2507D01*
X2262*
X2268Y2510*
X2272Y2517*
Y2520*
X2268Y2526*
X2262Y2529*
X2247*
Y2545*
X2272*
X2164Y2938D02*
X2111D01*
Y3061*
X2164*
Y2938*
X2181Y3467D02*
Y3520D01*
X2304*
Y3467*
X2181*
X2214Y3538D02*
X2211Y3535D01*
X2205Y3532*
X2195*
X2189Y3535*
X2186Y3538*
X2183Y3544*
Y3557*
X2186Y3563*
X2189Y3566*
X2195Y3569*
X2205*
X2211Y3566*
X2214Y3563*
X2236Y3535D02*
X2242Y3532D01*
X2248*
X2255Y3535*
X2258Y3541*
X2255Y3548*
X2248Y3551*
X2242*
X2248D02*
X2255Y3554D01*
X2258Y3560*
X2255Y3566*
X2248Y3569*
X2242*
X2236Y3566*
X2292Y3532D02*
X2298Y3535D01*
X2305Y3541*
X2308Y3551*
Y3560*
X2305Y3566*
X2298Y3569*
X2292*
X2286Y3566*
X2283Y3560*
X2286Y3554*
X2292Y3551*
X2298*
X2305Y3554*
X2308Y3560*
X2201Y3193D02*
X2238D01*
Y3171*
X2235Y3165*
X2229Y3162*
X2223Y3165*
X2220Y3171*
Y3193*
Y3171D02*
X2201Y3162D01*
X2210Y3143D02*
X2217Y3140D01*
X2220Y3134*
Y3127*
X2217Y3121*
X2210Y3118*
X2204Y3121*
X2201Y3127*
Y3134*
X2204Y3140*
X2210Y3143*
X2220*
X2229Y3140*
X2235Y3134*
X2238Y3127*
X2204Y3093D02*
X2201Y3087D01*
Y3077*
X2204Y3071*
X2210Y3068*
X2213*
X2220Y3071*
X2223Y3077*
Y3093*
X2238*
Y3068*
X2201Y2638D02*
Y2691D01*
X2324*
Y2638*
X2201*
X2244Y2938D02*
X2191D01*
Y3061*
X2244*
Y2938*
X2264Y354D02*
Y392D01*
X2286*
X2292Y389*
X2295Y383*
X2292Y376*
X2286Y373*
X2264*
X2286D02*
X2295Y354D01*
X2320D02*
X2333D01*
X2326D02*
Y392D01*
X2320Y386*
X2364Y358D02*
X2370Y354D01*
X2380*
X2386Y358*
X2389Y364*
Y367*
X2386Y373*
X2380Y376*
X2364*
Y392*
X2389*
X2265Y668D02*
Y721D01*
X2388*
Y668*
X2265*
X2266Y406D02*
Y459D01*
X2389*
Y406*
X2266*
X2303Y746D02*
X2300Y743D01*
X2293Y740*
X2284*
X2278Y743*
X2275Y746*
X2271Y753*
Y765*
X2275Y771*
X2278Y775*
X2284Y778*
X2293*
X2300Y775*
X2303Y771*
X2328Y740D02*
X2340D01*
X2334D02*
Y778D01*
X2328Y771*
X2378Y740D02*
X2390D01*
X2384D02*
Y778D01*
X2378Y771*
X2272Y2497D02*
Y2444D01*
X2149*
Y2497*
X2272*
X2274Y2606D02*
Y2553D01*
X2151*
Y2606*
X2274*
X2302Y1253D02*
G75*
G03X2302Y1295J21D01*
G01*
G75*
G03X2302Y1253I0J-21*
G01*
G36*
G75*
G03X2302Y1295J21*
G01*
G75*
G03X2302Y1253I0J-21*
G01*
G37*
X2310Y3235D02*
G75*
G03X2276I-17D01*
G01*
G75*
G03X2310I17*
G01*
G36*
G75*
G03X2276I-17*
G01*
G75*
G03X2310I17*
G01*
G37*
X2320Y860D02*
Y897D01*
X2342*
X2348Y894*
X2351Y888*
X2348Y882*
X2342Y879*
X2320*
X2342D02*
X2351Y860D01*
X2376D02*
X2389D01*
X2383D02*
Y897D01*
X2376Y891*
X2445Y860D02*
X2420D01*
X2442Y882*
X2445Y888*
X2442Y894*
X2436Y897*
X2426*
X2420Y894*
X2322Y910D02*
Y963D01*
X2445*
Y910*
X2322*
X2328Y3218D02*
X2172D01*
Y3446*
X2328*
Y3347*
X2313*
Y3317*
X2328*
Y3218*
X2346Y1111D02*
X2321D01*
X2354Y2383D02*
Y2420D01*
X2373*
X2379Y2417*
X2382Y2414*
X2385Y2408*
Y2395*
X2382Y2389*
X2379Y2386*
X2373Y2383*
X2354*
X2413Y2401D02*
X2419D01*
X2426Y2404*
X2429Y2411*
X2426Y2417*
X2419Y2420*
X2413*
X2407Y2417*
X2404Y2411*
X2407Y2404*
X2413Y2401*
X2407Y2398*
X2404Y2392*
X2407Y2386*
X2413Y2383*
X2419*
X2426Y2386*
X2429Y2392*
X2426Y2398*
X2419Y2401*
X2389Y1006D02*
Y1043D01*
X2407*
X2414Y1040*
X2417Y1037*
X2420Y1031*
Y1018*
X2417Y1012*
X2414Y1009*
X2407Y1006*
X2389*
X2445D02*
X2457D01*
X2451D02*
Y1043D01*
X2445Y1037*
X2410Y3231D02*
X2357D01*
Y3354*
X2410*
Y3231*
X2429Y3328D02*
X2426Y3331D01*
X2423Y3337*
Y3347*
X2426Y3353*
X2429Y3356*
X2436Y3359*
X2448*
X2454Y3356*
X2457Y3353*
X2461Y3347*
Y3337*
X2457Y3331*
X2454Y3328*
X2423Y3293D02*
X2461D01*
X2436Y3309*
Y3284*
X2426Y3256D02*
X2423Y3250D01*
Y3243*
X2426Y3237*
X2432Y3234*
X2451*
X2457Y3237*
X2461Y3243*
Y3250*
X2457Y3256*
X2451Y3259*
X2432*
X2426Y3256*
X2457Y3237*
X2421Y2861D02*
X2474D01*
Y2738*
X2421*
Y2861*
X2469Y2691D02*
Y2638D01*
X2346*
Y2691*
X2469*
X2473Y2615D02*
X2311D01*
Y2544*
X2473*
Y2615*
X2473Y2506D02*
X2312D01*
Y2435*
X2473*
Y2506*
X2526Y1554D02*
X2523Y1551D01*
X2517Y1548*
X2507*
X2501Y1551*
X2498Y1554*
X2495Y1560*
Y1573*
X2498Y1579*
X2501Y1582*
X2507Y1585*
X2517*
X2523Y1582*
X2526Y1579*
X2545Y1557D02*
X2548Y1563D01*
X2554Y1566*
X2560*
X2567Y1563*
X2570Y1557*
X2567Y1551*
X2560Y1548*
X2554*
X2548Y1551*
X2545Y1557*
Y1566*
X2548Y1576*
X2554Y1582*
X2560Y1585*
X2620Y1548D02*
X2595D01*
X2617Y1569*
X2620Y1576*
X2617Y1582*
X2610Y1585*
X2601*
X2595Y1582*
X2496Y1161D02*
Y1061D01*
X2346*
Y1161*
X2496*
X2521Y1111D02*
X2496D01*
X2544Y2835D02*
X2541Y2838D01*
X2538Y2844*
Y2854*
X2541Y2860*
X2544Y2863*
X2550Y2866*
X2563*
X2569Y2863*
X2572Y2860*
X2575Y2854*
Y2844*
X2572Y2838*
X2569Y2835*
X2538Y2816D02*
X2575Y2791D01*
Y2816*
X2541Y2766D02*
X2538Y2760D01*
Y2751*
X2541Y2744*
X2547Y2741*
X2550*
X2557Y2744*
X2560Y2751*
Y2766*
X2575*
Y2741*
X2535Y2642D02*
Y2680D01*
X2557*
X2563Y2677*
X2566Y2670*
X2563Y2664*
X2557Y2661*
X2535*
X2557D02*
X2566Y2642D01*
X2585Y2652D02*
X2588Y2658D01*
X2594Y2661*
X2600*
X2607Y2658*
X2610Y2652*
X2607Y2645*
X2600Y2642*
X2594*
X2588Y2645*
X2585Y2652*
Y2661*
X2588Y2670*
X2594Y2677*
X2600Y2680*
X2635Y2642D02*
X2660Y2680D01*
X2635*
X2541Y2557D02*
Y2595D01*
X2560*
X2566Y2592*
X2569Y2589*
X2572Y2582*
Y2570*
X2569Y2564*
X2566Y2560*
X2560Y2557*
X2541*
X2600D02*
X2607Y2560D01*
X2613Y2567*
X2616Y2576*
Y2585*
X2613Y2592*
X2607Y2595*
X2600*
X2594Y2592*
X2591Y2585*
X2594Y2579*
X2600Y2576*
X2607*
X2613Y2579*
X2616Y2585*
X2599Y913D02*
X2546D01*
Y1036*
X2599*
Y913*
X2616Y1537D02*
Y1484D01*
X2493*
Y1537*
X2616*
X2617Y1808D02*
X2753D01*
Y1595*
X2617*
Y1697*
X2622*
Y1707*
X2617*
Y1808*
X2637Y979D02*
X2634Y982D01*
X2631Y988*
Y998*
X2634Y1004*
X2637Y1007*
X2643Y1010*
X2656*
X2662Y1007*
X2665Y1004*
X2668Y998*
Y988*
X2665Y982*
X2662Y979*
X2631Y960D02*
X2668Y935D01*
Y960*
X2673Y2872D02*
X2635D01*
Y2841*
Y2822D02*
X2673D01*
Y2791*
X2654Y2797D02*
Y2822D01*
X2635D02*
Y2791D01*
Y2772D02*
X2673D01*
Y2754*
X2670Y2747*
X2666Y2744*
X2660Y2741*
X2648*
X2641Y2744*
X2638Y2747*
X2635Y2754*
Y2772*
Y2716D02*
Y2704D01*
Y2710D02*
X2673D01*
X2666Y2716*
X2628Y1984D02*
Y1947D01*
X2660*
X2685D02*
X2697D01*
X2691D02*
Y1984D01*
X2685Y1978*
X2735Y1947D02*
X2747D01*
X2741D02*
Y1984D01*
X2735Y1978*
X2629Y1858D02*
Y1830D01*
X2632Y1823*
X2638Y1820*
X2651*
X2657Y1823*
X2660Y1830*
Y1858*
X2685Y1820D02*
X2697D01*
X2691D02*
Y1858D01*
X2685Y1852*
X2735Y1820D02*
X2747D01*
X2741D02*
Y1858D01*
X2735Y1852*
X2640Y1603D02*
G75*
G03X2655I8D01*
G01*
G75*
G03X2640I-8*
G01*
G36*
G75*
G03X2655I8*
G01*
G75*
G03X2640I-8*
G01*
G37*
X2677Y3191D02*
X2674Y3194D01*
X2671Y3201*
Y3210*
X2674Y3216*
X2677Y3219*
X2683Y3223*
X2696*
X2702Y3219*
X2705Y3216*
X2708Y3210*
Y3201*
X2705Y3194*
X2702Y3191*
X2680Y3173D02*
X2686Y3169D01*
X2689Y3163*
Y3157*
X2686Y3151*
X2680Y3148*
X2674Y3151*
X2671Y3157*
Y3163*
X2674Y3169*
X2680Y3173*
X2689*
X2699Y3169*
X2705Y3163*
X2708Y3157*
X2671Y3123D02*
X2708Y3098D01*
Y3123*
X2688Y2862D02*
Y2700D01*
X2759*
Y2862*
X2688*
X2746Y1932D02*
Y1879D01*
X2623*
Y1932*
X2746*
X2780Y2942D02*
X2818D01*
Y2920*
X2814Y2914*
X2808Y2911*
X2802Y2914*
X2799Y2920*
Y2942*
Y2920D02*
X2780Y2911D01*
X2799Y2883D02*
Y2877D01*
X2802Y2870*
X2808Y2867*
X2814Y2870*
X2818Y2877*
Y2883*
X2814Y2889*
X2808Y2892*
X2802Y2889*
X2799Y2883*
X2796Y2889*
X2789Y2892*
X2783Y2889*
X2780Y2883*
Y2877*
X2783Y2870*
X2789Y2867*
X2796Y2870*
X2799Y2877*
X2786Y3104D02*
X2733D01*
Y3227*
X2786*
Y3104*
X2789Y2855D02*
X2842D01*
Y2732*
X2789*
Y2855*
X2793Y625D02*
Y663D01*
X2815*
X2821Y660*
X2824Y653*
X2821Y647*
X2815Y644*
X2793*
X2815D02*
X2824Y625D01*
X2859D02*
Y663D01*
X2843Y638*
X2868*
X2896Y628D02*
X2902Y625D01*
X2909*
X2915Y628*
X2918Y635*
Y653*
X2915Y660*
X2909Y663*
X2902*
X2896Y660*
X2893Y653*
Y635*
X2896Y628*
X2915Y660*
X2802Y2466D02*
X2749D01*
Y2589*
X2802*
Y2466*
X2812Y1027D02*
X2850D01*
Y1005*
X2847Y998*
X2841Y995*
X2834Y998*
X2831Y1005*
Y1027*
Y1005D02*
X2812Y995D01*
X2816Y973D02*
X2812Y967D01*
Y961*
X2816Y955*
X2822Y952*
X2828Y955*
X2831Y961*
Y967*
Y961D02*
X2834Y955D01*
X2841Y952*
X2847Y955*
X2850Y961*
Y967*
X2847Y973*
X2812Y917D02*
X2816Y911D01*
X2822Y905*
X2831Y902*
X2841*
X2847Y905*
X2850Y911*
Y917*
X2847Y923*
X2841Y927*
X2834Y923*
X2831Y917*
Y911*
X2834Y905*
X2841Y902*
X2835Y1704D02*
X2832Y1700D01*
X2826Y1697*
X2816*
X2810Y1700*
X2807Y1704*
X2804Y1710*
Y1722*
X2807Y1729*
X2810Y1732*
X2816Y1735*
X2826*
X2832Y1732*
X2835Y1729*
X2854Y1697D02*
X2879Y1735D01*
X2854*
X2904Y1697D02*
X2929Y1735D01*
X2904*
X2808Y1590D02*
Y1628D01*
X2830*
X2836Y1624*
X2839Y1618*
X2836Y1612*
X2830Y1609*
X2808*
X2830D02*
X2839Y1590D01*
X2858Y1599D02*
X2861Y1606D01*
X2867Y1609*
X2874*
X2880Y1606*
X2883Y1599*
X2880Y1593*
X2874Y1590*
X2867*
X2861Y1593*
X2858Y1599*
Y1609*
X2861Y1618*
X2867Y1624*
X2874Y1628*
X2911Y1593D02*
X2917Y1590D01*
X2924*
X2930Y1593*
X2933Y1599*
X2930Y1606*
X2924Y1609*
X2917*
X2924D02*
X2930Y1612D01*
X2933Y1618*
X2930Y1624*
X2924Y1628*
X2917*
X2911Y1624*
X2814Y3097D02*
Y3258D01*
X3066*
Y3097*
X2955*
Y3111*
X2925*
Y3097*
X2814*
X2814Y1951D02*
Y1988D01*
X2836*
X2842Y1985*
X2846Y1979*
X2842Y1973*
X2836Y1969*
X2814*
X2836D02*
X2846Y1951D01*
X2864Y1960D02*
X2867Y1966D01*
X2874Y1969*
X2880*
X2886Y1966*
X2889Y1960*
X2886Y1954*
X2880Y1951*
X2874*
X2867Y1954*
X2864Y1960*
Y1969*
X2867Y1979*
X2874Y1985*
X2880Y1988*
X2939Y1951D02*
X2914D01*
X2936Y1973*
X2939Y1979*
X2936Y1985*
X2930Y1988*
X2921*
X2914Y1985*
X2821Y3271D02*
X2852Y3309D01*
X2821D02*
X2852Y3271D01*
X2874Y3274D02*
X2880Y3271D01*
X2886*
X2892Y3274*
X2896Y3281*
X2892Y3287*
X2886Y3290*
X2880*
X2886D02*
X2892Y3293D01*
X2896Y3299*
X2892Y3306*
X2886Y3309*
X2880*
X2874Y3306*
X2831Y3114D02*
G75*
G03Y3147J17D01*
G01*
G75*
G03Y3114J-17*
G01*
G36*
G75*
G03Y3147J17*
G01*
G75*
G03Y3114J-17*
G01*
G37*
X2857Y2932D02*
X2895D01*
Y2910*
X2892Y2904*
X2886Y2901*
X2879Y2904*
X2876Y2910*
Y2932*
Y2910D02*
X2857Y2901D01*
X2861Y2882D02*
X2857Y2876D01*
Y2867*
X2861Y2860*
X2867Y2857*
X2870*
X2876Y2860*
X2879Y2867*
Y2882*
X2895*
Y2857*
X2857Y2832D02*
X2895Y2807D01*
Y2832*
X2857Y764D02*
X2804D01*
Y887*
X2857*
Y764*
X2860Y1743D02*
X2807D01*
Y1866*
X2860*
Y1743*
X2893Y436D02*
X2890Y432D01*
X2884Y429*
X2874*
X2868Y432*
X2865Y436*
X2862Y442*
Y454*
X2865Y461*
X2868Y464*
X2874Y467*
X2884*
X2890Y464*
X2893Y461*
X2912Y432D02*
X2918Y429D01*
X2927*
X2934Y432*
X2937Y439*
Y442*
X2934Y448*
X2927Y451*
X2912*
Y467*
X2937*
X2971Y429D02*
X2977Y432D01*
X2984Y439*
X2987Y448*
Y457*
X2984Y464*
X2977Y467*
X2971*
X2965Y464*
X2962Y457*
X2965Y451*
X2971Y448*
X2977*
X2984Y451*
X2987Y457*
X2869Y2799D02*
X2922D01*
Y2676*
X2869*
Y2799*
X2933Y2905D02*
X2930Y2902D01*
X2924Y2899*
X2914*
X2908Y2902*
X2905Y2905*
X2902Y2912*
Y2924*
X2905Y2930*
X2908Y2934*
X2914Y2937*
X2924*
X2930Y2934*
X2933Y2930*
X2961Y2918D02*
X2967D01*
X2974Y2921*
X2977Y2927*
X2974Y2934*
X2967Y2937*
X2961*
X2955Y2934*
X2952Y2927*
X2955Y2921*
X2961Y2918*
X2955Y2915*
X2952Y2909*
X2955Y2902*
X2961Y2899*
X2967*
X2974Y2902*
X2977Y2909*
X2974Y2915*
X2967Y2918*
X3011D02*
X3017D01*
X3024Y2921*
X3027Y2927*
X3024Y2934*
X3017Y2937*
X3011*
X3005Y2934*
X3002Y2927*
X3005Y2921*
X3011Y2918*
X3005Y2915*
X3002Y2909*
X3005Y2902*
X3011Y2899*
X3017*
X3024Y2902*
X3027Y2909*
X3024Y2915*
X3017Y2918*
X2901Y1778D02*
X2904Y1775D01*
X2907Y1769*
Y1759*
X2904Y1753*
X2901Y1750*
X2895Y1747*
X2882*
X2876Y1750*
X2873Y1753*
X2870Y1759*
Y1769*
X2873Y1775*
X2876Y1778*
X2898Y1797D02*
X2892Y1800D01*
X2889Y1806*
Y1812*
X2892Y1819*
X2898Y1822*
X2904Y1819*
X2907Y1812*
Y1806*
X2904Y1800*
X2898Y1797*
X2889*
X2879Y1800*
X2873Y1806*
X2870Y1812*
X2904Y1850D02*
X2907Y1856D01*
Y1862*
X2904Y1869*
X2898Y1872*
X2892Y1869*
X2889Y1862*
Y1856*
Y1862D02*
X2885Y1869D01*
X2879Y1872*
X2873Y1869*
X2870Y1862*
Y1856*
X2873Y1850*
X2921Y609D02*
Y556D01*
X2798*
Y609*
X2921*
X2957Y3378D02*
X2954Y3375D01*
X2947Y3372*
X2938*
X2932Y3375*
X2929Y3378*
X2926Y3384*
Y3397*
X2929Y3403*
X2932Y3406*
X2938Y3409*
X2947*
X2954Y3406*
X2957Y3403*
X2976Y3381D02*
X2979Y3387D01*
X2985Y3390*
X2991*
X2997Y3387*
X3001Y3381*
X2997Y3375*
X2991Y3372*
X2985*
X2979Y3375*
X2976Y3381*
Y3390*
X2979Y3400*
X2985Y3406*
X2991Y3409*
X3026Y3381D02*
X3029Y3387D01*
X3035Y3390*
X3041*
X3047Y3387*
X3051Y3381*
X3047Y3375*
X3041Y3372*
X3035*
X3029Y3375*
X3026Y3381*
Y3390*
X3029Y3400*
X3035Y3406*
X3041Y3409*
X2928Y1583D02*
Y1530D01*
X2805*
Y1583*
X2928*
Y1691D02*
Y1638D01*
X2805*
Y1691*
X2928*
X2929Y1933D02*
Y1880D01*
X2806*
Y1933*
X2929*
X2950Y2818D02*
Y2656D01*
X3021*
Y2818*
X2950*
X2966Y1519D02*
Y1556D01*
X2988*
X2994Y1553*
X2997Y1547*
X2994Y1541*
X2988Y1538*
X2966*
X2988D02*
X2997Y1519D01*
X3041D02*
X3016D01*
X3038Y1541*
X3041Y1547*
X3038Y1553*
X3032Y1556*
X3022*
X3016Y1553*
X3069Y1522D02*
X3075Y1519D01*
X3082*
X3088Y1522*
X3091Y1528*
X3088Y1535*
X3082Y1538*
X3075*
X3082D02*
X3088Y1541D01*
X3091Y1547*
X3088Y1553*
X3082Y1556*
X3075*
X3069Y1553*
X2970Y1650D02*
Y1687D01*
X2992*
X2998Y1684*
X3001Y1678*
X2998Y1672*
X2992Y1669*
X2970*
X2992D02*
X3001Y1650D01*
X3045D02*
X3020D01*
X3042Y1672*
X3045Y1678*
X3042Y1684*
X3036Y1687*
X3026*
X3020Y1684*
X3095Y1650D02*
X3070D01*
X3092Y1672*
X3095Y1678*
X3092Y1684*
X3086Y1687*
X3076*
X3070Y1684*
X2970Y1715D02*
Y1752D01*
X2992*
X2998Y1749*
X3001Y1743*
X2998Y1737*
X2992Y1734*
X2970*
X2992D02*
X3001Y1715D01*
X3026D02*
X3039D01*
X3032D02*
Y1752D01*
X3026Y1746*
X3073Y1718D02*
X3079Y1715D01*
X3086*
X3092Y1718*
X3095Y1724*
X3092Y1730*
X3086Y1734*
X3079*
X3086D02*
X3092Y1737D01*
X3095Y1743*
X3092Y1749*
X3086Y1752*
X3079*
X3073Y1749*
X2989Y533D02*
Y480D01*
X2866*
Y533*
X2989*
X3010Y1455D02*
Y1493D01*
X3032*
X3038Y1490*
X3042Y1483*
X3038Y1477*
X3032Y1474*
X3010*
X3032D02*
X3042Y1455D01*
X3076D02*
Y1493D01*
X3060Y1468*
X3085*
X3014Y1583D02*
Y1620D01*
X3036*
X3042Y1617*
X3046Y1611*
X3042Y1605*
X3036Y1602*
X3014*
X3036D02*
X3046Y1583D01*
X3067Y1586D02*
X3074Y1583D01*
X3080*
X3086Y1586*
X3089Y1592*
X3086Y1599*
X3080Y1602*
X3074*
X3080D02*
X3086Y1605D01*
X3089Y1611*
X3086Y1617*
X3080Y1620*
X3074*
X3067Y1617*
X3017Y1778D02*
Y1815D01*
X3039*
X3045Y1812*
X3048Y1806*
X3045Y1800*
X3039Y1797*
X3017*
X3039D02*
X3048Y1778D01*
X3067Y1787D02*
X3070Y1793D01*
X3077Y1797*
X3083*
X3089Y1793*
X3092Y1787*
X3089Y1781*
X3083Y1778*
X3077*
X3070Y1781*
X3067Y1787*
Y1797*
X3070Y1806*
X3077Y1812*
X3083Y1815*
X3018Y1845D02*
Y1882D01*
X3040*
X3046Y1879*
X3049Y1873*
X3046Y1867*
X3040Y1864*
X3018*
X3040D02*
X3049Y1845D01*
X3068D02*
X3093Y1882D01*
X3068*
X3085Y2812D02*
X3047D01*
Y2781*
Y2762D02*
X3085D01*
Y2731*
X3066Y2737D02*
Y2762D01*
X3047D02*
Y2731D01*
Y2712D02*
X3085D01*
Y2694*
X3081Y2687*
X3078Y2684*
X3072Y2681*
X3060*
X3053Y2684*
X3050Y2687*
X3047Y2694*
Y2712*
Y2637D02*
Y2662D01*
X3069Y2641*
X3075Y2637*
X3081Y2641*
X3085Y2647*
Y2656*
X3081Y2662*
X3039Y3024D02*
X3092D01*
Y2901*
X3039*
Y3024*
X3048Y3353D02*
Y3300D01*
X2925*
Y3353*
X3048*
X3057Y2889D02*
Y2836D01*
X2934*
Y2889*
X3057*
X3106Y2991D02*
X3103Y2994D01*
X3100Y3000*
Y3010*
X3103Y3016*
X3106Y3019*
X3112Y3022*
X3125*
X3131Y3019*
X3134Y3016*
X3137Y3010*
Y3000*
X3134Y2994*
X3131Y2991*
X3118Y2963D02*
Y2957D01*
X3121Y2950*
X3128Y2947*
X3134Y2950*
X3137Y2957*
Y2963*
X3134Y2969*
X3128Y2972*
X3121Y2969*
X3118Y2963*
X3115Y2969*
X3109Y2972*
X3103Y2969*
X3100Y2963*
Y2957*
X3103Y2950*
X3109Y2947*
X3115Y2950*
X3118Y2957*
X3100Y2897D02*
Y2922D01*
X3121Y2900*
X3128Y2897*
X3134Y2900*
X3137Y2907*
Y2916*
X3134Y2922*
X3101Y673D02*
Y635D01*
X3133*
X3161D02*
X3167Y638D01*
X3173Y645*
X3176Y654*
Y663*
X3173Y670*
X3167Y673*
X3161*
X3154Y670*
X3151Y663*
X3154Y657*
X3161Y654*
X3167*
X3173Y657*
X3176Y663*
X3105Y1770D02*
Y1823D01*
X3228*
Y1770*
X3105*
X3106Y1444D02*
Y1497D01*
X3229*
Y1444*
X3106*
Y1705D02*
Y1758D01*
X3229*
Y1705*
X3106*
Y1836D02*
Y1889D01*
X3229*
Y1836*
X3106*
X3107Y1640D02*
Y1693D01*
X3230*
Y1640*
X3107*
X3178Y739D02*
X3174Y736D01*
X3168Y733*
X3159*
X3153Y736*
X3149Y739*
X3146Y745*
Y758*
X3149Y764*
X3153Y767*
X3159Y770*
X3168*
X3174Y767*
X3178Y764*
X3212Y733D02*
Y770D01*
X3196Y745*
X3221*
X3271Y733D02*
X3246D01*
X3268Y755*
X3271Y761*
X3268Y767*
X3262Y770*
X3253*
X3246Y767*
X3186Y588D02*
X3406D01*
Y708*
X3186*
Y588*
X3226Y2612D02*
X3223Y2609D01*
X3217Y2606*
X3207*
X3201Y2609*
X3198Y2612*
X3195Y2618*
Y2631*
X3198Y2637*
X3201Y2640*
X3207Y2643*
X3217*
X3223Y2640*
X3226Y2637*
X3254Y2625D02*
X3261D01*
X3267Y2628*
X3270Y2634*
X3267Y2640*
X3261Y2643*
X3254*
X3248Y2640*
X3245Y2634*
X3248Y2628*
X3254Y2625*
X3248Y2622*
X3245Y2615*
X3248Y2609*
X3254Y2606*
X3261*
X3267Y2609*
X3270Y2615*
X3267Y2622*
X3261Y2625*
X3298Y2609D02*
X3304Y2606D01*
X3311*
X3317Y2609*
X3320Y2615*
X3317Y2622*
X3311Y2625*
X3304*
X3311D02*
X3317Y2628D01*
X3320Y2634*
X3317Y2640*
X3311Y2643*
X3304*
X3298Y2640*
X3198Y2545D02*
Y2598D01*
X3321*
Y2545*
X3198*
X3226Y1628D02*
Y1575D01*
X3103*
Y1628*
X3226*
X3227Y1564D02*
Y1511D01*
X3104*
Y1564*
X3227*
X3272Y3412D02*
X3269Y3409D01*
X3263Y3406*
X3254*
X3247Y3409*
X3244Y3412*
X3241Y3418*
Y3431*
X3244Y3437*
X3247Y3440*
X3254Y3443*
X3263*
X3269Y3440*
X3272Y3437*
X3301Y3425D02*
X3307D01*
X3313Y3428*
X3316Y3434*
X3313Y3440*
X3307Y3443*
X3301*
X3294Y3440*
X3291Y3434*
X3294Y3428*
X3301Y3425*
X3294Y3422*
X3291Y3415*
X3294Y3409*
X3301Y3406*
X3307*
X3313Y3409*
X3316Y3415*
X3313Y3422*
X3307Y3425*
X3347Y3406D02*
X3360D01*
X3354D02*
Y3443D01*
X3347Y3437*
X3257Y437D02*
Y399D01*
X3289*
X3317Y418D02*
X3323D01*
X3329Y421*
X3332Y428*
X3329Y434*
X3323Y437*
X3317*
X3310Y434*
X3307Y428*
X3310Y421*
X3317Y418*
X3310Y415*
X3307Y409*
X3310Y403*
X3317Y399*
X3323*
X3329Y403*
X3332Y409*
X3329Y415*
X3323Y418*
X3306Y951D02*
X3303Y948D01*
X3297Y945*
X3287*
X3281Y948*
X3278Y951*
X3275Y957*
Y970*
X3278Y976*
X3281Y979*
X3287Y982*
X3297*
X3303Y979*
X3306Y976*
X3325Y948D02*
X3331Y945D01*
X3340*
X3347Y948*
X3350Y954*
Y957*
X3347Y964*
X3340Y967*
X3325*
Y982*
X3350*
X3378Y948D02*
X3384Y945D01*
X3390*
X3397Y948*
X3400Y954*
Y973*
X3397Y979*
X3390Y982*
X3384*
X3378Y979*
X3375Y973*
Y954*
X3378Y948*
X3397Y979*
X3277Y993D02*
Y1046D01*
X3400*
Y993*
X3277*
X3278Y797D02*
Y850D01*
X3401*
Y797*
X3278*
X3278Y725D02*
Y778D01*
X3401*
Y725*
X3278*
X3284Y860D02*
Y897D01*
X3305*
X3312Y894*
X3315Y888*
X3312Y882*
X3305Y879*
X3284*
X3305D02*
X3315Y860D01*
X3349D02*
Y897D01*
X3334Y872*
X3359*
X3390Y860D02*
X3402D01*
X3396D02*
Y897D01*
X3390Y891*
X3284Y1055D02*
Y1093D01*
X3306*
X3312Y1090*
X3315Y1083*
X3312Y1077*
X3306Y1074*
X3284*
X3306D02*
X3315Y1055D01*
X3334Y1058D02*
X3340Y1055D01*
X3349*
X3356Y1058*
X3359Y1065*
Y1068*
X3356Y1074*
X3349Y1077*
X3334*
Y1093*
X3359*
X3409Y1055D02*
X3384D01*
X3406Y1077*
X3409Y1083*
X3406Y1090*
X3399Y1093*
X3390*
X3384Y1090*
X3295Y1394D02*
Y1432D01*
X3317*
X3323Y1428*
X3326Y1422*
X3323Y1416*
X3317Y1413*
X3295*
X3317D02*
X3326Y1394D01*
X3345Y1397D02*
X3351Y1394D01*
X3360*
X3367Y1397*
X3370Y1403*
Y1407*
X3367Y1413*
X3360Y1416*
X3345*
Y1432*
X3370*
X3401Y1394D02*
X3414D01*
X3407D02*
Y1432D01*
X3401Y1425*
X3333Y1546D02*
X3329D01*
X3322Y1548*
X3315Y1555*
X3313Y1561*
Y1566*
X3315Y1572*
X3324Y1581*
X3331Y1583*
X3335*
X3342Y1581*
X3348Y1575*
X3351Y1568*
Y1564*
X3344Y1530D02*
X3346Y1524D01*
X3353Y1517*
X3359Y1515*
X3366Y1517*
X3368Y1519*
X3371Y1526*
X3368Y1533*
X3357Y1544*
X3368Y1555*
X3386Y1537*
X3397Y1499D02*
X3401Y1495D01*
X3408Y1493*
X3415Y1495*
X3417Y1502*
X3415Y1508*
X3410Y1513*
X3404Y1515*
X3397Y1513*
X3395Y1506*
X3397Y1499*
X3390Y1502*
X3384Y1499*
X3382Y1493*
X3384Y1486*
X3388Y1482*
X3395Y1480*
X3401Y1482*
X3404Y1488*
X3401Y1495*
X3347Y2453D02*
X3344Y2456D01*
X3340Y2462*
Y2472*
X3344Y2478*
X3347Y2481*
X3353Y2484*
X3365*
X3372Y2481*
X3375Y2478*
X3378Y2472*
Y2462*
X3375Y2456*
X3372Y2453*
X3359Y2425D02*
Y2419D01*
X3362Y2412*
X3369Y2409*
X3375Y2412*
X3378Y2419*
Y2425*
X3375Y2431*
X3369Y2434*
X3362Y2431*
X3359Y2425*
X3356Y2431*
X3350Y2434*
X3344Y2431*
X3340Y2425*
Y2419*
X3344Y2412*
X3350Y2409*
X3356Y2412*
X3359Y2419*
X3340Y2384D02*
X3378Y2359D01*
Y2384*
X3334Y2614D02*
X3387D01*
Y2491*
X3334*
Y2614*
X3368Y1899D02*
Y1895D01*
X3366Y1888*
X3359Y1882*
X3353Y1879*
X3348*
X3342Y1882*
X3333Y1890*
X3331Y1897*
Y1901*
X3333Y1908*
X3339Y1915*
X3346Y1917*
X3350*
X3384Y1910D02*
X3390Y1913D01*
X3397Y1919*
X3399Y1926*
X3397Y1932*
X3395Y1935*
X3388Y1937*
X3381Y1935*
X3370Y1924*
X3359Y1935*
X3377Y1952*
X3419Y1946D02*
X3426Y1948D01*
X3432Y1954*
X3434Y1961*
X3432Y1968*
X3430Y1970*
X3423Y1972*
X3417Y1970*
X3406Y1959*
X3395Y1970*
X3412Y1988*
X3370Y3352D02*
Y3299D01*
X3247*
Y3352*
X3370*
X3415Y2444D02*
X3412Y2447D01*
X3409Y2454*
Y2463*
X3412Y2469*
X3415Y2472*
X3422Y2476*
X3434*
X3440Y2472*
X3443Y2469*
X3447Y2463*
Y2454*
X3443Y2447*
X3440Y2444*
X3428Y2416D02*
Y2410D01*
X3431Y2404*
X3437Y2401*
X3443Y2404*
X3447Y2410*
Y2416*
X3443Y2422*
X3437Y2426*
X3431Y2422*
X3428Y2416*
X3425Y2422*
X3418Y2426*
X3412Y2422*
X3409Y2416*
Y2410*
X3412Y2404*
X3418Y2401*
X3425Y2404*
X3428Y2410*
X3418Y2376D02*
X3425Y2372D01*
X3428Y2366*
Y2360*
X3425Y2354*
X3418Y2351*
X3412Y2354*
X3409Y2360*
Y2366*
X3412Y2372*
X3418Y2376*
X3428*
X3437Y2372*
X3443Y2366*
X3447Y2360*
X3401Y1154D02*
Y1101D01*
X3278*
Y1154*
X3401*
X3405Y1187D02*
X3352D01*
Y1310*
X3405*
Y1187*
X3423Y1275D02*
X3420Y1278D01*
X3417Y1284*
Y1294*
X3420Y1300*
X3423Y1303*
X3429Y1306*
X3442*
X3448Y1303*
X3451Y1300*
X3454Y1294*
Y1284*
X3451Y1278*
X3448Y1275*
X3417Y1240D02*
X3454D01*
X3429Y1256*
Y1231*
X3417Y1197D02*
X3420Y1190D01*
X3426Y1184*
X3435Y1181*
X3445*
X3451Y1184*
X3454Y1190*
Y1197*
X3451Y1203*
X3445Y1206*
X3438Y1203*
X3435Y1197*
Y1190*
X3438Y1184*
X3445Y1181*
X3409Y2614D02*
X3462D01*
Y2491*
X3409*
Y2614*
X3409Y570D02*
X3189D01*
Y450*
X3409*
Y570*
X3409Y1383D02*
Y1330D01*
X3286*
Y1383*
X3409*
X3434Y3366D02*
Y3419D01*
X3557*
Y3366*
X3434*
X3449Y1950D02*
X3487Y1912D01*
X3400Y1825*
X3362Y1863*
X3449Y1950*
X3495Y676D02*
X3491Y673D01*
X3485Y670*
X3476*
X3470Y673*
X3466Y676*
X3463Y683*
Y695*
X3466Y701*
X3470Y705*
X3476Y708*
X3485*
X3491Y705*
X3495Y701*
X3529Y670D02*
Y708D01*
X3513Y683*
X3538*
X3566Y673D02*
X3573Y670D01*
X3579*
X3585Y673*
X3588Y680*
X3585Y686*
X3579Y689*
X3573*
X3579D02*
X3585Y692D01*
X3588Y698*
X3585Y705*
X3579Y708*
X3573*
X3566Y705*
X3506Y2479D02*
X3503Y2476D01*
X3496Y2472*
X3487*
X3481Y2476*
X3478Y2479*
X3475Y2485*
Y2497*
X3478Y2504*
X3481Y2507*
X3487Y2510*
X3496*
X3503Y2507*
X3506Y2504*
X3534Y2491D02*
X3540D01*
X3546Y2494*
X3550Y2501*
X3546Y2507*
X3540Y2510*
X3534*
X3528Y2507*
X3525Y2501*
X3528Y2494*
X3534Y2491*
X3528Y2488*
X3525Y2482*
X3528Y2476*
X3534Y2472*
X3540*
X3546Y2476*
X3550Y2482*
X3546Y2488*
X3540Y2491*
X3590Y2472D02*
Y2510D01*
X3575Y2485*
X3600*
X3520Y3254D02*
X3516Y3251D01*
X3510Y3247*
X3501*
X3495Y3251*
X3491Y3254*
X3488Y3260*
Y3272*
X3491Y3279*
X3495Y3282*
X3501Y3285*
X3510*
X3516Y3282*
X3520Y3279*
X3548Y3266D02*
X3554D01*
X3560Y3269*
X3563Y3276*
X3560Y3282*
X3554Y3285*
X3548*
X3541Y3282*
X3538Y3276*
X3541Y3269*
X3548Y3266*
X3541Y3263*
X3538Y3257*
X3541Y3251*
X3548Y3247*
X3554*
X3560Y3251*
X3563Y3257*
X3560Y3263*
X3554Y3266*
X3598Y3247D02*
X3604Y3251D01*
X3610Y3257*
X3613Y3266*
Y3276*
X3610Y3282*
X3604Y3285*
X3598*
X3591Y3282*
X3588Y3276*
X3591Y3269*
X3598Y3266*
X3604*
X3610Y3269*
X3613Y3276*
X3489Y3295D02*
Y3348D01*
X3612*
Y3295*
X3489*
X3521Y3438D02*
X3518Y3435D01*
X3511Y3432*
X3502*
X3496Y3435*
X3493Y3438*
X3490Y3445*
Y3457*
X3493Y3463*
X3496Y3467*
X3502Y3470*
X3511*
X3518Y3467*
X3521Y3463*
X3546Y3432D02*
X3558D01*
X3552D02*
Y3470D01*
X3546Y3463*
X3511Y1304D02*
X3508Y1307D01*
X3505Y1313*
Y1322*
X3508Y1329*
X3511Y1332*
X3518Y1335*
X3530*
X3536Y1332*
X3539Y1329*
X3543Y1322*
Y1313*
X3539Y1307*
X3536Y1304*
X3505Y1269D02*
X3543D01*
X3518Y1285*
Y1260*
X3514Y1235D02*
X3521Y1232D01*
X3524Y1225*
Y1219*
X3521Y1213*
X3514Y1210*
X3508Y1213*
X3505Y1219*
Y1225*
X3508Y1232*
X3514Y1235*
X3524*
X3533Y1232*
X3539Y1225*
X3543Y1219*
X3501Y1511D02*
X3463Y1474D01*
X3376Y1560*
X3414Y1598*
X3501Y1511*
X3548Y2186D02*
X3585D01*
Y2164*
X3582Y2158*
X3576Y2155*
X3569Y2158*
X3566Y2164*
Y2186*
Y2164D02*
X3548Y2155D01*
X3551Y2136D02*
X3548Y2130D01*
Y2120*
X3551Y2114*
X3557Y2111*
X3560*
X3566Y2114*
X3569Y2120*
Y2136*
X3585*
Y2111*
X3551Y2083D02*
X3548Y2077D01*
Y2070*
X3551Y2064*
X3557Y2061*
X3576*
X3582Y2064*
X3585Y2070*
Y2077*
X3582Y2083*
X3576Y2086*
X3557*
X3551Y2083*
X3582Y2064*
X3550Y1081D02*
X3497D01*
Y1204*
X3550*
Y1081*
X3578Y1306D02*
X3574Y1309D01*
X3571Y1315*
Y1325*
X3574Y1331*
X3578Y1334*
X3584Y1337*
X3596*
X3603Y1334*
X3606Y1331*
X3609Y1325*
Y1315*
X3606Y1309*
X3603Y1306*
X3571Y1272D02*
X3609D01*
X3584Y1287*
Y1262*
X3574Y1237D02*
X3571Y1231D01*
Y1222*
X3574Y1215*
X3581Y1212*
X3584*
X3590Y1215*
X3593Y1222*
Y1237*
X3609*
Y1212*
X3588Y660D02*
Y607D01*
X3465*
Y660*
X3588*
X3597Y2614D02*
Y2561D01*
X3474*
Y2614*
X3597*
X3610Y1931D02*
X3557D01*
Y2054*
X3610*
Y1931*
X3634Y2155D02*
X3631Y2158D01*
X3627Y2164*
Y2173*
X3631Y2180*
X3634Y2183*
X3640Y2186*
X3652*
X3659Y2183*
X3662Y2180*
X3665Y2173*
Y2164*
X3662Y2158*
X3659Y2155*
X3627Y2127D02*
X3631Y2120D01*
X3637Y2114*
X3646Y2111*
X3656*
X3662Y2114*
X3665Y2120*
Y2127*
X3662Y2133*
X3656Y2136*
X3649Y2133*
X3646Y2127*
Y2120*
X3649Y2114*
X3656Y2111*
X3631Y2083D02*
X3627Y2077D01*
Y2070*
X3631Y2064*
X3637Y2061*
X3643Y2064*
X3646Y2070*
Y2077*
Y2070D02*
X3649Y2064D01*
X3656Y2061*
X3662Y2064*
X3665Y2070*
Y2077*
X3662Y2083*
X3619Y1080D02*
X3566D01*
Y1203*
X3619*
Y1080*
X3621Y2053D02*
X3674D01*
Y1930*
X3621*
Y2053*
X3634Y2609D02*
X3671D01*
Y2587*
X3668Y2581*
X3662Y2578*
X3656Y2581*
X3652Y2587*
Y2609*
Y2587D02*
X3634Y2578D01*
X3643Y2559D02*
X3649Y2556D01*
X3652Y2550*
Y2543*
X3649Y2537*
X3643Y2534*
X3637Y2537*
X3634Y2543*
Y2550*
X3637Y2556*
X3643Y2559*
X3652*
X3662Y2556*
X3668Y2550*
X3671Y2543*
X3637Y2506D02*
X3634Y2500D01*
Y2493*
X3637Y2487*
X3643Y2484*
X3662*
X3668Y2487*
X3671Y2493*
Y2500*
X3668Y2506*
X3662Y2509*
X3643*
X3637Y2506*
X3668Y2487*
X3681Y3234D02*
X3677Y3231D01*
X3671Y3227*
X3662*
X3656Y3231*
X3652Y3234*
X3649Y3240*
Y3252*
X3652Y3259*
X3656Y3262*
X3662Y3265*
X3671*
X3677Y3262*
X3681Y3259*
X3706Y3227D02*
X3718D01*
X3712D02*
Y3265D01*
X3706Y3259*
X3752Y3231D02*
X3759Y3227D01*
X3765*
X3771Y3231*
X3774Y3237*
Y3256*
X3771Y3262*
X3765Y3265*
X3759*
X3752Y3262*
X3749Y3256*
Y3237*
X3752Y3231*
X3771Y3262*
X3699Y1388D02*
X3696Y1385D01*
X3690Y1382*
X3680*
X3674Y1385*
X3671Y1388*
X3668Y1394*
Y1407*
X3671Y1413*
X3674Y1416*
X3680Y1419*
X3690*
X3696Y1416*
X3699Y1413*
X3718Y1385D02*
X3724Y1382D01*
X3734*
X3740Y1385*
X3743Y1391*
Y1394*
X3740Y1400*
X3734Y1403*
X3718*
Y1419*
X3743*
X3774Y1382D02*
X3787D01*
X3780D02*
Y1419D01*
X3774Y1413*
X3686Y2053D02*
X3739D01*
Y1930*
X3686*
Y2053*
X3702Y2153D02*
X3699Y2157D01*
X3696Y2163*
Y2172*
X3699Y2178*
X3702Y2182*
X3709Y2185*
X3721*
X3727Y2182*
X3730Y2178*
X3734Y2172*
Y2163*
X3730Y2157*
X3727Y2153*
X3696Y2125D02*
X3699Y2119D01*
X3705Y2113*
X3715Y2110*
X3724*
X3730Y2113*
X3734Y2119*
Y2125*
X3730Y2132*
X3724Y2135*
X3718Y2132*
X3715Y2125*
Y2119*
X3718Y2113*
X3724Y2110*
X3696Y2060D02*
Y2085D01*
X3718Y2063*
X3724Y2060*
X3730Y2063*
X3734Y2069*
Y2078*
X3730Y2085*
X3727Y3520D02*
X3723D01*
X3716Y3522*
X3710Y3529*
X3707Y3536*
Y3540*
X3710Y3547*
X3718Y3556*
X3725Y3558*
X3730*
X3736Y3556*
X3743Y3549*
X3745Y3542*
Y3538*
X3747Y3492D02*
X3774Y3518D01*
X3745Y3511*
X3763Y3494*
X3776Y3463D02*
X3785Y3454D01*
X3780Y3458D02*
X3807Y3485D01*
X3798*
X3715Y1041D02*
X3712Y1045D01*
X3709Y1051*
Y1060*
X3712Y1066*
X3715Y1070*
X3721Y1073*
X3734*
X3740Y1070*
X3743Y1066*
X3746Y1060*
Y1051*
X3743Y1045*
X3740Y1041*
X3712Y1023D02*
X3709Y1016D01*
Y1007*
X3712Y1001*
X3718Y998*
X3721*
X3727Y1001*
X3730Y1007*
Y1023*
X3746*
Y998*
X3709Y948D02*
Y973D01*
X3730Y951*
X3737Y948*
X3743Y951*
X3746Y957*
Y966*
X3743Y973*
X3735Y2489D02*
X3682D01*
Y2612*
X3735*
Y2489*
X3751Y3072D02*
X3748Y3075D01*
X3745Y3081*
Y3091*
X3748Y3097*
X3751Y3100*
X3757Y3103*
X3770*
X3776Y3100*
X3779Y3097*
X3782Y3091*
Y3081*
X3779Y3075*
X3776Y3072*
X3745Y3044D02*
X3748Y3038D01*
X3754Y3031*
X3763Y3028*
X3773*
X3779Y3031*
X3782Y3038*
Y3044*
X3779Y3050*
X3773Y3053*
X3767Y3050*
X3763Y3044*
Y3038*
X3767Y3031*
X3773Y3028*
X3748Y3000D02*
X3745Y2994D01*
Y2988*
X3748Y2981*
X3754Y2978*
X3773*
X3779Y2981*
X3782Y2988*
Y2994*
X3779Y3000*
X3773Y3003*
X3754*
X3748Y3000*
X3779Y2981*
X3761Y1083D02*
X3708D01*
Y1206*
X3761*
Y1083*
X3778Y3174D02*
X3775Y3177D01*
X3772Y3184*
Y3193*
X3775Y3199*
X3778Y3202*
X3785Y3206*
X3797*
X3803Y3202*
X3807Y3199*
X3810Y3193*
Y3184*
X3807Y3177*
X3803Y3174*
X3772Y3146D02*
X3775Y3140D01*
X3782Y3134*
X3791Y3131*
X3800*
X3807Y3134*
X3810Y3140*
Y3146*
X3807Y3152*
X3800Y3156*
X3794Y3152*
X3791Y3146*
Y3140*
X3794Y3134*
X3800Y3131*
X3770Y3306D02*
X3733Y3268D01*
X3646Y3355*
X3683Y3393*
X3770Y3306*
X3776Y3440D02*
X3739Y3403D01*
X3652Y3490*
X3689Y3527*
X3776Y3440*
X3789Y2869D02*
X3842D01*
Y2746*
X3789*
Y2869*
X3806Y1039D02*
X3803Y1042D01*
X3800Y1048*
Y1058*
X3803Y1064*
X3806Y1067*
X3812Y1070*
X3825*
X3831Y1067*
X3834Y1064*
X3837Y1058*
Y1048*
X3834Y1042*
X3831Y1039*
X3803Y1020D02*
X3800Y1014D01*
Y1005*
X3803Y998*
X3809Y995*
X3812*
X3818Y998*
X3822Y1005*
Y1020*
X3837*
Y995*
X3803Y967D02*
X3800Y961D01*
Y955*
X3803Y948*
X3809Y945*
X3815Y948*
X3818Y955*
Y961*
Y955D02*
X3822Y948D01*
X3828Y945*
X3834Y948*
X3837Y955*
Y961*
X3834Y967*
X3792Y1370D02*
Y1317D01*
X3669*
Y1370*
X3792*
X3805Y2489D02*
X3752D01*
Y2612*
X3805*
Y2489*
X3815Y2574D02*
X3852D01*
Y2552*
X3849Y2546*
X3843Y2543*
X3837Y2546*
X3833Y2552*
Y2574*
Y2552D02*
X3815Y2543D01*
X3818Y2524D02*
X3815Y2518D01*
Y2508*
X3818Y2502*
X3824Y2499*
X3827*
X3833Y2502*
X3837Y2508*
Y2524*
X3852*
Y2499*
X3815Y2431D02*
Y2403D01*
X3819Y2397*
X3825Y2394*
X3837*
X3844Y2397*
X3847Y2403*
Y2431*
X3872Y2394D02*
X3884D01*
X3878D02*
Y2431D01*
X3872Y2425*
X3940Y2394D02*
X3915D01*
X3937Y2416*
X3940Y2422*
X3937Y2428*
X3931Y2431*
X3922*
X3915Y2428*
X3818Y2382D02*
Y2067D01*
X3941*
Y2382*
X3818*
X3822Y3124D02*
Y3177D01*
X3945*
Y3124*
X3822*
X3835Y3417D02*
X3872D01*
Y3395*
X3869Y3388*
X3863Y3385*
X3856Y3388*
X3853Y3395*
Y3417*
Y3395D02*
X3835Y3385D01*
Y3360D02*
Y3348D01*
Y3354D02*
X3872D01*
X3866Y3360*
X3829Y1083D02*
X3776D01*
Y1206*
X3829*
Y1083*
X3847Y2976D02*
X3794D01*
Y3099*
X3847*
Y2976*
X3847Y2594D02*
Y2647D01*
X3970*
Y2594*
X3847*
X3847Y2666D02*
Y2719D01*
X3970*
Y2666*
X3847*
X3876Y1717D02*
X3873Y1720D01*
X3870Y1726*
Y1735*
X3873Y1742*
X3876Y1745*
X3882Y1748*
X3895*
X3901Y1745*
X3904Y1742*
X3907Y1735*
Y1726*
X3904Y1720*
X3901Y1717*
X3873Y1698D02*
X3870Y1692D01*
Y1682*
X3873Y1676*
X3879Y1673*
X3882*
X3888Y1676*
X3891Y1682*
Y1698*
X3907*
Y1673*
X3870Y1648D02*
X3907Y1623D01*
Y1648*
X3861Y1885D02*
X4021D01*
Y1955*
X3861*
Y1885*
X3875Y3214D02*
X3822D01*
Y3337*
X3875*
Y3214*
X3878Y2010D02*
Y1973D01*
X3910*
X3935D02*
X3947D01*
X3941D02*
Y2010D01*
X3935Y2004*
X3982Y1976D02*
X3988Y1973D01*
X3994*
X4000Y1976*
X4003Y1982*
Y2001*
X4000Y2007*
X3994Y2010*
X3988*
X3982Y2007*
X3978Y2001*
Y1982*
X3982Y1976*
X4000Y2007*
X3902Y2834D02*
X3899Y2837D01*
X3896Y2843*
Y2852*
X3899Y2859*
X3902Y2862*
X3908Y2865*
X3921*
X3927Y2862*
X3930Y2859*
X3933Y2852*
Y2843*
X3930Y2837*
X3927Y2834*
X3914Y2806D02*
Y2799D01*
X3918Y2793*
X3924Y2790*
X3930Y2793*
X3933Y2799*
Y2806*
X3930Y2812*
X3924Y2815*
X3918Y2812*
X3914Y2806*
X3911Y2812*
X3905Y2815*
X3899Y2812*
X3896Y2806*
Y2799*
X3899Y2793*
X3905Y2790*
X3911Y2793*
X3914Y2799*
X3899Y2765D02*
X3896Y2759D01*
Y2749*
X3899Y2743*
X3905Y2740*
X3908*
X3914Y2743*
X3918Y2749*
Y2765*
X3933*
Y2740*
X3915Y2919D02*
X3862D01*
Y3042*
X3915*
Y2919*
X3942Y3021D02*
X3939Y3024D01*
X3936Y3030*
Y3040*
X3939Y3046*
X3942Y3049*
X3948Y3052*
X3961*
X3967Y3049*
X3970Y3046*
X3973Y3040*
Y3030*
X3970Y3024*
X3967Y3021*
X3936Y2996D02*
Y2983D01*
Y2990D02*
X3973D01*
X3967Y2996*
X3936Y2927D02*
Y2952D01*
X3958Y2930*
X3964Y2927*
X3970Y2930*
X3973Y2936*
Y2946*
X3970Y2952*
X3963Y1370D02*
X3959Y1367D01*
X3953Y1364*
X3944*
X3938Y1367*
X3934Y1370*
X3931Y1377*
Y1389*
X3934Y1395*
X3938Y1399*
X3944Y1402*
X3953*
X3959Y1399*
X3963Y1395*
X3997Y1364D02*
Y1402D01*
X3981Y1377*
X4006*
X4031Y1364D02*
X4056Y1402D01*
X4031*
X3964Y1561D02*
X3961Y1558D01*
X3954Y1555*
X3945*
X3939Y1558*
X3936Y1561*
X3933Y1568*
Y1580*
X3936Y1586*
X3939Y1589*
X3945Y1593*
X3954*
X3961Y1589*
X3964Y1586*
X3998Y1555D02*
Y1593D01*
X3983Y1568*
X4008*
X4042Y1574D02*
X4048D01*
X4054Y1577*
X4058Y1583*
X4054Y1589*
X4048Y1593*
X4042*
X4036Y1589*
X4033Y1583*
X4036Y1577*
X4042Y1574*
X4036Y1571*
X4033Y1564*
X4036Y1558*
X4042Y1555*
X4048*
X4054Y1558*
X4058Y1564*
X4054Y1571*
X4048Y1574*
X3939Y553D02*
X3944Y507D01*
X3837Y508*
X3829Y506*
X3822Y504*
X3818Y501*
X3815Y498*
X3813Y495*
X3811Y492*
X3810Y488*
X3808Y484*
X3808Y481*
X3808Y477*
X3808Y474*
X3808Y470*
X3809Y467*
X3809Y464*
X3811Y460*
X3812Y457*
X3814Y453*
X3816Y449*
X3820Y445*
X3824Y442*
X3828Y440*
X3831Y438*
X3835Y436*
X3839Y436*
X3843Y435*
X3849Y435*
X3939Y435*
X3944Y389*
X3778Y389*
X3775Y432*
X3797Y432*
X3793Y436*
X3789Y441*
X3785Y445*
X3782Y449*
X3779Y454*
X3777Y459*
X3776Y464*
X3775Y468*
X3774Y472*
X3773Y478*
X3773Y483*
X3773Y487*
X3773Y493*
X3773Y497*
X3774Y501*
X3774Y505*
X3775Y508*
X3726Y508*
X3721Y553*
X3939Y553*
G36*
X3944Y507*
X3837Y508*
X3829Y506*
X3822Y504*
X3818Y501*
X3815Y498*
X3813Y495*
X3811Y492*
X3810Y488*
X3808Y484*
X3808Y481*
X3808Y477*
X3808Y474*
X3808Y470*
X3809Y467*
X3809Y464*
X3811Y460*
X3812Y457*
X3814Y453*
X3816Y449*
X3820Y445*
X3824Y442*
X3828Y440*
X3831Y438*
X3835Y436*
X3839Y436*
X3843Y435*
X3849Y435*
X3939Y435*
X3944Y389*
X3778Y389*
X3775Y432*
X3797Y432*
X3793Y436*
X3789Y441*
X3785Y445*
X3782Y449*
X3779Y454*
X3777Y459*
X3776Y464*
X3775Y468*
X3774Y472*
X3773Y478*
X3773Y483*
X3773Y487*
X3773Y493*
X3773Y497*
X3774Y501*
X3774Y505*
X3775Y508*
X3726Y508*
X3721Y553*
X3939Y553*
G37*
X3964Y3283D02*
X3961Y3286D01*
X3958Y3292*
Y3302*
X3961Y3308*
X3964Y3311*
X3971Y3314*
X3983*
X3989Y3311*
X3993Y3308*
X3996Y3302*
Y3292*
X3993Y3286*
X3989Y3283*
X3977Y3255D02*
Y3249D01*
X3980Y3242*
X3986Y3239*
X3993Y3242*
X3996Y3249*
Y3255*
X3993Y3261*
X3986Y3264*
X3980Y3261*
X3977Y3255*
X3974Y3261*
X3968Y3264*
X3961Y3261*
X3958Y3255*
Y3249*
X3961Y3242*
X3968Y3239*
X3974Y3242*
X3977Y3249*
X3950Y3214D02*
X3897D01*
Y3337*
X3950*
Y3214*
X3970Y1623D02*
X3917D01*
Y1746*
X3970*
Y1623*
X3981Y2761D02*
Y2798D01*
X4003*
X4009Y2795*
X4012Y2789*
X4009Y2783*
X4003Y2779*
X3981*
X4031Y2798D02*
Y2761D01*
X4062*
X4106D02*
X4081D01*
X4103Y2783*
X4106Y2789*
X4103Y2795*
X4097Y2798*
X4087*
X4081Y2795*
X4026Y2681D02*
X4023Y2678D01*
X4017Y2675*
X4007*
X4001Y2678*
X3998Y2681*
X3995Y2687*
Y2700*
X3998Y2706*
X4001Y2709*
X4007Y2712*
X4017*
X4023Y2709*
X4026Y2706*
X4054Y2675D02*
X4061Y2678D01*
X4067Y2684*
X4070Y2693*
Y2703*
X4067Y2709*
X4061Y2712*
X4054*
X4048Y2709*
X4045Y2703*
X4048Y2696*
X4054Y2693*
X4061*
X4067Y2696*
X4070Y2703*
X4101Y2675D02*
X4114D01*
X4107D02*
Y2712D01*
X4101Y2706*
X3997Y3172D02*
X4050D01*
Y3049*
X3997*
Y3172*
X4030Y2608D02*
X4027Y2605D01*
X4021Y2602*
X4011*
X4005Y2605*
X4002Y2608*
X3999Y2615*
Y2627*
X4002Y2633*
X4005Y2637*
X4011Y2640*
X4021*
X4027Y2637*
X4030Y2633*
X4049Y2605D02*
X4055Y2602D01*
X4064*
X4071Y2605*
X4074Y2612*
Y2615*
X4071Y2621*
X4064Y2624*
X4049*
Y2640*
X4074*
X4099Y2612D02*
X4102Y2618D01*
X4108Y2621*
X4114*
X4121Y2618*
X4124Y2612*
X4121Y2605*
X4114Y2602*
X4108*
X4102Y2605*
X4099Y2612*
Y2621*
X4102Y2630*
X4108Y2637*
X4114Y2640*
X3999Y3395D02*
Y3432D01*
X4021*
X4027Y3429*
X4030Y3423*
X4027Y3417*
X4021Y3413*
X3999*
X4021D02*
X4030Y3395D01*
X4055D02*
X4067D01*
X4061D02*
Y3432D01*
X4055Y3426*
X4102Y3398D02*
X4108Y3395D01*
X4114*
X4121Y3398*
X4124Y3404*
Y3423*
X4121Y3429*
X4114Y3432*
X4108*
X4102Y3429*
X4099Y3423*
Y3404*
X4102Y3398*
X4121Y3429*
X4011Y3270D02*
Y3307D01*
X4033*
X4039Y3304*
X4042Y3298*
X4039Y3292*
X4033Y3289*
X4011*
X4033D02*
X4042Y3270D01*
X4067D02*
X4080D01*
X4074D02*
Y3307D01*
X4067Y3301*
X4117Y3270D02*
X4130D01*
X4124D02*
Y3307D01*
X4117Y3301*
X4063Y3174D02*
X4100D01*
Y3153*
X4097Y3146*
X4091Y3143*
X4085Y3146*
X4082Y3153*
Y3174*
Y3153D02*
X4063Y3143D01*
Y3109D02*
X4100D01*
X4075Y3124*
Y3099*
X4063Y3049D02*
Y3074D01*
X4085Y3053*
X4091Y3049*
X4097Y3053*
X4100Y3059*
Y3068*
X4097Y3074*
X4057Y2434D02*
Y2406D01*
X4060Y2400*
X4066Y2397*
X4078*
X4085Y2400*
X4088Y2406*
Y2434*
X4116Y2416D02*
X4122D01*
X4128Y2419*
X4132Y2425*
X4128Y2431*
X4122Y2434*
X4116*
X4110Y2431*
X4107Y2425*
X4110Y2419*
X4116Y2416*
X4110Y2413*
X4107Y2406*
X4110Y2400*
X4116Y2397*
X4122*
X4128Y2400*
X4132Y2406*
X4128Y2413*
X4122Y2416*
X4059Y1470D02*
Y1417D01*
X3936*
Y1470*
X4059*
Y1541D02*
Y1488D01*
X3936*
Y1541*
X4059*
X4106Y1968D02*
X4103Y1965D01*
X4096Y1962*
X4087*
X4081Y1965*
X4078Y1968*
X4074Y1975*
Y1987*
X4078Y1993*
X4081Y1997*
X4087Y2000*
X4096*
X4103Y1997*
X4106Y1993*
X4140Y1962D02*
Y2000D01*
X4124Y1975*
X4149*
X4190Y1962D02*
Y2000D01*
X4174Y1975*
X4199*
X4076Y1892D02*
Y1945D01*
X4199*
Y1892*
X4076*
X4077Y1846D02*
Y1883D01*
X4099*
X4105Y1880*
X4109Y1874*
X4105Y1868*
X4099Y1865*
X4077*
X4099D02*
X4109Y1846D01*
X4143D02*
Y1883D01*
X4127Y1858*
X4152*
X4180Y1849D02*
X4187Y1846D01*
X4193*
X4199Y1849*
X4202Y1855*
X4199Y1862*
X4193Y1865*
X4187*
X4193D02*
X4199Y1868D01*
X4202Y1874*
X4199Y1880*
X4193Y1883*
X4187*
X4180Y1880*
X4125Y3455D02*
X4072D01*
Y3578*
X4125*
Y3455*
X4125Y3384D02*
Y3331D01*
X4002*
Y3384*
X4125*
X4125Y3262D02*
Y3209D01*
X4002*
Y3262*
X4125*
X4144Y3583D02*
X4182D01*
Y3561*
X4178Y3554*
X4172Y3551*
X4166Y3554*
X4163Y3561*
Y3583*
Y3561D02*
X4144Y3551D01*
X4147Y3533D02*
X4144Y3526D01*
Y3517*
X4147Y3511*
X4153Y3508*
X4157*
X4163Y3511*
X4166Y3517*
Y3533*
X4182*
Y3508*
X4147Y3479D02*
X4144Y3473D01*
Y3467*
X4147Y3461*
X4153Y3458*
X4160Y3461*
X4163Y3467*
Y3473*
Y3467D02*
X4166Y3461D01*
X4172Y3458*
X4178Y3461*
X4182Y3467*
Y3473*
X4178Y3479*
X4150Y476D02*
X3964Y708D01*
X3940Y684*
X4106Y475*
X3966Y295*
X3989Y272*
X4150Y476*
X4176*
X3989Y246*
X3935Y297*
X3740Y297*
X3740Y498*
X3761Y498*
X3761Y311*
X3951Y311*
X4080Y475*
X3950Y640*
X3762Y640*
X3762Y564*
X3709Y564*
X3716Y498*
X3739Y498*
X3739Y484*
X3701Y485*
X3687Y574*
X3743Y574*
X3743Y653*
X3939Y653*
X3910Y684*
X3964Y735*
X4032Y651*
X4137Y651*
X4137Y563*
X4106Y563*
X4094Y579*
X4122Y579*
X4122Y637*
X4045Y637*
X4105Y563*
X4176Y476*
X4150Y476*
G36*
X3964Y708*
X3940Y684*
X4106Y475*
X3966Y295*
X3989Y272*
X4150Y476*
X4176*
X3989Y246*
X3935Y297*
X3740Y297*
X3740Y498*
X3761Y498*
X3761Y311*
X3951Y311*
X4080Y475*
X3950Y640*
X3762Y640*
X3762Y564*
X3709Y564*
X3716Y498*
X3739Y498*
X3739Y484*
X3701Y485*
X3687Y574*
X3743Y574*
X3743Y653*
X3939Y653*
X3910Y684*
X3964Y735*
X4032Y651*
X4137Y651*
X4137Y563*
X4106Y563*
X4094Y579*
X4122Y579*
X4122Y637*
X4045Y637*
X4105Y563*
X4176Y476*
X4150Y476*
G37*
X4157Y2070D02*
Y2386D01*
X4035*
Y2070*
X4157*
X4201Y1839D02*
Y1786D01*
X4078*
Y1839*
X4201*
D02*
D11*
X614Y3173D02*
X666D01*
Y3186*
X614*
Y3173*
G36*
X666*
Y3186*
X614*
Y3173*
G37*
Y3204D02*
X666D01*
Y3217*
X614*
Y3204*
G36*
X666*
Y3217*
X614*
Y3204*
G37*
Y3235D02*
X666D01*
Y3249*
X614*
Y3235*
G36*
X666*
Y3249*
X614*
Y3235*
G37*
Y3267D02*
X666D01*
Y3280*
X614*
Y3267*
G36*
X666*
Y3280*
X614*
Y3267*
G37*
Y3298D02*
X666D01*
Y3312*
X614*
Y3298*
G36*
X666*
Y3312*
X614*
Y3298*
G37*
X963Y3542D02*
Y3418D01*
X1087*
Y3542*
X963*
X1013D02*
G75*
G03X1037I12D01*
G01*
X1389Y610D02*
X1368D01*
Y590*
X1389*
X1429Y541D02*
G75*
G03X1405I-12D01*
G01*
X1445Y550D02*
X1466D01*
Y570*
X1445*
Y630D02*
Y541D01*
X1389*
Y659*
X1445*
Y630*
X1466*
Y650*
X1445*
X2260Y2905D02*
G75*
G03X2284I12D01*
G01*
X2260D02*
G75*
G03X2284I12D01*
G01*
X2269Y555D02*
G75*
G03Y579J12D01*
G01*
X2282Y533D02*
Y508D01*
X2301*
Y533*
Y601D02*
X2389D01*
Y533*
X2357*
Y508*
X2376*
Y533*
X2319D02*
Y508D01*
X2339*
Y533*
Y601D02*
Y626D01*
X2319*
Y601*
X2357Y533D02*
X2269D01*
Y601*
X2301*
Y626*
X2282*
Y601*
X2376D02*
Y626D01*
X2357*
Y601*
X2860Y2540D02*
G75*
G03Y2564J12D01*
G01*
X2873Y2518D02*
Y2493D01*
X2892*
Y2518*
Y2586D02*
X2980D01*
Y2518*
X2948*
Y2493*
X2967*
Y2518*
X2910D02*
Y2493D01*
X2930*
Y2518*
Y2586D02*
Y2611D01*
X2910*
Y2586*
X2948Y2518D02*
X2860D01*
Y2586*
X2892*
Y2611*
X2873*
Y2586*
X2967D02*
Y2611D01*
X2948*
Y2586*
X4193Y678D02*
X4212D01*
Y667*
X4211Y664*
X4207Y663*
X4204Y664*
X4203Y667*
Y678*
Y667D02*
X4193Y663D01*
X4195Y641D02*
X4193Y642D01*
Y646*
Y649*
X4195Y652*
X4198Y653*
X4203*
X4204Y652*
X4206Y649*
Y646*
X4204Y642*
X4203Y641*
X4201*
X4200Y642*
X4198Y646*
Y649*
X4200Y652*
X4201Y653*
X4206Y628D02*
X4193Y622D01*
X4206Y616*
X4193Y602D02*
X4195Y600D01*
X4197Y602*
X4195Y603*
X4193Y602*
Y550D02*
Y544D01*
Y547D02*
X4212D01*
X4209Y550*
X4193Y527D02*
X4195Y525D01*
X4197Y527*
X4195Y528*
X4193Y527*
X4195Y502D02*
X4193Y499D01*
Y496*
X4195Y492*
X4198Y491*
X4207*
X4211Y492*
X4212Y496*
Y499*
X4211Y502*
X4207Y503*
X4198*
X4195Y502*
X4211Y492*
X4200Y428D02*
Y416D01*
Y403D02*
Y391D01*
X4193Y316D02*
Y328D01*
X4204Y317*
X4207Y316*
X4211Y317*
X4212Y321*
Y325*
X4211Y328*
X4195Y302D02*
X4193Y299D01*
Y296*
X4195Y292*
X4198Y291*
X4207*
X4211Y292*
X4212Y296*
Y299*
X4211Y302*
X4207Y303*
X4198*
X4195Y302*
X4211Y292*
X4193Y275D02*
Y269D01*
Y272D02*
X4212D01*
X4209Y275*
X4193Y246D02*
X4212D01*
X4200Y253*
Y241*
D02*
D12*
X963Y3418D02*
X1087D01*
X1013Y3542D02*
G75*
G03X1018Y3532I13J0D01*
G01*
X1032D02*
G75*
G03X1037Y3542I-8J10D01*
G01*
X1087D02*
X963D01*
X1389Y576D02*
Y541D01*
X1421*
X1418Y553D02*
G75*
G03X1405Y541I-1J-12D01*
G01*
X1421Y659D02*
X1389D01*
Y624*
X1445Y584D02*
Y616D01*
X1790Y2956D02*
G75*
G03X1840I25D01*
G01*
G75*
G03X1790I-25*
G01*
X1893Y2955D02*
X1893Y2414D01*
X1271*
Y3035*
X1812Y3035*
X1893Y2955*
X2154Y2724D02*
X2195D01*
Y2744*
X2154*
Y2724*
Y2774D02*
X2195D01*
Y2794*
X2154*
Y2774*
Y2824D02*
X2195D01*
Y2844*
X2154*
Y2824*
Y2874D02*
X2195D01*
Y2894*
X2154*
Y2874*
X2195Y2905D02*
Y2713D01*
X2349*
Y2905*
X2195*
X2226Y2713D02*
X2318D01*
X2269Y555D02*
G75*
G03Y579J12D01*
G01*
Y588D02*
Y546D01*
X2318Y2905D02*
X2226D01*
X2389Y546D02*
Y588D01*
X2390Y2744D02*
X2349D01*
Y2724*
X2390*
Y2744*
Y2794D02*
X2349D01*
Y2774*
X2390*
Y2794*
Y2844D02*
X2349D01*
Y2824*
X2390*
Y2844*
Y2894D02*
X2349D01*
Y2874*
X2390*
Y2894*
X2860Y2540D02*
G75*
G03Y2564J12D01*
G01*
Y2573D02*
Y2531D01*
X2980D02*
Y2573D01*
X3170Y2750D02*
X3210D01*
Y2760*
X3170*
Y2750*
Y2769D02*
X3210D01*
Y2780*
X3170*
Y2769*
Y2789D02*
X3210D01*
Y2800*
X3170*
Y2789*
Y2809D02*
X3210D01*
Y2819*
X3170*
Y2809*
Y2828D02*
X3210D01*
Y2839*
X3170*
Y2828*
Y2848D02*
X3210D01*
Y2859*
X3170*
Y2848*
Y2868D02*
X3210D01*
Y2878*
X3170*
Y2868*
Y2887D02*
X3210D01*
Y2898*
X3170*
Y2887*
Y2907D02*
X3210D01*
Y2918*
X3170*
Y2907*
Y2927D02*
X3210D01*
Y2937*
X3170*
Y2927*
Y2947D02*
X3210D01*
Y2957*
X3170*
Y2947*
Y2966D02*
X3210D01*
Y2977*
X3170*
Y2966*
Y2986D02*
X3210D01*
Y2997*
X3170*
Y2986*
Y3006D02*
X3210D01*
Y3016*
X3170*
Y3006*
Y3025D02*
X3210D01*
Y3036*
X3170*
Y3025*
Y3045D02*
X3210D01*
Y3056*
X3170*
Y3045*
Y3065D02*
X3210D01*
Y3075*
X3170*
Y3065*
Y3084D02*
X3210D01*
Y3095*
X3170*
Y3084*
Y3104D02*
X3210D01*
Y3115*
X3170*
Y3104*
Y3124D02*
X3210D01*
Y3134*
X3170*
Y3124*
X3210Y2737D02*
Y2702D01*
X3245*
Y3182D02*
X3210D01*
Y3147*
X3258Y3222D02*
Y3182D01*
X3268*
Y3222*
X3258*
X3268Y2662D02*
Y2702D01*
X3258*
Y2662*
X3268*
X3277Y3222D02*
Y3182D01*
X3288*
Y3222*
X3277*
X3288Y2662D02*
Y2702D01*
X3277*
Y2662*
X3288*
X3297Y3222D02*
Y3182D01*
X3308*
Y3222*
X3297*
X3308Y2662D02*
Y2702D01*
X3297*
Y2662*
X3308*
X3317Y3222D02*
Y3182D01*
X3327*
Y3222*
X3317*
X3327Y2662D02*
Y2702D01*
X3317*
Y2662*
X3327*
X3336Y3222D02*
Y3182D01*
X3347*
Y3222*
X3336*
X3347Y2662D02*
Y2702D01*
X3336*
Y2662*
X3347*
X3356Y3222D02*
Y3182D01*
X3367*
Y3222*
X3356*
X3367Y2662D02*
Y2702D01*
X3356*
Y2662*
X3367*
X3376Y3222D02*
Y3182D01*
X3386*
Y3222*
X3376*
X3386Y2662D02*
Y2702D01*
X3376*
Y2662*
X3386*
X3395Y3222D02*
Y3182D01*
X3406*
Y3222*
X3395*
X3406Y2662D02*
Y2702D01*
X3395*
Y2662*
X3406*
X3415Y3222D02*
Y3182D01*
X3426*
Y3222*
X3415*
X3426Y2662D02*
Y2702D01*
X3415*
Y2662*
X3426*
X3435Y3222D02*
Y3182D01*
X3445*
Y3222*
X3435*
X3445Y2662D02*
Y2702D01*
X3435*
Y2662*
X3445*
X3455Y3222D02*
Y3182D01*
X3465*
Y3222*
X3455*
X3465Y2662D02*
Y2702D01*
X3455*
Y2662*
X3465*
X3474Y3222D02*
Y3182D01*
X3485*
Y3222*
X3474*
X3485Y2662D02*
Y2702D01*
X3474*
Y2662*
X3485*
X3494Y3222D02*
Y3182D01*
X3505*
Y3222*
X3494*
X3505Y2662D02*
Y2702D01*
X3494*
Y2662*
X3505*
X3514Y3222D02*
Y3182D01*
X3524*
Y3222*
X3514*
X3524Y2662D02*
Y2702D01*
X3514*
Y2662*
X3524*
X3533Y3222D02*
Y3182D01*
X3544*
Y3222*
X3533*
X3537Y1577D02*
Y1565D01*
Y1596D02*
Y1584D01*
Y1616D02*
Y1604D01*
Y1636D02*
Y1624D01*
Y1655D02*
Y1643D01*
Y1675D02*
Y1663D01*
Y1695D02*
Y1683D01*
Y1715D02*
Y1703D01*
Y1734D02*
Y1722D01*
Y1754D02*
Y1742D01*
Y1767D02*
X3587Y1817D01*
X3537Y1774D02*
Y1762D01*
Y1793D02*
Y1781D01*
Y1817D02*
Y1541D01*
X3813*
Y1817*
X3537*
X3544Y2662D02*
Y2702D01*
X3533*
Y2662*
X3544*
X3548Y1541D02*
X3537D01*
Y1552*
X3548Y1817D02*
X3537D01*
Y1806*
X3553Y3222D02*
Y3182D01*
X3564*
Y3222*
X3553*
X3561Y1541D02*
X3573D01*
X3564Y2662D02*
Y2702D01*
X3553*
Y2662*
X3564*
X3573Y1817D02*
X3561D01*
X3573Y3222D02*
Y3182D01*
X3583*
Y3222*
X3573*
X3580Y1541D02*
X3592D01*
X3583Y2662D02*
Y2702D01*
X3573*
Y2662*
X3583*
X3592Y1817D02*
X3580D01*
X3592Y3222D02*
Y3182D01*
X3603*
Y3222*
X3592*
X3600Y1541D02*
X3612D01*
X3603Y2662D02*
Y2702D01*
X3592*
Y2662*
X3603*
X3612Y1817D02*
X3600D01*
X3612Y3222D02*
Y3182D01*
X3623*
Y3222*
X3612*
X3620Y1541D02*
X3632D01*
X3623Y2662D02*
Y2702D01*
X3612*
Y2662*
X3623*
X3632Y1817D02*
X3620D01*
X3632Y3222D02*
Y3182D01*
X3642*
Y3222*
X3632*
X3639Y1541D02*
X3651D01*
X3642Y2662D02*
Y2702D01*
X3632*
Y2662*
X3642*
X3651Y1817D02*
X3639D01*
X3655Y2702D02*
X3690D01*
Y2737*
X3655Y3182D02*
X3690D01*
Y3147*
X3659Y1541D02*
X3671D01*
Y1817D02*
X3659D01*
X3675Y2737D02*
X3655Y2717D01*
X3679Y1541D02*
X3691D01*
X3690Y2702D02*
Y3182D01*
X3210*
Y2702*
X3690*
Y2752D02*
X3640Y2702D01*
X3691Y1817D02*
X3679D01*
X3699Y1541D02*
X3711D01*
Y1817D02*
X3699D01*
X3718Y1541D02*
X3730D01*
Y1817D02*
X3718D01*
X3730Y2760D02*
X3690D01*
Y2750*
X3730*
Y2760*
Y2780D02*
X3690D01*
Y2769*
X3730*
Y2780*
Y2800D02*
X3690D01*
Y2789*
X3730*
Y2800*
Y2819D02*
X3690D01*
Y2809*
X3730*
Y2819*
Y2839D02*
X3690D01*
Y2828*
X3730*
Y2839*
Y2859D02*
X3690D01*
Y2848*
X3730*
Y2859*
Y2878D02*
X3690D01*
Y2868*
X3730*
Y2878*
Y2898D02*
X3690D01*
Y2887*
X3730*
Y2898*
Y2918D02*
X3690D01*
Y2907*
X3730*
Y2918*
Y2937D02*
X3690D01*
Y2927*
X3730*
Y2937*
Y2957D02*
X3690D01*
Y2947*
X3730*
Y2957*
Y2977D02*
X3690D01*
Y2966*
X3730*
Y2977*
Y2997D02*
X3690D01*
Y2986*
X3730*
Y2997*
Y3016D02*
X3690D01*
Y3006*
X3730*
Y3016*
Y3036D02*
X3690D01*
Y3025*
X3730*
Y3036*
Y3056D02*
X3690D01*
Y3045*
X3730*
Y3056*
Y3075D02*
X3690D01*
Y3065*
X3730*
Y3075*
Y3095D02*
X3690D01*
Y3084*
X3730*
Y3095*
Y3115D02*
X3690D01*
Y3104*
X3730*
Y3115*
Y3134D02*
X3690D01*
Y3124*
X3730*
Y3134*
X3738Y1541D02*
X3750D01*
Y1817D02*
X3738D01*
X3758Y1541D02*
X3770D01*
Y1817D02*
X3758D01*
X3777Y1541D02*
X3789D01*
Y1817D02*
X3777D01*
X3802Y1541D02*
X3813D01*
Y1552*
Y1565D02*
Y1577D01*
Y1584D02*
Y1596D01*
Y1604D02*
Y1616D01*
Y1624D02*
Y1636D01*
Y1643D02*
Y1655D01*
Y1663D02*
Y1675D01*
Y1683D02*
Y1695D01*
Y1703D02*
Y1715D01*
Y1722D02*
Y1734D01*
Y1742D02*
Y1754D01*
Y1762D02*
Y1774D01*
Y1781D02*
Y1793D01*
Y1806D02*
Y1817D01*
X3802*
D02*
D13*
X1490Y521D02*
X1465D01*
X1483Y533D02*
X1471Y508D01*
X1483D02*
X1471Y533D01*
X1490Y521D02*
X1465D01*
X1483Y533D02*
X1471Y508D01*
X1483D02*
X1471Y533D01*
X2146Y2923D02*
X2171D01*
X2152Y2911D02*
X2165Y2936D01*
X2152D02*
X2165Y2911D01*
X2146Y2923D02*
X2171D01*
X2152Y2911D02*
X2165Y2936D01*
X2152D02*
X2165Y2911D01*
X2253Y483D02*
Y508D01*
X2265Y490D02*
X2240Y502D01*
Y490D02*
X2265Y502D01*
X2253Y483D02*
Y508D01*
X2265Y490D02*
X2240Y502D01*
Y490D02*
X2265Y502D01*
X2844Y2468D02*
Y2493D01*
X2857Y2475D02*
X2832Y2487D01*
Y2475D02*
X2857Y2487D01*
X2844Y2468D02*
Y2493D01*
X2857Y2475D02*
X2832Y2487D01*
Y2475D02*
X2857Y2487D01*
X3477Y1809D02*
X3502D01*
X3483Y1796D02*
X3495Y1821D01*
X3483D02*
X3495Y1796D01*
X3477Y1809D02*
X3502D01*
X3483Y1796D02*
X3495Y1821D01*
X3483D02*
X3495Y1796D01*
X3791Y2733D02*
X3766D01*
X3785Y2746D02*
X3772Y2721D01*
X3785D02*
X3772Y2746D01*
X3791Y2733D02*
X3766D01*
X3785Y2746D02*
X3772Y2721D01*
X3785D02*
X3772Y2746D01*
D02*
D14*
X968Y2944D02*
Y2898D01*
X974Y2888*
X984Y2883*
X1004*
X1015Y2888*
X1020Y2898*
Y2944*
X1050Y2883D02*
X1091Y2944D01*
X1050*
X1018Y3621D02*
Y3575D01*
X1024Y3564*
X1034Y3559*
X1054*
X1065Y3564*
X1070Y3575*
Y3621*
X1100Y3575D02*
X1106Y3585D01*
X1116Y3590*
X1126*
X1136Y3585*
X1141Y3575*
X1136Y3564*
X1126Y3559*
X1116*
X1106Y3564*
X1100Y3575*
Y3590*
X1106Y3605*
X1116Y3616*
X1126Y3621*
X1354Y744D02*
Y698D01*
X1359Y688*
X1369Y682*
X1390*
X1400Y688*
X1405Y698*
Y744*
X1436Y688D02*
X1446Y682D01*
X1462*
X1472Y688*
X1477Y698*
Y703*
X1472Y713*
X1462Y718*
X1436*
Y744*
X1477*
X1871Y754D02*
Y708D01*
X1876Y698*
X1886Y692*
X1907*
X1917Y698*
X1922Y708*
Y754*
X1958Y698D02*
X1968Y692D01*
X1978*
X1989Y698*
X1994Y708*
X1989Y718*
X1978Y723*
X1968*
X1978D02*
X1989Y728D01*
X1994Y739*
X1989Y749*
X1978Y754*
X1968*
X1958Y749*
X1948Y1779D02*
Y1841D01*
X1922D02*
X1973D01*
X2045Y1779D02*
X2004D01*
X2040Y1815*
X2045Y1826*
X2040Y1836*
X2030Y1841*
X2014*
X2004Y1836*
X2293Y3005D02*
Y2959D01*
X2298Y2949*
X2308Y2944*
X2329*
X2339Y2949*
X2344Y2959*
Y3005*
X2385Y2944D02*
X2405D01*
X2395D02*
Y3005D01*
X2385Y2995*
X2498Y2944D02*
X2457D01*
X2493Y2980*
X2498Y2990*
X2493Y3000*
X2482Y3005*
X2467*
X2457Y3000*
X2580Y2944D02*
X2539D01*
X2575Y2980*
X2580Y2990*
X2575Y3000*
X2564Y3005*
X2549*
X2539Y3000*
X2411Y595D02*
Y549D01*
X2416Y539*
X2427Y534*
X2447*
X2457Y539*
X2462Y549*
Y595*
X2519Y534D02*
Y595D01*
X2493Y554*
X2534*
X2860Y2461D02*
Y2415D01*
X2866Y2405*
X2876Y2400*
X2896*
X2907Y2405*
X2912Y2415*
Y2461*
X2958Y2400D02*
X2968Y2405D01*
X2978Y2415*
X2983Y2431*
Y2446*
X2978Y2456*
X2968Y2461*
X2958*
X2948Y2456*
X2942Y2446*
X2948Y2436*
X2958Y2431*
X2968*
X2978Y2436*
X2983Y2446*
X3089Y3316D02*
Y3270D01*
X3094Y3260*
X3104Y3255*
X3125*
X3135Y3260*
X3140Y3270*
Y3316*
X3212Y3255D02*
X3171D01*
X3207Y3291*
X3212Y3301*
X3207Y3311*
X3197Y3316*
X3181*
X3171Y3311*
X3579Y1907D02*
Y1861D01*
X3584Y1851*
X3595Y1846*
X3615*
X3625Y1851*
X3630Y1861*
Y1907*
X3671Y1846D02*
X3692D01*
X3682D02*
Y1907D01*
X3671Y1897*
X3748Y1851D02*
X3759Y1846D01*
X3769*
X3779Y1851*
X3784Y1861*
Y1892*
X3779Y1902*
X3769Y1907*
X3759*
X3748Y1902*
X3743Y1892*
Y1861*
X3748Y1851*
X3779Y1902*
D02*
D15*
X1218Y696D02*
X918D01*
Y596*
X1218*
Y696*
X2381Y1064D02*
Y1158D01*
X3991Y3015D02*
Y2815D01*
X4091*
Y3015*
X3991*
D02*
D16*
X1631Y3060D02*
X1648D01*
X1639D02*
Y3113D01*
X1631D02*
X1648D01*
X1731Y3069D02*
X1727Y3065D01*
X1718Y3060*
X1705*
X1696Y3065*
X1692Y3069*
X1687Y3078*
Y3095*
X1692Y3104*
X1696Y3108*
X1705Y3113*
X1718*
X1727Y3108*
X1731Y3104*
X1766Y3060D02*
X1784D01*
X1775D02*
Y3113D01*
X1766Y3104*
D02*
D17*
X360Y3389D02*
Y3329D01*
G75*
G03X374Y3315I14*
G01*
X375*
X520Y3308*
G75*
G03X520Y3320I0J6*
G01*
X387Y3329*
G75*
G02X387Y3348I1J10*
G01*
X521Y3357*
G75*
G03X526Y3362I0J5*
G01*
Y3389*
X360Y3094D02*
Y3155D01*
G75*
G02X374Y3169I14*
G01*
X375*
X520Y3175*
G75*
G02X520Y3164I0J-6*
G01*
X387Y3155*
G75*
G03X387Y3136I1J-10*
G01*
X521Y3127*
G75*
G02X526Y3122I0J-5*
G01*
Y3094*
X411Y3392D02*
Y3429D01*
G75*
G02X417Y3435I6J0*
G01*
X417*
G75*
G02X424Y3428J-7*
G01*
Y3422*
G75*
G03X433Y3413I9*
G01*
X434*
G75*
G03X443Y3422J9*
G01*
Y3429*
G75*
G02X449Y3435I6*
G01*
G75*
G02X455Y3428J-7*
G01*
Y3394*
X455Y3092D02*
Y3055D01*
G75*
G02X449Y3049I-6J0*
G01*
X449*
G75*
G02X443Y3056J7*
G01*
Y3062*
G75*
G03X434Y3070I-9J0*
G01*
X433*
G75*
G03X424Y3062J-9*
G01*
Y3055*
G75*
G02X418Y3049I-6*
G01*
G75*
G02X411Y3056J7*
G01*
Y3090*
X503Y3422D02*
X534Y3460D01*
X503D02*
X534Y3422D01*
X559D02*
X572D01*
X565D02*
Y3460D01*
X559Y3453*
X537Y3213D02*
Y3271D01*
G75*
G03X524Y3285I-13*
G01*
X366Y3293*
G75*
G03X365Y3282I0J-5*
G01*
X488Y3276*
G75*
G02X505Y3259J-17*
G01*
Y3224*
G75*
G02X488Y3207I-17*
G01*
X486*
X366Y3202*
G75*
G03Y3191I0J-6*
G01*
X523Y3199*
G75*
G03X537Y3213J14*
G01*
X619Y3392D02*
Y3429D01*
G75*
G02X625Y3435I6J0*
G01*
X625*
G75*
G02X632Y3428J-7*
G01*
Y3422*
G75*
G03X641Y3413I9*
G01*
X642*
G75*
G03X651Y3422J9*
G01*
Y3429*
G75*
G02X657Y3435I6*
G01*
G75*
G02X663Y3428J-7*
G01*
Y3391*
X628Y3328D02*
G75*
G03X614Y3313J-14D01*
G01*
Y3169*
G75*
G03X626Y3156I13*
G01*
X628Y3328D02*
X649D01*
G75*
G03X663Y3342J14*
G01*
Y3392*
X313*
Y3092*
X663*
Y3142*
G75*
G03X650Y3156I-14*
G01*
X626*
X663Y3092D02*
Y3055D01*
G75*
G02X657Y3049I-6J0*
G01*
X657*
G75*
G02X651Y3056J7*
G01*
Y3062*
G75*
G03X642Y3070I-9J0*
G01*
X641*
G75*
G03X632Y3062J-9*
G01*
Y3055*
G75*
G02X626Y3049I-6*
G01*
G75*
G02X619Y3056J7*
G01*
Y3090*
D02*
D18*
X3779Y2346D02*
X3829D01*
X3929D02*
X3979D01*
X4046Y2107D02*
X3996D01*
X4196D02*
X4146D01*
X0Y0D02*
M02*
