%FSLAX23Y23*%
%MOIN*%
G04 EasyPC Gerber Version 17.0 Build 3379 *
%AMT99*0 Octagon Pad at angle 0*4,1,8,-0.01367,-0.03300,0.01367,-0.03300,0.03300,-0.01367,0.03300,0.01367,0.01367,0.03300,-0.01367,0.03300,-0.03300,0.01367,-0.03300,-0.01367,-0.01367,-0.03300,0*%
%ADD99T99*%
%ADD26R,0.00984X0.06693*%
%ADD70R,0.01100X0.06500*%
%ADD85R,0.01200X0.02600*%
%ADD86R,0.01200X0.03200*%
%ADD76R,0.01457X0.05650*%
%ADD97R,0.02165X0.03937*%
%ADD22R,0.02200X0.05000*%
%ADD20R,0.03937X0.04291*%
%ADD77R,0.04724X0.05118*%
%ADD78R,0.04921X0.06299*%
%ADD74R,0.05100X0.07900*%
%ADD81R,0.06300X0.10200*%
%ADD82R,0.07205X0.10236*%
%ADD72R,0.08661X0.09843*%
%ADD21R,0.06000X0.06000*%
%ADD94R,0.06300X0.06300*%
%ADD87R,0.16500X0.16500*%
%ADD15C,0.01000*%
%ADD27R,0.06693X0.00984*%
%ADD19R,0.06500X0.01100*%
%AMT71*0 Rectangle Pad at angle 45*21,1,0.03937,0.04291,0,0,45*%
%ADD71T71*%
%ADD83R,0.02600X0.01200*%
%ADD84R,0.03200X0.01200*%
%ADD73R,0.03400X0.01600*%
%ADD29R,0.07874X0.01969*%
%ADD75R,0.07800X0.02200*%
%ADD93R,0.03543X0.03150*%
%ADD24R,0.04291X0.03937*%
%ADD79R,0.06693X0.03937*%
%ADD23R,0.05118X0.04724*%
%ADD80R,0.06299X0.04724*%
%ADD25R,0.07087X0.04724*%
%ADD28R,0.06000X0.05500*%
%ADD102C,0.01500*%
%ADD101C,0.02500*%
%ADD103C,0.03150*%
%ADD100C,0.03200*%
%ADD104C,0.04800*%
%ADD105C,0.05000*%
%ADD90C,0.05512*%
%ADD98C,0.05906*%
%ADD88C,0.06000*%
%ADD89C,0.06000*%
%ADD91R,0.12992X0.07480*%
%ADD92R,0.17323X0.11811*%
%ADD95C,0.13780*%
%AMT96*0 Rectangle Pad at angle 135*21,1,0.03937,0.04291,0,0,135*%
%ADD96T96*%
X0Y0D02*
D02*
D15*
X433Y3076D02*
X642D01*
X433Y3407D02*
Y3076D01*
X535Y2514D02*
X524D01*
X433Y2605*
Y2955*
X433Y2955*
Y3076*
X605Y2514D02*
X702D01*
X702Y2514*
X642Y3076D02*
Y3169D01*
X651Y3179*
Y3210D02*
X576D01*
X575Y3209*
X651Y3242D02*
X766D01*
X869Y3344*
Y3344*
X968Y3443*
X651Y3273D02*
X738D01*
X739Y3274*
X651Y3305D02*
Y3304D01*
X703*
X804Y3405*
Y3494*
X775Y2592D02*
X702Y2519D01*
Y2514*
X776Y2434D02*
X702Y2508D01*
Y2514*
X777Y2514D02*
X702D01*
X702Y2514*
X804Y3494D02*
X804D01*
X850Y3539*
X845Y2592D02*
Y2662D01*
X849Y2665*
X845Y2592D02*
X927D01*
X949Y2570*
X846Y2434D02*
X1012D01*
X1012Y2434*
X1482*
X1492Y2444*
Y2487*
X1494Y2488*
X847Y2514D02*
X862D01*
X922Y2454*
X1012*
X1012Y2454*
X1317*
X1347Y2484*
Y2576*
X1346Y2577*
X850Y3639D02*
Y3539D01*
X920Y3639D02*
Y3701D01*
X920Y3701*
X947Y2999D02*
X942D01*
X877Y3064*
Y3089*
X947D02*
X877D01*
X947Y3184D02*
X877Y3114D01*
Y3089*
X949Y2824D02*
Y2788D01*
X1087Y2649*
X1162*
X968Y3443D02*
Y3412D01*
X1098Y3282*
X968Y3517D02*
X827D01*
X804Y3494*
X974Y2896D02*
Y2825D01*
X974Y2824*
X1000Y2570D02*
Y2522D01*
X1042Y2479*
X1267*
X1292Y2504*
Y2604*
X1302Y2614*
X1344*
X1346Y2616*
X1000Y2824D02*
Y2792D01*
X1037Y2754*
X1346*
X1346Y2754*
X1013Y2157D02*
X3232D01*
X1025Y2824D02*
Y2916D01*
X997Y2944*
X972*
X907Y2879*
Y2784*
X972Y2719*
Y2572*
X974Y2570*
X1025Y2824D02*
Y2991D01*
X1017Y2999*
X1051Y2824D02*
X1025D01*
X1077D02*
Y2785D01*
X1087Y2774*
X1340*
X1341Y2774*
X1346*
X1077Y2824D02*
Y3030D01*
X1017Y3089*
X1082Y3443D02*
X1122D01*
X1124Y3445*
X1082Y3517D02*
X1112D01*
X1191Y3439*
X1102Y2570D02*
X1153D01*
X1162Y2579*
X1102Y2824D02*
Y3099D01*
X1017Y3184*
X1133Y3061D02*
X1157Y3037D01*
Y2999*
Y2929D02*
Y2814D01*
Y2929D02*
Y2999D01*
X1162Y2579D02*
X1232Y2649D01*
X1162D02*
Y2714D01*
X1222Y3119D02*
Y3332D01*
X1556Y3666*
X1227Y2869D02*
Y2929D01*
X1237*
X1267Y2899*
Y2834*
X1287Y2814*
X1345*
X1346Y2813*
X1227Y2999D02*
Y2979D01*
X1232Y2974*
X1257*
X1292Y2939*
Y2862*
X1302Y2852*
X1344*
X1344Y2852*
X1346*
X1232Y2579D02*
X1287Y2634D01*
Y2644*
X1297Y2654*
X1345*
X1346Y2656*
X1232Y2714D02*
Y2649D01*
X1346Y2597D02*
X1407D01*
X1439Y2628*
X1346Y2715D02*
X1415D01*
X1439Y2691*
X1346Y2734D02*
X1380D01*
X1380Y2734*
X1455*
X1504Y2783*
Y2824*
X1407Y2921*
X1387*
X1233Y3075*
X1206*
X1161Y3119*
X1152*
X1346Y2793D02*
X1248D01*
X1227Y2814*
X1346Y2793D02*
X1373D01*
X1374Y2794*
X1388*
X1409Y2773*
X1412*
X1346Y2833D02*
X1421D01*
X1446Y2807*
X1346Y2852D02*
X1384D01*
X1398Y2866*
X1408*
X1413Y2871*
X1346Y2872D02*
Y2909D01*
X1345Y2910*
X1362Y2283D02*
X1440D01*
X1379Y3083D02*
Y3053D01*
X1415Y3017*
X1463*
X1474Y3006*
Y2961*
X1474Y2961*
X1379Y3153D02*
Y3254D01*
X1405Y3280*
X1435Y2961D02*
X1381D01*
X1222Y3119*
X1454Y2961D02*
Y2900D01*
X1464Y2891*
X1489*
X1456Y3087D02*
Y3182D01*
X1498Y3223*
X1474Y2488D02*
Y2568D01*
X1464Y2578*
X1484Y3299D02*
X1424D01*
X1405Y3280*
X1494Y2961D02*
Y2896D01*
X1489Y2891*
X1504Y3394D02*
X1469D01*
X1448Y3415*
Y3439*
X1504Y3474D02*
X1470D01*
X1448Y3451*
Y3439*
X1510Y2283D02*
X1513D01*
Y2280*
X1562*
X1562Y2279*
X1712*
X1737Y2304*
X1737*
X1712Y2280*
X1510Y2283D02*
X1514D01*
Y2484*
X1513Y2485*
Y2488*
X1513Y2961D02*
Y3006D01*
X1456Y3063*
Y3087*
X1533Y2488D02*
Y2559D01*
X1514Y2578*
X1533Y2961D02*
Y3080D01*
X1526Y3087*
X1533Y2961D02*
Y2909D01*
X1551Y2891*
X1553Y2488D02*
Y2555D01*
X1576Y2578*
X1553Y2961D02*
Y2892D01*
X1551Y2891*
X1572Y2488D02*
X1592D01*
X1572Y2961D02*
Y3298D01*
X1574Y3299*
Y3394D02*
Y3299D01*
Y3474D02*
Y3394D01*
X1583Y2196D02*
X3140D01*
X1592Y2961D02*
Y2900D01*
X1601Y2891*
X1612Y2488D02*
Y2516D01*
X1612Y2517*
Y2565*
X1626Y2578*
X1612Y2488D02*
Y2380D01*
X1622Y2369*
X1612Y2961D02*
Y3124D01*
X1604Y3132*
X1622Y2369D02*
Y2314D01*
X1631Y2961D02*
Y3205D01*
X1712Y3286*
Y3458*
X1812Y3558*
X1651Y2961D02*
X1651Y2896D01*
Y2891*
X1651Y2891*
X1690Y2961D02*
Y3074D01*
X1816Y3199*
X1979*
X2056Y3275*
Y3362*
X2085Y3392*
X2193*
X2207Y3405*
X1692Y2369D02*
Y2314D01*
X1710Y2488D02*
Y2387D01*
X1692Y2369*
X1710Y2488D02*
Y2568D01*
X1701Y2578*
X1710Y2961D02*
X1710D01*
Y3048*
X1831Y3170*
X2212*
X2213Y3169*
X2212*
X2299Y3253*
X2293*
Y3259*
X1712Y2280D02*
X1757Y2324D01*
Y2629*
X1699Y2688*
Y2739*
X1757Y2798*
Y2919*
X1872Y3034*
X1877*
X1730Y2961D02*
Y2894D01*
X1726Y2891*
X1805Y3375D02*
X1805Y3290D01*
X1806Y3289*
Y3257*
X1736*
X1671Y3192*
Y2962*
X1671Y2961*
Y2961*
X1812Y3478D02*
X1812Y3398D01*
X1805*
Y3375*
X1818Y2281D02*
X1813D01*
Y2280*
X1712*
X1818Y2281D02*
Y2542D01*
X1818Y2542*
Y2577*
Y2596D02*
X1905D01*
X1937Y2564*
X1818Y2616D02*
X1919D01*
X1937Y2634*
X1818Y2675D02*
X1841D01*
X1842Y2674*
X2067*
X2122Y2619*
Y2524*
X2175Y2471*
X1818Y2695D02*
X2087D01*
X2172Y2609*
Y2584*
X2177Y2579*
X1818Y2715D02*
X1755D01*
X1740Y2699*
X1818Y2793D02*
X1895D01*
X1951Y2738*
X1818Y2813D02*
X2099D01*
X2127Y2784*
X1818Y2833D02*
X2177D01*
X2179Y2834*
X1818Y2852D02*
X2095D01*
X2127Y2884*
X2179*
X1875Y3375D02*
X1899D01*
X1943Y3420*
Y3476*
X1942Y3477*
X1877Y3034D02*
Y2974D01*
X1947Y2904*
X1882Y3478D02*
X1882Y3477D01*
X1942*
X1942Y3477*
X1882Y3558D02*
X1919D01*
X1941Y3536*
Y3478*
X1942Y3477*
X1888Y2281D02*
X1957D01*
X1937Y2564D02*
X2012D01*
X2014Y2566*
X1937Y2634D02*
X1995D01*
X2001Y2628*
X1947Y2904D02*
X1851D01*
X1818Y2872*
X1947Y3054D02*
Y2974D01*
X1966Y3257D02*
X1896D01*
X2021Y2738D02*
X2048D01*
Y2736*
X2077*
X2127Y2784D02*
Y2694D01*
X2157Y2664*
X2227*
X2127Y2784D02*
X2179D01*
X2137Y3034D02*
Y3084D01*
X2153Y3100*
X2177*
X2177Y3099*
X2179Y2734D02*
X2227D01*
X2297Y2664*
X2179Y2834D02*
X2222D01*
X2247Y2859*
Y2934*
X2217Y2964*
X2179Y2884D02*
X2177D01*
X2137Y2924*
Y2964*
X2207Y3259D02*
Y3318D01*
X2293Y3405*
X2207Y3493D02*
Y3418D01*
X2207Y3405*
X2217Y3034D02*
Y3085D01*
X2204Y3098*
X2178*
X2177Y3099*
X2245Y2471D02*
X2345D01*
X2247Y2579D02*
X2345D01*
X2277Y3493D02*
X2349D01*
X2365Y3477*
X2293Y3405D02*
X2298D01*
X2305Y3412*
Y3417*
X2365Y3477*
X2297Y2664D02*
X2372D01*
X2329Y618D02*
X2292D01*
X2365Y2734D02*
X2417D01*
X2447Y2764*
X2365Y2784D02*
X2397D01*
X2447Y2834*
X2365D02*
X2317D01*
X2307Y2824*
Y2744*
X2317Y2734*
X2365*
Y2884D02*
X2397D01*
X2447Y2834*
X2366Y516D02*
X2329D01*
X2383Y3257D02*
X2295D01*
X2293Y3259*
X2383Y3327D02*
Y3459D01*
X2365Y3477*
X2424Y617D02*
X2367D01*
X2366Y618*
X2439Y2579D02*
X2512D01*
X2440Y2471D02*
X2512D01*
X2442Y2664D02*
X2507D01*
X2447Y2764D02*
X2507D01*
X2447Y2834D02*
X2507D01*
X2636Y2369D02*
X3324D01*
X2723Y2734D02*
Y2639D01*
X2755Y2607*
X2879*
X2883Y2603*
X2723Y2829D02*
X2815D01*
X2816Y2829*
X2723Y3571D02*
X3105D01*
X2759Y3131D02*
X2859D01*
X2860Y3130*
X2759Y3201D02*
Y3264D01*
X2789Y3294*
X2767Y3484D02*
X2984D01*
X2987Y3486*
X2775Y2492D02*
X2805D01*
X2855Y2542*
X2915*
X2920Y2537*
Y2501*
X2775Y2492D02*
X2715D01*
X2714Y2491*
X2775Y2562D02*
X2717D01*
X2714Y2566*
X2816Y2759D02*
Y2667D01*
X2845Y2637*
X2831Y791D02*
Y589D01*
X2824Y582*
X2833Y1906D02*
X2721D01*
X2720Y1905*
X2833Y1906D02*
Y1839D01*
X2833Y1839*
X2860Y3130D02*
Y3073D01*
X2880Y3052*
X3080*
X3120Y3012*
X3120*
X3140Y2992*
X3188*
X3189Y2991*
X2860Y3225D02*
X2859D01*
X2789Y3294*
X2860Y3225D02*
X2873D01*
X2876Y3227*
X2895*
X2987Y3135*
X3021*
Y3130*
X2883Y2501D02*
Y2466D01*
X2894Y2456*
X3019*
X3079Y2516*
Y2671*
X3114Y2706*
X3224*
X3269Y2751*
Y2751*
X3289Y2771*
X3314*
X3361Y2818*
Y2840*
X3284Y2917*
Y3083*
X3256Y3111*
X3249*
X3228Y3090*
X3189*
X2894Y582D02*
Y507D01*
X2893Y506*
X2895Y2702D02*
Y2687D01*
X2845Y2637*
X2895Y2772D02*
X2973D01*
X2985Y2785*
X2900Y3815D02*
X2753D01*
X2588Y3979*
X2484*
X2400Y3895*
X2903Y1906D02*
Y1839D01*
X2833Y1769*
X2920Y2603D02*
Y2567D01*
X2914Y2561*
X2777*
X2775Y2562*
X2952Y3327D02*
X2822D01*
X2789Y3294*
X2962Y2927D02*
Y2864D01*
X2960Y2862*
X2962Y2927D02*
X3013D01*
Y2927*
X3065*
X2963Y506D02*
X3090D01*
Y506*
X3229*
X3232Y510*
X2985Y2690D02*
Y2631D01*
X2957Y2603*
X2987Y1906D02*
X2962D01*
X2962Y1906*
X2903*
X3005Y2997D02*
X3065D01*
X3021Y3225D02*
X3037D01*
X3134Y3127*
Y3022*
X3144Y3012*
X3188*
X3189Y3011*
X3022Y3327D02*
Y3225D01*
X3021Y3225*
X3030Y2862D02*
Y2877D01*
X3090*
X3110Y2897*
Y2922*
X3120Y2932*
X3189*
X3104Y2227D02*
X945D01*
X897Y2275*
X3132Y1797D02*
X2984D01*
X2982Y1799*
X3133Y1731D02*
Y1796D01*
X3132Y1797*
X3133Y1863D02*
Y1798D01*
X3132Y1797*
X3134Y1666D02*
Y1730D01*
X3133Y1731*
X3159Y1411D02*
X3129Y1441D01*
Y1466*
X3133Y1470*
X3189Y2794D02*
X3243D01*
X3259Y2810*
X3189Y2814D02*
X3137D01*
X3114Y2791*
Y2735*
X3189Y2834D02*
Y2834D01*
X3130*
X3094Y2798*
Y2798*
X3080Y2784*
Y2775*
X3189Y2853D02*
X3295D01*
X3314Y2835*
X3189Y2873D02*
X3231D01*
X3249Y2891*
X3189Y2893D02*
X3151D01*
X3135Y2877*
X3135*
X3048Y2790*
Y2535*
X3015Y2502*
X2958*
X2957Y2501*
X3189Y2952D02*
X3090D01*
X3065Y2927*
X3189Y2972D02*
X3090D01*
X3065Y2997*
X3189Y3031D02*
X3228D01*
X3250Y3010*
X3189Y3050D02*
X3242D01*
X3252Y3061*
X3225Y2572D02*
Y2512D01*
X3234Y2503*
X3252Y1542D02*
X3206D01*
X3201Y1537*
X3263Y3203D02*
Y3214D01*
X3260Y3217*
X3230*
X3225Y3212*
X3273Y3380D02*
Y3325D01*
X3283Y3203D02*
Y3249D01*
X3265Y3267*
X3295Y2517D02*
X3360D01*
X3360Y2517*
X3295Y2572D02*
Y2552D01*
X3295*
Y2517*
X3297Y1755D02*
X3256Y1797D01*
X3202*
X3302Y2681D02*
Y2644D01*
X3279Y2620*
X3245*
X3227Y2603*
Y2574*
X3225Y2572*
X3302Y3203D02*
X3300D01*
Y3298*
X3273Y3325*
X3303Y1019D02*
X3166D01*
X3322Y2681D02*
X3321D01*
Y2613*
X3294Y2585*
X3295*
Y2572*
X3322Y3203D02*
X3320D01*
Y3302*
X3343Y3325*
X3322Y1777D02*
X3319D01*
X3297Y1755*
X3342Y2681D02*
Y2605D01*
X3360Y2587*
X3343Y3380D02*
Y3325D01*
X3361Y2036D02*
X2646D01*
X2530Y1920*
X1081*
X963Y2037*
Y2046*
X1011Y2094*
X1098*
X1100Y2095*
X3361Y3203D02*
Y3261D01*
X3360Y3262*
X3374Y1128D02*
Y1020D01*
X3373Y1019*
X3378Y1214D02*
X3292D01*
X3289Y1211*
X3381Y3203D02*
Y3153D01*
X3375Y3147*
X3388Y1629D02*
Y1603D01*
X3387Y1602*
X3388Y1629D02*
X3366D01*
X3341Y1604*
Y1547*
X3335Y1541*
X3334*
X3248Y1455*
X3218*
X3203Y1470*
X3399Y2546D02*
Y2549D01*
X3360Y2587*
X3400Y1863D02*
Y1864D01*
X3400*
X3342Y1922*
X3192*
X3133Y1863*
X3400Y1863D02*
X3402D01*
X3499Y1766*
X3538*
X3540Y1768*
X3541*
X3401Y2681D02*
Y2757D01*
X3408Y2764*
X3411Y3114D02*
X3617D01*
X3649Y3146*
X3414Y1560D02*
X3393D01*
X3244Y1411*
X3159*
X3423Y2421D02*
X3208D01*
X3124Y2505*
Y2551*
X3423Y2421D02*
Y2461D01*
X3399Y2486*
Y2546*
X3435Y2517D02*
X3478D01*
X3491Y2530*
X3435Y2587D02*
X3399Y2551D01*
Y2546*
X3440Y2681D02*
Y2731D01*
X3451Y2741*
Y2824*
X3453Y2826*
X3449Y1912D02*
X3401Y1961D01*
Y2006*
X3460Y2419D02*
X3437D01*
Y2421*
X3423*
X3460Y3203D02*
Y3293D01*
X3461*
Y3393*
X3461Y3463D02*
Y3393D01*
X3461Y3393*
X3480Y2681D02*
Y2642D01*
X3470Y2632*
X3440*
X3435Y2627*
Y2587*
X3480Y3203D02*
Y3286D01*
X3516Y3322*
X3484Y3026D02*
X3649D01*
X3499Y2681D02*
Y2588D01*
X3500Y2587*
X3499Y3203D02*
Y3251D01*
X3510Y3262*
X3526*
X3586Y3322*
X3500Y2587D02*
Y2540D01*
X3491Y2530*
X3510Y3307D02*
Y3313D01*
X3516*
Y3322*
X3519Y2681D02*
Y2638D01*
X3570Y2587*
X3523Y1108D02*
Y1028D01*
X3521Y1025*
X3523Y1108D02*
X3591D01*
X3592Y1107*
X3523Y2975D02*
X3408D01*
X3315Y3068*
X3531Y3393D02*
X3600D01*
X3620Y3372*
X3538Y1571D02*
X3523D01*
X3463Y1511*
X3538Y1787D02*
Y1824D01*
X3449Y1912*
X3541Y1590D02*
X3443D01*
X3414Y1560*
X3541Y1630D02*
Y1629D01*
X3388*
X3541Y1649D02*
Y1649D01*
X3357*
X3250Y1546*
X3252*
Y1542*
X3541Y1669D02*
X3318D01*
X3264Y1615*
X3541Y1669D02*
X3268D01*
X3200Y1601*
X3541Y1689D02*
X3286D01*
X3257Y1717*
X3541Y1689D02*
Y1689D01*
X3261*
X3242Y1670*
X3208*
X3204Y1666*
X3541Y1709D02*
Y1689D01*
Y1709D02*
Y1710D01*
X3312*
X3269Y1753*
X3225*
X3203Y1731*
X3541Y1728D02*
Y1728D01*
X3323*
X3297Y1754*
Y1755*
X3541Y1748D02*
Y1748D01*
X3404*
X3327Y1825*
X3326*
X3287Y1864*
X3203*
Y1863*
X3541Y1748D02*
X3471D01*
X3433Y1786*
X3554Y2886D02*
X3422D01*
X3315Y2993*
X3558Y2681D02*
Y2770D01*
X3584Y2796*
X3569Y3530D02*
X2763D01*
X3570Y2587D02*
Y2532D01*
X3583Y2028D02*
X3423D01*
X3401Y2006*
X3583Y2028D02*
X3646D01*
X3647Y2027*
X3586Y3322D02*
X3620Y3356D01*
Y3372*
X3586Y1545D02*
Y1524D01*
X3476Y1414*
X3329*
X3318Y1403*
Y1362*
X3313Y1356*
X3599Y2741D02*
Y2717D01*
X3598Y2716*
Y2681*
X3606Y1545D02*
Y1512D01*
X3454Y1361*
X3388*
X3383Y1356*
X3606Y1813D02*
Y1862D01*
X3582Y1886*
Y1957*
X3583Y1958*
X3617Y2681D02*
Y2642D01*
X3639Y2621*
X3674*
X3709Y2586*
X3626Y1813D02*
Y1842D01*
X3649Y1866*
Y1955*
X3647Y1957*
X3637Y2681D02*
Y2681D01*
X3724*
X3774Y2630*
Y2586*
X3779*
X3637Y3203D02*
Y3309D01*
X3683Y3355*
X3645Y1545D02*
Y1518D01*
X3436Y1309*
Y1188*
X3420Y1172*
X3348*
X3304Y1128*
X3645Y1813D02*
Y1836D01*
X3708Y1899*
Y1953*
X3712Y1957*
X3648Y3081D02*
X3359D01*
X3294Y3146*
X3665Y1545D02*
X3665D01*
Y1505*
X3464Y1303*
Y1174*
X3417Y1127*
X3375*
X3374Y1128*
X3665Y1813D02*
Y1828D01*
X3685Y1848*
X3675Y1679D02*
X3669Y1678D01*
X3683Y3355D02*
Y3484D01*
X3689Y3490*
X3685Y1848D02*
X3730Y1893D01*
X3777*
X3813Y1930*
X3685Y1545D02*
X3685D01*
Y1446*
X3589Y1349*
Y1187*
X3592Y1183*
Y1177*
X3685Y1545D02*
Y1486D01*
X3523Y1325*
Y1178*
X3523Y1178*
X3685Y1813D02*
Y1848D01*
X3685Y1848*
X3689Y3490D02*
Y3490D01*
X3688*
X3687Y3555*
X3705Y1545D02*
Y1430D01*
X3652Y1377*
Y1186*
X3667Y1171*
X3705Y1813D02*
X3705D01*
Y1790*
X3718Y1777*
X3737*
X3709Y2516D02*
Y2496D01*
X3744Y2461*
X3711Y2755D02*
X3657D01*
X3650Y2762*
Y2802*
X3711Y2775D02*
X3757D01*
X3767Y2766*
Y2718*
X3791Y2693*
X3874*
Y2693*
X3711Y2794D02*
X3793D01*
X3815Y2772*
X3711Y2814D02*
X3787D01*
X3815Y2842*
X3711Y2834D02*
X3663D01*
X3645Y2852*
Y2887*
X3711Y2912D02*
X3762D01*
X3769Y2906*
Y2891*
X4015*
X4041Y2865*
X3711Y2932D02*
X3664D01*
X3644Y2952*
X3711Y2952D02*
X3750D01*
X3757Y2946*
X3889*
X3711Y2972D02*
X3770D01*
X3795Y2997*
X3815*
X3820Y3002*
X3711Y2991D02*
Y2992D01*
X3750*
X3831Y3073*
X3820*
Y3072*
X3711Y3090D02*
X3758D01*
X3819Y3151*
X3849*
X3711Y3129D02*
Y3284D01*
X3733Y3306*
X3712Y2027D02*
X3647D01*
X3724Y1545D02*
Y1421D01*
X3695Y1392*
Y1347*
X3695Y1347*
Y1344*
X3724Y1813D02*
Y1790D01*
X3737Y1777*
X3733Y3306D02*
Y3434D01*
X3739Y3440*
X3737Y1777D02*
X3755D01*
X3764Y1786*
Y1809*
X3764Y1809*
Y1813*
X3739Y3440D02*
X3808D01*
X3831Y3417*
X3744Y1545D02*
X3744D01*
Y1410*
X3767Y1387*
Y1353*
X3765Y1352*
Y1344*
X3744Y1813D02*
Y1847D01*
X3765Y1869*
X3986*
X4037Y1818*
Y1762*
X4040Y1759*
X3764Y1545D02*
Y1425D01*
X3810Y1378*
Y1307*
X3729Y1226*
Y1185*
X3735Y1179*
X3764Y1813D02*
Y1834D01*
X3777Y1847*
X3906*
X3938Y1815*
X3779Y2516D02*
Y2496D01*
X3744Y2461*
X3783Y1542D02*
Y1434D01*
X3833Y1384*
Y1250*
X3803Y1220*
Y1190*
X3803Y1190*
Y1179*
X3783Y1816D02*
Y1813D01*
X3792Y1823*
X3844*
X3858Y1809*
X3871*
X3785Y2187D02*
X3606D01*
X3809Y1590D02*
Y1591D01*
X3834*
X3847Y1579*
Y1578*
X3838Y1570*
X3810*
X3812Y1571*
X3809Y1610D02*
X3840D01*
X3865Y1584*
Y708*
X3784Y627*
X3568*
X3561Y634*
X3809Y1630D02*
X3848D01*
X3915Y1563*
Y1562*
X3962Y1515*
X3809Y1630D02*
X3846D01*
X3888Y1588*
Y1462*
X3907Y1443*
X3962*
X3809Y1649D02*
X3893D01*
X3893Y1649*
X3925*
X3925Y1649*
X3944*
X3809Y1669D02*
X3850D01*
X3900Y1719*
X3928*
X3928Y1719*
X3944*
X3809Y1768D02*
X3892D01*
X3938Y1815*
X3809Y1768D02*
Y1748D01*
X3813Y1930D02*
X3873Y1989D01*
X3815Y2772D02*
X3870D01*
X3815Y2842D02*
X3870D01*
X3820Y3002D02*
Y3072*
X3875D01*
X3849Y3151D02*
Y3171D01*
X3869Y3191*
X3984*
X4029Y3236*
X3849Y3241D02*
Y3226D01*
X3769Y3146*
Y3131*
X3747Y3109*
X3711*
X3849Y3241D02*
X3924D01*
X3849Y3311D02*
Y3399D01*
X3831Y3417*
X3870Y2772D02*
Y2766D01*
X3944Y2693*
X3873Y1989D02*
Y2121D01*
X3879Y2128*
X3874Y2693D02*
X3853D01*
X3829Y2669*
Y2636*
X3829Y2635*
Y2481*
X3769Y2421*
X3729*
X3727Y2419*
X3460*
X3874Y2693D02*
Y2621D01*
X3874Y2621*
X3879Y2321D02*
Y2316D01*
X3881Y2315*
X3596*
X3401Y2120*
Y2006*
X3889Y2946D02*
X3944D01*
X3889Y3016D02*
X3944D01*
X3896Y1920D02*
X3823D01*
X3813Y1930*
X3919Y3151D02*
Y3116D01*
X3875Y3072*
X3924Y3241D02*
X3939D01*
X4029Y3331*
Y3358*
X3924Y3366D02*
Y3311D01*
X3944Y1649D02*
X4042D01*
X4111Y1581*
X3944Y2693D02*
Y2621D01*
X3944Y2621*
X4024Y3146D02*
X4127D01*
X4127Y3146*
X4032Y1515D02*
Y1443D01*
X4041Y2965D02*
Y3058D01*
X4024Y3076*
X4096Y2132D02*
Y2056D01*
X4025Y1985*
X3876*
X3873Y1989*
X4099Y3551D02*
Y3611D01*
X4099Y3358D02*
Y3354D01*
X4099*
Y3481*
X4099Y3358D02*
Y3297D01*
X4099*
Y3236*
X4111Y1581D02*
Y1525D01*
X4099Y1513*
X4032*
Y1515*
D02*
D19*
X3189Y2755D03*
Y2775D03*
Y2794D03*
Y2814D03*
Y2834D03*
Y2853D03*
Y2873D03*
Y2893D03*
Y2912D03*
Y2932D03*
Y2952D03*
Y2972D03*
Y2991D03*
Y3011D03*
Y3031D03*
Y3050D03*
Y3070D03*
Y3090D03*
Y3109D03*
Y3129D03*
X3711Y2755D03*
Y2775D03*
Y2794D03*
Y2814D03*
Y2834D03*
Y2853D03*
Y2873D03*
Y2893D03*
Y2912D03*
Y2932D03*
Y2952D03*
Y2972D03*
Y2991D03*
Y3011D03*
Y3031D03*
Y3050D03*
Y3070D03*
Y3090D03*
Y3109D03*
Y3129D03*
D02*
D70*
X3263Y2681D03*
Y3203D03*
X3283Y2681D03*
Y3203D03*
X3302Y2681D03*
Y3203D03*
X3322Y2681D03*
Y3203D03*
X3342Y2681D03*
Y3203D03*
X3361Y2681D03*
Y3203D03*
X3381Y2681D03*
Y3203D03*
X3401Y2681D03*
Y3203D03*
X3420Y2681D03*
Y3203D03*
X3440Y2681D03*
Y3203D03*
X3460Y2681D03*
Y3203D03*
X3480Y2681D03*
Y3203D03*
X3499Y2681D03*
Y3203D03*
X3519Y2681D03*
Y3203D03*
X3539Y2681D03*
Y3203D03*
X3558Y2681D03*
Y3203D03*
X3578Y2681D03*
Y3203D03*
X3598Y2681D03*
Y3203D03*
X3617Y2681D03*
Y3203D03*
X3637Y2681D03*
Y3203D03*
D02*
D71*
X3414Y1560D03*
X3463Y1511D03*
X3683Y3355D03*
X3689Y3490D03*
X3733Y3306D03*
X3739Y3440D03*
D02*
D20*
X1129Y246D03*
Y316D03*
X1379Y3083D03*
Y3153D03*
X1937Y2564D03*
Y2634D03*
X1947Y2904D03*
Y2974D03*
X2137Y2964D03*
Y3034D03*
X2217Y2964D03*
Y3034D03*
X2383Y3257D03*
Y3327D03*
X2447Y2764D03*
Y2834D03*
X2572Y939D03*
Y1009D03*
X2759Y3131D03*
Y3201D03*
X2775Y2492D03*
Y2562D03*
X2816Y2759D03*
Y2829D03*
X2831Y791D03*
Y861D03*
X2833Y1769D03*
Y1839D03*
X2895Y2702D03*
Y2772D03*
X3065Y2927D03*
Y2997D03*
X3360Y2517D03*
Y2587D03*
X3378Y1214D03*
Y1284D03*
X3435Y2517D03*
Y2587D03*
X3523Y1108D03*
Y1178D03*
X3583Y1958D03*
Y2028D03*
X3592Y1107D03*
Y1177D03*
X3647Y1957D03*
Y2027D03*
X3709Y2516D03*
Y2586D03*
X3712Y1957D03*
Y2027D03*
X3735Y1109D03*
Y1179D03*
X3779Y2516D03*
Y2586D03*
X3803Y1109D03*
Y1179D03*
X3815Y2772D03*
Y2842D03*
X3820Y3002D03*
Y3072D03*
X3849Y3241D03*
Y3311D03*
X3889Y2946D03*
Y3016D03*
X3924Y3241D03*
Y3311D03*
X3944Y1649D03*
Y1719D03*
X4024Y3076D03*
Y3146D03*
X4099Y3481D03*
Y3551D03*
D02*
D21*
X968Y646D03*
X1068D03*
X1168D03*
X4041Y2865D03*
Y2965D03*
D02*
D22*
X2292Y516D03*
Y618D03*
X2329Y516D03*
Y618D03*
X2366Y516D03*
Y618D03*
X2883Y2501D03*
Y2603D03*
X2920Y2501D03*
Y2603D03*
X2957Y2501D03*
Y2603D03*
D02*
D23*
X2723Y2734D03*
Y2829D03*
X2985Y2690D03*
Y2785D03*
D02*
D24*
X535Y2514D03*
X605D03*
X775Y2592D03*
X776Y2434D03*
X777Y2514D03*
X845Y2592D03*
X846Y2434D03*
X847Y2514D03*
X850Y3639D03*
X920D03*
X947Y2999D03*
Y3089D03*
Y3184D03*
X1017Y2999D03*
Y3089D03*
Y3184D03*
X1152Y3119D03*
X1157Y2814D03*
Y2929D03*
Y2999D03*
X1162Y2579D03*
Y2649D03*
X1222Y3119D03*
X1227Y2814D03*
Y2929D03*
Y2999D03*
X1232Y2579D03*
Y2649D03*
X1440Y2283D03*
X1456Y3087D03*
X1504Y3394D03*
Y3474D03*
X1510Y2283D03*
X1526Y3087D03*
X1533Y640D03*
X1574Y3394D03*
Y3474D03*
X1603Y640D03*
X1622Y2369D03*
X1692D03*
X1805Y3375D03*
X1812Y3478D03*
Y3558D03*
X1818Y2281D03*
X1875Y3375D03*
X1882Y3478D03*
Y3558D03*
X1888Y2281D03*
X1951Y2738D03*
X2021D03*
X2025Y436D03*
X2095D03*
X2175Y2471D03*
X2177Y2579D03*
X2207Y3493D03*
X2227Y2664D03*
X2245Y2471D03*
X2247Y2579D03*
X2277Y3493D03*
X2291Y695D03*
X2293Y432D03*
X2297Y2664D03*
X2349Y937D03*
X2361Y695D03*
X2363Y432D03*
X2372Y2664D03*
X2419Y937D03*
X2442Y2664D03*
X2520Y1511D03*
X2590D03*
X2650Y1905D03*
X2720D03*
X2824Y582D03*
X2832Y1557D03*
Y1664D03*
X2833Y1906D03*
X2893Y506D03*
X2894Y582D03*
X2902Y1557D03*
Y1664D03*
X2903Y1906D03*
X2952Y3327D03*
X2960Y2862D03*
X2963Y506D03*
X3022Y3327D03*
X3030Y2862D03*
X3130Y1601D03*
X3131Y1537D03*
X3132Y1797D03*
X3133Y1470D03*
Y1731D03*
Y1863D03*
X3134Y1666D03*
X3200Y1601D03*
X3201Y1537D03*
X3202Y1797D03*
X3203Y1470D03*
Y1731D03*
Y1863D03*
X3204Y1666D03*
X3225Y2572D03*
X3273Y3325D03*
X3295Y2572D03*
X3303Y1019D03*
X3304Y1128D03*
X3304Y824D03*
X3304Y752D03*
X3313Y1356D03*
X3343Y3325D03*
X3373Y1019D03*
X3374Y1128D03*
X3374Y824D03*
X3374Y752D03*
X3383Y1356D03*
X3461Y3393D03*
X3491Y634D03*
X3500Y2587D03*
X3516Y3322D03*
X3531Y3393D03*
X3561Y634D03*
X3570Y2587D03*
X3586Y3322D03*
X3695Y1344D03*
X3765D03*
X3849Y3151D03*
X3874Y2621D03*
X3874Y2693D03*
X3919Y3151D03*
X3944Y2621D03*
X3944Y2693D03*
X3962Y1443D03*
Y1515D03*
X4029Y3358D03*
X4029Y3236D03*
X4032Y1443D03*
Y1515D03*
X4099Y3358D03*
X4099Y3236D03*
X4102Y1919D03*
X4105Y1813D03*
X4172Y1919D03*
X4175Y1813D03*
D02*
D25*
X2860Y3130D03*
Y3225D03*
X3021Y3130D03*
Y3225D03*
D02*
D26*
X1435Y2488D03*
Y2961D03*
X1454Y2488D03*
Y2961D03*
X1474Y2488D03*
Y2961D03*
X1494Y2488D03*
Y2961D03*
X1513Y2488D03*
X1513Y2961D03*
X1533Y2488D03*
Y2961D03*
X1553Y2488D03*
Y2961D03*
X1572Y2488D03*
Y2961D03*
X1592Y2488D03*
Y2961D03*
X1612Y2488D03*
Y2961D03*
X1631Y2488D03*
Y2961D03*
X1651Y2488D03*
Y2961D03*
X1671Y2488D03*
Y2961D03*
X1690Y2488D03*
Y2961D03*
X1710Y2488D03*
Y2961D03*
X1730Y2488D03*
Y2961D03*
D02*
D27*
X1346Y2577D03*
Y2597D03*
Y2616D03*
Y2636D03*
Y2656D03*
Y2675D03*
Y2695D03*
Y2715D03*
Y2734D03*
Y2754D03*
Y2774D03*
Y2793D03*
Y2813D03*
Y2833D03*
Y2852D03*
Y2872D03*
X1818Y2577D03*
Y2596D03*
Y2616D03*
Y2636D03*
Y2655D03*
Y2675D03*
Y2695D03*
Y2715D03*
Y2734D03*
Y2754D03*
Y2774D03*
Y2793D03*
Y2813D03*
Y2833D03*
Y2852D03*
Y2872D03*
D02*
D28*
X1484Y3299D03*
X1574D03*
X1806Y3257D03*
X1896D03*
X3896Y1920D03*
X3986D03*
D02*
D29*
X651Y3179D03*
Y3210D03*
Y3242D03*
Y3273D03*
Y3305D03*
D02*
D72*
X433Y3076D03*
Y3407D03*
X642Y3076D03*
Y3407D03*
D02*
D73*
X968Y3443D03*
Y3480D03*
Y3517D03*
X1082Y3443D03*
Y3480D03*
Y3517D03*
D02*
D74*
X1025Y3480D03*
D02*
D75*
X2179Y2734D03*
Y2784D03*
Y2834D03*
Y2884D03*
X2365Y2734D03*
Y2784D03*
Y2834D03*
Y2884D03*
D02*
D76*
X949Y2570D03*
Y2824D03*
X974Y2570D03*
Y2824D03*
X1000Y2570D03*
Y2824D03*
X1025Y2570D03*
Y2824D03*
X1051Y2570D03*
Y2824D03*
X1077Y2570D03*
Y2824D03*
X1102Y2570D03*
Y2824D03*
D02*
D77*
X2345Y2579D03*
X2345Y2471D03*
X2439Y2579D03*
X2440Y2471D03*
D02*
D78*
X2207Y3259D03*
Y3405D03*
X2293Y3259D03*
Y3405D03*
D02*
D79*
X1389Y249D03*
Y383D03*
X1554Y248D03*
Y382D03*
D02*
D80*
X1727Y539D03*
Y639D03*
X2093Y539D03*
Y639D03*
D02*
D81*
X3229Y648D03*
X3232Y510D03*
X3363Y648D03*
X3366Y510D03*
D02*
D82*
X3879Y2128D03*
Y2321D03*
X4096Y2132D03*
Y2325D03*
D02*
D83*
X3538Y1571D03*
Y1787D03*
X3812Y1571D03*
Y1787D03*
D02*
D84*
X3541Y1590D03*
Y1610D03*
Y1630D03*
Y1649D03*
Y1669D03*
Y1689D03*
Y1709D03*
Y1728D03*
Y1748D03*
Y1768D03*
X3809Y1590D03*
Y1610D03*
Y1630D03*
Y1649D03*
Y1669D03*
Y1689D03*
Y1709D03*
Y1728D03*
Y1748D03*
Y1768D03*
D02*
D85*
X3567Y1542D03*
Y1816D03*
X3783Y1542D03*
Y1816D03*
D02*
D86*
X3586Y1545D03*
Y1813D03*
X3606Y1545D03*
Y1813D03*
X3626Y1545D03*
Y1813D03*
X3645Y1545D03*
Y1813D03*
X3665Y1545D03*
Y1813D03*
X3685Y1545D03*
Y1813D03*
X3705Y1545D03*
Y1813D03*
X3724Y1545D03*
Y1813D03*
X3744Y1545D03*
Y1813D03*
X3764Y1545D03*
Y1813D03*
D02*
D87*
X3675Y1679D03*
D02*
D88*
X1664Y1274D03*
X1664Y1411D03*
Y1702D03*
X1664Y1564D03*
X2268Y1381D03*
Y1488D03*
Y1702D03*
X2268Y1595D03*
X2268Y1274D03*
D02*
D89*
X2271Y1111D03*
X2571D03*
D02*
D90*
X1168Y1407D03*
X1463D03*
D02*
D91*
X1348Y859D03*
Y1218D03*
D02*
D92*
X753Y995D03*
Y1472D03*
D02*
D93*
X1377Y600D03*
X1457Y560D03*
Y640D03*
D02*
D94*
X584Y405D03*
Y539D03*
X714Y405D03*
Y539D03*
X842Y405D03*
Y539D03*
X1239Y249D03*
Y383D03*
X1347Y1562D03*
X1481D03*
D02*
D95*
X464Y1678D03*
Y1878D03*
Y2091D03*
D02*
D96*
X3400Y1863D03*
X3449Y1912D03*
D02*
D97*
X2647Y1635D03*
Y1769D03*
X2685Y1635D03*
X2722D03*
Y1769D03*
D02*
D98*
X759Y2092D03*
D02*
D99*
X740Y3795D03*
Y3895D03*
X840Y3795D03*
Y3895D03*
X940Y3795D03*
Y3895D03*
X1040Y3795D03*
Y3895D03*
X1100Y1995D03*
Y2095D03*
X1140Y3795D03*
Y3895D03*
X1200Y1995D03*
Y2095D03*
X1240Y3795D03*
Y3895D03*
X1300Y1995D03*
Y2095D03*
X1340Y3795D03*
Y3895D03*
X1400Y1995D03*
Y2095D03*
X1440Y3795D03*
Y3895D03*
X1500Y1995D03*
Y2095D03*
X1540Y3795D03*
Y3895D03*
X1600Y1995D03*
Y2095D03*
X1640Y3795D03*
Y3895D03*
X1700Y1995D03*
Y2095D03*
X1800Y1995D03*
Y2095D03*
Y3795D03*
Y3895D03*
X1900Y3795D03*
Y3895D03*
X2000Y1995D03*
Y2095D03*
Y3795D03*
Y3895D03*
X2100Y1995D03*
Y2095D03*
Y3795D03*
Y3895D03*
X2200Y1995D03*
Y2095D03*
Y3795D03*
Y3895D03*
X2300Y1995D03*
Y2095D03*
Y3795D03*
Y3895D03*
X2400Y1995D03*
Y2095D03*
Y3795D03*
Y3895D03*
X2500Y1995D03*
Y2095D03*
Y3795D03*
Y3895D03*
D02*
D100*
X575Y3209D03*
X702Y2514D03*
X739Y3274D03*
X849Y2665D03*
X877Y3089D03*
X897Y2275D03*
X920Y3701D03*
X974Y2896D03*
X1013Y2157D03*
X1098Y3282D03*
X1124Y3445D03*
X1133Y3061D03*
X1162Y2714D03*
X1191Y3439D03*
X1227Y2869D03*
X1232Y2714D03*
X1314Y561D03*
X1345Y2910D03*
X1362Y2283D03*
X1405Y3280D03*
X1412Y2773D03*
X1413Y2871D03*
X1439Y2628D03*
Y2691D03*
X1446Y2807D03*
X1448Y3439D03*
X1464Y2578D03*
X1489Y2891D03*
X1498Y3223D03*
X1514Y2578D03*
X1551Y2891D03*
X1554Y561D03*
X1556Y3666D03*
X1576Y2578D03*
X1583Y2196D03*
X1601Y2891D03*
X1604Y3132D03*
X1622Y2314D03*
X1626Y2578D03*
X1651Y2891D03*
X1692Y2314D03*
X1701Y2578D03*
X1726Y2891D03*
X1740Y2699D03*
X1877Y3034D03*
X1942Y3477D03*
X1947Y3054D03*
X1957Y2281D03*
X1966Y3257D03*
X2001Y2628D03*
X2014Y2566D03*
X2077Y2736D03*
X2177Y3099D03*
X2320Y303D03*
X2365Y3477D03*
X2424Y617D03*
X2425Y1222D03*
X2507Y2664D03*
Y2764D03*
Y2834D03*
X2512Y2579D03*
X2512Y2471D03*
X2521Y1425D03*
X2636Y2369D03*
X2714Y2491D03*
Y2566D03*
X2723Y3571D03*
X2763Y3530D03*
X2767Y3484D03*
X2789Y3294D03*
X2845Y2637D03*
X2900Y3815D03*
X2962Y2927D03*
X2983Y861D03*
X2987Y1906D03*
Y3486D03*
X3005Y2997D03*
X3029Y1571D03*
X3030Y2862D03*
X3080Y2775D03*
X3104Y2227D03*
X3105Y3571D03*
X3114Y2735D03*
X3118Y752D03*
X3124Y2551D03*
X3140Y2196D03*
X3159Y1411D03*
X3166Y1019D03*
X3225Y3212D03*
X3232Y2157D03*
X3234Y2503D03*
X3249Y2891D03*
X3250Y3010D03*
X3252Y1542D03*
Y3061D03*
X3257Y1717D03*
X3259Y2810D03*
X3264Y1615D03*
X3265Y3267D03*
X3273Y3380D03*
X3289Y1211D03*
X3294Y3146D03*
X3295Y2517D03*
X3314Y2835D03*
X3315Y2993D03*
Y3068D03*
X3322Y1777D03*
X3324Y2369D03*
X3343Y3380D03*
X3360Y3262D03*
X3361Y2036D03*
X3375Y3147D03*
X3387Y1602D03*
X3401Y2006D03*
X3407Y1453D03*
X3408Y2764D03*
X3411Y3114D03*
X3433Y1786D03*
X3453Y2826D03*
X3460Y2419D03*
X3461Y3463D03*
X3484Y3026D03*
X3491Y2530D03*
X3510Y3307D03*
X3521Y1025D03*
X3523Y2975D03*
X3554Y2886D03*
X3569Y3530D03*
X3570Y2532D03*
X3584Y2796D03*
X3599Y2741D03*
X3606Y2187D03*
X3620Y3372D03*
X3644Y2952D03*
X3645Y2887D03*
X3648Y3081D03*
X3649Y3026D03*
Y3146D03*
X3650Y2802D03*
X3667Y1171D03*
X3669Y1678D03*
X3687Y3555D03*
X3744Y2461D03*
X3772Y1012D03*
X3787Y1983D03*
X3820Y3002D03*
X3831Y3417D03*
X3870Y2772D03*
Y2842D03*
X3871Y1809D03*
X3875Y3072D03*
X3924Y3366D03*
X3938Y1815D03*
X3944Y2946D03*
Y3016D03*
X4040Y1759D03*
X4099Y3611D03*
X4105Y1697D03*
X4111Y1581D03*
X4127Y3146D03*
D02*
D101*
X584Y405D02*
X714Y405D01*
Y539D02*
X842D01*
X842Y539*
Y405D02*
X1038D01*
X1039*
X1129Y316*
Y246D02*
X1236D01*
X1239Y249*
Y383D02*
X1389D01*
X1389Y383*
X1314Y561D02*
X1194D01*
X1038Y405*
X1377Y600D02*
Y672D01*
X1435Y731*
X1706*
X1802Y827*
Y1426*
X1664Y1564*
X1377Y600D02*
Y395D01*
X1389Y383*
Y249D02*
X1270D01*
X1239Y249*
X1457Y560D02*
X1552D01*
X1554Y561*
X1533Y640D02*
X1496D01*
Y640*
X1457*
X1554Y248D02*
X1666D01*
X1729Y311*
Y537*
X1727Y539*
X1554Y248D02*
X1427D01*
X1389Y249*
X1554Y382D02*
Y561D01*
X1554Y561*
X1603Y640D02*
X1726D01*
X1727Y639*
X2025Y436D02*
Y333D01*
X2056Y303*
X2304Y303*
X2304Y303*
X2320Y303*
X2095Y436D02*
Y349D01*
X2095Y348*
X2095Y436D02*
Y537D01*
X2093Y539*
X2219Y695D02*
X2291D01*
X2268Y1595D02*
X2401D01*
X2425Y1571*
Y1222*
X2271Y1111D02*
Y1272D01*
X2268Y1274*
X2349Y937D02*
Y874D01*
X2363Y861*
X2772*
X2772Y861*
X2831*
X2349Y937D02*
X2311D01*
X2270Y978*
Y1041*
X2271Y1042*
Y1111*
X2361Y695D02*
X2417D01*
X2485Y636*
Y368*
X2418Y301*
X2344*
X2344Y302*
X2319*
X2320Y303*
X2363Y432D02*
Y346D01*
X2320Y303*
X2366Y516D02*
Y436D01*
X2363Y432*
X2419Y937D02*
X2570D01*
X2572Y939*
X2571Y1111D02*
Y1180D01*
X2529Y1222*
X2425*
X2571Y1111D02*
Y1012D01*
D02*
D102*
X2291Y695D02*
Y619D01*
X2292Y618*
Y516D02*
X2169Y639D01*
X2093*
X2293Y432D02*
Y516D01*
X2292Y516*
X2520Y1511D02*
Y1510D01*
X2520*
Y1662*
X2553Y1696*
X2657*
X2685Y1668*
Y1635*
X2520Y1511D02*
Y1426D01*
X2521Y1425*
X2571Y1012D02*
X2572Y1009D01*
X2590Y1511D02*
Y1458D01*
X2590Y1458*
X2630Y1510D02*
X2588D01*
X2589Y1511*
X2590*
X2647Y1635D02*
Y1527D01*
X2630Y1510*
X2647Y1769D02*
Y1903D01*
X2650Y1905*
X2722Y1635D02*
Y1558D01*
X2673Y1510*
X2630*
X2630Y1510*
X2722Y1769D02*
X2833D01*
X2833Y1769*
X2831Y861D02*
X2983D01*
X2983Y861*
X2832Y1557D02*
Y1664D01*
X2833Y1769D02*
Y1769D01*
X2832*
Y1664*
X2902Y1557D02*
Y1483D01*
X2844Y1425*
X2521*
X2902Y1664D02*
Y1557D01*
X3130Y1601D02*
X3060D01*
X3029Y1571*
X3131Y1537D02*
X3062D01*
X3029Y1571*
X3229Y648D02*
X3150D01*
X3117Y681*
X3118*
X3118Y752*
X3304Y824D02*
X3146Y824D01*
X3118Y796*
X3118Y752*
X3304Y752D02*
X3119D01*
X3118Y752*
X3383Y1356D02*
Y1288D01*
X3378Y1284*
X3463Y1511D02*
X3458D01*
Y1501*
X3442Y1487*
X3442*
X3407Y1453*
X3491Y634D02*
X3491Y724D01*
X3461Y754*
X3376*
X3374Y752*
X3491Y634D02*
Y791D01*
X3464Y818*
X3380Y818*
X3374Y824*
X3491Y634D02*
Y539D01*
X3462Y510*
X3366*
X3491Y634D02*
X3378D01*
X3363Y648*
X3626Y1813D02*
X3645D01*
X3712Y1957D02*
X3647D01*
X3712D02*
X3761D01*
X3787Y1983*
X3735Y1109D02*
Y1048D01*
X3772Y1012*
X3785Y2187D02*
Y1985D01*
X3787Y1983*
X3803Y1109D02*
Y1043D01*
X3772Y1012*
X3944Y1719D02*
X4004D01*
X4005Y1718*
X3986Y1920D02*
X4101D01*
X4102Y1919*
X4096Y2325D02*
X4077D01*
X3972Y2220*
X3820*
X3788Y2188*
X3785*
Y2187*
X4105Y1813D02*
Y1697D01*
X4105Y1697*
X4172Y1919D02*
Y1815D01*
X4175Y1813*
D02*
D103*
X2095Y348D03*
X2219Y695D03*
X2590Y1458D03*
X4005Y1718D03*
D02*
D104*
X2982Y1799D03*
D02*
D105*
X464Y1878D02*
X951D01*
X987Y1843*
X1379*
X1484Y1738*
Y1565*
X1481Y1562*
X584Y539D02*
X464Y660D01*
Y1678*
X753Y995D02*
Y861D01*
X968Y646*
X753Y1472D02*
X670D01*
X464Y1678*
X759Y2092D02*
Y2091D01*
X464*
X1168Y1407D02*
X1136D01*
X1066Y1350*
Y762*
X1068Y646*
X1168D02*
Y782D01*
X1252Y866*
X1342*
X1348Y859*
X1347Y1562D02*
X852D01*
X753Y1472*
X1348Y1218D02*
X1321Y1218D01*
Y1223*
X1318*
X1314Y1226*
X1343*
X1345Y1224*
X1344*
X1345Y1222*
X1347Y1224*
X1348Y1250*
Y1497*
X1347Y1497*
Y1562*
X1664Y1411D02*
X1468Y1411D01*
X1467*
X1463Y1407*
X1664Y1564D02*
X1489D01*
X1481Y1562*
X2268Y1381D02*
Y1488D01*
X0Y0D02*
M02*
