%FSLAX23Y23*%
%MOIN*%
G04 EasyPC Gerber Version 17.0 Build 3379 *
%ADD77C,0.00500*%
%ADD76C,0.10000*%
X0Y0D02*
D02*
D76*
X464Y1678D03*
Y1878D03*
Y2091D03*
X575Y3209D03*
X702Y2514D03*
X739Y3274D03*
X740Y3795D03*
Y3895D03*
X759Y2092D03*
X840Y3795D03*
Y3895D03*
X849Y2665D03*
X877Y3089D03*
X897Y2275D03*
X920Y3701D03*
X940Y3795D03*
Y3895D03*
X968Y646D03*
X974Y2896D03*
X1013Y2157D03*
X1040Y3795D03*
Y3895D03*
X1068Y646D03*
X1098Y3282D03*
X1100Y1995D03*
Y2095D03*
X1124Y3445D03*
X1133Y3061D03*
X1140Y3795D03*
Y3895D03*
X1162Y2714D03*
X1168Y1407D03*
X1168Y646D03*
X1191Y3439D03*
X1200Y1995D03*
Y2095D03*
X1227Y2869D03*
X1232Y2714D03*
X1240Y3795D03*
Y3895D03*
X1300Y1995D03*
Y2095D03*
X1314Y561D03*
X1340Y3795D03*
Y3895D03*
X1345Y2910D03*
X1362Y2283D03*
X1400Y1995D03*
Y2095D03*
X1405Y3280D03*
X1412Y2773D03*
X1413Y2871D03*
X1439Y2628D03*
Y2691D03*
X1440Y3795D03*
Y3895D03*
X1446Y2807D03*
X1448Y3439D03*
X1463Y1407D03*
X1464Y2578D03*
X1489Y2891D03*
X1498Y3223D03*
X1500Y1995D03*
Y2095D03*
X1514Y2578D03*
X1540Y3795D03*
Y3895D03*
X1551Y2891D03*
X1554Y561D03*
X1556Y3666D03*
X1576Y2578D03*
X1583Y2196D03*
X1600Y1995D03*
Y2095D03*
X1601Y2891D03*
X1604Y3132D03*
X1622Y2314D03*
X1626Y2578D03*
X1640Y3795D03*
Y3895D03*
X1651Y2891D03*
X1664Y1274D03*
X1664Y1411D03*
Y1702D03*
X1664Y1564D03*
X1692Y2314D03*
X1700Y1995D03*
Y2095D03*
X1701Y2578D03*
X1726Y2891D03*
X1740Y2699D03*
X1800Y1995D03*
Y2095D03*
Y3795D03*
Y3895D03*
X1877Y3034D03*
X1900Y3795D03*
Y3895D03*
X1942Y3477D03*
X1947Y3054D03*
X1957Y2281D03*
X1966Y3257D03*
X2000Y1995D03*
Y2095D03*
Y3795D03*
Y3895D03*
X2001Y2628D03*
X2014Y2566D03*
X2077Y2736D03*
X2095Y348D03*
X2100Y1995D03*
Y2095D03*
Y3795D03*
Y3895D03*
X2177Y3099D03*
X2200Y1995D03*
Y2095D03*
Y3795D03*
Y3895D03*
X2219Y695D03*
X2268Y1381D03*
Y1488D03*
Y1702D03*
X2268Y1595D03*
X2268Y1274D03*
X2271Y1111D03*
X2300Y1995D03*
Y2095D03*
Y3795D03*
Y3895D03*
X2320Y303D03*
X2365Y3477D03*
X2400Y1995D03*
Y2095D03*
Y3795D03*
Y3895D03*
X2424Y617D03*
X2425Y1222D03*
X2500Y1995D03*
Y2095D03*
Y3795D03*
Y3895D03*
X2507Y2664D03*
Y2764D03*
Y2834D03*
X2512Y2579D03*
X2512Y2471D03*
X2521Y1425D03*
X2571Y1111D03*
X2590Y1458D03*
X2636Y2369D03*
X2714Y2491D03*
Y2566D03*
X2723Y3571D03*
X2763Y3530D03*
X2767Y3484D03*
X2789Y3294D03*
X2845Y2637D03*
X2900Y3815D03*
X2962Y2927D03*
X2982Y1799D03*
X2983Y861D03*
X2987Y1906D03*
Y3486D03*
X3005Y2997D03*
X3029Y1571D03*
X3030Y2862D03*
X3080Y2775D03*
X3104Y2227D03*
X3105Y3571D03*
X3114Y2735D03*
X3118Y752D03*
X3124Y2551D03*
X3140Y2196D03*
X3159Y1411D03*
X3166Y1019D03*
X3225Y3212D03*
X3232Y2157D03*
X3234Y2503D03*
X3249Y2891D03*
X3250Y3010D03*
X3252Y1542D03*
Y3061D03*
X3257Y1717D03*
X3259Y2810D03*
X3264Y1615D03*
X3265Y3267D03*
X3273Y3380D03*
X3289Y1211D03*
X3294Y3146D03*
X3295Y2517D03*
X3314Y2835D03*
X3315Y2993D03*
Y3068D03*
X3322Y1777D03*
X3324Y2369D03*
X3343Y3380D03*
X3360Y3262D03*
X3361Y2036D03*
X3375Y3147D03*
X3387Y1602D03*
X3401Y2006D03*
X3407Y1453D03*
X3408Y2764D03*
X3411Y3114D03*
X3433Y1786D03*
X3453Y2826D03*
X3460Y2419D03*
X3461Y3463D03*
X3484Y3026D03*
X3491Y2530D03*
X3510Y3307D03*
X3521Y1025D03*
X3523Y2975D03*
X3554Y2886D03*
X3569Y3530D03*
X3570Y2532D03*
X3584Y2796D03*
X3599Y2741D03*
X3606Y2187D03*
X3620Y3372D03*
X3644Y2952D03*
X3645Y2887D03*
X3648Y3081D03*
X3649Y3026D03*
Y3146D03*
X3650Y2802D03*
X3667Y1171D03*
X3669Y1678D03*
X3687Y3555D03*
X3744Y2461D03*
X3772Y1012D03*
X3787Y1983D03*
X3820Y3002D03*
X3831Y3417D03*
X3870Y2772D03*
Y2842D03*
X3871Y1809D03*
X3875Y3072D03*
X3924Y3366D03*
X3938Y1815D03*
X3944Y2946D03*
Y3016D03*
X4005Y1718D03*
X4040Y1759D03*
X4041Y2865D03*
Y2965D03*
X4099Y3611D03*
X4105Y1697D03*
X4111Y1581D03*
X4127Y3146D03*
D02*
D77*
X564Y1738D02*
Y1775D01*
X595*
X589Y1756D02*
X564D01*
Y1738D02*
X595D01*
X564Y1938D02*
Y1975D01*
X595*
X589Y1956D02*
X564D01*
Y1938D02*
X595D01*
X564Y2150D02*
Y2188D01*
X595*
X589Y2169D02*
X564D01*
Y2150D02*
X595D01*
X675Y3269D02*
Y3306D01*
X707*
X700Y3287D02*
X675D01*
X802Y2574D02*
Y2611D01*
X833*
X827Y2592D02*
X802D01*
X839Y3334D02*
Y3371D01*
X870*
X864Y3352D02*
X839D01*
X840Y3855D02*
Y3892D01*
X859*
X865Y3889*
X868Y3886*
X871Y3880*
Y3867*
X868Y3861*
X865Y3858*
X859Y3855*
X840*
Y3955D02*
Y3992D01*
X859*
X865Y3989*
X868Y3986*
X871Y3980*
Y3967*
X868Y3961*
X865Y3958*
X859Y3955*
X840*
X859Y2151D02*
Y2189D01*
X877*
X884Y2186*
X887Y2182*
X890Y2176*
Y2164*
X887Y2157*
X884Y2154*
X877Y2151*
X859*
X940Y3855D02*
Y3892D01*
X959*
X965Y3889*
X968Y3886*
X971Y3880*
Y3867*
X968Y3861*
X965Y3858*
X959Y3855*
X940*
Y3955D02*
Y3992D01*
X959*
X965Y3989*
X968Y3986*
X971Y3980*
Y3967*
X968Y3961*
X965Y3958*
X959Y3955*
X940*
X949Y2725D02*
Y2762D01*
X980*
X974Y2743D02*
X949D01*
X977Y3149D02*
Y3186D01*
X1008*
X1002Y3167D02*
X977D01*
X997Y2334D02*
Y2371D01*
X1029*
X1022Y2353D02*
X997D01*
X1020Y3760D02*
Y3798D01*
X1051*
X1045Y3779D02*
X1020D01*
X1040Y3855D02*
Y3892D01*
X1059*
X1065Y3889*
X1068Y3886*
X1071Y3880*
Y3867*
X1068Y3861*
X1065Y3858*
X1059Y3855*
X1040*
Y3955D02*
Y3992D01*
X1059*
X1065Y3989*
X1068Y3986*
X1071Y3980*
Y3967*
X1068Y3961*
X1065Y3958*
X1059Y3955*
X1040*
X1068Y705D02*
X1084Y743D01*
X1099Y705*
X1074Y721D02*
X1093D01*
X1074Y2955D02*
Y2993D01*
X1105*
X1099Y2974D02*
X1074D01*
X1113Y2217D02*
Y2254D01*
X1145*
X1138Y2235D02*
X1113D01*
X1140Y3855D02*
Y3892D01*
X1159*
X1165Y3889*
X1168Y3886*
X1171Y3880*
Y3867*
X1168Y3861*
X1165Y3858*
X1159Y3855*
X1140*
Y3955D02*
Y3992D01*
X1159*
X1165Y3989*
X1168Y3986*
X1171Y3980*
Y3967*
X1168Y3961*
X1165Y3958*
X1159Y3955*
X1140*
X1168Y705D02*
X1184Y743D01*
X1199Y705*
X1174Y721D02*
X1193D01*
X1198Y3341D02*
Y3379D01*
X1230*
X1223Y3360D02*
X1198D01*
X1200Y2055D02*
Y2092D01*
X1219*
X1225Y2089*
X1228Y2086*
X1231Y2080*
Y2067*
X1228Y2061*
X1225Y2058*
X1219Y2055*
X1200*
Y2155D02*
Y2192D01*
X1219*
X1225Y2189*
X1228Y2186*
X1231Y2180*
Y2167*
X1228Y2161*
X1225Y2158*
X1219Y2155*
X1200*
X1224Y3505D02*
Y3542D01*
X1256*
X1249Y3523D02*
X1224D01*
X1233Y3120D02*
Y3158D01*
X1264*
X1258Y3139D02*
X1233D01*
X1240Y3855D02*
Y3892D01*
X1259*
X1265Y3889*
X1268Y3886*
X1271Y3880*
Y3867*
X1268Y3861*
X1265Y3858*
X1259Y3855*
X1240*
Y3955D02*
Y3992D01*
X1259*
X1265Y3989*
X1268Y3986*
X1271Y3980*
Y3967*
X1268Y3961*
X1265Y3958*
X1259Y3955*
X1240*
X1262Y2774D02*
Y2811D01*
X1293*
X1287Y2792D02*
X1262D01*
X1268Y1467D02*
Y1504D01*
X1287*
X1293Y1501*
X1296Y1498*
X1299Y1492*
Y1479*
X1296Y1473*
X1293Y1470*
X1287Y1467*
X1268*
X1268Y705D02*
X1284Y743D01*
X1299Y705*
X1274Y721D02*
X1293D01*
X1291Y3498D02*
Y3536D01*
X1322*
X1316Y3517D02*
X1291D01*
X1300Y2055D02*
Y2092D01*
X1319*
X1325Y2089*
X1328Y2086*
X1331Y2080*
Y2067*
X1328Y2061*
X1325Y2058*
X1319Y2055*
X1300*
Y2155D02*
Y2192D01*
X1319*
X1325Y2189*
X1328Y2186*
X1331Y2180*
Y2167*
X1328Y2161*
X1325Y2158*
X1319Y2155*
X1300*
X1327Y2929D02*
Y2966D01*
X1358*
X1352Y2947D02*
X1327D01*
X1332Y2774D02*
Y2811D01*
X1363*
X1357Y2792D02*
X1332D01*
X1340Y3855D02*
Y3892D01*
X1359*
X1365Y3889*
X1368Y3886*
X1371Y3880*
Y3867*
X1368Y3861*
X1365Y3858*
X1359Y3855*
X1340*
Y3955D02*
Y3992D01*
X1359*
X1365Y3989*
X1368Y3986*
X1371Y3980*
Y3967*
X1368Y3961*
X1365Y3958*
X1359Y3955*
X1340*
X1400Y2055D02*
Y2092D01*
X1419*
X1425Y2089*
X1428Y2086*
X1431Y2080*
Y2067*
X1428Y2061*
X1425Y2058*
X1419Y2055*
X1400*
Y2155D02*
Y2192D01*
X1419*
X1425Y2189*
X1428Y2186*
X1431Y2180*
Y2167*
X1428Y2161*
X1425Y2158*
X1419Y2155*
X1400*
X1414Y620D02*
Y658D01*
X1445*
X1439Y639D02*
X1414D01*
X1440Y3855D02*
Y3892D01*
X1459*
X1465Y3889*
X1468Y3886*
X1471Y3880*
Y3867*
X1468Y3861*
X1465Y3858*
X1459Y3855*
X1440*
Y3955D02*
Y3992D01*
X1459*
X1465Y3989*
X1468Y3986*
X1471Y3980*
Y3967*
X1468Y3961*
X1465Y3958*
X1459Y3955*
X1440*
X1445Y2969D02*
Y3007D01*
X1477*
X1470Y2988D02*
X1445D01*
X1462Y2343D02*
Y2380D01*
X1493*
X1487Y2361D02*
X1462D01*
X1500Y2055D02*
Y2092D01*
X1519*
X1525Y2089*
X1528Y2086*
X1531Y2080*
Y2067*
X1528Y2061*
X1525Y2058*
X1519Y2055*
X1500*
Y2155D02*
Y2192D01*
X1519*
X1525Y2189*
X1528Y2186*
X1531Y2180*
Y2167*
X1528Y2161*
X1525Y2158*
X1519Y2155*
X1500*
X1505Y3340D02*
Y3377D01*
X1537*
X1530Y3359D02*
X1505D01*
X1512Y2832D02*
Y2869D01*
X1543*
X1537Y2851D02*
X1512D01*
X1513Y2931D02*
Y2968D01*
X1544*
X1538Y2949D02*
X1513D01*
X1539Y2688D02*
Y2725D01*
X1570*
X1564Y2706D02*
X1539D01*
Y2750D02*
Y2788D01*
X1570*
X1564Y2769D02*
X1539D01*
X1540Y3855D02*
Y3892D01*
X1559*
X1565Y3889*
X1568Y3886*
X1571Y3880*
Y3867*
X1568Y3861*
X1565Y3858*
X1559Y3855*
X1540*
Y3955D02*
Y3992D01*
X1559*
X1565Y3989*
X1568Y3986*
X1571Y3980*
Y3967*
X1568Y3961*
X1565Y3958*
X1559Y3955*
X1540*
X1546Y2867D02*
Y2904D01*
X1578*
X1571Y2886D02*
X1546D01*
X1548Y3498D02*
Y3536D01*
X1579*
X1573Y3517D02*
X1548D01*
X1563Y1467D02*
Y1504D01*
X1582*
X1588Y1501*
X1591Y1498*
X1594Y1492*
Y1479*
X1591Y1473*
X1588Y1470*
X1582Y1467*
X1563*
X1564Y2638D02*
Y2675D01*
X1595*
X1589Y2656D02*
X1564D01*
X1589Y2950D02*
Y2988D01*
X1620*
X1614Y2969D02*
X1589D01*
X1598Y3282D02*
Y3320D01*
X1629*
X1623Y3301D02*
X1598D01*
X1600Y2055D02*
Y2092D01*
X1619*
X1625Y2089*
X1628Y2086*
X1631Y2080*
Y2067*
X1628Y2061*
X1625Y2058*
X1619Y2055*
X1600*
Y2155D02*
Y2192D01*
X1619*
X1625Y2189*
X1628Y2186*
X1631Y2180*
Y2167*
X1628Y2161*
X1625Y2158*
X1619Y2155*
X1600*
X1614Y2638D02*
Y2675D01*
X1645*
X1639Y2656D02*
X1614D01*
X1640Y3855D02*
Y3892D01*
X1659*
X1665Y3889*
X1668Y3886*
X1671Y3880*
Y3867*
X1668Y3861*
X1665Y3858*
X1659Y3855*
X1640*
Y3955D02*
Y3992D01*
X1659*
X1665Y3989*
X1668Y3986*
X1671Y3980*
Y3967*
X1668Y3961*
X1665Y3958*
X1659Y3955*
X1640*
X1651Y2950D02*
Y2988D01*
X1682*
X1676Y2969D02*
X1651D01*
X1654Y620D02*
Y658D01*
X1685*
X1679Y639D02*
X1654D01*
X1656Y3725D02*
Y3763D01*
X1688*
X1681Y3744D02*
X1656D01*
X1676Y2638D02*
Y2675D01*
X1707*
X1701Y2656D02*
X1676D01*
X1683Y2255D02*
Y2293D01*
X1714*
X1708Y2274D02*
X1683D01*
X1700Y2055D02*
Y2092D01*
X1719*
X1725Y2089*
X1728Y2086*
X1731Y2080*
Y2067*
X1728Y2061*
X1725Y2058*
X1719Y2055*
X1700*
Y2155D02*
Y2192D01*
X1719*
X1725Y2189*
X1728Y2186*
X1731Y2180*
Y2167*
X1728Y2161*
X1725Y2158*
X1719Y2155*
X1700*
X1701Y2950D02*
Y2988D01*
X1732*
X1726Y2969D02*
X1701D01*
X1704Y3191D02*
Y3229D01*
X1735*
X1729Y3210D02*
X1704D01*
X1722Y2374D02*
Y2411D01*
X1753*
X1747Y2392D02*
X1722D01*
X1726Y2638D02*
Y2675D01*
X1757*
X1751Y2656D02*
X1726D01*
X1740Y3855D02*
Y3892D01*
X1759*
X1765Y3889*
X1768Y3886*
X1771Y3880*
Y3867*
X1768Y3861*
X1765Y3858*
X1759Y3855*
X1740*
Y3955D02*
Y3992D01*
X1759*
X1765Y3989*
X1768Y3986*
X1771Y3980*
Y3967*
X1768Y3961*
X1765Y3958*
X1759Y3955*
X1740*
X1751Y2950D02*
Y2988D01*
X1782*
X1776Y2969D02*
X1751D01*
X1786Y1352D02*
X1792Y1349D01*
X1795Y1342*
X1792Y1336*
X1786Y1333*
X1764*
Y1370*
X1786*
X1792Y1367*
X1795Y1361*
X1792Y1355*
X1786Y1352*
X1764*
X1786Y1490D02*
X1792Y1486D01*
X1795Y1480*
X1792Y1474*
X1786Y1471*
X1764*
Y1508*
X1786*
X1792Y1505*
X1795Y1499*
X1792Y1493*
X1786Y1490*
X1764*
X1786Y1780D02*
X1792Y1777D01*
X1795Y1771*
X1792Y1764*
X1786Y1761*
X1764*
Y1799*
X1786*
X1792Y1796*
X1795Y1789*
X1792Y1783*
X1786Y1780*
X1764*
X1786Y1642D02*
X1792Y1639D01*
X1795Y1633*
X1792Y1627*
X1786Y1624*
X1764*
Y1661*
X1786*
X1792Y1658*
X1795Y1652*
X1792Y1645*
X1786Y1642*
X1764*
X1792Y2374D02*
Y2411D01*
X1823*
X1817Y2392D02*
X1792D01*
X1800Y2055D02*
Y2092D01*
X1819*
X1825Y2089*
X1828Y2086*
X1831Y2080*
Y2067*
X1828Y2061*
X1825Y2058*
X1819Y2055*
X1800*
Y2155D02*
Y2192D01*
X1819*
X1825Y2189*
X1828Y2186*
X1831Y2180*
Y2167*
X1828Y2161*
X1825Y2158*
X1819Y2155*
X1800*
X1801Y2638D02*
Y2675D01*
X1832*
X1826Y2656D02*
X1801D01*
X1826Y2950D02*
Y2988D01*
X1857*
X1851Y2969D02*
X1826D01*
X1840Y2758D02*
Y2796D01*
X1871*
X1865Y2777D02*
X1840D01*
X1900Y2055D02*
Y2092D01*
X1919*
X1925Y2089*
X1928Y2086*
X1931Y2080*
Y2067*
X1928Y2061*
X1925Y2058*
X1919Y2055*
X1900*
Y2155D02*
Y2192D01*
X1919*
X1925Y2189*
X1928Y2186*
X1931Y2180*
Y2167*
X1928Y2161*
X1925Y2158*
X1919Y2155*
X1900*
Y3855D02*
Y3892D01*
X1919*
X1925Y3889*
X1928Y3886*
X1931Y3880*
Y3867*
X1928Y3861*
X1925Y3858*
X1919Y3855*
X1900*
Y3955D02*
Y3992D01*
X1919*
X1925Y3989*
X1928Y3986*
X1931Y3980*
Y3967*
X1928Y3961*
X1925Y3958*
X1919Y3955*
X1900*
X1977Y3094D02*
Y3131D01*
X2008*
X2002Y3112D02*
X1977D01*
X2000Y3855D02*
Y3892D01*
X2019*
X2025Y3889*
X2028Y3886*
X2031Y3880*
Y3867*
X2028Y3861*
X2025Y3858*
X2019Y3855*
X2000*
Y3955D02*
Y3992D01*
X2019*
X2025Y3989*
X2028Y3986*
X2031Y3980*
Y3967*
X2028Y3961*
X2025Y3958*
X2019Y3955*
X2000*
X2042Y3537D02*
Y3574D01*
X2073*
X2067Y3555D02*
X2042D01*
X2047Y3114D02*
Y3151D01*
X2078*
X2072Y3132D02*
X2047D01*
X2057Y2340D02*
Y2378D01*
X2088*
X2082Y2359D02*
X2057D01*
X2066Y3316D02*
Y3354D01*
X2097*
X2091Y3335D02*
X2066D01*
X2100Y2055D02*
Y2092D01*
X2119*
X2125Y2089*
X2128Y2086*
X2131Y2080*
Y2067*
X2128Y2061*
X2125Y2058*
X2119Y2055*
X2100*
Y2155D02*
Y2192D01*
X2119*
X2125Y2189*
X2128Y2186*
X2131Y2180*
Y2167*
X2128Y2161*
X2125Y2158*
X2119Y2155*
X2100*
Y3855D02*
Y3892D01*
X2119*
X2125Y3889*
X2128Y3886*
X2131Y3880*
Y3867*
X2128Y3861*
X2125Y3858*
X2119Y3855*
X2100*
Y3955D02*
Y3992D01*
X2119*
X2125Y3989*
X2128Y3986*
X2131Y3980*
Y3967*
X2128Y3961*
X2125Y3958*
X2119Y3955*
X2100*
X2101Y2688D02*
Y2725D01*
X2132*
X2126Y2706D02*
X2101D01*
X2114Y2625D02*
Y2663D01*
X2145*
X2139Y2644D02*
X2114D01*
X2177Y2796D02*
Y2833D01*
X2208*
X2202Y2814D02*
X2177D01*
X2217Y423D02*
X2226D01*
Y420*
X2223Y414*
X2220Y411*
X2214Y407*
X2207*
X2201Y411*
X2198Y414*
X2195Y420*
Y432*
X2198Y439*
X2201Y442*
X2207Y445*
X2214*
X2220Y442*
X2223Y439*
X2226Y432*
X2200Y2055D02*
Y2092D01*
X2219*
X2225Y2089*
X2228Y2086*
X2231Y2080*
Y2067*
X2228Y2061*
X2225Y2058*
X2219Y2055*
X2200*
Y2155D02*
Y2192D01*
X2219*
X2225Y2189*
X2228Y2186*
X2231Y2180*
Y2167*
X2228Y2161*
X2225Y2158*
X2219Y2155*
X2200*
Y3855D02*
Y3892D01*
X2219*
X2225Y3889*
X2228Y3886*
X2231Y3880*
Y3867*
X2228Y3861*
X2225Y3858*
X2219Y3855*
X2200*
Y3955D02*
Y3992D01*
X2219*
X2225Y3989*
X2228Y3986*
X2231Y3980*
Y3967*
X2228Y3961*
X2225Y3958*
X2219Y3955*
X2200*
X2277Y3159D02*
Y3196D01*
X2308*
X2302Y3177D02*
X2277D01*
X2300Y2055D02*
Y2092D01*
X2319*
X2325Y2089*
X2328Y2086*
X2331Y2080*
Y2067*
X2328Y2061*
X2325Y2058*
X2319Y2055*
X2300*
Y2155D02*
Y2192D01*
X2319*
X2325Y2189*
X2328Y2186*
X2331Y2180*
Y2167*
X2328Y2161*
X2325Y2158*
X2319Y2155*
X2300*
Y3855D02*
Y3892D01*
X2319*
X2325Y3889*
X2328Y3886*
X2331Y3880*
Y3867*
X2328Y3861*
X2325Y3858*
X2319Y3855*
X2300*
Y3955D02*
Y3992D01*
X2319*
X2325Y3989*
X2328Y3986*
X2331Y3980*
Y3967*
X2328Y3961*
X2325Y3958*
X2319Y3955*
X2300*
X2341Y770D02*
X2350D01*
Y766*
X2347Y760*
X2344Y757*
X2338Y754*
X2332*
X2325Y757*
X2322Y760*
X2319Y766*
Y779*
X2322Y785*
X2325Y788*
X2332Y791*
X2338*
X2344Y788*
X2347Y785*
X2350Y779*
X2390Y1459D02*
X2396Y1456D01*
X2399Y1449*
X2396Y1443*
X2390Y1440*
X2368*
Y1478*
X2390*
X2396Y1474*
X2399Y1468*
X2396Y1462*
X2390Y1459*
X2368*
X2390Y1566D02*
X2396Y1563D01*
X2399Y1557*
X2396Y1550*
X2390Y1547*
X2368*
Y1585*
X2390*
X2396Y1582*
X2399Y1575*
X2396Y1569*
X2390Y1566*
X2368*
X2390Y1780D02*
X2396Y1777D01*
X2399Y1771*
X2396Y1764*
X2390Y1761*
X2368*
Y1799*
X2390*
X2396Y1796*
X2399Y1789*
X2396Y1783*
X2390Y1780*
X2368*
X2390Y1673D02*
X2396Y1670D01*
X2399Y1664*
X2396Y1657*
X2390Y1654*
X2368*
Y1692*
X2390*
X2396Y1689*
X2399Y1682*
X2396Y1676*
X2390Y1673*
X2368*
X2390Y1352D02*
X2396Y1349D01*
X2399Y1342*
X2396Y1336*
X2390Y1333*
X2368*
Y1370*
X2390*
X2396Y1367*
X2399Y1361*
X2396Y1355*
X2390Y1352*
X2368*
X2402Y1177D02*
X2399Y1174D01*
X2393Y1171*
X2383*
X2377Y1174*
X2374Y1177*
X2371Y1183*
Y1196*
X2374Y1202*
X2377Y1205*
X2383Y1208*
X2393*
X2399Y1205*
X2402Y1202*
X2400Y2055D02*
Y2092D01*
X2419*
X2425Y2089*
X2428Y2086*
X2431Y2080*
Y2067*
X2428Y2061*
X2425Y2058*
X2419Y2055*
X2400*
Y2155D02*
Y2192D01*
X2419*
X2425Y2189*
X2428Y2186*
X2431Y2180*
Y2167*
X2428Y2161*
X2425Y2158*
X2419Y2155*
X2400*
Y3855D02*
Y3892D01*
X2419*
X2425Y3889*
X2428Y3886*
X2431Y3880*
Y3867*
X2428Y3861*
X2425Y3858*
X2419Y3855*
X2400*
Y3955D02*
Y3992D01*
X2419*
X2425Y3989*
X2428Y3986*
X2431Y3980*
Y3967*
X2428Y3961*
X2425Y3958*
X2419Y3955*
X2400*
X2420Y362D02*
Y400D01*
X2451*
X2445Y381D02*
X2420D01*
X2465Y3536D02*
Y3574D01*
X2496*
X2490Y3555D02*
X2465D01*
X2500Y2055D02*
Y2092D01*
X2519*
X2525Y2089*
X2528Y2086*
X2531Y2080*
Y2067*
X2528Y2061*
X2525Y2058*
X2519Y2055*
X2500*
Y2155D02*
Y2192D01*
X2519*
X2525Y2189*
X2528Y2186*
X2531Y2180*
Y2167*
X2528Y2161*
X2525Y2158*
X2519Y2155*
X2500*
Y3855D02*
Y3892D01*
X2519*
X2525Y3889*
X2528Y3886*
X2531Y3880*
Y3867*
X2528Y3861*
X2525Y3858*
X2519Y3855*
X2500*
Y3955D02*
Y3992D01*
X2519*
X2525Y3989*
X2528Y3986*
X2531Y3980*
Y3967*
X2528Y3961*
X2525Y3958*
X2519Y3955*
X2500*
X2524Y677D02*
Y714D01*
X2555*
X2549Y695D02*
X2524D01*
X2525Y1281D02*
Y1319D01*
X2556*
X2550Y1300D02*
X2525D01*
X2600Y2055D02*
Y2092D01*
X2619*
X2625Y2089*
X2628Y2086*
X2631Y2080*
Y2067*
X2628Y2061*
X2625Y2058*
X2619Y2055*
X2600*
Y2155D02*
Y2192D01*
X2619*
X2625Y2189*
X2628Y2186*
X2631Y2180*
Y2167*
X2628Y2161*
X2625Y2158*
X2619Y2155*
X2600*
Y3855D02*
Y3892D01*
X2619*
X2625Y3889*
X2628Y3886*
X2631Y3880*
Y3867*
X2628Y3861*
X2625Y3858*
X2619Y3855*
X2600*
Y3955D02*
Y3992D01*
X2619*
X2625Y3989*
X2628Y3986*
X2631Y3980*
Y3967*
X2628Y3961*
X2625Y3958*
X2619Y3955*
X2600*
X2607Y2724D02*
Y2761D01*
X2638*
X2632Y2742D02*
X2607D01*
Y2824D02*
Y2861D01*
X2638*
X2632Y2842D02*
X2607D01*
Y2894D02*
Y2931D01*
X2638*
X2632Y2912D02*
X2607D01*
X2612Y2639D02*
Y2676D01*
X2643*
X2637Y2657D02*
X2612D01*
X2612Y2530D02*
Y2567D01*
X2644*
X2637Y2549D02*
X2612D01*
X2621Y1484D02*
Y1522D01*
X2652*
X2646Y1503D02*
X2621D01*
X2702Y1177D02*
X2699Y1174D01*
X2693Y1171*
X2683*
X2677Y1174*
X2674Y1177*
X2671Y1183*
Y1196*
X2674Y1202*
X2677Y1205*
X2683Y1208*
X2693*
X2699Y1205*
X2702Y1202*
X2712Y1533D02*
X2721D01*
Y1530*
X2718Y1524*
X2715Y1521*
X2708Y1518*
X2702*
X2696Y1521*
X2693Y1524*
X2690Y1530*
Y1543*
X2693Y1549*
X2696Y1552*
X2702Y1555*
X2708*
X2715Y1552*
X2718Y1549*
X2721Y1543*
X2736Y2429D02*
Y2466D01*
X2767*
X2761Y2448D02*
X2736D01*
X2814Y2550D02*
Y2588D01*
X2845*
X2839Y2569D02*
X2814D01*
Y2625D02*
Y2663D01*
X2845*
X2839Y2644D02*
X2814D01*
X2823Y3631D02*
Y3668D01*
X2854*
X2848Y3649D02*
X2823D01*
X2863Y3589D02*
Y3627D01*
X2894*
X2888Y3608D02*
X2863D01*
X2867Y3543D02*
Y3581D01*
X2898*
X2892Y3562D02*
X2867D01*
X2889Y3354D02*
Y3391D01*
X2921*
X2914Y3372D02*
X2889D01*
X2945Y2697D02*
Y2734D01*
X2976*
X2970Y2715D02*
X2945D01*
X3000Y3874D02*
Y3912D01*
X3032*
X3025Y3893D02*
X3000D01*
X3062Y2987D02*
Y3024D01*
X3093*
X3087Y3005D02*
X3062D01*
X3082Y1858D02*
Y1896D01*
Y1877D02*
X3113D01*
Y1858D02*
Y1896D01*
X3083Y920D02*
Y957D01*
X3114*
X3108Y939D02*
X3083D01*
X3087Y1966D02*
Y2003D01*
X3118*
X3112Y1985D02*
X3087D01*
Y3546D02*
Y3583D01*
X3118*
X3112Y3565D02*
X3087D01*
X3105Y3057D02*
Y3094D01*
X3136*
X3130Y3075D02*
X3105D01*
X3129Y1630D02*
Y1667D01*
X3160*
X3154Y1649D02*
X3129D01*
X3130Y2922D02*
Y2959D01*
X3161*
X3155Y2940D02*
X3130D01*
X3180Y2834D02*
Y2872D01*
X3211*
X3205Y2853D02*
X3180D01*
X3204Y2287D02*
Y2324D01*
X3235*
X3229Y2305D02*
X3204D01*
X3205Y3631D02*
Y3668D01*
X3236*
X3230Y3649D02*
X3205D01*
X3214Y2794D02*
Y2832D01*
X3245*
X3239Y2813D02*
X3214D01*
X3218Y812D02*
Y849D01*
X3250*
X3243Y831D02*
X3218D01*
X3224Y2610D02*
Y2648D01*
X3255*
X3249Y2629D02*
X3224D01*
X3240Y2255D02*
Y2293D01*
X3271*
X3265Y2274D02*
X3240D01*
X3259Y1470D02*
Y1508D01*
X3290*
X3284Y1489D02*
X3259D01*
X3266Y1078D02*
Y1116D01*
X3298*
X3291Y1097D02*
X3266D01*
X3325Y3272D02*
Y3309D01*
X3356*
X3350Y3290D02*
X3325D01*
X3332Y2217D02*
Y2254D01*
X3364*
X3357Y2235D02*
X3332D01*
X3334Y2562D02*
Y2600D01*
X3365*
X3359Y2581D02*
X3334D01*
X3349Y2950D02*
Y2988D01*
X3380*
X3374Y2969D02*
X3349D01*
X3350Y3069D02*
Y3107D01*
X3381*
X3375Y3088D02*
X3350D01*
X3352Y1601D02*
Y1639D01*
X3384*
X3377Y1620D02*
X3352D01*
Y3120D02*
Y3158D01*
X3384*
X3377Y3139D02*
X3352D01*
X3357Y1777D02*
Y1814D01*
X3389*
X3382Y1795D02*
X3357D01*
X3359Y2869D02*
Y2907D01*
X3390*
X3384Y2888D02*
X3359D01*
X3364Y1674D02*
Y1712D01*
X3396*
X3389Y1693D02*
X3364D01*
X3365Y3327D02*
Y3364D01*
X3396*
X3390Y3345D02*
X3365D01*
X3373Y3440D02*
Y3477D01*
X3404*
X3398Y3458D02*
X3373D01*
X3389Y1270D02*
Y1308D01*
X3420*
X3414Y1289D02*
X3389D01*
X3394Y3205D02*
Y3243D01*
X3425*
X3419Y3224D02*
X3394D01*
X3395Y2576D02*
Y2614D01*
X3426*
X3420Y2595D02*
X3395D01*
X3414Y2894D02*
Y2932D01*
X3445*
X3439Y2913D02*
X3414D01*
X3415Y3053D02*
Y3090D01*
X3446*
X3440Y3072D02*
X3415D01*
Y3128D02*
Y3165D01*
X3446*
X3440Y3146D02*
X3415D01*
X3422Y1837D02*
Y1874D01*
X3454*
X3447Y1855D02*
X3422D01*
X3424Y2429D02*
Y2466D01*
X3455*
X3449Y2448D02*
X3424D01*
X3443Y3440D02*
Y3477D01*
X3474*
X3468Y3458D02*
X3443D01*
X3460Y3322D02*
Y3359D01*
X3491*
X3485Y3340D02*
X3460D01*
X3461Y2096D02*
Y2133D01*
X3492*
X3486Y2114D02*
X3461D01*
X3475Y3206D02*
Y3244D01*
X3506*
X3500Y3225D02*
X3475D01*
X3487Y1661D02*
Y1699D01*
X3518*
X3512Y1680D02*
X3487D01*
X3501Y2066D02*
Y2103D01*
X3532*
X3526Y2084D02*
X3501D01*
X3507Y1513D02*
Y1550D01*
X3538*
X3532Y1531D02*
X3507D01*
X3508Y2823D02*
Y2861D01*
X3540*
X3533Y2842D02*
X3508D01*
X3511Y3174D02*
Y3211D01*
X3542*
X3536Y3193D02*
X3511D01*
X3533Y1846D02*
Y1883D01*
X3564*
X3558Y1864D02*
X3533D01*
X3553Y2886D02*
Y2923D01*
X3585*
X3578Y2904D02*
X3553D01*
X3560Y2479D02*
Y2516D01*
X3591*
X3585Y2497D02*
X3560D01*
X3561Y3522D02*
Y3560D01*
X3592*
X3586Y3541D02*
X3561D01*
X3584Y3085D02*
Y3123D01*
X3615*
X3609Y3104D02*
X3584D01*
X3591Y2590D02*
Y2627D01*
X3622*
X3616Y2609D02*
X3591D01*
X3610Y3367D02*
Y3404D01*
X3641*
X3635Y3385D02*
X3610D01*
X3621Y1085D02*
Y1122D01*
X3652*
X3646Y1103D02*
X3621D01*
X3623Y3034D02*
Y3072D01*
X3654*
X3648Y3053D02*
X3623D01*
X3654Y2945D02*
Y2983D01*
X3685*
X3679Y2964D02*
X3654D01*
X3669Y3589D02*
Y3627D01*
X3701*
X3694Y3608D02*
X3669D01*
X3670Y2592D02*
Y2629D01*
X3701*
X3695Y2610D02*
X3670D01*
X3684Y2855D02*
Y2893D01*
X3715*
X3709Y2874D02*
X3684D01*
X3699Y2800D02*
Y2838D01*
X3730*
X3724Y2819D02*
X3699D01*
X3706Y2247D02*
Y2284D01*
X3737*
X3731Y2265D02*
X3706D01*
X3720Y3432D02*
Y3469D01*
X3751*
X3745Y3450D02*
X3720D01*
X3744Y3012D02*
Y3049D01*
X3776*
X3769Y3030D02*
X3744D01*
X3745Y2947D02*
Y2984D01*
X3776*
X3770Y2965D02*
X3745D01*
X3748Y3140D02*
Y3178D01*
X3779*
X3773Y3159D02*
X3748D01*
X3749Y3085D02*
Y3123D01*
X3780*
X3774Y3104D02*
X3749D01*
Y3205D02*
Y3243D01*
X3780*
X3774Y3224D02*
X3749D01*
X3750Y2862D02*
Y2899D01*
X3781*
X3775Y2880D02*
X3750D01*
X3767Y1231D02*
Y1268D01*
X3798*
X3792Y1249D02*
X3767D01*
X3769Y1737D02*
Y1775D01*
X3800*
X3794Y1756D02*
X3769D01*
X3787Y3614D02*
Y3652D01*
X3818*
X3812Y3633D02*
X3787D01*
X3844Y2520D02*
Y2558D01*
X3875*
X3869Y2539D02*
X3844D01*
X3872Y1071D02*
Y1108D01*
X3903*
X3897Y1090D02*
X3872D01*
X3887Y2042D02*
Y2080D01*
X3918*
X3912Y2061D02*
X3887D01*
X3920Y3062D02*
Y3099D01*
X3951*
X3945Y3080D02*
X3920D01*
X3931Y3476D02*
Y3513D01*
X3963*
X3956Y3495D02*
X3931D01*
X3970Y2832D02*
Y2869D01*
X4001*
X3995Y2850D02*
X3970D01*
Y2902D02*
Y2939D01*
X4001*
X3995Y2920D02*
X3970D01*
X3971Y1868D02*
Y1906D01*
X4003*
X3996Y1887D02*
X3971D01*
X3975Y3132D02*
Y3169D01*
X4006*
X4000Y3150D02*
X3975D01*
X4024Y3425D02*
Y3463D01*
X4055*
X4049Y3444D02*
X4024D01*
X4038Y1874D02*
Y1912D01*
X4070*
X4063Y1893D02*
X4038D01*
X4044Y3005D02*
Y3043D01*
X4075*
X4069Y3024D02*
X4044D01*
Y3075D02*
Y3113D01*
X4075*
X4069Y3094D02*
X4044D01*
X4127Y1793D02*
X4136D01*
Y1790*
X4133Y1784*
X4130Y1780*
X4124Y1777*
X4117*
X4111Y1780*
X4108Y1784*
X4105Y1790*
Y1802*
X4108Y1809*
X4111Y1812*
X4117Y1815*
X4124*
X4130Y1812*
X4133Y1809*
X4136Y1802*
X4140Y1819D02*
Y1856D01*
X4171*
X4165Y1837D02*
X4140D01*
X4141Y2924D02*
X4157Y2962D01*
X4172Y2924*
X4147Y2940D02*
X4166D01*
X4141Y3024D02*
X4157Y3062D01*
X4172Y3024*
X4147Y3040D02*
X4166D01*
X4199Y3671D02*
Y3708D01*
X4230*
X4224Y3689D02*
X4199D01*
X4205Y1756D02*
Y1794D01*
X4236*
X4230Y1775D02*
X4205D01*
X4211Y1640D02*
Y1678D01*
X4242*
X4236Y1659D02*
X4211D01*
X4227Y3205D02*
Y3243D01*
X4258*
X4252Y3224D02*
X4227D01*
X0Y0D02*
M02*
