%FSLAX23Y23*%
%MOIN*%
G04 EasyPC Gerber Version 17.0 Build 3379 *
%AMT20*0 Octagon Pad at angle 0*4,1,8,-0.01367,-0.03300,0.01367,-0.03300,0.03300,-0.01367,0.03300,0.01367,0.01367,0.03300,-0.01367,0.03300,-0.03300,0.01367,-0.03300,-0.01367,-0.01367,-0.03300,0*%
%ADD20T20*%
%ADD16R,0.06000X0.06000*%
%ADD24C,0.01000*%
%ADD25C,0.01500*%
%ADD26C,0.02500*%
%ADD22C,0.03150*%
%ADD21C,0.03200*%
%ADD23C,0.04800*%
%ADD19C,0.05512*%
%ADD71C,0.05906*%
%ADD17C,0.06000*%
%ADD18C,0.06000*%
%ADD70C,0.13780*%
X0Y0D02*
D02*
D16*
X968Y646D03*
X1068D03*
X1168D03*
X4041Y2865D03*
Y2965D03*
D02*
D17*
X1664Y1274D03*
X1664Y1411D03*
Y1702D03*
X1664Y1564D03*
X2268Y1381D03*
Y1488D03*
Y1702D03*
X2268Y1595D03*
X2268Y1274D03*
D02*
D18*
X2271Y1111D03*
X2571D03*
D02*
D19*
X1168Y1407D03*
X1463D03*
D02*
D70*
X464Y1678D03*
Y1878D03*
Y2091D03*
D02*
D71*
X759Y2092D03*
D02*
D20*
X740Y3795D03*
Y3895D03*
X840Y3795D03*
Y3895D03*
X940Y3795D03*
Y3895D03*
X1040Y3795D03*
Y3895D03*
X1100Y1995D03*
Y2095D03*
X1140Y3795D03*
Y3895D03*
X1200Y1995D03*
Y2095D03*
X1240Y3795D03*
Y3895D03*
X1300Y1995D03*
Y2095D03*
X1340Y3795D03*
Y3895D03*
X1400Y1995D03*
Y2095D03*
X1440Y3795D03*
Y3895D03*
X1500Y1995D03*
Y2095D03*
X1540Y3795D03*
Y3895D03*
X1600Y1995D03*
Y2095D03*
X1640Y3795D03*
Y3895D03*
X1700Y1995D03*
Y2095D03*
X1800Y1995D03*
Y2095D03*
Y3795D03*
Y3895D03*
X1900Y3795D03*
Y3895D03*
X2000Y1995D03*
Y2095D03*
Y3795D03*
Y3895D03*
X2100Y1995D03*
Y2095D03*
Y3795D03*
Y3895D03*
X2200Y1995D03*
Y2095D03*
Y3795D03*
Y3895D03*
X2300Y1995D03*
Y2095D03*
Y3795D03*
Y3895D03*
X2400Y1995D03*
Y2095D03*
Y3795D03*
Y3895D03*
X2500Y1995D03*
Y2095D03*
Y3795D03*
Y3895D03*
D02*
D21*
X575Y3209D03*
X702Y2514D03*
X739Y3274D03*
X849Y2665D03*
X877Y3089D03*
X897Y2275D03*
X920Y3701D03*
X974Y2896D03*
X1013Y2157D03*
X1098Y3282D03*
X1124Y3445D03*
X1133Y3061D03*
X1162Y2714D03*
X1191Y3439D03*
X1227Y2869D03*
X1232Y2714D03*
X1314Y561D03*
X1345Y2910D03*
X1362Y2283D03*
X1405Y3280D03*
X1412Y2773D03*
X1413Y2871D03*
X1439Y2628D03*
Y2691D03*
X1446Y2807D03*
X1448Y3439D03*
X1464Y2578D03*
X1489Y2891D03*
X1498Y3223D03*
X1514Y2578D03*
X1551Y2891D03*
X1554Y561D03*
X1556Y3666D03*
X1576Y2578D03*
X1583Y2196D03*
X1601Y2891D03*
X1604Y3132D03*
X1622Y2314D03*
X1626Y2578D03*
X1651Y2891D03*
X1692Y2314D03*
X1701Y2578D03*
X1726Y2891D03*
X1740Y2699D03*
X1877Y3034D03*
X1942Y3477D03*
X1947Y3054D03*
X1957Y2281D03*
X1966Y3257D03*
X2001Y2628D03*
X2014Y2566D03*
X2077Y2736D03*
X2177Y3099D03*
X2320Y303D03*
X2365Y3477D03*
X2424Y617D03*
X2425Y1222D03*
X2507Y2664D03*
Y2764D03*
Y2834D03*
X2512Y2579D03*
X2512Y2471D03*
X2521Y1425D03*
X2636Y2369D03*
X2714Y2491D03*
Y2566D03*
X2723Y3571D03*
X2763Y3530D03*
X2767Y3484D03*
X2789Y3294D03*
X2845Y2637D03*
X2900Y3815D03*
X2962Y2927D03*
X2983Y861D03*
X2987Y1906D03*
Y3486D03*
X3005Y2997D03*
X3029Y1571D03*
X3030Y2862D03*
X3080Y2775D03*
X3104Y2227D03*
X3105Y3571D03*
X3114Y2735D03*
X3118Y752D03*
X3124Y2551D03*
X3140Y2196D03*
X3159Y1411D03*
X3166Y1019D03*
X3225Y3212D03*
X3232Y2157D03*
X3234Y2503D03*
X3249Y2891D03*
X3250Y3010D03*
X3252Y1542D03*
Y3061D03*
X3257Y1717D03*
X3259Y2810D03*
X3264Y1615D03*
X3265Y3267D03*
X3273Y3380D03*
X3289Y1211D03*
X3294Y3146D03*
X3295Y2517D03*
X3314Y2835D03*
X3315Y2993D03*
Y3068D03*
X3322Y1777D03*
X3324Y2369D03*
X3343Y3380D03*
X3360Y3262D03*
X3361Y2036D03*
X3375Y3147D03*
X3387Y1602D03*
X3401Y2006D03*
X3407Y1453D03*
X3408Y2764D03*
X3411Y3114D03*
X3433Y1786D03*
X3453Y2826D03*
X3460Y2419D03*
X3461Y3463D03*
X3484Y3026D03*
X3491Y2530D03*
X3510Y3307D03*
X3521Y1025D03*
X3523Y2975D03*
X3554Y2886D03*
X3569Y3530D03*
X3570Y2532D03*
X3584Y2796D03*
X3599Y2741D03*
X3606Y2187D03*
X3620Y3372D03*
X3644Y2952D03*
X3645Y2887D03*
X3648Y3081D03*
X3649Y3026D03*
Y3146D03*
X3650Y2802D03*
X3667Y1171D03*
X3669Y1678D03*
X3687Y3555D03*
X3744Y2461D03*
X3772Y1012D03*
X3787Y1983D03*
X3820Y3002D03*
X3831Y3417D03*
X3870Y2772D03*
Y2842D03*
X3871Y1809D03*
X3875Y3072D03*
X3924Y3366D03*
X3938Y1815D03*
X3944Y2946D03*
Y3016D03*
X4040Y1759D03*
X4099Y3611D03*
X4105Y1697D03*
X4111Y1581D03*
X4127Y3146D03*
D02*
D22*
X2095Y348D03*
X2219Y695D03*
X2590Y1458D03*
X4005Y1718D03*
D02*
D23*
X2982Y1799D03*
D02*
D24*
X739Y3274D02*
X1026D01*
X1191Y3439*
X897Y2275D02*
X849Y2323D01*
Y2665*
X974Y2896D02*
Y2282D01*
X975Y2281*
Y2221*
X1013Y2163*
Y2157*
X1100Y2095D02*
X1200D01*
X1300*
X1412Y2773D02*
X2004D01*
X2762Y3530*
X2763*
X1446Y2807D02*
Y2806D01*
X1983*
X2716Y3539*
Y3571*
X2723*
X1576Y2578D02*
Y2384D01*
X1589Y2372*
X2638*
X2636Y2369*
X1583Y2196D02*
X1514Y2265D01*
Y2578*
X1601Y2891D02*
X1492Y3000D01*
X1383*
X1098Y3284*
Y3282*
X1604Y3132D02*
X1589Y3133D01*
X1498*
X1191Y3440*
Y3439*
X1191*
X1877Y3034D02*
X1688Y3223D01*
X1498*
X2767Y3484D02*
X2022Y2739D01*
X1375*
X1312Y2802*
Y2899*
X1323Y2910*
X1345*
X3080Y2775D02*
Y2865D01*
X2947Y2998*
Y3413*
X2751Y3609*
X2667*
Y3544*
X1962Y2839*
X1445*
X1413Y2871*
X3114Y2735D02*
Y2882D01*
X3061Y2935*
Y3412*
X2987Y3486*
X3124Y2551D02*
Y2412D01*
X2987Y2275*
Y1906*
X3124Y2551D02*
X3089D01*
X3029Y2611*
Y2861*
X3030Y2862*
X3225Y3212D02*
Y3154D01*
X3264Y3116*
X3324*
X3349Y3091*
Y2781*
X3264Y2696*
Y2695*
X3204Y2635*
Y2259*
X3140Y2196*
X3249Y2891D02*
X3161Y2978D01*
Y3590*
X3086Y3665*
X1556*
Y3666*
X3259Y2810D02*
X3173D01*
X3143Y2841*
Y2891*
X3104Y2930*
Y3571*
X3105*
X3264Y1615D02*
X3205D01*
X3174Y1646*
Y1993*
X3526Y2345*
Y2975*
X3523*
X3294Y3146D02*
Y3239D01*
X3265Y3267*
X3314Y2835D02*
Y2806D01*
X3207Y2699*
X3206*
X3166Y2659*
Y2290*
X3104Y2227*
X3315Y2993D02*
X3266D01*
X3250Y3010*
X3315Y3068D02*
X3260D01*
X3252Y3061*
X3324Y2369D02*
Y2687D01*
X3375Y2739*
Y3147*
X3387Y1602D02*
X3358D01*
X3309Y1651*
X3224*
X3209Y1666*
Y1971*
X3354Y2116*
X3354*
X3485Y2247*
Y2247*
X3609Y2372*
Y2685*
X3554Y2741*
Y2886*
X3408Y2764D02*
X3407D01*
Y2292*
X3271Y2156*
X3232*
Y2157*
X3411Y3114D02*
Y3179D01*
X3359Y3231*
Y3261*
X3360Y3262*
X3453Y2826D02*
Y3413D01*
X3043Y3823*
X2909*
X2900Y3815*
X3460Y2419D02*
Y2572D01*
X3484Y2596*
Y3026*
Y3281*
X3510Y3307*
X3584Y2796D02*
Y3383D01*
X3305Y3662*
Y3664*
X3080Y3888*
X2507*
X2500Y3895*
X3599Y2741D02*
X3604D01*
X3639Y2706*
Y1811*
X3614Y1786*
X3433*
X3433Y1786*
X3606Y2187D02*
X3510D01*
X3359Y2036*
X3361*
X3361Y2036*
X3644Y2952D02*
X3614D01*
Y3301*
X3684Y3371*
Y3421*
X3574Y3530*
X3569*
X3645Y2887D02*
Y2857D01*
X3619Y2831*
Y2791*
X3634Y2776*
Y2761*
X3674Y2721*
Y1761*
X3659Y1746*
X3354*
X3322Y1777*
X3649Y3026D02*
X3797D01*
X3820Y3002*
X3649Y3146D02*
Y3144D01*
X3944*
X3979Y3109*
Y1747*
X3774Y1542*
X3252*
X3650Y2802D02*
X3712D01*
X3764Y2751*
Y2536*
X3804Y2496*
Y2421*
X3759Y2376*
Y2046*
X3714Y2001*
Y1741*
X3684Y1711*
X3264*
X3257Y1717*
X3871Y1809D02*
Y2709D01*
X3939Y2776*
Y2866*
X3874Y2931*
Y3011*
X3834Y3082*
X3836Y3080*
X3648*
Y3081*
X4040Y1759D02*
Y1703D01*
X3262Y925*
X2813*
X2505Y617*
X2424*
X4099Y3611D02*
X4137D01*
X4176Y3573*
X4186Y1334*
X4024Y1171*
X3667*
D02*
D25*
X4105Y1697D02*
X3269Y861D01*
X2983*
D02*
D26*
X1554Y561D02*
X1314D01*
X1314Y561*
X0Y0D02*
M02*
