  0
SECTION
  2
HEADER
  9
$ACADVER
  1
AC1009
  9
$EXTMIN
 10
0.0
 20
0.0
 30
0.0
  9
$EXTMAX
 10
1000.0
 20
1000.0
 30
0.0
  9
$FILLMODE
 70
 0
  9
$SPLFRAME
 70
 1
  0
ENDSEC
  0
SECTION
  2
TABLES
  0
TABLE
  2
LAYER
 70
1
  0
LAYER
  2
0
 70
     0
 62
     7
  6
CONTINUOUS
  0
ENDTAB
  0
ENDSEC
  0
SECTION
  2
ENTITIES
  0
POLYLINE
  8
0
 62
     0
 66
     1
 10
0
 20
0
 30
0.0
 70
     1
 40
24
 41
24
  0
VERTEX
  8
0
 10
6.31304
 20
4.48492
 30
0.0
 40
0.333333
 41
0.333333
  0
VERTEX
  8
0
 10
3.82319
 20
6.68989
 30
0.0
 40
0.333333
 41
0.333333
  0
VERTEX
  8
0
 10
1.33198
 20
4.484
 30
0.0
 40
0.333333
 41
0.333333
  0
VERTEX
  8
0
 10
1.33187
 20
1.18506
 30
0.0
 40
0.333333
 41
0.333333
  0
VERTEX
  8
0
 10
6.31304
 20
1.18506
 30
0.0
 40
0.333333
 41
0.333333
  0
VERTEX
  8
0
 10
6.31304
 20
4.48492
 30
0.0
 40
0.333333
 41
0.333333
  0
SEQEND
 8
0
  0
POLYLINE
  8
0
 62
     0
 66
     1
 10
0
 20
0
 30
0.0
 70
     1
 40
28
 41
28
  0
VERTEX
  8
0
 10
3.80875
 20
7.8966
 30
0.0
 40
0.388889
 41
0.388889
  0
VERTEX
  8
0
 10
0.275499
 20
4.76801
 30
0.0
 40
0.388889
 41
0.388889
  0
VERTEX
  8
0
 10
0.647624
 20
4.34814
 30
0.0
 40
0.388889
 41
0.388889
  0
VERTEX
  8
0
 10
3.82319
 20
7.16015
 30
0.0
 40
0.388889
 41
0.388889
  0
VERTEX
  8
0
 10
6.54514
 20
4.75603
 30
0.0
 40
0.388889
 41
0.388889
  0
VERTEX
  8
0
 10
6.91661
 20
5.17589
 30
0.0
 40
0.388889
 41
0.388889
  0
VERTEX
  8
0
 10
3.83692
 20
7.8966
 30
0.0
 40
0.388889
 41
0.388889
  0
VERTEX
  8
0
 10
3.82319
 20
7.88069
 30
0.0
 40
0.388889
 41
0.388889
  0
VERTEX
  8
0
 10
3.80875
 20
7.8966
 30
0.0
 40
0.388889
 41
0.388889
  0
SEQEND
 8
0
  0
POLYLINE
  8
0
 62
     0
 66
     1
 10
0
 20
0
 30
0.0
 70
     1
 40
24
 41
24
  0
VERTEX
  8
0
 10
1.33198
 20
7.44629
 30
0.0
 40
0.333333
 41
0.333333
  0
VERTEX
  8
0
 10
2.2276
 20
7.44629
 30
0.0
 40
0.333333
 41
0.333333
  0
VERTEX
  8
0
 10
2.21989
 20
6.91575
 30
0.0
 40
0.333333
 41
0.333333
  0
VERTEX
  8
0
 10
1.33198
 20
6.11367
 30
0.0
 40
0.333333
 41
0.333333
  0
VERTEX
  8
0
 10
1.33198
 20
7.44629
 30
0.0
 40
0.333333
 41
0.333333
  0
SEQEND
 8
0
  0
POLYLINE
  8
0
 62
     0
 66
     1
 10
0
 20
0
 30
0.0
 70
     1
 40
16
 41
16
  0
VERTEX
  8
0
 10
4.45518
 20
1.40326
 30
0.0
 40
0.222222
 41
0.222222
  0
VERTEX
  8
0
 10
4.45518
 20
1.76303
 30
0.0
 40
0.222222
 41
0.222222
  0
VERTEX
  8
0
 10
4.44433
 20
1.76303
 30
0.0
 40
0.222222
 41
0.222222
  0
VERTEX
  8
0
 10
4.35639
 20
1.65494
 30
0.0
 40
0.222222
 41
0.222222
  0
VERTEX
  8
0
 10
4.26704
 20
1.56662
 30
0.0
 40
0.222222
 41
0.222222
  0
VERTEX
  8
0
 10
4.17437
 20
1.49647
 30
0.0
 40
0.222222
 41
0.222222
  0
VERTEX
  8
0
 10
4.07644
 20
1.44276
 30
0.0
 40
0.222222
 41
0.222222
  0
VERTEX
  8
0
 10
3.9714
 20
1.40392
 30
0.0
 40
0.222222
 41
0.222222
  0
VERTEX
  8
0
 10
3.85726
 20
1.3782
 30
0.0
 40
0.222222
 41
0.222222
  0
VERTEX
  8
0
 10
3.7321
 20
1.36399
 30
0.0
 40
0.222222
 41
0.222222
  0
VERTEX
  8
0
 10
3.59413
 20
1.35959
 30
0.0
 40
0.222222
 41
0.222222
  0
VERTEX
  8
0
 10
3.46126
 20
1.36578
 30
0.0
 40
0.222222
 41
0.222222
  0
VERTEX
  8
0
 10
3.33251
 20
1.39236
 30
0.0
 40
0.222222
 41
0.222222
  0
VERTEX
  8
0
 10
3.33251
 20
0.552951
 30
0.0
 40
0.222222
 41
0.222222
  0
VERTEX
  8
0
 10
2.64046
 20
0.465767
 30
0.0
 40
0.222222
 41
0.222222
  0
VERTEX
  8
0
 10
2.64046
 20
4.21539
 30
0.0
 40
0.222222
 41
0.222222
  0
VERTEX
  8
0
 10
3.33251
 20
4.30257
 30
0.0
 40
0.222222
 41
0.222222
  0
VERTEX
  8
0
 10
3.33251
 20
2.49875
 30
0.0
 40
0.222222
 41
0.222222
  0
VERTEX
  8
0
 10
3.33897
 20
2.39111
 30
0.0
 40
0.222222
 41
0.222222
  0
VERTEX
  8
0
 10
3.35861
 20
2.29031
 30
0.0
 40
0.222222
 41
0.222222
  0
VERTEX
  8
0
 10
3.39199
 20
2.19868
 30
0.0
 40
0.222222
 41
0.222222
  0
VERTEX
  8
0
 10
3.43946
 20
2.1186
 30
0.0
 40
0.222222
 41
0.222222
  0
VERTEX
  8
0
 10
3.50151
 20
2.05225
 30
0.0
 40
0.222222
 41
0.222222
  0
VERTEX
  8
0
 10
3.57856
 20
2.00206
 30
0.0
 40
0.222222
 41
0.222222
  0
VERTEX
  8
0
 10
3.67106
 20
1.97021
 30
0.0
 40
0.222222
 41
0.222222
  0
VERTEX
  8
0
 10
3.77946
 20
1.9591
 30
0.0
 40
0.222222
 41
0.222222
  0
VERTEX
  8
0
 10
3.93201
 20
1.97407
 30
0.0
 40
0.222222
 41
0.222222
  0
VERTEX
  8
0
 10
4.06299
 20
2.01654
 30
0.0
 40
0.222222
 41
0.222222
  0
VERTEX
  8
0
 10
4.17279
 20
2.08274
 30
0.0
 40
0.222222
 41
0.222222
  0
VERTEX
  8
0
 10
4.26178
 20
2.16894
 30
0.0
 40
0.222222
 41
0.222222
  0
VERTEX
  8
0
 10
4.33029
 20
2.2716
 30
0.0
 40
0.222222
 41
0.222222
  0
VERTEX
  8
0
 10
4.37875
 20
2.38683
 30
0.0
 40
0.222222
 41
0.222222
  0
VERTEX
  8
0
 10
4.40756
 20
2.51096
 30
0.0
 40
0.222222
 41
0.222222
  0
VERTEX
  8
0
 10
4.4171
 20
2.64035
 30
0.0
 40
0.222222
 41
0.222222
  0
VERTEX
  8
0
 10
4.4171
 20
4.21539
 30
0.0
 40
0.222222
 41
0.222222
  0
VERTEX
  8
0
 10
5.10932
 20
4.30257
 30
0.0
 40
0.222222
 41
0.222222
  0
VERTEX
  8
0
 10
5.10932
 20
1.44683
 30
0.0
 40
0.222222
 41
0.222222
  0
VERTEX
  8
0
 10
4.45518
 20
1.40326
 30
0.0
 40
0.222222
 41
0.222222
  0
SEQEND
 8
0
  0
POLYLINE
  8
0
 62
     0
 66
     1
 10
0
 20
0
 30
0.0
 70
     1
 40
16
 41
16
  0
VERTEX
  8
0
 10
3.50612
 20
4.49946
 30
0.0
 40
0.222222
 41
0.222222
  0
VERTEX
  8
0
 10
3.31082
 20
4.47483
 30
0.0
 40
0.222222
 41
0.222222
  0
VERTEX
  8
0
 10
2.61876
 20
4.38764
 30
0.0
 40
0.222222
 41
0.222222
  0
VERTEX
  8
0
 10
2.46685
 20
4.36849
 30
0.0
 40
0.222222
 41
0.222222
  0
VERTEX
  8
0
 10
2.46685
 20
0.268935
 30
0.0
 40
0.222222
 41
0.222222
  0
VERTEX
  8
0
 10
2.66217
 20
0.293511
 30
0.0
 40
0.222222
 41
0.222222
  0
VERTEX
  8
0
 10
3.35422
 20
0.380697
 30
0.0
 40
0.222222
 41
0.222222
  0
VERTEX
  8
0
 10
3.50612
 20
0.399849
 30
0.0
 40
0.222222
 41
0.222222
  0
VERTEX
  8
0
 10
3.50612
 20
1.1881
 30
0.0
 40
0.222222
 41
0.222222
  0
VERTEX
  8
0
 10
3.59413
 20
1.18598
 30
0.0
 40
0.222222
 41
0.222222
  0
VERTEX
  8
0
 10
3.78304
 20
1.19363
 30
0.0
 40
0.222222
 41
0.222222
  0
VERTEX
  8
0
 10
3.95915
 20
1.2207
 30
0.0
 40
0.222222
 41
0.222222
  0
VERTEX
  8
0
 10
4.12457
 20
1.27382
 30
0.0
 40
0.222222
 41
0.222222
  0
VERTEX
  8
0
 10
4.28157
 20
1.35927
 30
0.0
 40
0.222222
 41
0.222222
  0
VERTEX
  8
0
 10
4.28157
 20
1.21772
 30
0.0
 40
0.222222
 41
0.222222
  0
VERTEX
  8
0
 10
4.46674
 20
1.23003
 30
0.0
 40
0.222222
 41
0.222222
  0
VERTEX
  8
0
 10
5.12082
 20
1.2736
 30
0.0
 40
0.222222
 41
0.222222
  0
VERTEX
  8
0
 10
5.28293
 20
1.2844
 30
0.0
 40
0.222222
 41
0.222222
  0
VERTEX
  8
0
 10
5.28293
 20
4.49946
 30
0.0
 40
0.222222
 41
0.222222
  0
VERTEX
  8
0
 10
5.08762
 20
4.47483
 30
0.0
 40
0.222222
 41
0.222222
  0
VERTEX
  8
0
 10
4.3954
 20
4.38764
 30
0.0
 40
0.222222
 41
0.222222
  0
VERTEX
  8
0
 10
4.24349
 20
4.36849
 30
0.0
 40
0.222222
 41
0.222222
  0
VERTEX
  8
0
 10
4.24349
 20
2.64035
 30
0.0
 40
0.222222
 41
0.222222
  0
VERTEX
  8
0
 10
4.23757
 20
2.54812
 30
0.0
 40
0.222222
 41
0.222222
  0
VERTEX
  8
0
 10
4.21907
 20
2.45751
 30
0.0
 40
0.222222
 41
0.222222
  0
VERTEX
  8
0
 10
4.18685
 20
2.3719
 30
0.0
 40
0.222222
 41
0.222222
  0
VERTEX
  8
0
 10
4.13976
 20
2.29454
 30
0.0
 40
0.222222
 41
0.222222
  0
VERTEX
  8
0
 10
4.07661
 20
2.22868
 30
0.0
 40
0.222222
 41
0.222222
  0
VERTEX
  8
0
 10
3.99625
 20
2.17751
 30
0.0
 40
0.222222
 41
0.222222
  0
VERTEX
  8
0
 10
3.89762
 20
2.14447
 30
0.0
 40
0.222222
 41
0.222222
  0
VERTEX
  8
0
 10
3.77946
 20
2.13271
 30
0.0
 40
0.222222
 41
0.222222
  0
VERTEX
  8
0
 10
3.71582
 20
2.13813
 30
0.0
 40
0.222222
 41
0.222222
  0
VERTEX
  8
0
 10
3.66178
 20
2.15457
 30
0.0
 40
0.222222
 41
0.222222
  0
VERTEX
  8
0
 10
3.61643
 20
2.1824
 30
0.0
 40
0.222222
 41
0.222222
  0
VERTEX
  8
0
 10
3.57889
 20
2.22206
 30
0.0
 40
0.222222
 41
0.222222
  0
VERTEX
  8
0
 10
3.5249
 20
2.34088
 30
0.0
 40
0.222222
 41
0.222222
  0
VERTEX
  8
0
 10
3.50612
 20
2.49875
 30
0.0
 40
0.222222
 41
0.222222
  0
VERTEX
  8
0
 10
3.50612
 20
4.49946
 30
0.0
 40
0.222222
 41
0.222222
  0
SEQEND
 8
0
  0
POLYLINE
  8
0
 62
     0
 66
     1
 10
0
 20
0
 30
0.0
 70
     1
 40
16
 41
16
  0
VERTEX
  8
0
 10
5.10932
 20
4.30263
 30
0.0
 40
0.222222
 41
0.222222
  0
VERTEX
  8
0
 10
5.10932
 20
1.44683
 30
0.0
 40
0.222222
 41
0.222222
  0
VERTEX
  8
0
 10
4.45518
 20
1.40326
 30
0.0
 40
0.222222
 41
0.222222
  0
VERTEX
  8
0
 10
4.45518
 20
1.76303
 30
0.0
 40
0.222222
 41
0.222222
  0
VERTEX
  8
0
 10
4.44433
 20
1.76303
 30
0.0
 40
0.222222
 41
0.222222
  0
VERTEX
  8
0
 10
4.35639
 20
1.65494
 30
0.0
 40
0.222222
 41
0.222222
  0
VERTEX
  8
0
 10
4.26704
 20
1.56662
 30
0.0
 40
0.222222
 41
0.222222
  0
VERTEX
  8
0
 10
4.17437
 20
1.49647
 30
0.0
 40
0.222222
 41
0.222222
  0
VERTEX
  8
0
 10
4.07644
 20
1.44276
 30
0.0
 40
0.222222
 41
0.222222
  0
VERTEX
  8
0
 10
3.9714
 20
1.40392
 30
0.0
 40
0.222222
 41
0.222222
  0
VERTEX
  8
0
 10
3.85726
 20
1.3782
 30
0.0
 40
0.222222
 41
0.222222
  0
VERTEX
  8
0
 10
3.7321
 20
1.36399
 30
0.0
 40
0.222222
 41
0.222222
  0
VERTEX
  8
0
 10
3.59413
 20
1.35959
 30
0.0
 40
0.222222
 41
0.222222
  0
VERTEX
  8
0
 10
3.46126
 20
1.36578
 30
0.0
 40
0.222222
 41
0.222222
  0
VERTEX
  8
0
 10
3.33251
 20
1.39236
 30
0.0
 40
0.222222
 41
0.222222
  0
VERTEX
  8
0
 10
3.33251
 20
0.552951
 30
0.0
 40
0.222222
 41
0.222222
  0
VERTEX
  8
0
 10
2.64046
 20
0.465767
 30
0.0
 40
0.222222
 41
0.222222
  0
VERTEX
  8
0
 10
2.64046
 20
4.21539
 30
0.0
 40
0.222222
 41
0.222222
  0
VERTEX
  8
0
 10
3.33251
 20
4.30263
 30
0.0
 40
0.222222
 41
0.222222
  0
VERTEX
  8
0
 10
3.33251
 20
2.49875
 30
0.0
 40
0.222222
 41
0.222222
  0
VERTEX
  8
0
 10
3.33897
 20
2.39106
 30
0.0
 40
0.222222
 41
0.222222
  0
VERTEX
  8
0
 10
3.35861
 20
2.29025
 30
0.0
 40
0.222222
 41
0.222222
  0
VERTEX
  8
0
 10
3.39199
 20
2.19868
 30
0.0
 40
0.222222
 41
0.222222
  0
VERTEX
  8
0
 10
3.43946
 20
2.11854
 30
0.0
 40
0.222222
 41
0.222222
  0
VERTEX
  8
0
 10
3.50151
 20
2.05225
 30
0.0
 40
0.222222
 41
0.222222
  0
VERTEX
  8
0
 10
3.57856
 20
2.00206
 30
0.0
 40
0.222222
 41
0.222222
  0
VERTEX
  8
0
 10
3.67106
 20
1.97021
 30
0.0
 40
0.222222
 41
0.222222
  0
VERTEX
  8
0
 10
3.77946
 20
1.9591
 30
0.0
 40
0.222222
 41
0.222222
  0
VERTEX
  8
0
 10
3.93201
 20
1.97407
 30
0.0
 40
0.222222
 41
0.222222
  0
VERTEX
  8
0
 10
4.06299
 20
2.01654
 30
0.0
 40
0.222222
 41
0.222222
  0
VERTEX
  8
0
 10
4.17279
 20
2.08274
 30
0.0
 40
0.222222
 41
0.222222
  0
VERTEX
  8
0
 10
4.26178
 20
2.16894
 30
0.0
 40
0.222222
 41
0.222222
  0
VERTEX
  8
0
 10
4.33029
 20
2.2716
 30
0.0
 40
0.222222
 41
0.222222
  0
VERTEX
  8
0
 10
4.37875
 20
2.38683
 30
0.0
 40
0.222222
 41
0.222222
  0
VERTEX
  8
0
 10
4.40756
 20
2.51096
 30
0.0
 40
0.222222
 41
0.222222
  0
VERTEX
  8
0
 10
4.4171
 20
2.64035
 30
0.0
 40
0.222222
 41
0.222222
  0
VERTEX
  8
0
 10
4.4171
 20
4.21539
 30
0.0
 40
0.222222
 41
0.222222
  0
VERTEX
  8
0
 10
5.10932
 20
4.30263
 30
0.0
 40
0.222222
 41
0.222222
  0
SEQEND
 8
0
  0
ENDSEC
  0
EOF
