  0
SECTION
  2
HEADER
  9
$ACADVER
  1
AC1014
  9
$HANDSEED
  5
FFFF
  9
$MEASUREMENT
 70
     1
  0
ENDSEC
  0
SECTION
  2
TABLES
  0
TABLE
  2
VPORT
  5
8
330
0
100
AcDbSymbolTable
 70
     4
  0
VPORT
  5
2E
330
8
100
AcDbSymbolTableRecord
100
AcDbViewportTableRecord
  2
*ACTIVE
 70
     0
 10
0.0
 20
0.0
 11
1.0
 21
1.0
 12
210.0
 22
148.5
 13
0.0
 23
0.0
 14
10.0
 24
10.0
 15
10.0
 25
10.0
 16
0.0
 26
0.0
 36
1.0
 17
0.0
 27
0.0
 37
0.0
 40
341.0
 41
1.24
 42
50.0
 43
0.0
 44
0.0
 50
0.0
 51
0.0
 71
     0
 72
   100
 73
     1
 74
     3
 75
     0
 76
     0
 77
     0
 78
     0
  0
ENDTAB
  0
TABLE
  2
LTYPE
  5
5
330
0
100
AcDbSymbolTable
 70
     1
  0
LTYPE
  5
14
330
5
100
AcDbSymbolTableRecord
100
AcDbLinetypeTableRecord
  2
BYBLOCK
 70
     0
  3

 72
    65
 73
     0
 40
0.0
  0
LTYPE
  5
15
330
5
100
AcDbSymbolTableRecord
100
AcDbLinetypeTableRecord
  2
BYLAYER
 70
     0
  3

 72
    65
 73
     0
 40
0.0
  0
LTYPE
  5
16
330
5
100
AcDbSymbolTableRecord
100
AcDbLinetypeTableRecord
  2
CONTINUOUS
 70
     0
  3
Solid line
 72
    65
 73
     0
 40
0.0
  0
ENDTAB
  0
TABLE
  2
LAYER
  5
2
100
AcDbSymbolTable
 70
3
  0
LAYER
  5
50
100
AcDbSymbolTableRecord
100
AcDbLayerTableRecord
  2
0
 70
0
  6
CONTINUOUS
  0
LAYER
  5
51
100
AcDbSymbolTableRecord
100
AcDbLayerTableRecord
  2
µCtrl
 70
0
  6
CONTINUOUS
  0
LAYER
  5
52
100
AcDbSymbolTableRecord
100
AcDbLayerTableRecord
  2
Calque
 70
0
  6
CONTINUOUS
  0
ENDTAB
  0
TABLE
  2
STYLE
  5
3
330
0
100
AcDbSymbolTable
 70
     1
  0
STYLE
  5
11
330
3
100
AcDbSymbolTableRecord
100
AcDbTextStyleTableRecord
  2
STANDARD
 70
     0
 40
0.0
 41
1.0
 50
0.0
 71
     0
 42
2.5
  3
txt
  4

  0
ENDTAB
  0
TABLE
  2
VIEW
  5
6
330
0
100
AcDbSymbolTable
 70
     0
  0
ENDTAB
  0
TABLE
  2
UCS
  5
7
330
0
100
AcDbSymbolTable
 70
     0
  0
ENDTAB
  0
TABLE
  2
APPID
  5
9
330
0
100
AcDbSymbolTable
 70
     2
  0
APPID
  5
12
330
9
100
AcDbSymbolTableRecord
100
AcDbRegAppTableRecord
  2
ACAD
 70
     0
  0
ENDTAB
  0
TABLE
  2
DIMSTYLE
  5
A
330
0
100
AcDbSymbolTable
 70
     1
  0
DIMSTYLE
105
27
330
A
100
AcDbSymbolTableRecord
100
AcDbDimStyleTableRecord
  2
ISO-25
 70
     0
  3

  4

  5

  6

  7

 40
1.0
 41
2.5
 42
0.625
 43
3.75
 44
1.25
 45
0.0
 46
0.0
 47
0.0
 48
0.0
140
2.5
141
2.5
142
0.0
143
0.03937007874016
144
1.0
145
0.0
146
1.0
147
0.625
 71
     0
 72
     0
 73
     0
 74
     0
 75
     0
 76
     0
 77
     1
 78
     8
170
     0
171
     3
172
     1
173
     0
174
     0
175
     0
176
     0
177
     0
178
     0
270
     2
271
     2
272
     2
273
     2
274
     3
340
11
275
     0
280
     0
281
     0
282
     0
283
     0
284
     8
285
     0
286
     0
287
     3
288
     0
  0
ENDTAB
  0
TABLE
  2
BLOCK_RECORD
  5
1
330
0
100
AcDbSymbolTable
 70
     1
  0
BLOCK_RECORD
  5
1F
330
1
100
AcDbSymbolTableRecord
100
AcDbBlockTableRecord
  2
*MODEL_SPACE
  0
BLOCK_RECORD
  5
1B
330
1
100
AcDbSymbolTableRecord
100
AcDbBlockTableRecord
  2
*PAPER_SPACE
  0
ENDTAB
  0
ENDSEC
  0
SECTION
  2
BLOCKS
  0
BLOCK
  5
20
330
1F
100
AcDbEntity
  8
0
100
AcDbBlockBegin
  2
*MODEL_SPACE
 70
     0
 10
0.0
 20
0.0
 30
0.0
  3
*MODEL_SPACE
  1

  0
ENDBLK
  5
21
330
1F
100
AcDbEntity
  8
0
100
AcDbBlockEnd
  0
BLOCK
  5
1C
330
1B
100
AcDbEntity
 67
     1
  8
0
100
AcDbBlockBegin
  2
*PAPER_SPACE
  1

  0
ENDBLK
  5
1D
330
1B
100
AcDbEntity
 67
     1
  8
0
100
AcDbBlockEnd
  0
ENDSEC
  0
SECTION
  2
ENTITIES
  0
LWPOLYLINE
  5
100
100
AcDbEntity
  8
µCtrl
 62
7
100
AcDbPolyline
 90
7
 70
0
 10
76.218040
 20
64.602262
 30
0.0
 10
59.346910
 20
77.610717
 30
0.0
 10
42.466463
 20
64.597100
 30
0.0
 10
42.465993
 20
45.134768
 30
0.0
 10
76.218040
 20
45.134768
 30
0.0
 10
76.218040
 20
64.602262
 30
0.0
 10
76.218040
 20
64.602262
 30
0.0
  0
LWPOLYLINE
  5
101
100
AcDbEntity
  8
µCtrl
 62
7
100
AcDbPolyline
 90
10
 70
0
 10
59.249073
 20
84.729935
 30
0.0
 10
35.307823
 20
66.272413
 30
0.0
 10
37.829410
 20
63.795662
 30
0.0
 10
59.346948
 20
80.385152
 30
0.0
 10
77.790752
 20
66.201783
 30
0.0
 10
80.307823
 20
68.678780
 30
0.0
 10
59.439740
 20
84.729935
 30
0.0
 10
59.346948
 20
84.636115
 30
0.0
 10
59.249073
 20
84.729935
 30
0.0
 10
59.249073
 20
84.729935
 30
0.0
  0
LWPOLYLINE
  5
102
100
AcDbEntity
  8
µCtrl
 62
7
100
AcDbPolyline
 90
6
 70
0
 10
42.466445
 20
82.073137
 30
0.0
 10
48.535327
 20
82.073137
 30
0.0
 10
48.482908
 20
78.943255
 30
0.0
 10
42.466445
 20
74.211231
 30
0.0
 10
42.466445
 20
82.073137
 30
0.0
 10
42.466445
 20
82.073137
 30
0.0
  0
SPLINE
  5
103
100
AcDbEntity
  8
µCtrl
 62
7
100
AcDbSpline
 70
8
 71
3
 72
8
 73
4
 74
0
 40
0
 40
0
 40
0
 40
0
 40
1
 40
1
 40
1
 40
1
 10
63.555639
 20
48.544265
 30
0.0
 10
61.968283
 20
46.678938
 30
0.0
 10
60.416689
 20
46.164365
 30
0.0
 10
57.794873
 20
46.164365
 30
0.0
  0
SPLINE
  5
104
100
AcDbEntity
  8
µCtrl
 62
7
100
AcDbSpline
 70
8
 71
3
 72
8
 73
4
 74
0
 40
0
 40
0
 40
0
 40
0
 40
1
 40
1
 40
1
 40
1
 10
57.794873
 20
46.164365
 30
0.0
 10
57.203956
 20
46.164365
 30
0.0
 10
56.576711
 20
46.196977
 30
0.0
 10
56.022308
 20
46.357658
 30
0.0
  0
LWPOLYLINE
  5
105
100
AcDbEntity
  8
µCtrl
 62
7
100
AcDbPolyline
 90
3
 70
0
 10
63.629421
 20
46.422061
 30
0.0
 10
63.629421
 20
48.544265
 30
0.0
 10
63.555639
 20
48.544265
 30
0.0
  0
SPLINE
  5
106
100
AcDbEntity
  8
µCtrl
 62
7
100
AcDbSpline
 70
8
 71
3
 72
8
 73
4
 74
0
 40
0
 40
0
 40
0
 40
0
 40
1
 40
1
 40
1
 40
1
 10
56.022308
 20
52.884869
 30
0.0
 10
56.022308
 20
51.148349
 30
0.0
 10
56.945529
 20
49.701235
 30
0.0
 10
59.050585
 20
49.701235
 30
0.0
  0
SPLINE
  5
107
100
AcDbEntity
  8
µCtrl
 62
7
100
AcDbSpline
 70
8
 71
3
 72
8
 73
4
 74
0
 40
0
 40
0
 40
0
 40
0
 40
1
 40
1
 40
1
 40
1
 10
59.050585
 20
49.701235
 30
0.0
 10
62.004798
 20
49.701235
 30
0.0
 10
63.371183
 20
51.662840
 30
0.0
 10
63.371183
 20
53.720395
 30
0.0
  0
LWPOLYLINE
  5
108
100
AcDbEntity
  8
µCtrl
 62
7
100
AcDbPolyline
 90
6
 70
0
 10
56.022308
 20
46.357658
 30
0.0
 10
56.022308
 20
41.405466
 30
0.0
 10
51.332893
 20
40.891221
 30
0.0
 10
51.332893
 20
63.012289
 30
0.0
 10
56.022308
 20
63.526780
 30
0.0
 10
56.022308
 20
52.884869
 30
0.0
  0
LWPOLYLINE
  5
109
100
AcDbEntity
  8
µCtrl
 62
7
100
AcDbPolyline
 90
6
 70
0
 10
63.371183
 20
53.720395
 30
0.0
 10
63.371183
 20
63.012289
 30
0.0
 10
68.061540
 20
63.526780
 30
0.0
 10
68.061540
 20
46.678938
 30
0.0
 10
63.629421
 20
46.422061
 30
0.0
 10
63.629421
 20
46.422061
 30
0.0
  0
SPLINE
  5
10a
100
AcDbEntity
  8
µCtrl
 62
7
100
AcDbSpline
 70
8
 71
3
 72
8
 73
4
 74
0
 40
0
 40
0
 40
0
 40
0
 40
1
 40
1
 40
1
 40
1
 10
57.198685
 20
45.152533
 30
0.0
 10
57.410433
 20
45.142700
 30
0.0
 10
57.611264
 20
45.140160
 30
0.0
 10
57.794873
 20
45.140160
 30
0.0
  0
SPLINE
  5
10b
100
AcDbEntity
  8
µCtrl
 62
7
100
AcDbSpline
 70
8
 71
3
 72
8
 73
4
 74
0
 40
0
 40
0
 40
0
 40
0
 40
1
 40
1
 40
1
 40
1
 10
57.794873
 20
45.140160
 30
0.0
 10
59.566497
 20
45.140160
 30
0.0
 10
61.066237
 20
45.345579
 30
0.0
 10
62.453044
 20
46.162341
 30
0.0
  0
LWPOLYLINE
  5
10c
100
AcDbEntity
  8
µCtrl
 62
7
100
AcDbPolyline
 90
12
 70
0
 10
57.198685
 20
64.688199
 30
0.0
 10
55.875214
 20
64.543004
 30
0.0
 10
51.185799
 20
64.028513
 30
0.0
 10
50.156516
 20
63.915602
 30
0.0
 10
50.156516
 20
63.012313
 30
0.0
 10
50.156516
 20
40.891245
 30
0.0
 10
50.156516
 20
39.729933
 30
0.0
 10
51.479893
 20
39.874964
 30
0.0
 10
56.169308
 20
40.389291
 30
0.0
 10
57.198685
 20
40.502202
 30
0.0
 10
57.198685
 20
41.405491
 30
0.0
 10
57.198685
 20
45.152533
 30
0.0
  0
SPLINE
  5
10d
100
AcDbEntity
  8
µCtrl
 62
7
100
AcDbSpline
 70
8
 71
3
 72
8
 73
4
 74
0
 40
0
 40
0
 40
0
 40
0
 40
1
 40
1
 40
1
 40
1
 10
62.194806
 20
53.720419
 30
0.0
 10
62.194806
 20
52.272568
 30
0.0
 10
61.368895
 20
50.725408
 30
0.0
 10
59.050585
 20
50.725408
 30
0.0
  0
SPLINE
  5
10e
100
AcDbEntity
  8
µCtrl
 62
7
100
AcDbSpline
 70
8
 71
3
 72
8
 73
4
 74
0
 40
0
 40
0
 40
0
 40
0
 40
1
 40
1
 40
1
 40
1
 10
59.050585
 20
50.725408
 30
0.0
 10
58.430117
 20
50.725408
 30
0.0
 10
57.998245
 20
50.892972
 30
0.0
 10
57.691352
 20
51.252681
 30
0.0
  0
SPLINE
  5
10f
100
AcDbEntity
  8
µCtrl
 62
7
100
AcDbSpline
 70
8
 71
3
 72
8
 73
4
 74
0
 40
0
 40
0
 40
0
 40
0
 40
1
 40
1
 40
1
 40
1
 10
57.691352
 20
51.252681
 30
0.0
 10
57.373636
 20
51.624927
 30
0.0
 10
57.198685
 20
52.204641
 30
0.0
 10
57.198685
 20
52.884894
 30
0.0
  0
LWPOLYLINE
  5
110
100
AcDbEntity
  8
µCtrl
 62
7
100
AcDbPolyline
 90
13
 70
0
 10
62.453044
 20
46.162341
 30
0.0
 10
62.453044
 20
45.327389
 30
0.0
 10
63.707533
 20
45.400069
 30
0.0
 10
68.139651
 20
45.656945
 30
0.0
 10
69.237917
 20
45.720611
 30
0.0
 10
69.237917
 20
46.678881
 30
0.0
 10
69.237917
 20
63.526804
 30
0.0
 10
69.237917
 20
64.688199
 30
0.0
 10
67.914446
 20
64.543004
 30
0.0
 10
63.224183
 20
64.028513
 30
0.0
 10
62.194806
 20
63.915602
 30
0.0
 10
62.194806
 20
63.012313
 30
0.0
 10
62.194806
 20
53.720419
 30
0.0
  0
LWPOLYLINE
  5
111
100
AcDbEntity
  8
µCtrl
 62
7
100
AcDbPolyline
 90
4
 70
0
 10
57.198685
 20
52.884894
 30
0.0
 10
57.198685
 20
63.526804
 30
0.0
 10
57.198685
 20
64.688199
 30
0.0
 10
57.198685
 20
64.688199
 30
0.0
  0
SPLINE
  5
112
100
AcDbEntity
  8
µCtrl
 62
7
100
AcDbSpline
 70
8
 71
3
 72
8
 73
4
 74
0
 40
0
 40
0
 40
0
 40
0
 40
1
 40
1
 40
1
 40
1
 10
63.555639
 20
48.544290
 30
0.0
 10
61.968283
 20
46.678881
 30
0.0
 10
60.416689
 20
46.164390
 30
0.0
 10
57.794873
 20
46.164390
 30
0.0
  0
SPLINE
  5
113
100
AcDbEntity
  8
µCtrl
 62
7
100
AcDbSpline
 70
8
 71
3
 72
8
 73
4
 74
0
 40
0
 40
0
 40
0
 40
0
 40
1
 40
1
 40
1
 40
1
 10
57.794873
 20
46.164390
 30
0.0
 10
57.203956
 20
46.164390
 30
0.0
 10
56.576711
 20
46.197001
 30
0.0
 10
56.022308
 20
46.357682
 30
0.0
  0
LWPOLYLINE
  5
114
100
AcDbEntity
  8
µCtrl
 62
7
100
AcDbPolyline
 90
5
 70
0
 10
68.061540
 20
63.526804
 30
0.0
 10
68.061540
 20
46.678881
 30
0.0
 10
63.629421
 20
46.422086
 30
0.0
 10
63.629421
 20
48.544290
 30
0.0
 10
63.555639
 20
48.544290
 30
0.0
  0
SPLINE
  5
115
100
AcDbEntity
  8
µCtrl
 62
7
100
AcDbSpline
 70
8
 71
3
 72
8
 73
4
 74
0
 40
0
 40
0
 40
0
 40
0
 40
1
 40
1
 40
1
 40
1
 10
56.022308
 20
52.884894
 30
0.0
 10
56.022308
 20
51.148292
 30
0.0
 10
56.945529
 20
49.701178
 30
0.0
 10
59.050585
 20
49.701178
 30
0.0
  0
SPLINE
  5
116
100
AcDbEntity
  8
µCtrl
 62
7
100
AcDbSpline
 70
8
 71
3
 72
8
 73
4
 74
0
 40
0
 40
0
 40
0
 40
0
 40
1
 40
1
 40
1
 40
1
 10
59.050585
 20
49.701178
 30
0.0
 10
62.004798
 20
49.701178
 30
0.0
 10
63.371183
 20
51.662865
 30
0.0
 10
63.371183
 20
53.720419
 30
0.0
  0
LWPOLYLINE
  5
117
100
AcDbEntity
  8
µCtrl
 62
7
100
AcDbPolyline
 90
6
 70
0
 10
56.022308
 20
46.357682
 30
0.0
 10
56.022308
 20
41.405491
 30
0.0
 10
51.332893
 20
40.891245
 30
0.0
 10
51.332893
 20
63.012313
 30
0.0
 10
56.022308
 20
63.526804
 30
0.0
 10
56.022308
 20
52.884894
 30
0.0
  0
LWPOLYLINE
  5
118
100
AcDbEntity
  8
µCtrl
 62
7
100
AcDbPolyline
 90
3
 70
0
 10
63.371183
 20
53.720419
 30
0.0
 10
63.371183
 20
63.012313
 30
0.0
 10
68.061540
 20
63.526804
 30
0.0
  0
LWPOLYLINE
  5
119
100
AcDbEntity
  8
µCtrl
 62
7
100
AcDbPolyline
 90
7
 70
0
 10
76.218040
 20
64.602262
 30
0.0
 10
59.346910
 20
77.610717
 30
0.0
 10
42.466463
 20
64.597100
 30
0.0
 10
42.465993
 20
45.134768
 30
0.0
 10
76.218040
 20
45.134768
 30
0.0
 10
76.218040
 20
64.602262
 30
0.0
 10
76.218040
 20
64.602262
 30
0.0
  0
LWPOLYLINE
  5
11a
100
AcDbEntity
  8
µCtrl
 62
7
100
AcDbPolyline
 90
10
 70
0
 10
59.249073
 20
84.729935
 30
0.0
 10
35.307823
 20
66.272413
 30
0.0
 10
37.829410
 20
63.795662
 30
0.0
 10
59.346948
 20
80.385152
 30
0.0
 10
77.790752
 20
66.201783
 30
0.0
 10
80.307823
 20
68.678780
 30
0.0
 10
59.439740
 20
84.729935
 30
0.0
 10
59.346948
 20
84.636115
 30
0.0
 10
59.249073
 20
84.729935
 30
0.0
 10
59.249073
 20
84.729935
 30
0.0
  0
LWPOLYLINE
  5
11b
100
AcDbEntity
  8
µCtrl
 62
7
100
AcDbPolyline
 90
6
 70
0
 10
42.466445
 20
82.073137
 30
0.0
 10
48.535327
 20
82.073137
 30
0.0
 10
48.482908
 20
78.943255
 30
0.0
 10
42.466445
 20
74.211231
 30
0.0
 10
42.466445
 20
82.073137
 30
0.0
 10
42.466445
 20
82.073137
 30
0.0
  0
SPLINE
  5
11c
100
AcDbEntity
  8
µCtrl
 62
7
100
AcDbSpline
 70
8
 71
3
 72
8
 73
4
 74
0
 40
0
 40
0
 40
0
 40
0
 40
1
 40
1
 40
1
 40
1
 10
63.555639
 20
48.544265
 30
0.0
 10
61.968283
 20
46.678938
 30
0.0
 10
60.416689
 20
46.164365
 30
0.0
 10
57.794873
 20
46.164365
 30
0.0
  0
SPLINE
  5
11d
100
AcDbEntity
  8
µCtrl
 62
7
100
AcDbSpline
 70
8
 71
3
 72
8
 73
4
 74
0
 40
0
 40
0
 40
0
 40
0
 40
1
 40
1
 40
1
 40
1
 10
57.794873
 20
46.164365
 30
0.0
 10
57.203956
 20
46.164365
 30
0.0
 10
56.576711
 20
46.196977
 30
0.0
 10
56.022308
 20
46.357658
 30
0.0
  0
LWPOLYLINE
  5
11e
100
AcDbEntity
  8
µCtrl
 62
7
100
AcDbPolyline
 90
3
 70
0
 10
63.629421
 20
46.422061
 30
0.0
 10
63.629421
 20
48.544265
 30
0.0
 10
63.555639
 20
48.544265
 30
0.0
  0
SPLINE
  5
11f
100
AcDbEntity
  8
µCtrl
 62
7
100
AcDbSpline
 70
8
 71
3
 72
8
 73
4
 74
0
 40
0
 40
0
 40
0
 40
0
 40
1
 40
1
 40
1
 40
1
 10
56.022308
 20
52.884869
 30
0.0
 10
56.022308
 20
51.148349
 30
0.0
 10
56.945529
 20
49.701235
 30
0.0
 10
59.050585
 20
49.701235
 30
0.0
  0
SPLINE
  5
120
100
AcDbEntity
  8
µCtrl
 62
7
100
AcDbSpline
 70
8
 71
3
 72
8
 73
4
 74
0
 40
0
 40
0
 40
0
 40
0
 40
1
 40
1
 40
1
 40
1
 10
59.050585
 20
49.701235
 30
0.0
 10
62.004798
 20
49.701235
 30
0.0
 10
63.371183
 20
51.662840
 30
0.0
 10
63.371183
 20
53.720395
 30
0.0
  0
LWPOLYLINE
  5
121
100
AcDbEntity
  8
µCtrl
 62
7
100
AcDbPolyline
 90
6
 70
0
 10
56.022308
 20
46.357658
 30
0.0
 10
56.022308
 20
41.405466
 30
0.0
 10
51.332893
 20
40.891221
 30
0.0
 10
51.332893
 20
63.012289
 30
0.0
 10
56.022308
 20
63.526780
 30
0.0
 10
56.022308
 20
52.884869
 30
0.0
  0
LWPOLYLINE
  5
122
100
AcDbEntity
  8
µCtrl
 62
7
100
AcDbPolyline
 90
6
 70
0
 10
63.371183
 20
53.720395
 30
0.0
 10
63.371183
 20
63.012289
 30
0.0
 10
68.061540
 20
63.526780
 30
0.0
 10
68.061540
 20
46.678938
 30
0.0
 10
63.629421
 20
46.422061
 30
0.0
 10
63.629421
 20
46.422061
 30
0.0
  0
SPLINE
  5
123
100
AcDbEntity
  8
µCtrl
 62
7
100
AcDbSpline
 70
8
 71
3
 72
8
 73
4
 74
0
 40
0
 40
0
 40
0
 40
0
 40
1
 40
1
 40
1
 40
1
 10
57.198685
 20
45.152533
 30
0.0
 10
57.410433
 20
45.142700
 30
0.0
 10
57.611264
 20
45.140160
 30
0.0
 10
57.794873
 20
45.140160
 30
0.0
  0
SPLINE
  5
124
100
AcDbEntity
  8
µCtrl
 62
7
100
AcDbSpline
 70
8
 71
3
 72
8
 73
4
 74
0
 40
0
 40
0
 40
0
 40
0
 40
1
 40
1
 40
1
 40
1
 10
57.794873
 20
45.140160
 30
0.0
 10
59.566497
 20
45.140160
 30
0.0
 10
61.066237
 20
45.345579
 30
0.0
 10
62.453044
 20
46.162341
 30
0.0
  0
LWPOLYLINE
  5
125
100
AcDbEntity
  8
µCtrl
 62
7
100
AcDbPolyline
 90
12
 70
0
 10
57.198685
 20
64.688199
 30
0.0
 10
55.875214
 20
64.543004
 30
0.0
 10
51.185799
 20
64.028513
 30
0.0
 10
50.156516
 20
63.915602
 30
0.0
 10
50.156516
 20
63.012313
 30
0.0
 10
50.156516
 20
40.891245
 30
0.0
 10
50.156516
 20
39.729933
 30
0.0
 10
51.479893
 20
39.874964
 30
0.0
 10
56.169308
 20
40.389291
 30
0.0
 10
57.198685
 20
40.502202
 30
0.0
 10
57.198685
 20
41.405491
 30
0.0
 10
57.198685
 20
45.152533
 30
0.0
  0
SPLINE
  5
126
100
AcDbEntity
  8
µCtrl
 62
7
100
AcDbSpline
 70
8
 71
3
 72
8
 73
4
 74
0
 40
0
 40
0
 40
0
 40
0
 40
1
 40
1
 40
1
 40
1
 10
62.194806
 20
53.720419
 30
0.0
 10
62.194806
 20
52.272568
 30
0.0
 10
61.368895
 20
50.725408
 30
0.0
 10
59.050585
 20
50.725408
 30
0.0
  0
SPLINE
  5
127
100
AcDbEntity
  8
µCtrl
 62
7
100
AcDbSpline
 70
8
 71
3
 72
8
 73
4
 74
0
 40
0
 40
0
 40
0
 40
0
 40
1
 40
1
 40
1
 40
1
 10
59.050585
 20
50.725408
 30
0.0
 10
58.430117
 20
50.725408
 30
0.0
 10
57.998245
 20
50.892972
 30
0.0
 10
57.691352
 20
51.252681
 30
0.0
  0
SPLINE
  5
128
100
AcDbEntity
  8
µCtrl
 62
7
100
AcDbSpline
 70
8
 71
3
 72
8
 73
4
 74
0
 40
0
 40
0
 40
0
 40
0
 40
1
 40
1
 40
1
 40
1
 10
57.691352
 20
51.252681
 30
0.0
 10
57.373636
 20
51.624927
 30
0.0
 10
57.198685
 20
52.204641
 30
0.0
 10
57.198685
 20
52.884894
 30
0.0
  0
LWPOLYLINE
  5
129
100
AcDbEntity
  8
µCtrl
 62
7
100
AcDbPolyline
 90
13
 70
0
 10
62.453044
 20
46.162341
 30
0.0
 10
62.453044
 20
45.327389
 30
0.0
 10
63.707533
 20
45.400069
 30
0.0
 10
68.139651
 20
45.656945
 30
0.0
 10
69.237917
 20
45.720611
 30
0.0
 10
69.237917
 20
46.678881
 30
0.0
 10
69.237917
 20
63.526804
 30
0.0
 10
69.237917
 20
64.688199
 30
0.0
 10
67.914446
 20
64.543004
 30
0.0
 10
63.224183
 20
64.028513
 30
0.0
 10
62.194806
 20
63.915602
 30
0.0
 10
62.194806
 20
63.012313
 30
0.0
 10
62.194806
 20
53.720419
 30
0.0
  0
LWPOLYLINE
  5
12a
100
AcDbEntity
  8
µCtrl
 62
7
100
AcDbPolyline
 90
4
 70
0
 10
57.198685
 20
52.884894
 30
0.0
 10
57.198685
 20
63.526804
 30
0.0
 10
57.198685
 20
64.688199
 30
0.0
 10
57.198685
 20
64.688199
 30
0.0
  0
SPLINE
  5
12b
100
AcDbEntity
  8
µCtrl
 62
7
100
AcDbSpline
 70
8
 71
3
 72
8
 73
4
 74
0
 40
0
 40
0
 40
0
 40
0
 40
1
 40
1
 40
1
 40
1
 10
63.555639
 20
48.544290
 30
0.0
 10
61.968283
 20
46.678881
 30
0.0
 10
60.416689
 20
46.164390
 30
0.0
 10
57.794873
 20
46.164390
 30
0.0
  0
SPLINE
  5
12c
100
AcDbEntity
  8
µCtrl
 62
7
100
AcDbSpline
 70
8
 71
3
 72
8
 73
4
 74
0
 40
0
 40
0
 40
0
 40
0
 40
1
 40
1
 40
1
 40
1
 10
57.794873
 20
46.164390
 30
0.0
 10
57.203956
 20
46.164390
 30
0.0
 10
56.576711
 20
46.197001
 30
0.0
 10
56.022308
 20
46.357682
 30
0.0
  0
LWPOLYLINE
  5
12d
100
AcDbEntity
  8
µCtrl
 62
7
100
AcDbPolyline
 90
5
 70
0
 10
68.061540
 20
63.526804
 30
0.0
 10
68.061540
 20
46.678881
 30
0.0
 10
63.629421
 20
46.422086
 30
0.0
 10
63.629421
 20
48.544290
 30
0.0
 10
63.555639
 20
48.544290
 30
0.0
  0
SPLINE
  5
12e
100
AcDbEntity
  8
µCtrl
 62
7
100
AcDbSpline
 70
8
 71
3
 72
8
 73
4
 74
0
 40
0
 40
0
 40
0
 40
0
 40
1
 40
1
 40
1
 40
1
 10
56.022308
 20
52.884894
 30
0.0
 10
56.022308
 20
51.148292
 30
0.0
 10
56.945529
 20
49.701178
 30
0.0
 10
59.050585
 20
49.701178
 30
0.0
  0
SPLINE
  5
12f
100
AcDbEntity
  8
µCtrl
 62
7
100
AcDbSpline
 70
8
 71
3
 72
8
 73
4
 74
0
 40
0
 40
0
 40
0
 40
0
 40
1
 40
1
 40
1
 40
1
 10
59.050585
 20
49.701178
 30
0.0
 10
62.004798
 20
49.701178
 30
0.0
 10
63.371183
 20
51.662865
 30
0.0
 10
63.371183
 20
53.720419
 30
0.0
  0
LWPOLYLINE
  5
130
100
AcDbEntity
  8
µCtrl
 62
7
100
AcDbPolyline
 90
6
 70
0
 10
56.022308
 20
46.357682
 30
0.0
 10
56.022308
 20
41.405491
 30
0.0
 10
51.332893
 20
40.891245
 30
0.0
 10
51.332893
 20
63.012313
 30
0.0
 10
56.022308
 20
63.526804
 30
0.0
 10
56.022308
 20
52.884894
 30
0.0
  0
LWPOLYLINE
  5
131
100
AcDbEntity
  8
µCtrl
 62
7
100
AcDbPolyline
 90
3
 70
0
 10
63.371183
 20
53.720419
 30
0.0
 10
63.371183
 20
63.012313
 30
0.0
 10
68.061540
 20
63.526804
 30
0.0
  0
LWPOLYLINE
  5
132
100
AcDbEntity
  8
Calque
 62
7
100
AcDbPolyline
 90
41
 70
0
 10
59.266667
 20
84.666669
 30
0.0
 10
35.663152
 20
65.757781
 30
0.0
 10
38.100000
 20
63.359002
 30
0.0
 10
59.332822
 20
80.240084
 30
0.0
 10
77.677893
 20
66.051766
 30
0.0
 10
79.982308
 20
68.297781
 30
0.0
 10
59.294889
 20
84.666669
 30
0.0
 10
59.294889
 20
87.347781
 30
0.0
 10
82.684070
 20
68.297781
 30
0.0
 10
77.440350
 20
62.898932
 30
0.0
 10
77.440350
 20
43.043382
 30
0.0
 10
57.065333
 20
43.033555
 30
0.0
 10
57.048806
 20
45.155558
 30
0.0
 10
76.058889
 20
45.155558
 30
0.0
 10
76.058889
 20
64.487637
 30
0.0
 10
59.332822
 20
77.543519
 30
0.0
 10
42.615556
 20
64.346669
 30
0.0
 10
42.615556
 20
45.296669
 30
0.0
 10
50.292000
 20
45.296669
 30
0.0
 10
50.292000
 20
39.877151
 30
0.0
 10
57.065333
 20
40.630732
 30
0.0
 10
57.065333
 20
42.952458
 30
0.0
 10
58.420000
 20
42.952484
 30
0.0
 10
58.405291
 20
39.052760
 30
0.0
 10
49.344975
 20
37.677731
 30
0.0
 10
49.339523
 20
43.321114
 30
0.0
 10
41.322131
 20
43.321114
 30
0.0
 10
41.278285
 20
63.237192
 30
0.0
 10
38.100000
 20
60.349071
 30
0.0
 10
32.930829
 20
65.757781
 30
0.0
 10
41.486667
 20
72.759296
 30
0.0
 10
41.486667
 20
83.396669
 30
0.0
 10
50.438510
 20
83.396669
 30
0.0
 10
50.445540
 20
80.208236
 30
0.0
 10
48.824444
 20
79.043121
 30
0.0
 10
48.824444
 20
81.844447
 30
0.0
 10
42.897778
 20
81.844447
 30
0.0
 10
42.897778
 20
74.058475
 30
0.0
 10
50.439024
 20
80.153792
 30
0.0
 10
59.276149
 20
87.347781
 30
0.0
 10
59.266667
 20
84.666669
 30
0.0
  0
ENDSEC
  0
SECTION
  2
OBJECTS
  0
DICTIONARY
  5
C
330
0
100
AcDbDictionary
  3
ACAD_GROUP
350
D
  3
ACAD_MLINESTYLE
350
17
  0
DICTIONARY
  5
D
330
C
100
AcDbDictionary
  0
DICTIONARY
  5
1A
330
C
100
AcDbDictionary
  0
DICTIONARY
  5
17
330
C
100
AcDbDictionary
  3
STANDARD
350
18
  0
DICTIONARY
  5
19
330
C
100
AcDbDictionary
  0
ENDSEC
  0
EOF
