  0
SECTION
  2
HEADER
  9
$ACADVER
  1
AC1014
  9
$HANDSEED
  5
FFFF
  9
$MEASUREMENT
 70
     1
  0
ENDSEC
  0
SECTION
  2
TABLES
  0
TABLE
  2
VPORT
  5
8
330
0
100
AcDbSymbolTable
 70
     4
  0
VPORT
  5
2E
330
8
100
AcDbSymbolTableRecord
100
AcDbViewportTableRecord
  2
*ACTIVE
 70
     0
 10
0.0
 20
0.0
 11
1.0
 21
1.0
 12
210.0
 22
148.5
 13
0.0
 23
0.0
 14
10.0
 24
10.0
 15
10.0
 25
10.0
 16
0.0
 26
0.0
 36
1.0
 17
0.0
 27
0.0
 37
0.0
 40
341.0
 41
1.24
 42
50.0
 43
0.0
 44
0.0
 50
0.0
 51
0.0
 71
     0
 72
   100
 73
     1
 74
     3
 75
     0
 76
     0
 77
     0
 78
     0
  0
ENDTAB
  0
TABLE
  2
LTYPE
  5
5
330
0
100
AcDbSymbolTable
 70
     1
  0
LTYPE
  5
14
330
5
100
AcDbSymbolTableRecord
100
AcDbLinetypeTableRecord
  2
BYBLOCK
 70
     0
  3

 72
    65
 73
     0
 40
0.0
  0
LTYPE
  5
15
330
5
100
AcDbSymbolTableRecord
100
AcDbLinetypeTableRecord
  2
BYLAYER
 70
     0
  3

 72
    65
 73
     0
 40
0.0
  0
LTYPE
  5
16
330
5
100
AcDbSymbolTableRecord
100
AcDbLinetypeTableRecord
  2
CONTINUOUS
 70
     0
  3
Solid line
 72
    65
 73
     0
 40
0.0
  0
ENDTAB
  0
TABLE
  2
LAYER
  5
2
100
AcDbSymbolTable
 70
2
  0
LAYER
  5
50
100
AcDbSymbolTableRecord
100
AcDbLayerTableRecord
  2
0
 70
0
  6
CONTINUOUS
  0
LAYER
  5
51
100
AcDbSymbolTableRecord
100
AcDbLayerTableRecord
  2
Calque
 70
0
  6
CONTINUOUS
  0
ENDTAB
  0
TABLE
  2
STYLE
  5
3
330
0
100
AcDbSymbolTable
 70
     1
  0
STYLE
  5
11
330
3
100
AcDbSymbolTableRecord
100
AcDbTextStyleTableRecord
  2
STANDARD
 70
     0
 40
0.0
 41
1.0
 50
0.0
 71
     0
 42
2.5
  3
txt
  4

  0
ENDTAB
  0
TABLE
  2
VIEW
  5
6
330
0
100
AcDbSymbolTable
 70
     0
  0
ENDTAB
  0
TABLE
  2
UCS
  5
7
330
0
100
AcDbSymbolTable
 70
     0
  0
ENDTAB
  0
TABLE
  2
APPID
  5
9
330
0
100
AcDbSymbolTable
 70
     2
  0
APPID
  5
12
330
9
100
AcDbSymbolTableRecord
100
AcDbRegAppTableRecord
  2
ACAD
 70
     0
  0
ENDTAB
  0
TABLE
  2
DIMSTYLE
  5
A
330
0
100
AcDbSymbolTable
 70
     1
  0
DIMSTYLE
105
27
330
A
100
AcDbSymbolTableRecord
100
AcDbDimStyleTableRecord
  2
ISO-25
 70
     0
  3

  4

  5

  6

  7

 40
1.0
 41
2.5
 42
0.625
 43
3.75
 44
1.25
 45
0.0
 46
0.0
 47
0.0
 48
0.0
140
2.5
141
2.5
142
0.0
143
0.03937007874016
144
1.0
145
0.0
146
1.0
147
0.625
 71
     0
 72
     0
 73
     0
 74
     0
 75
     0
 76
     0
 77
     1
 78
     8
170
     0
171
     3
172
     1
173
     0
174
     0
175
     0
176
     0
177
     0
178
     0
270
     2
271
     2
272
     2
273
     2
274
     3
340
11
275
     0
280
     0
281
     0
282
     0
283
     0
284
     8
285
     0
286
     0
287
     3
288
     0
  0
ENDTAB
  0
TABLE
  2
BLOCK_RECORD
  5
1
330
0
100
AcDbSymbolTable
 70
     1
  0
BLOCK_RECORD
  5
1F
330
1
100
AcDbSymbolTableRecord
100
AcDbBlockTableRecord
  2
*MODEL_SPACE
  0
BLOCK_RECORD
  5
1B
330
1
100
AcDbSymbolTableRecord
100
AcDbBlockTableRecord
  2
*PAPER_SPACE
  0
ENDTAB
  0
ENDSEC
  0
SECTION
  2
BLOCKS
  0
BLOCK
  5
20
330
1F
100
AcDbEntity
  8
0
100
AcDbBlockBegin
  2
*MODEL_SPACE
 70
     0
 10
0.0
 20
0.0
 30
0.0
  3
*MODEL_SPACE
  1

  0
ENDBLK
  5
21
330
1F
100
AcDbEntity
  8
0
100
AcDbBlockEnd
  0
BLOCK
  5
1C
330
1B
100
AcDbEntity
 67
     1
  8
0
100
AcDbBlockBegin
  2
*PAPER_SPACE
  1

  0
ENDBLK
  5
1D
330
1B
100
AcDbEntity
 67
     1
  8
0
100
AcDbBlockEnd
  0
ENDSEC
  0
SECTION
  2
ENTITIES
  0
LWPOLYLINE
  5
100
100
AcDbEntity
  8
Calque
 62
7
100
AcDbPolyline
 90
54
 70
0
 10
51.329167
 20
63.006114
 30
0.0
 10
56.021111
 20
63.500003
 30
0.0
 10
55.985833
 20
52.705003
 30
0.0
 10
56.126944
 20
51.858336
 30
0.0
 10
56.391528
 20
51.170419
 30
0.0
 10
56.673750
 20
50.729447
 30
0.0
 10
56.973611
 20
50.429586
 30
0.0
 10
57.291111
 20
50.200281
 30
0.0
 10
57.555694
 20
50.041531
 30
0.0
 10
57.943750
 20
49.900419
 30
0.0
 10
58.331806
 20
49.759308
 30
0.0
 10
58.702222
 20
49.706392
 30
0.0
 10
59.057656
 20
49.703225
 30
0.0
 10
59.431834
 20
49.690754
 30
0.0
 10
59.768593
 20
49.728171
 30
0.0
 10
60.142772
 20
49.803005
 30
0.0
 10
60.429640
 20
49.852896
 30
0.0
 10
60.803818
 20
49.990096
 30
0.0
 10
61.140577
 20
50.114821
 30
0.0
 10
61.489810
 20
50.314380
 30
0.0
 10
61.901403
 20
50.576305
 30
0.0
 10
62.300527
 20
50.950484
 30
0.0
 10
62.599869
 20
51.324660
 30
0.0
 10
62.836848
 20
51.711310
 30
0.0
 10
63.036408
 20
52.048069
 30
0.0
 10
63.211024
 20
52.459664
 30
0.0
 10
63.260915
 20
52.871260
 30
0.0
 10
63.335749
 20
53.320273
 30
0.0
 10
63.373169
 20
53.906485
 30
0.0
 10
63.360695
 20
63.011465
 30
0.0
 10
68.025439
 20
63.510369
 30
0.0
 10
68.025439
 20
46.697333
 30
0.0
 10
63.635094
 20
46.422937
 30
0.0
 10
63.610149
 20
48.643057
 30
0.0
 10
63.270694
 20
48.207086
 30
0.0
 10
62.794444
 20
47.748475
 30
0.0
 10
62.371111
 20
47.369239
 30
0.0
 10
61.947778
 20
47.078197
 30
0.0
 10
61.462708
 20
46.822433
 30
0.0
 10
60.915903
 20
46.601947
 30
0.0
 10
60.377917
 20
46.434378
 30
0.0
 10
60.025139
 20
46.346183
 30
0.0
 10
59.557708
 20
46.275628
 30
0.0
 10
58.940347
 20
46.196253
 30
0.0
 10
58.464097
 20
46.178614
 30
0.0
 10
58.031944
 20
46.169794
 30
0.0
 10
57.485139
 20
46.169794
 30
0.0
 10
57.044167
 20
46.187433
 30
0.0
 10
56.603194
 20
46.231531
 30
0.0
 10
56.268056
 20
46.302086
 30
0.0
 10
55.977014
 20
46.363822
 30
0.0
 10
55.977014
 20
41.416114
 30
0.0
 10
51.364444
 20
40.886947
 30
0.0
 10
51.329167
 20
63.006114
 30
0.0
  0
ENDSEC
  0
SECTION
  2
OBJECTS
  0
DICTIONARY
  5
C
330
0
100
AcDbDictionary
  3
ACAD_GROUP
350
D
  3
ACAD_MLINESTYLE
350
17
  0
DICTIONARY
  5
D
330
C
100
AcDbDictionary
  0
DICTIONARY
  5
1A
330
C
100
AcDbDictionary
  0
DICTIONARY
  5
17
330
C
100
AcDbDictionary
  3
STANDARD
350
18
  0
DICTIONARY
  5
19
330
C
100
AcDbDictionary
  0
ENDSEC
  0
EOF
