<?xml version="1.0" encoding="UTF-8" standalone="no"?>
<!-- Created with Inkscape (http://www.inkscape.org/) -->

<svg
   xmlns:dc="http://purl.org/dc/elements/1.1/"
   xmlns:cc="http://creativecommons.org/ns#"
   xmlns:rdf="http://www.w3.org/1999/02/22-rdf-syntax-ns#"
   xmlns:svg="http://www.w3.org/2000/svg"
   xmlns="http://www.w3.org/2000/svg"
   xmlns:sodipodi="http://sodipodi.sourceforge.net/DTD/sodipodi-0.dtd"
   xmlns:inkscape="http://www.inkscape.org/namespaces/inkscape"
   id="svg2"
   version="1.1"
   inkscape:version="0.48.4 r9939"
   width="1287.5"
   height="734.805"
   xml:space="preserve"
   sodipodi:docname="µ.svg"><metadata
     id="metadata8"><rdf:RDF><cc:Work
         rdf:about=""><dc:format>image/svg+xml</dc:format><dc:type
           rdf:resource="http://purl.org/dc/dcmitype/StillImage" /><dc:title /></cc:Work></rdf:RDF></metadata><defs
     id="defs6"><clipPath
       clipPathUnits="userSpaceOnUse"
       id="clipPath32"><path
         d="M 0,587.844 1030,587.844 1030,0 0,0 0,587.844 z"
         id="path34" /></clipPath></defs><sodipodi:namedview
     pagecolor="#ffffff"
     bordercolor="#666666"
     borderopacity="1"
     objecttolerance="10"
     gridtolerance="10"
     guidetolerance="10"
     inkscape:pageopacity="0"
     inkscape:pageshadow="2"
     inkscape:window-width="1855"
     inkscape:window-height="1056"
     id="namedview4"
     showgrid="false"
     inkscape:zoom="4"
     inkscape:cx="183.63211"
     inkscape:cy="184.97642"
     inkscape:window-x="65"
     inkscape:window-y="1074"
     inkscape:window-maximized="1"
     inkscape:current-layer="layer1"
     showguides="true"
     inkscape:guide-bbox="true"
     inkscape:snap-center="true"
     inkscape:snap-object-midpoints="true" /><g
     inkscape:groupmode="layer"
     id="layer1"
     inkscape:label="Calque"
     style="display:inline"><path
       style="fill:none;stroke:#000000;stroke-width:1px;stroke-linecap:butt;stroke-linejoin:miter;stroke-opacity:1"
       d="M 181.875,511.55499 198.5,509.80499 198.375,548.05499 198.875,551.05499 199.8125,553.49249 200.8125,555.05499 201.875,556.11749 203,556.92999 203.9375,557.49249 205.3125,557.99249 206.6875,558.49249 208,558.67999 209.25941,558.69121 210.58524,558.7354 211.77848,558.60282 213.10431,558.33766 214.12077,558.16088 215.4466,557.67474 216.63984,557.2328 217.87728,556.5257 219.33568,555.59762 220.7499,554.27179 221.81056,552.94597 222.65025,551.57595 223.35735,550.38271 223.97607,548.9243 224.15285,547.46589 224.41801,545.8749 224.5506,543.79777 224.5064,511.53603 241.03502,509.76826 241.03502,569.34201 225.47868,570.31428 225.39029,562.44771 224.1875,563.99249 222.5,565.61749 221,566.96124 219.5,567.99249 217.78125,568.89874 215.84375,569.67999 213.9375,570.27374 212.6875,570.58624 211.03125,570.83624 208.84375,571.11749 207.15625,571.17999 205.625,571.21124 203.6875,571.21124 202.125,571.14874 200.5625,570.99249 199.375,570.74249 198.34375,570.52374 198.34375,588.05499 182,589.92999 z"
       id="path3013"
       inkscape:connector-curvature="0"
       sodipodi:nodetypes="cccccccccccccccccccccccccccccccccccccccccccccccccccccc" /></g></svg>