  0
SECTION
  2
HEADER
  9
$ACADVER
  1
AC1014
  9
$HANDSEED
  5
FFFF
  9
$MEASUREMENT
 70
     1
  0
ENDSEC
  0
SECTION
  2
TABLES
  0
TABLE
  2
VPORT
  5
8
330
0
100
AcDbSymbolTable
 70
     4
  0
VPORT
  5
2E
330
8
100
AcDbSymbolTableRecord
100
AcDbViewportTableRecord
  2
*ACTIVE
 70
     0
 10
0.0
 20
0.0
 11
1.0
 21
1.0
 12
210.0
 22
148.5
 13
0.0
 23
0.0
 14
10.0
 24
10.0
 15
10.0
 25
10.0
 16
0.0
 26
0.0
 36
1.0
 17
0.0
 27
0.0
 37
0.0
 40
341.0
 41
1.24
 42
50.0
 43
0.0
 44
0.0
 50
0.0
 51
0.0
 71
     0
 72
   100
 73
     1
 74
     3
 75
     0
 76
     0
 77
     0
 78
     0
  0
ENDTAB
  0
TABLE
  2
LTYPE
  5
5
330
0
100
AcDbSymbolTable
 70
     1
  0
LTYPE
  5
14
330
5
100
AcDbSymbolTableRecord
100
AcDbLinetypeTableRecord
  2
BYBLOCK
 70
     0
  3

 72
    65
 73
     0
 40
0.0
  0
LTYPE
  5
15
330
5
100
AcDbSymbolTableRecord
100
AcDbLinetypeTableRecord
  2
BYLAYER
 70
     0
  3

 72
    65
 73
     0
 40
0.0
  0
LTYPE
  5
16
330
5
100
AcDbSymbolTableRecord
100
AcDbLinetypeTableRecord
  2
CONTINUOUS
 70
     0
  3
Solid line
 72
    65
 73
     0
 40
0.0
  0
ENDTAB
  0
TABLE
  2
LAYER
  5
2
100
AcDbSymbolTable
 70
2
  0
LAYER
  5
50
100
AcDbSymbolTableRecord
100
AcDbLayerTableRecord
  2
0
 70
0
  6
CONTINUOUS
  0
LAYER
  5
51
100
AcDbSymbolTableRecord
100
AcDbLayerTableRecord
  2
µCtrl
 70
0
  6
CONTINUOUS
  0
ENDTAB
  0
TABLE
  2
STYLE
  5
3
330
0
100
AcDbSymbolTable
 70
     1
  0
STYLE
  5
11
330
3
100
AcDbSymbolTableRecord
100
AcDbTextStyleTableRecord
  2
STANDARD
 70
     0
 40
0.0
 41
1.0
 50
0.0
 71
     0
 42
2.5
  3
txt
  4

  0
ENDTAB
  0
TABLE
  2
VIEW
  5
6
330
0
100
AcDbSymbolTable
 70
     0
  0
ENDTAB
  0
TABLE
  2
UCS
  5
7
330
0
100
AcDbSymbolTable
 70
     0
  0
ENDTAB
  0
TABLE
  2
APPID
  5
9
330
0
100
AcDbSymbolTable
 70
     2
  0
APPID
  5
12
330
9
100
AcDbSymbolTableRecord
100
AcDbRegAppTableRecord
  2
ACAD
 70
     0
  0
ENDTAB
  0
TABLE
  2
DIMSTYLE
  5
A
330
0
100
AcDbSymbolTable
 70
     1
  0
DIMSTYLE
105
27
330
A
100
AcDbSymbolTableRecord
100
AcDbDimStyleTableRecord
  2
ISO-25
 70
     0
  3

  4

  5

  6

  7

 40
1.0
 41
2.5
 42
0.625
 43
3.75
 44
1.25
 45
0.0
 46
0.0
 47
0.0
 48
0.0
140
2.5
141
2.5
142
0.0
143
0.03937007874016
144
1.0
145
0.0
146
1.0
147
0.625
 71
     0
 72
     0
 73
     0
 74
     0
 75
     0
 76
     0
 77
     1
 78
     8
170
     0
171
     3
172
     1
173
     0
174
     0
175
     0
176
     0
177
     0
178
     0
270
     2
271
     2
272
     2
273
     2
274
     3
340
11
275
     0
280
     0
281
     0
282
     0
283
     0
284
     8
285
     0
286
     0
287
     3
288
     0
  0
ENDTAB
  0
TABLE
  2
BLOCK_RECORD
  5
1
330
0
100
AcDbSymbolTable
 70
     1
  0
BLOCK_RECORD
  5
1F
330
1
100
AcDbSymbolTableRecord
100
AcDbBlockTableRecord
  2
*MODEL_SPACE
  0
BLOCK_RECORD
  5
1B
330
1
100
AcDbSymbolTableRecord
100
AcDbBlockTableRecord
  2
*PAPER_SPACE
  0
ENDTAB
  0
ENDSEC
  0
SECTION
  2
BLOCKS
  0
BLOCK
  5
20
330
1F
100
AcDbEntity
  8
0
100
AcDbBlockBegin
  2
*MODEL_SPACE
 70
     0
 10
0.0
 20
0.0
 30
0.0
  3
*MODEL_SPACE
  1

  0
ENDBLK
  5
21
330
1F
100
AcDbEntity
  8
0
100
AcDbBlockEnd
  0
BLOCK
  5
1C
330
1B
100
AcDbEntity
 67
     1
  8
0
100
AcDbBlockBegin
  2
*PAPER_SPACE
  1

  0
ENDBLK
  5
1D
330
1B
100
AcDbEntity
 67
     1
  8
0
100
AcDbBlockEnd
  0
ENDSEC
  0
SECTION
  2
ENTITIES
  0
LINE
  5
100
100
AcDbEntity
  8
µCtrl
 62
7
100
AcDbLine
 10
20.633733
 20
15.121753
 30
0.0
 11
15.010024
 21
19.457905
 31
0.0
  0
LINE
  5
101
100
AcDbEntity
  8
µCtrl
 62
7
100
AcDbLine
 10
15.010024
 20
19.457905
 30
0.0
 11
9.383208
 21
15.120033
 31
0.0
  0
LINE
  5
102
100
AcDbEntity
  8
µCtrl
 62
7
100
AcDbLine
 10
9.383208
 20
15.120033
 30
0.0
 11
9.383051
 21
8.632589
 31
0.0
  0
LINE
  5
103
100
AcDbEntity
  8
µCtrl
 62
7
100
AcDbLine
 10
9.383051
 20
8.632589
 30
0.0
 11
20.633733
 21
8.632589
 31
0.0
  0
LINE
  5
104
100
AcDbEntity
  8
µCtrl
 62
7
100
AcDbLine
 10
20.633733
 20
8.632589
 30
0.0
 11
20.633733
 21
15.121753
 31
0.0
  0
LINE
  5
105
100
AcDbEntity
  8
µCtrl
 62
7
100
AcDbLine
 10
20.633733
 20
15.121753
 30
0.0
 11
20.633733
 21
15.121753
 31
0.0
  0
LINE
  5
106
100
AcDbEntity
  8
µCtrl
 62
7
100
AcDbLine
 10
14.977411
 20
21.830977
 30
0.0
 11
6.996995
 21
15.678470
 31
0.0
  0
LINE
  5
107
100
AcDbEntity
  8
µCtrl
 62
7
100
AcDbLine
 10
6.996995
 20
15.678470
 30
0.0
 11
7.837524
 21
14.852886
 31
0.0
  0
LINE
  5
108
100
AcDbEntity
  8
µCtrl
 62
7
100
AcDbLine
 10
7.837524
 20
14.852886
 30
0.0
 11
15.010036
 21
20.382716
 31
0.0
  0
LINE
  5
109
100
AcDbEntity
  8
µCtrl
 62
7
100
AcDbLine
 10
15.010036
 20
20.382716
 30
0.0
 11
21.157971
 21
15.654927
 31
0.0
  0
LINE
  5
10a
100
AcDbEntity
  8
µCtrl
 62
7
100
AcDbLine
 10
21.157971
 20
15.654927
 30
0.0
 11
21.996994
 21
16.480592
 31
0.0
  0
LINE
  5
10b
100
AcDbEntity
  8
µCtrl
 62
7
100
AcDbLine
 10
21.996994
 20
16.480592
 30
0.0
 11
15.040967
 21
21.830977
 31
0.0
  0
LINE
  5
10c
100
AcDbEntity
  8
µCtrl
 62
7
100
AcDbLine
 10
15.040967
 20
21.830977
 30
0.0
 11
15.010036
 21
21.799704
 31
0.0
  0
LINE
  5
10d
100
AcDbEntity
  8
µCtrl
 62
7
100
AcDbLine
 10
15.010036
 20
21.799704
 30
0.0
 11
14.977411
 21
21.830977
 31
0.0
  0
LINE
  5
10e
100
AcDbEntity
  8
µCtrl
 62
7
100
AcDbLine
 10
14.977411
 20
21.830977
 30
0.0
 11
14.977411
 21
21.830977
 31
0.0
  0
LINE
  5
10f
100
AcDbEntity
  8
µCtrl
 62
7
100
AcDbLine
 10
9.383202
 20
20.945379
 30
0.0
 11
11.406162
 21
20.945379
 31
0.0
  0
LINE
  5
110
100
AcDbEntity
  8
µCtrl
 62
7
100
AcDbLine
 10
11.406162
 20
20.945379
 30
0.0
 11
11.388689
 21
19.902085
 31
0.0
  0
LINE
  5
111
100
AcDbEntity
  8
µCtrl
 62
7
100
AcDbLine
 10
11.388689
 20
19.902085
 30
0.0
 11
9.383202
 21
18.324744
 31
0.0
  0
LINE
  5
112
100
AcDbEntity
  8
µCtrl
 62
7
100
AcDbLine
 10
9.383202
 20
18.324744
 30
0.0
 11
9.383202
 21
20.945379
 31
0.0
  0
LINE
  5
113
100
AcDbEntity
  8
µCtrl
 62
7
100
AcDbLine
 10
9.383202
 20
20.945379
 30
0.0
 11
9.383202
 21
20.945379
 31
0.0
  0
LINE
  5
114
100
AcDbEntity
  8
µCtrl
 62
7
100
AcDbLine
 10
16.437527
 20
9.061687
 30
0.0
 11
16.437527
 21
9.769088
 31
0.0
  0
LINE
  5
115
100
AcDbEntity
  8
µCtrl
 62
7
100
AcDbLine
 10
16.437527
 20
9.769088
 30
0.0
 11
16.412933
 21
9.769088
 31
0.0
  0
SPLINE
  5
116
100
AcDbEntity
  8
µCtrl
 62
7
100
AcDbSpline
 70
8
 71
3
 72
8
 73
4
 74
0
 40
0
 40
0
 40
0
 40
0
 40
1
 40
1
 40
1
 40
1
 10
16.412933
 20
9.769088
 30
0.0
 10
15.883814
 20
9.147312
 30
0.0
 10
15.366616
 20
8.975788
 30
0.0
 10
14.492678
 20
8.975788
 30
0.0
  0
SPLINE
  5
117
100
AcDbEntity
  8
µCtrl
 62
7
100
AcDbSpline
 70
8
 71
3
 72
8
 73
4
 74
0
 40
0
 40
0
 40
0
 40
0
 40
1
 40
1
 40
1
 40
1
 10
14.492678
 20
8.975788
 30
0.0
 10
14.295705
 20
8.975788
 30
0.0
 10
14.086624
 20
8.986658
 30
0.0
 10
13.901823
 20
9.040219
 30
0.0
  0
LINE
  5
118
100
AcDbEntity
  8
µCtrl
 62
7
100
AcDbLine
 10
13.901823
 20
9.040219
 30
0.0
 11
13.901823
 21
7.389488
 31
0.0
  0
LINE
  5
119
100
AcDbEntity
  8
µCtrl
 62
7
100
AcDbLine
 10
13.901823
 20
7.389488
 30
0.0
 11
12.338684
 21
7.218073
 31
0.0
  0
LINE
  5
11a
100
AcDbEntity
  8
µCtrl
 62
7
100
AcDbLine
 10
12.338684
 20
7.218073
 30
0.0
 11
12.338684
 21
14.591763
 31
0.0
  0
LINE
  5
11b
100
AcDbEntity
  8
µCtrl
 62
7
100
AcDbLine
 10
12.338684
 20
14.591763
 30
0.0
 11
13.901823
 21
14.763260
 31
0.0
  0
LINE
  5
11c
100
AcDbEntity
  8
µCtrl
 62
7
100
AcDbLine
 10
13.901823
 20
14.763260
 30
0.0
 11
13.901823
 21
11.215956
 31
0.0
  0
SPLINE
  5
11d
100
AcDbEntity
  8
µCtrl
 62
7
100
AcDbSpline
 70
8
 71
3
 72
8
 73
4
 74
0
 40
0
 40
0
 40
0
 40
0
 40
1
 40
1
 40
1
 40
1
 10
13.901823
 20
11.215956
 30
0.0
 10
13.901823
 20
10.637116
 30
0.0
 10
14.209563
 20
10.154745
 30
0.0
 10
14.911248
 20
10.154745
 30
0.0
  0
SPLINE
  5
11e
100
AcDbEntity
  8
µCtrl
 62
7
100
AcDbSpline
 70
8
 71
3
 72
8
 73
4
 74
0
 40
0
 40
0
 40
0
 40
0
 40
1
 40
1
 40
1
 40
1
 10
14.911248
 20
10.154745
 30
0.0
 10
15.895986
 20
10.154745
 30
0.0
 10
16.351447
 20
10.808613
 30
0.0
 10
16.351447
 20
11.494464
 30
0.0
  0
LINE
  5
11f
100
AcDbEntity
  8
µCtrl
 62
7
100
AcDbLine
 10
16.351447
 20
11.494464
 30
0.0
 11
16.351447
 21
14.591763
 31
0.0
  0
LINE
  5
120
100
AcDbEntity
  8
µCtrl
 62
7
100
AcDbLine
 10
16.351447
 20
14.591763
 30
0.0
 11
17.914900
 21
14.763260
 31
0.0
  0
LINE
  5
121
100
AcDbEntity
  8
µCtrl
 62
7
100
AcDbLine
 10
17.914900
 20
14.763260
 30
0.0
 11
17.914900
 21
9.147312
 31
0.0
  0
LINE
  5
122
100
AcDbEntity
  8
µCtrl
 62
7
100
AcDbLine
 10
17.914900
 20
9.147312
 30
0.0
 11
16.437527
 21
9.061687
 31
0.0
  0
LINE
  5
123
100
AcDbEntity
  8
µCtrl
 62
7
100
AcDbLine
 10
16.437527
 20
9.061687
 30
0.0
 11
16.437527
 21
9.061687
 31
0.0
  0
LINE
  5
124
100
AcDbEntity
  8
µCtrl
 62
7
100
AcDbLine
 10
14.293948
 20
15.150399
 30
0.0
 11
13.852791
 21
15.102001
 31
0.0
  0
LINE
  5
125
100
AcDbEntity
  8
µCtrl
 62
7
100
AcDbLine
 10
13.852791
 20
15.102001
 30
0.0
 11
12.289653
 21
14.930504
 31
0.0
  0
LINE
  5
126
100
AcDbEntity
  8
µCtrl
 62
7
100
AcDbLine
 10
12.289653
 20
14.930504
 30
0.0
 11
11.946558
 21
14.892867
 31
0.0
  0
LINE
  5
127
100
AcDbEntity
  8
µCtrl
 62
7
100
AcDbLine
 10
11.946558
 20
14.892867
 30
0.0
 11
11.946558
 21
14.591771
 31
0.0
  0
LINE
  5
128
100
AcDbEntity
  8
µCtrl
 62
7
100
AcDbLine
 10
11.946558
 20
14.591771
 30
0.0
 11
11.946558
 21
7.218081
 31
0.0
  0
LINE
  5
129
100
AcDbEntity
  8
µCtrl
 62
7
100
AcDbLine
 10
11.946558
 20
7.218081
 30
0.0
 11
11.946558
 21
6.830977
 31
0.0
  0
LINE
  5
12a
100
AcDbEntity
  8
µCtrl
 62
7
100
AcDbLine
 10
11.946558
 20
6.830977
 30
0.0
 11
12.387684
 21
6.879321
 31
0.0
  0
LINE
  5
12b
100
AcDbEntity
  8
µCtrl
 62
7
100
AcDbLine
 10
12.387684
 20
6.879321
 30
0.0
 11
13.950823
 21
7.050763
 31
0.0
  0
LINE
  5
12c
100
AcDbEntity
  8
µCtrl
 62
7
100
AcDbLine
 10
13.950823
 20
7.050763
 30
0.0
 11
14.293948
 21
7.088400
 31
0.0
  0
LINE
  5
12d
100
AcDbEntity
  8
µCtrl
 62
7
100
AcDbLine
 10
14.293948
 20
7.088400
 30
0.0
 11
14.293948
 21
7.389496
 31
0.0
  0
LINE
  5
12e
100
AcDbEntity
  8
µCtrl
 62
7
100
AcDbLine
 10
14.293948
 20
7.389496
 30
0.0
 11
14.293948
 21
8.638511
 31
0.0
  0
SPLINE
  5
12f
100
AcDbEntity
  8
µCtrl
 62
7
100
AcDbSpline
 70
8
 71
3
 72
8
 73
4
 74
0
 40
0
 40
0
 40
0
 40
0
 40
1
 40
1
 40
1
 40
1
 10
14.293948
 20
8.638511
 30
0.0
 10
14.364531
 20
8.635233
 30
0.0
 10
14.431475
 20
8.634386
 30
0.0
 10
14.492678
 20
8.634386
 30
0.0
  0
SPLINE
  5
130
100
AcDbEntity
  8
µCtrl
 62
7
100
AcDbSpline
 70
8
 71
3
 72
8
 73
4
 74
0
 40
0
 40
0
 40
0
 40
0
 40
1
 40
1
 40
1
 40
1
 10
14.492678
 20
8.634386
 30
0.0
 10
15.083219
 20
8.634386
 30
0.0
 10
15.583132
 20
8.702859
 30
0.0
 10
16.045401
 20
8.975113
 30
0.0
  0
LINE
  5
131
100
AcDbEntity
  8
µCtrl
 62
7
100
AcDbLine
 10
16.045401
 20
8.975113
 30
0.0
 11
16.045401
 21
8.696796
 31
0.0
  0
LINE
  5
132
100
AcDbEntity
  8
µCtrl
 62
7
100
AcDbLine
 10
16.045401
 20
8.696796
 30
0.0
 11
16.463564
 21
8.721022
 31
0.0
  0
LINE
  5
133
100
AcDbEntity
  8
µCtrl
 62
7
100
AcDbLine
 10
16.463564
 20
8.721022
 30
0.0
 11
17.940937
 21
8.806648
 31
0.0
  0
LINE
  5
134
100
AcDbEntity
  8
µCtrl
 62
7
100
AcDbLine
 10
17.940937
 20
8.806648
 30
0.0
 11
18.307025
 21
8.827870
 31
0.0
  0
LINE
  5
135
100
AcDbEntity
  8
µCtrl
 62
7
100
AcDbLine
 10
18.307025
 20
8.827870
 30
0.0
 11
18.307025
 21
9.147293
 31
0.0
  0
LINE
  5
136
100
AcDbEntity
  8
µCtrl
 62
7
100
AcDbLine
 10
18.307025
 20
9.147293
 30
0.0
 11
18.307025
 21
14.763268
 31
0.0
  0
LINE
  5
137
100
AcDbEntity
  8
µCtrl
 62
7
100
AcDbLine
 10
18.307025
 20
14.763268
 30
0.0
 11
18.307025
 21
15.150399
 31
0.0
  0
LINE
  5
138
100
AcDbEntity
  8
µCtrl
 62
7
100
AcDbLine
 10
18.307025
 20
15.150399
 30
0.0
 11
17.865868
 21
15.102001
 31
0.0
  0
LINE
  5
139
100
AcDbEntity
  8
µCtrl
 62
7
100
AcDbLine
 10
17.865868
 20
15.102001
 30
0.0
 11
16.302447
 21
14.930504
 31
0.0
  0
LINE
  5
13a
100
AcDbEntity
  8
µCtrl
 62
7
100
AcDbLine
 10
16.302447
 20
14.930504
 30
0.0
 11
15.959322
 21
14.892867
 31
0.0
  0
LINE
  5
13b
100
AcDbEntity
  8
µCtrl
 62
7
100
AcDbLine
 10
15.959322
 20
14.892867
 30
0.0
 11
15.959322
 21
14.591771
 31
0.0
  0
LINE
  5
13c
100
AcDbEntity
  8
µCtrl
 62
7
100
AcDbLine
 10
15.959322
 20
14.591771
 30
0.0
 11
15.959322
 21
11.494473
 31
0.0
  0
SPLINE
  5
13d
100
AcDbEntity
  8
µCtrl
 62
7
100
AcDbSpline
 70
8
 71
3
 72
8
 73
4
 74
0
 40
0
 40
0
 40
0
 40
0
 40
1
 40
1
 40
1
 40
1
 10
15.959322
 20
11.494473
 30
0.0
 10
15.959322
 20
11.011856
 30
0.0
 10
15.684018
 20
10.496135
 30
0.0
 10
14.911248
 20
10.496135
 30
0.0
  0
SPLINE
  5
13e
100
AcDbEntity
  8
µCtrl
 62
7
100
AcDbSpline
 70
8
 71
3
 72
8
 73
4
 74
0
 40
0
 40
0
 40
0
 40
0
 40
1
 40
1
 40
1
 40
1
 10
14.911248
 20
10.496135
 30
0.0
 10
14.704425
 20
10.496135
 30
0.0
 10
14.560468
 20
10.551990
 30
0.0
 10
14.458170
 20
10.671893
 30
0.0
  0
SPLINE
  5
13f
100
AcDbEntity
  8
µCtrl
 62
7
100
AcDbSpline
 70
8
 71
3
 72
8
 73
4
 74
0
 40
0
 40
0
 40
0
 40
0
 40
1
 40
1
 40
1
 40
1
 10
14.458170
 20
10.671893
 30
0.0
 10
14.352265
 20
10.795975
 30
0.0
 10
14.293948
 20
10.989213
 30
0.0
 10
14.293948
 20
11.215964
 30
0.0
  0
LINE
  5
140
100
AcDbEntity
  8
µCtrl
 62
7
100
AcDbLine
 10
14.293948
 20
11.215964
 30
0.0
 11
14.293948
 21
14.763268
 31
0.0
  0
LINE
  5
141
100
AcDbEntity
  8
µCtrl
 62
7
100
AcDbLine
 10
14.293948
 20
14.763268
 30
0.0
 11
14.293948
 21
15.150399
 31
0.0
  0
LINE
  5
142
100
AcDbEntity
  8
µCtrl
 62
7
100
AcDbLine
 10
14.293948
 20
15.150399
 30
0.0
 11
14.293948
 21
15.150399
 31
0.0
  0
LINE
  5
143
100
AcDbEntity
  8
µCtrl
 62
7
100
AcDbLine
 10
17.914900
 20
14.763268
 30
0.0
 11
17.914900
 21
9.147293
 31
0.0
  0
LINE
  5
144
100
AcDbEntity
  8
µCtrl
 62
7
100
AcDbLine
 10
17.914900
 20
9.147293
 30
0.0
 11
16.437527
 21
9.061695
 31
0.0
  0
LINE
  5
145
100
AcDbEntity
  8
µCtrl
 62
7
100
AcDbLine
 10
16.437527
 20
9.061695
 30
0.0
 11
16.437527
 21
9.769096
 31
0.0
  0
LINE
  5
146
100
AcDbEntity
  8
µCtrl
 62
7
100
AcDbLine
 10
16.437527
 20
9.769096
 30
0.0
 11
16.412933
 21
9.769096
 31
0.0
  0
SPLINE
  5
147
100
AcDbEntity
  8
µCtrl
 62
7
100
AcDbSpline
 70
8
 71
3
 72
8
 73
4
 74
0
 40
0
 40
0
 40
0
 40
0
 40
1
 40
1
 40
1
 40
1
 10
16.412933
 20
9.769096
 30
0.0
 10
15.883814
 20
9.147293
 30
0.0
 10
15.366616
 20
8.975796
 30
0.0
 10
14.492678
 20
8.975796
 30
0.0
  0
SPLINE
  5
148
100
AcDbEntity
  8
µCtrl
 62
7
100
AcDbSpline
 70
8
 71
3
 72
8
 73
4
 74
0
 40
0
 40
0
 40
0
 40
0
 40
1
 40
1
 40
1
 40
1
 10
14.492678
 20
8.975796
 30
0.0
 10
14.295705
 20
8.975796
 30
0.0
 10
14.086624
 20
8.986667
 30
0.0
 10
13.901823
 20
9.040227
 30
0.0
  0
LINE
  5
149
100
AcDbEntity
  8
µCtrl
 62
7
100
AcDbLine
 10
13.901823
 20
9.040227
 30
0.0
 11
13.901823
 21
7.389496
 31
0.0
  0
LINE
  5
14a
100
AcDbEntity
  8
µCtrl
 62
7
100
AcDbLine
 10
13.901823
 20
7.389496
 30
0.0
 11
12.338684
 21
7.218081
 31
0.0
  0
LINE
  5
14b
100
AcDbEntity
  8
µCtrl
 62
7
100
AcDbLine
 10
12.338684
 20
7.218081
 30
0.0
 11
12.338684
 21
14.591771
 31
0.0
  0
LINE
  5
14c
100
AcDbEntity
  8
µCtrl
 62
7
100
AcDbLine
 10
12.338684
 20
14.591771
 30
0.0
 11
13.901823
 21
14.763268
 31
0.0
  0
LINE
  5
14d
100
AcDbEntity
  8
µCtrl
 62
7
100
AcDbLine
 10
13.901823
 20
14.763268
 30
0.0
 11
13.901823
 21
11.215964
 31
0.0
  0
SPLINE
  5
14e
100
AcDbEntity
  8
µCtrl
 62
7
100
AcDbSpline
 70
8
 71
3
 72
8
 73
4
 74
0
 40
0
 40
0
 40
0
 40
0
 40
1
 40
1
 40
1
 40
1
 10
13.901823
 20
11.215964
 30
0.0
 10
13.901823
 20
10.637097
 30
0.0
 10
14.209563
 20
10.154726
 30
0.0
 10
14.911248
 20
10.154726
 30
0.0
  0
SPLINE
  5
14f
100
AcDbEntity
  8
µCtrl
 62
7
100
AcDbSpline
 70
8
 71
3
 72
8
 73
4
 74
0
 40
0
 40
0
 40
0
 40
0
 40
1
 40
1
 40
1
 40
1
 10
14.911248
 20
10.154726
 30
0.0
 10
15.895986
 20
10.154726
 30
0.0
 10
16.351447
 20
10.808621
 30
0.0
 10
16.351447
 20
11.494473
 30
0.0
  0
LINE
  5
150
100
AcDbEntity
  8
µCtrl
 62
7
100
AcDbLine
 10
16.351447
 20
11.494473
 30
0.0
 11
16.351447
 21
14.591771
 31
0.0
  0
LINE
  5
151
100
AcDbEntity
  8
µCtrl
 62
7
100
AcDbLine
 10
16.351447
 20
14.591771
 30
0.0
 11
17.914900
 21
14.763268
 31
0.0
  0
ENDSEC
  0
SECTION
  2
OBJECTS
  0
DICTIONARY
  5
C
330
0
100
AcDbDictionary
  3
ACAD_GROUP
350
D
  3
ACAD_MLINESTYLE
350
17
  0
DICTIONARY
  5
D
330
C
100
AcDbDictionary
  0
DICTIONARY
  5
1A
330
C
100
AcDbDictionary
  0
DICTIONARY
  5
17
330
C
100
AcDbDictionary
  3
STANDARD
350
18
  0
DICTIONARY
  5
19
330
C
100
AcDbDictionary
  0
ENDSEC
  0
EOF
