  0
SECTION
  2
HEADER
  9
$ACADVER
  1
AC1014
  9
$HANDSEED
  5
FFFF
  9
$MEASUREMENT
 70
     1
  0
ENDSEC
  0
SECTION
  2
TABLES
  0
TABLE
  2
VPORT
  5
8
330
0
100
AcDbSymbolTable
 70
     4
  0
VPORT
  5
2E
330
8
100
AcDbSymbolTableRecord
100
AcDbViewportTableRecord
  2
*ACTIVE
 70
     0
 10
0.0
 20
0.0
 11
1.0
 21
1.0
 12
210.0
 22
148.5
 13
0.0
 23
0.0
 14
10.0
 24
10.0
 15
10.0
 25
10.0
 16
0.0
 26
0.0
 36
1.0
 17
0.0
 27
0.0
 37
0.0
 40
341.0
 41
1.24
 42
50.0
 43
0.0
 44
0.0
 50
0.0
 51
0.0
 71
     0
 72
   100
 73
     1
 74
     3
 75
     0
 76
     0
 77
     0
 78
     0
  0
ENDTAB
  0
TABLE
  2
LTYPE
  5
5
330
0
100
AcDbSymbolTable
 70
     1
  0
LTYPE
  5
14
330
5
100
AcDbSymbolTableRecord
100
AcDbLinetypeTableRecord
  2
BYBLOCK
 70
     0
  3

 72
    65
 73
     0
 40
0.0
  0
LTYPE
  5
15
330
5
100
AcDbSymbolTableRecord
100
AcDbLinetypeTableRecord
  2
BYLAYER
 70
     0
  3

 72
    65
 73
     0
 40
0.0
  0
LTYPE
  5
16
330
5
100
AcDbSymbolTableRecord
100
AcDbLinetypeTableRecord
  2
CONTINUOUS
 70
     0
  3
Solid line
 72
    65
 73
     0
 40
0.0
  0
ENDTAB
  0
TABLE
  2
LAYER
  5
2
100
AcDbSymbolTable
 70
3
  0
LAYER
  5
50
100
AcDbSymbolTableRecord
100
AcDbLayerTableRecord
  2
0
 70
0
  6
CONTINUOUS
  0
LAYER
  5
51
100
AcDbSymbolTableRecord
100
AcDbLayerTableRecord
  2
µCtrl
 70
0
  6
CONTINUOUS
  0
LAYER
  5
52
100
AcDbSymbolTableRecord
100
AcDbLayerTableRecord
  2
Calque
 70
0
  6
CONTINUOUS
  0
ENDTAB
  0
TABLE
  2
STYLE
  5
3
330
0
100
AcDbSymbolTable
 70
     1
  0
STYLE
  5
11
330
3
100
AcDbSymbolTableRecord
100
AcDbTextStyleTableRecord
  2
STANDARD
 70
     0
 40
0.0
 41
1.0
 50
0.0
 71
     0
 42
2.5
  3
txt
  4

  0
ENDTAB
  0
TABLE
  2
VIEW
  5
6
330
0
100
AcDbSymbolTable
 70
     0
  0
ENDTAB
  0
TABLE
  2
UCS
  5
7
330
0
100
AcDbSymbolTable
 70
     0
  0
ENDTAB
  0
TABLE
  2
APPID
  5
9
330
0
100
AcDbSymbolTable
 70
     2
  0
APPID
  5
12
330
9
100
AcDbSymbolTableRecord
100
AcDbRegAppTableRecord
  2
ACAD
 70
     0
  0
ENDTAB
  0
TABLE
  2
DIMSTYLE
  5
A
330
0
100
AcDbSymbolTable
 70
     1
  0
DIMSTYLE
105
27
330
A
100
AcDbSymbolTableRecord
100
AcDbDimStyleTableRecord
  2
ISO-25
 70
     0
  3

  4

  5

  6

  7

 40
1.0
 41
2.5
 42
0.625
 43
3.75
 44
1.25
 45
0.0
 46
0.0
 47
0.0
 48
0.0
140
2.5
141
2.5
142
0.0
143
0.03937007874016
144
1.0
145
0.0
146
1.0
147
0.625
 71
     0
 72
     0
 73
     0
 74
     0
 75
     0
 76
     0
 77
     1
 78
     8
170
     0
171
     3
172
     1
173
     0
174
     0
175
     0
176
     0
177
     0
178
     0
270
     2
271
     2
272
     2
273
     2
274
     3
340
11
275
     0
280
     0
281
     0
282
     0
283
     0
284
     8
285
     0
286
     0
287
     3
288
     0
  0
ENDTAB
  0
TABLE
  2
BLOCK_RECORD
  5
1
330
0
100
AcDbSymbolTable
 70
     1
  0
BLOCK_RECORD
  5
1F
330
1
100
AcDbSymbolTableRecord
100
AcDbBlockTableRecord
  2
*MODEL_SPACE
  0
BLOCK_RECORD
  5
1B
330
1
100
AcDbSymbolTableRecord
100
AcDbBlockTableRecord
  2
*PAPER_SPACE
  0
ENDTAB
  0
ENDSEC
  0
SECTION
  2
BLOCKS
  0
BLOCK
  5
20
330
1F
100
AcDbEntity
  8
0
100
AcDbBlockBegin
  2
*MODEL_SPACE
 70
     0
 10
0.0
 20
0.0
 30
0.0
  3
*MODEL_SPACE
  1

  0
ENDBLK
  5
21
330
1F
100
AcDbEntity
  8
0
100
AcDbBlockEnd
  0
BLOCK
  5
1C
330
1B
100
AcDbEntity
 67
     1
  8
0
100
AcDbBlockBegin
  2
*PAPER_SPACE
  1

  0
ENDBLK
  5
1D
330
1B
100
AcDbEntity
 67
     1
  8
0
100
AcDbBlockEnd
  0
ENDSEC
  0
SECTION
  2
ENTITIES
  0
LWPOLYLINE
  5
100
100
AcDbEntity
  8
µCtrl
 62
7
100
AcDbPolyline
 90
7
 70
0
 10
52.452792
 20
34.466898
 30
0.0
 10
33.707092
 20
48.920737
 30
0.0
 10
14.951040
 20
34.461163
 30
0.0
 10
14.950517
 20
12.836350
 30
0.0
 10
52.452792
 20
12.836350
 30
0.0
 10
52.452792
 20
34.466898
 30
0.0
 10
52.452792
 20
34.466898
 30
0.0
  0
SPLINE
  5
101
100
AcDbEntity
  8
µCtrl
 62
7
100
AcDbSpline
 70
0
 71
3
 72
10
 73
6
 74
4
 40
0.000000
 40
0.000000
 40
0.000000
 40
0.000000
 40
9.795376
 40
19.590753
 40
29.386129
 40
29.386129
 40
29.386129
 40
29.386129
 10
56.996995
 20
38.996360
 30
0.0
 10
54.408905
 20
40.987046
 30
0.0
 10
49.232724
 20
44.968420
 30
0.0
 10
41.468460
 20
50.940487
 30
0.0
 10
36.292278
 20
54.921859
 30
0.0
 10
33.704187
 20
56.912545
 30
0.0
 11
56.996995
 21
38.996360
 31
0.0
 11
49.232725
 21
44.968421
 31
0.0
 11
41.468458
 21
50.940486
 31
0.0
 11
33.704187
 21
56.912545
 31
0.0
  0
LWPOLYLINE
  5
102
100
AcDbEntity
  8
µCtrl
 62
7
100
AcDbPolyline
 90
5
 70
0
 10
6.996994
 20
36.322619
 30
0.0
 10
9.798758
 20
33.570674
 30
0.0
 10
33.707133
 20
52.003440
 30
0.0
 10
54.200250
 20
36.244141
 30
0.0
 10
56.996995
 20
38.996360
 30
0.0
  0
LWPOLYLINE
  5
103
100
AcDbEntity
  8
µCtrl
 62
7
100
AcDbPolyline
 90
2
 70
0
 10
6.996994
 20
36.322619
 30
0.0
 10
6.996994
 20
36.322619
 30
0.0
  0
LWPOLYLINE
  5
104
100
AcDbEntity
  8
µCtrl
 62
7
100
AcDbPolyline
 90
6
 70
0
 10
14.951019
 20
53.878984
 30
0.0
 10
21.694221
 20
53.878984
 30
0.0
 10
21.635978
 20
50.401338
 30
0.0
 10
14.951019
 20
45.143534
 30
0.0
 10
14.951019
 20
53.878984
 30
0.0
 10
14.951019
 20
53.878984
 30
0.0
  0
SPLINE
  5
105
100
AcDbEntity
  8
µCtrl
 62
7
100
AcDbSpline
 70
0
 71
3
 72
10
 73
6
 74
4
 40
0.000000
 40
0.000000
 40
0.000000
 40
0.000000
 40
11.240893
 40
22.481787
 40
33.722680
 40
33.722680
 40
33.722680
 40
33.722680
 10
33.704187
 20
56.912545
 30
0.0
 10
30.736721
 20
54.624775
 30
0.0
 10
24.801789
 20
50.049237
 30
0.0
 10
15.899391
 20
43.185928
 30
0.0
 10
9.964460
 20
38.610389
 30
0.0
 10
6.996994
 20
36.322619
 30
0.0
 11
33.704187
 21
56.912545
 31
0.0
 11
24.801789
 21
50.049237
 31
0.0
 11
15.899391
 21
43.185928
 31
0.0
 11
6.996994
 21
36.322619
 31
0.0
  0
LWPOLYLINE
  5
106
100
AcDbEntity
  8
µCtrl
 62
7
100
AcDbPolyline
 90
3
 70
0
 10
38.465438
 20
14.266676
 30
0.0
 10
38.465438
 20
16.624680
 30
0.0
 10
38.383457
 20
16.624680
 30
0.0
  0
SPLINE
  5
107
100
AcDbEntity
  8
µCtrl
 62
7
100
AcDbSpline
 70
0
 71
3
 72
13
 73
9
 74
7
 40
0.000000
 40
0.000000
 40
0.000000
 40
0.000000
 40
2.409802
 40
4.608104
 40
7.180227
 40
7.845956
 40
8.514492
 40
9.167103
 40
9.167103
 40
9.167103
 40
9.167103
 10
38.383457
 20
16.624680
 30
0.0
 10
37.822155
 20
16.036590
 30
0.0
 10
36.748813
 20
14.912026
 30
0.0
 10
34.437711
 20
14.057436
 30
0.0
 10
32.617337
 20
13.965360
 30
0.0
 10
31.316210
 20
13.989579
 30
0.0
 10
30.653977
 20
14.042522
 30
0.0
 10
30.224996
 20
14.144662
 30
0.0
 10
30.013090
 20
14.195116
 30
0.0
 11
38.383457
 21
16.624680
 31
0.0
 11
36.587460
 21
15.017963
 31
0.0
 11
34.544870
 21
14.205340
 31
0.0
 11
31.982607
 21
13.980346
 31
0.0
 11
31.317070
 21
13.996353
 31
0.0
 11
30.651579
 21
14.060086
 31
0.0
 11
30.013090
 21
14.195116
 31
0.0
  0
LWPOLYLINE
  5
108
100
AcDbEntity
  8
µCtrl
 62
7
100
AcDbPolyline
 90
6
 70
0
 10
30.013090
 20
14.195116
 30
0.0
 10
30.013090
 20
8.692681
 30
0.0
 10
24.802628
 20
8.121297
 30
0.0
 10
24.802628
 20
32.700261
 30
0.0
 10
30.013090
 20
33.271918
 30
0.0
 10
30.013090
 20
21.447573
 30
0.0
  0
LWPOLYLINE
  5
109
100
AcDbEntity
  8
µCtrl
 62
7
100
AcDbPolyline
 90
6
 70
0
 10
38.178506
 20
22.375935
 30
0.0
 10
38.178506
 20
32.700261
 30
0.0
 10
43.390014
 20
33.271918
 30
0.0
 10
43.390014
 20
14.552094
 30
0.0
 10
38.465438
 20
14.266676
 30
0.0
 10
38.465438
 20
14.266676
 30
0.0
  0
SPLINE
  5
10a
100
AcDbEntity
  8
µCtrl
 62
7
100
AcDbSpline
 70
0
 71
3
 72
13
 73
9
 74
7
 40
0.000000
 40
0.000000
 40
0.000000
 40
0.000000
 40
1.809322
 40
3.493001
 40
5.466256
 40
8.246725
 40
10.526922
 40
12.760994
 40
12.760994
 40
12.760994
 40
12.760994
 10
30.013090
 20
21.447573
 30
0.0
 10
30.066848
 20
20.836287
 30
0.0
 10
30.170632
 20
19.656165
 30
0.0
 10
31.448815
 20
18.154773
 30
0.0
 10
33.658814
 20
17.750375
 30
0.0
 10
36.040536
 20
18.245548
 30
0.0
 10
37.896489
 20
20.092192
 30
0.0
 10
38.085143
 20
21.619890
 30
0.0
 10
38.178506
 20
22.375935
 30
0.0
 11
30.013090
 21
21.447573
 31
0.0
 11
30.365666
 21
19.672936
 31
0.0
 11
31.465965
 21
18.398528
 31
0.0
 11
33.377842
 21
17.910202
 31
0.0
 11
36.081329
 21
18.559946
 31
0.0
 11
37.663325
 21
20.202076
 31
0.0
 11
38.178506
 21
22.375935
 31
0.0
  0
LWPOLYLINE
  5
10b
100
AcDbEntity
  8
µCtrl
 62
7
100
AcDbPolyline
 90
12
 70
0
 10
31.320176
 20
34.562384
 30
0.0
 10
29.849652
 20
34.401056
 30
0.0
 10
24.639190
 20
33.829399
 30
0.0
 10
23.495542
 20
33.703943
 30
0.0
 10
23.495542
 20
32.700289
 30
0.0
 10
23.495542
 20
8.121325
 30
0.0
 10
23.495542
 20
6.830977
 30
0.0
 10
24.965962
 20
6.992123
 30
0.0
 10
30.176423
 20
7.563597
 30
0.0
 10
31.320176
 20
7.689054
 30
0.0
 10
31.320176
 20
8.692708
 30
0.0
 10
31.320176
 20
12.856088
 30
0.0
  0
SPLINE
  5
10c
100
AcDbEntity
  8
µCtrl
 62
7
100
AcDbSpline
 70
0
 71
3
 72
13
 73
9
 74
7
 40
0.000000
 40
0.000000
 40
0.000000
 40
0.000000
 40
0.231126
 40
0.452495
 40
0.662627
 40
2.539237
 40
4.285850
 40
6.021558
 40
6.021558
 40
6.021558
 40
6.021558
 10
31.320176
 20
12.856088
 30
0.0
 10
31.397157
 20
12.852979
 30
0.0
 10
31.547871
 20
12.846892
 30
0.0
 10
31.768727
 20
12.843073
 30
0.0
 10
32.538129
 20
12.839305
 30
0.0
 10
33.814655
 20
12.890203
 30
0.0
 10
35.593561
 20
13.199528
 30
0.0
 10
36.637845
 20
13.719117
 30
0.0
 10
37.158352
 20
13.978098
 30
0.0
 11
31.320176
 21
12.856088
 31
0.0
 11
31.551148
 21
12.847668
 31
0.0
 11
31.772478
 21
12.843477
 31
0.0
 11
31.982607
 21
12.842341
 31
0.0
 11
33.856921
 21
12.935127
 31
0.0
 11
35.569087
 21
13.280303
 31
0.0
 11
37.158352
 21
13.978098
 31
0.0
  0
LWPOLYLINE
  5
10d
100
AcDbEntity
  8
µCtrl
 62
7
100
AcDbPolyline
 90
13
 70
0
 10
37.158352
 20
13.978098
 30
0.0
 10
37.158352
 20
13.050373
 30
0.0
 10
38.552228
 20
13.131128
 30
0.0
 10
43.476804
 20
13.416547
 30
0.0
 10
44.697099
 20
13.487287
 30
0.0
 10
44.697099
 20
14.552031
 30
0.0
 10
44.697099
 20
33.271945
 30
0.0
 10
44.697099
 20
34.562384
 30
0.0
 10
43.226576
 20
34.401056
 30
0.0
 10
38.015173
 20
33.829399
 30
0.0
 10
36.871421
 20
33.703943
 30
0.0
 10
36.871421
 20
32.700289
 30
0.0
 10
36.871421
 20
22.375962
 30
0.0
  0
LWPOLYLINE
  5
10e
100
AcDbEntity
  8
µCtrl
 62
7
100
AcDbPolyline
 90
4
 70
0
 10
31.320176
 20
21.447600
 30
0.0
 10
31.320176
 20
33.271945
 30
0.0
 10
31.320176
 20
34.562384
 30
0.0
 10
31.320176
 20
34.562384
 30
0.0
  0
SPLINE
  5
10f
100
AcDbEntity
  8
µCtrl
 62
7
100
AcDbSpline
 70
0
 71
3
 72
16
 73
12
 74
10
 40
0.000000
 40
0.000000
 40
0.000000
 40
0.000000
 40
1.612574
 40
3.280158
 40
5.392076
 40
6.017442
 40
6.551799
 40
7.062296
 40
7.632851
 40
8.273503
 40
8.990517
 40
8.990517
 40
8.990517
 40
8.990517
 10
36.871421
 20
22.375962
 30
0.0
 10
36.814766
 20
21.831131
 30
0.0
 10
36.699522
 20
20.722884
 30
0.0
 10
35.399005
 20
19.287039
 30
0.0
 10
33.871152
 20
19.000582
 30
0.0
 10
32.781159
 20
19.077478
 30
0.0
 10
32.248610
 20
19.273377
 30
0.0
 10
31.830953
 20
19.630321
 30
0.0
 10
31.536528
 20
20.132026
 30
0.0
 10
31.352071
 20
20.754729
 30
0.0
 10
31.331199
 20
21.208142
 30
0.0
 10
31.320176
 20
21.447600
 30
0.0
 11
36.871421
 21
22.375962
 31
0.0
 11
36.538100
 21
20.798213
 31
0.0
 11
35.428429
 21
19.553438
 31
0.0
 11
33.377842
 21
19.048171
 31
0.0
 11
32.755665
 21
19.111244
 31
0.0
 11
32.257482
 21
19.304507
 31
0.0
 11
31.867583
 21
19.634031
 31
0.0
 11
31.568766
 21
20.120077
 31
0.0
 11
31.383648
 21
20.733401
 31
0.0
 11
31.320176
 21
21.447600
 31
0.0
  0
LWPOLYLINE
  5
110
100
AcDbEntity
  8
µCtrl
 62
7
100
AcDbPolyline
 90
5
 70
0
 10
43.390014
 20
33.271945
 30
0.0
 10
43.390014
 20
14.552031
 30
0.0
 10
38.465438
 20
14.266703
 30
0.0
 10
38.465438
 20
16.624707
 30
0.0
 10
38.383457
 20
16.624707
 30
0.0
  0
SPLINE
  5
111
100
AcDbEntity
  8
µCtrl
 62
7
100
AcDbSpline
 70
0
 71
3
 72
13
 73
9
 74
7
 40
0.000000
 40
0.000000
 40
0.000000
 40
0.000000
 40
2.409829
 40
4.608123
 40
7.180244
 40
7.845974
 40
8.514509
 40
9.167120
 40
9.167120
 40
9.167120
 40
9.167120
 10
38.383457
 20
16.624707
 30
0.0
 10
37.822158
 20
16.036600
 30
0.0
 10
36.748830
 20
14.912009
 30
0.0
 10
34.437706
 20
14.057445
 30
0.0
 10
32.617337
 20
13.965389
 30
0.0
 10
31.316210
 20
13.989606
 30
0.0
 10
30.653977
 20
14.042550
 30
0.0
 10
30.224996
 20
14.144689
 30
0.0
 10
30.013090
 20
14.195143
 30
0.0
 11
38.383457
 21
16.624707
 31
0.0
 11
36.587460
 21
15.017950
 31
0.0
 11
34.544870
 21
14.205347
 31
0.0
 11
31.982607
 21
13.980374
 31
0.0
 11
31.317070
 21
13.996380
 31
0.0
 11
30.651579
 21
14.060114
 31
0.0
 11
30.013090
 21
14.195143
 31
0.0
  0
LWPOLYLINE
  5
112
100
AcDbEntity
  8
µCtrl
 62
7
100
AcDbPolyline
 90
6
 70
0
 10
30.013090
 20
14.195143
 30
0.0
 10
30.013090
 20
8.692708
 30
0.0
 10
24.802628
 20
8.121325
 30
0.0
 10
24.802628
 20
32.700289
 30
0.0
 10
30.013090
 20
33.271945
 30
0.0
 10
30.013090
 20
21.447600
 30
0.0
  0
SPLINE
  5
113
100
AcDbEntity
  8
µCtrl
 62
7
100
AcDbSpline
 70
0
 71
3
 72
13
 73
9
 74
7
 40
0.000000
 40
0.000000
 40
0.000000
 40
0.000000
 40
1.809385
 40
3.493081
 40
5.466337
 40
8.246812
 40
10.527041
 40
12.761135
 40
12.761135
 40
12.761135
 40
12.761135
 10
30.013090
 20
21.447600
 30
0.0
 10
30.066846
 20
20.836293
 30
0.0
 10
30.170623
 20
19.656144
 30
0.0
 10
31.448805
 20
18.154712
 30
0.0
 10
33.658817
 20
17.750307
 30
0.0
 10
36.040551
 20
18.245508
 30
0.0
 10
37.896485
 20
20.092197
 30
0.0
 10
38.085142
 20
21.619911
 30
0.0
 10
38.178506
 20
22.375962
 30
0.0
 11
30.013090
 21
21.447600
 31
0.0
 11
30.365666
 21
19.672899
 31
0.0
 11
31.465965
 21
18.398467
 31
0.0
 11
33.377842
 21
17.910138
 31
0.0
 11
36.081329
 21
18.559906
 31
0.0
 11
37.663325
 21
20.202080
 31
0.0
 11
38.178506
 21
22.375962
 31
0.0
  0
LWPOLYLINE
  5
114
100
AcDbEntity
  8
µCtrl
 62
7
100
AcDbPolyline
 90
3
 70
0
 10
38.178506
 20
22.375962
 30
0.0
 10
38.178506
 20
32.700289
 30
0.0
 10
43.390014
 20
33.271945
 30
0.0
  0
ENDSEC
  0
SECTION
  2
OBJECTS
  0
DICTIONARY
  5
C
330
0
100
AcDbDictionary
  3
ACAD_GROUP
350
D
  3
ACAD_MLINESTYLE
350
17
  0
DICTIONARY
  5
D
330
C
100
AcDbDictionary
  0
DICTIONARY
  5
1A
330
C
100
AcDbDictionary
  0
DICTIONARY
  5
17
330
C
100
AcDbDictionary
  3
STANDARD
350
18
  0
DICTIONARY
  5
19
330
C
100
AcDbDictionary
  0
ENDSEC
  0
EOF
