<?xml version="1.0" encoding="UTF-8" standalone="no"?>
<!-- Created with Inkscape (http://www.inkscape.org/) -->

<svg
   xmlns:dc="http://purl.org/dc/elements/1.1/"
   xmlns:cc="http://creativecommons.org/ns#"
   xmlns:rdf="http://www.w3.org/1999/02/22-rdf-syntax-ns#"
   xmlns:svg="http://www.w3.org/2000/svg"
   xmlns="http://www.w3.org/2000/svg"
   xmlns:sodipodi="http://sodipodi.sourceforge.net/DTD/sodipodi-0.dtd"
   xmlns:inkscape="http://www.inkscape.org/namespaces/inkscape"
   id="svg2"
   version="1.1"
   inkscape:version="0.48.4 r9939"
   width="1287.5"
   height="734.805"
   xml:space="preserve"
   sodipodi:docname="µCtrl.ai"><metadata
     id="metadata8"><rdf:RDF><cc:Work
         rdf:about=""><dc:format>image/svg+xml</dc:format><dc:type
           rdf:resource="http://purl.org/dc/dcmitype/StillImage" /><dc:title></dc:title></cc:Work></rdf:RDF></metadata><defs
     id="defs6"><clipPath
       clipPathUnits="userSpaceOnUse"
       id="clipPath32"><path
         d="M 0,587.844 1030,587.844 1030,0 0,0 0,587.844 z"
         id="path34" /></clipPath></defs><sodipodi:namedview
     pagecolor="#ffffff"
     bordercolor="#666666"
     borderopacity="1"
     objecttolerance="10"
     gridtolerance="10"
     guidetolerance="10"
     inkscape:pageopacity="0"
     inkscape:pageshadow="2"
     inkscape:window-width="1855"
     inkscape:window-height="1056"
     id="namedview4"
     showgrid="false"
     inkscape:zoom="1.3532513"
     inkscape:cx="265.13132"
     inkscape:cy="529.26108"
     inkscape:window-x="65"
     inkscape:window-y="24"
     inkscape:window-maximized="1"
     inkscape:current-layer="g10" /><g
     id="g10"
     inkscape:groupmode="layer"
     inkscape:label="µCtrl"
     transform="matrix(1.25,0,0,-1.25,0,734.805)"><g
       id="g16"
       transform="translate(454.5396,322.9126)"><path
         d="M 0,0 -179.27,158.759 -358.639,-0.063 -358.644,-237.587 0,-237.587 0,0 z"
         style="fill:#0d9b0d;fill-opacity:1;fill-rule:nonzero;stroke:none"
         id="path18" /></g><g
       id="g20"
       transform="translate(274.23,568.5566)"><path
         d="M 0,0 -254.396,-225.261 -227.602,-255.488 1.04,-53.025 197.021,-226.123 223.767,-195.893 2.026,0 1.04,-1.145 0,0 z"
         style="fill:#0d9b0d;fill-opacity:1;fill-rule:nonzero;stroke:none"
         id="path22" /></g><g
       id="g24"
       transform="translate(95.9004,536.1323)"><path
         d="M 0,0 64.487,0 63.93,-38.198 0,-95.949 0,0 z"
         style="fill:#0d9b0d;fill-opacity:1;fill-rule:nonzero;stroke:none"
         id="path26" /></g><g
       id="g28"><g
         id="g30"
         clip-path="url(#clipPath32)"><g
           id="g36"
           transform="translate(320.7749,101.0361)"><path
             d="M 0,0 0,25.9 -0.784,25.9 C -17.651,3.135 -34.138,-3.145 -61.997,-3.145 -68.276,-3.145 -74.941,-2.747 -80.832,-0.786 L -80.832,-61.224 -130.661,-67.5 -130.661,202.472 -80.832,208.751 -80.832,78.874 C -80.832,57.681 -71.022,40.02 -48.654,40.02 -17.263,40.02 -2.744,63.96 -2.744,89.071 L -2.744,202.472 47.095,208.751 47.095,3.135 0,0 z"
             style="fill:#ffffff;fill-opacity:1;fill-rule:nonzero;stroke:none"
             id="path38" /></g><g
           id="g40"
           transform="translate(252.4429,323.9614)"><path
             d="M 0,0 -14.063,-1.772 -63.892,-8.051 -74.829,-9.429 -74.829,-20.453 -74.829,-290.425 -74.829,-304.598 -60.767,-302.828 -10.938,-296.551 0,-295.173 0,-284.149 0,-238.419 C 2.25,-238.539 4.384,-238.57 6.335,-238.57 25.16,-238.57 41.096,-236.063 55.832,-226.095 L 55.832,-236.285 69.162,-235.398 116.257,-232.263 127.927,-231.486 127.927,-219.791 127.927,-14.174 127.927,0 113.864,-1.772 64.026,-8.051 53.088,-9.429 53.088,-20.453 53.088,-133.854 C 53.088,-151.524 44.312,-170.406 19.678,-170.406 13.085,-170.406 8.496,-168.361 5.235,-163.971 1.859,-159.428 0,-152.353 0,-144.051 L 0,-14.174 0,0 z M 115.427,-14.174 115.427,-219.791 68.332,-222.925 68.332,-197.025 67.548,-197.025 C 50.681,-219.791 34.194,-226.07 6.335,-226.07 0.056,-226.07 -6.609,-225.672 -12.5,-223.711 L -12.5,-284.149 -62.329,-290.425 -62.329,-20.453 -12.5,-14.174 -12.5,-144.051 C -12.5,-165.245 -2.69,-182.906 19.678,-182.906 51.069,-182.906 65.588,-158.965 65.588,-133.854 L 65.588,-20.453 115.427,-14.174"
             style="fill:#0d9b0d;fill-opacity:1;fill-rule:nonzero;stroke:none"
             id="path42" /></g></g></g></g><g
     inkscape:groupmode="layer"
     id="layer1"
     inkscape:label="Calque" /></svg>