  0
SECTION
  2
HEADER
  9
$ACADVER
  1
AC1009
  9
$EXTMIN
 10
0.0
 20
0.0
 30
0.0
  9
$EXTMAX
 10
1000.0
 20
1000.0
 30
0.0
  9
$FILLMODE
 70
 0
  9
$SPLFRAME
 70
 1
  0
ENDSEC
  0
SECTION
  2
TABLES
  0
TABLE
  2
LAYER
 70
1
  0
LAYER
  2
0
 70
     0
 62
     7
  6
CONTINUOUS
  0
ENDTAB
  0
ENDSEC
  0
SECTION
  2
ENTITIES
  0
POLYLINE
  8
0
 62
     94
 66
     1
 10
0
 20
0
 30
0.0
 70
     1
 40
0
 41
0
  0
VERTEX
  8
0
 10
1.89356
 20
1.15289
 30
0.0
 40
0
 41
0
  0
VERTEX
  8
0
 10
1.15554
 20
1.7219
 30
0.0
 40
0
 41
0
  0
VERTEX
  8
0
 10
0.417101
 20
1.15262
 30
0.0
 40
0
 41
0
  0
VERTEX
  8
0
 10
0.417101
 20
0.301269
 30
0.0
 40
0
 41
0
  0
VERTEX
  8
0
 10
1.89356
 20
0.301269
 30
0.0
 40
0
 41
0
  0
VERTEX
  8
0
 10
1.89356
 20
1.15289
 30
0.0
 40
0
 41
0
  0
SEQEND
 8
0
  0
POLYLINE
  8
0
 62
     94
 66
     1
 10
0
 20
0
 30
0.0
 70
     1
 40
0
 41
0
  0
VERTEX
  8
0
 10
0.10395
 20
1.22591
 30
0.0
 40
0
 41
0
  0
VERTEX
  8
0
 10
0.214247
 20
1.11757
 30
0.0
 40
0
 41
0
  0
VERTEX
  8
0
 10
1.15554
 20
1.84326
 30
0.0
 40
0
 41
0
  0
VERTEX
  8
0
 10
1.96235
 20
1.22287
 30
0.0
 40
0
 41
0
  0
VERTEX
  8
0
 10
2.07243
 20
1.33116
 30
0.0
 40
0
 41
0
  0
VERTEX
  8
0
 10
1.15538
 20
2.03657
 30
0.0
 40
0
 41
0
  0
VERTEX
  8
0
 10
0.10395
 20
1.22591
 30
0.0
 40
0
 41
0
  0
SEQEND
 8
0
  0
POLYLINE
  8
0
 62
     94
 66
     1
 10
0
 20
0
 30
0.0
 70
     1
 40
0
 41
0
  0
VERTEX
  8
0
 10
0.417101
 20
1.9171
 30
0.0
 40
0
 41
0
  0
VERTEX
  8
0
 10
0.682563
 20
1.9171
 30
0.0
 40
0
 41
0
  0
VERTEX
  8
0
 10
0.680285
 20
1.78022
 30
0.0
 40
0
 41
0
  0
VERTEX
  8
0
 10
0.417101
 20
1.57319
 30
0.0
 40
0
 41
0
  0
VERTEX
  8
0
 10
0.417101
 20
1.9171
 30
0.0
 40
0
 41
0
  0
SEQEND
 8
0
  0
POLYLINE
  8
0
 62
     7
 66
     1
 10
0
 20
0
 30
0.0
 70
     1
 40
0
 41
0
  0
VERTEX
  8
0
 10
1.34288
 20
0.357585
 30
0.0
 40
0
 41
0
  0
VERTEX
  8
0
 10
1.34288
 20
0.450412
 30
0.0
 40
0
 41
0
  0
VERTEX
  8
0
 10
1.33963
 20
0.450412
 30
0.0
 40
0
 41
0
  0
VERTEX
  8
0
 10
1.28706
 20
0.39974
 30
0.0
 40
0
 41
0
  0
VERTEX
  8
0
 10
1.23058
 20
0.367785
 30
0.0
 40
0
 41
0
  0
VERTEX
  8
0
 10
1.16558
 20
0.351129
 30
0.0
 40
0
 41
0
  0
VERTEX
  8
0
 10
1.08762
 20
0.3463
 30
0.0
 40
0
 41
0
  0
VERTEX
  8
0
 10
1.01009
 20
0.354818
 30
0.0
 40
0
 41
0
  0
VERTEX
  8
0
 10
1.01009
 20
0.138129
 30
0.0
 40
0
 41
0
  0
VERTEX
  8
0
 10
0.804958
 20
0.115614
 30
0.0
 40
0
 41
0
  0
VERTEX
  8
0
 10
0.804958
 20
1.08339
 30
0.0
 40
0
 41
0
  0
VERTEX
  8
0
 10
1.01009
 20
1.10579
 30
0.0
 40
0
 41
0
  0
VERTEX
  8
0
 10
1.01009
 20
0.6403
 30
0.0
 40
0
 41
0
  0
VERTEX
  8
0
 10
1.0178
 20
0.586535
 30
0.0
 40
0
 41
0
  0
VERTEX
  8
0
 10
1.04177
 20
0.54221
 30
0.0
 40
0
 41
0
  0
VERTEX
  8
0
 10
1.08301
 20
0.512153
 30
0.0
 40
0
 41
0
  0
VERTEX
  8
0
 10
1.14258
 20
0.501031
 30
0.0
 40
0
 41
0
  0
VERTEX
  8
0
 10
1.18777
 20
0.504937
 30
0.0
 40
0
 41
0
  0
VERTEX
  8
0
 10
1.22662
 20
0.515896
 30
0.0
 40
0
 41
0
  0
VERTEX
  8
0
 10
1.25912
 20
0.532932
 30
0.0
 40
0
 41
0
  0
VERTEX
  8
0
 10
1.28548
 20
0.555231
 30
0.0
 40
0
 41
0
  0
VERTEX
  8
0
 10
1.30583
 20
0.581706
 30
0.0
 40
0
 41
0
  0
VERTEX
  8
0
 10
1.32015
 20
0.611436
 30
0.0
 40
0
 41
0
  0
VERTEX
  8
0
 10
1.32872
 20
0.643446
 30
0.0
 40
0
 41
0
  0
VERTEX
  8
0
 10
1.33154
 20
0.676812
 30
0.0
 40
0
 41
0
  0
VERTEX
  8
0
 10
1.33154
 20
1.08339
 30
0.0
 40
0
 41
0
  0
VERTEX
  8
0
 10
1.53674
 20
1.10579
 30
0.0
 40
0
 41
0
  0
VERTEX
  8
0
 10
1.53674
 20
0.368815
 30
0.0
 40
0
 41
0
  0
VERTEX
  8
0
 10
1.34288
 20
0.357585
 30
0.0
 40
0
 41
0
  0
SEQEND
 8
0
  0
POLYLINE
  8
0
 62
     94
 66
     1
 10
0
 20
0
 30
0.0
 70
     1
 40
0
 41
0
  0
VERTEX
  8
0
 10
1.06152
 20
1.15663
 30
0.0
 40
0
 41
0
  0
VERTEX
  8
0
 10
1.00363
 20
1.15028
 30
0.0
 40
0
 41
0
  0
VERTEX
  8
0
 10
0.798503
 20
1.12777
 30
0.0
 40
0
 41
0
  0
VERTEX
  8
0
 10
0.753472
 20
1.12283
 30
0.0
 40
0
 41
0
  0
VERTEX
  8
0
 10
0.753472
 20
0.0648872
 30
0.0
 40
0
 41
0
  0
VERTEX
  8
0
 10
0.811361
 20
0.0712349
 30
0.0
 40
0
 41
0
  0
VERTEX
  8
0
 10
1.01655
 20
0.0936957
 30
0.0
 40
0
 41
0
  0
VERTEX
  8
0
 10
1.06152
 20
0.0986328
 30
0.0
 40
0
 41
0
  0
VERTEX
  8
0
 10
1.06152
 20
0.302029
 30
0.0
 40
0
 41
0
  0
VERTEX
  8
0
 10
1.08762
 20
0.30154
 30
0.0
 40
0
 41
0
  0
VERTEX
  8
0
 10
1.14361
 20
0.303549
 30
0.0
 40
0
 41
0
  0
VERTEX
  8
0
 10
1.1958
 20
0.310493
 30
0.0
 40
0
 41
0
  0
VERTEX
  8
0
 10
1.24485
 20
0.324164
 30
0.0
 40
0
 41
0
  0
VERTEX
  8
0
 10
1.2914
 20
0.346192
 30
0.0
 40
0
 41
0
  0
VERTEX
  8
0
 10
1.2914
 20
0.309679
 30
0.0
 40
0
 41
0
  0
VERTEX
  8
0
 10
1.3463
 20
0.312879
 30
0.0
 40
0
 41
0
  0
VERTEX
  8
0
 10
1.54015
 20
0.32411
 30
0.0
 40
0
 41
0
  0
VERTEX
  8
0
 10
1.58822
 20
0.326878
 30
0.0
 40
0
 41
0
  0
VERTEX
  8
0
 10
1.58822
 20
1.15663
 30
0.0
 40
0
 41
0
  0
VERTEX
  8
0
 10
1.53033
 20
1.15028
 30
0.0
 40
0
 41
0
  0
VERTEX
  8
0
 10
1.32514
 20
1.12777
 30
0.0
 40
0
 41
0
  0
VERTEX
  8
0
 10
1.28011
 20
1.12283
 30
0.0
 40
0
 41
0
  0
VERTEX
  8
0
 10
1.28011
 20
0.676812
 30
0.0
 40
0
 41
0
  0
VERTEX
  8
0
 10
1.27284
 20
0.629665
 30
0.0
 40
0
 41
0
  0
VERTEX
  8
0
 10
1.24935
 20
0.587619
 30
0.0
 40
0
 41
0
  0
VERTEX
  8
0
 10
1.20681
 20
0.557454
 30
0.0
 40
0
 41
0
  0
VERTEX
  8
0
 10
1.14258
 20
0.545844
 30
0.0
 40
0
 41
0
  0
VERTEX
  8
0
 10
1.10764
 20
0.551486
 30
0.0
 40
0
 41
0
  0
VERTEX
  8
0
 10
1.08312
 20
0.568956
 30
0.0
 40
0
 41
0
  0
VERTEX
  8
0
 10
1.06711
 20
0.59961
 30
0.0
 40
0
 41
0
  0
VERTEX
  8
0
 10
1.06152
 20
0.6403
 30
0.0
 40
0
 41
0
  0
VERTEX
  8
0
 10
1.06152
 20
1.15663
 30
0.0
 40
0
 41
0
  0
SEQEND
 8
0
  0
POLYLINE
  8
0
 62
     94
 66
     1
 10
0
 20
0
 30
0.0
 70
     1
 40
0
 41
0
  0
VERTEX
  8
0
 10
1.53674
 20
1.10579
 30
0.0
 40
0
 41
0
  0
VERTEX
  8
0
 10
1.53674
 20
0.368815
 30
0.0
 40
0
 41
0
  0
VERTEX
  8
0
 10
1.34288
 20
0.357585
 30
0.0
 40
0
 41
0
  0
VERTEX
  8
0
 10
1.34288
 20
0.450412
 30
0.0
 40
0
 41
0
  0
VERTEX
  8
0
 10
1.33963
 20
0.450412
 30
0.0
 40
0
 41
0
  0
VERTEX
  8
0
 10
1.28706
 20
0.39974
 30
0.0
 40
0
 41
0
  0
VERTEX
  8
0
 10
1.23058
 20
0.367785
 30
0.0
 40
0
 41
0
  0
VERTEX
  8
0
 10
1.16558
 20
0.351129
 30
0.0
 40
0
 41
0
  0
VERTEX
  8
0
 10
1.08762
 20
0.3463
 30
0.0
 40
0
 41
0
  0
VERTEX
  8
0
 10
1.01009
 20
0.354818
 30
0.0
 40
0
 41
0
  0
VERTEX
  8
0
 10
1.01009
 20
0.138129
 30
0.0
 40
0
 41
0
  0
VERTEX
  8
0
 10
0.804958
 20
0.115614
 30
0.0
 40
0
 41
0
  0
VERTEX
  8
0
 10
0.804958
 20
1.08339
 30
0.0
 40
0
 41
0
  0
VERTEX
  8
0
 10
1.01009
 20
1.10579
 30
0.0
 40
0
 41
0
  0
VERTEX
  8
0
 10
1.01009
 20
0.6403
 30
0.0
 40
0
 41
0
  0
VERTEX
  8
0
 10
1.0178
 20
0.586535
 30
0.0
 40
0
 41
0
  0
VERTEX
  8
0
 10
1.04177
 20
0.54221
 30
0.0
 40
0
 41
0
  0
VERTEX
  8
0
 10
1.08301
 20
0.512153
 30
0.0
 40
0
 41
0
  0
VERTEX
  8
0
 10
1.14258
 20
0.501031
 30
0.0
 40
0
 41
0
  0
VERTEX
  8
0
 10
1.18777
 20
0.504937
 30
0.0
 40
0
 41
0
  0
VERTEX
  8
0
 10
1.22662
 20
0.515896
 30
0.0
 40
0
 41
0
  0
VERTEX
  8
0
 10
1.25912
 20
0.532932
 30
0.0
 40
0
 41
0
  0
VERTEX
  8
0
 10
1.28548
 20
0.555231
 30
0.0
 40
0
 41
0
  0
VERTEX
  8
0
 10
1.30583
 20
0.581706
 30
0.0
 40
0
 41
0
  0
VERTEX
  8
0
 10
1.32015
 20
0.611436
 30
0.0
 40
0
 41
0
  0
VERTEX
  8
0
 10
1.32872
 20
0.643446
 30
0.0
 40
0
 41
0
  0
VERTEX
  8
0
 10
1.33154
 20
0.676812
 30
0.0
 40
0
 41
0
  0
VERTEX
  8
0
 10
1.33154
 20
1.08339
 30
0.0
 40
0
 41
0
  0
VERTEX
  8
0
 10
1.53674
 20
1.10579
 30
0.0
 40
0
 41
0
  0
SEQEND
 8
0
  0
POLYLINE
  8
0
 62
     0
 66
     1
 10
0
 20
0
 30
0.0
 40
0.8
 41
0.8
  0
VERTEX
  8
0
 10
0.417101
 20
1.98199
 30
0.0
 40
0.0111111
 41
0.0111111
  0
VERTEX
  8
0
 10
0.753472
 20
1.98199
 30
0.0
 40
0.0111111
 41
0.0111111
  0
VERTEX
  8
0
 10
0.753472
 20
1.83778
 30
0.0
 40
0.0111111
 41
0.0111111
  0
SEQEND
 8
0
  0
POLYLINE
  8
0
 62
     0
 66
     1
 10
0
 20
0
 30
0.0
 40
0.8
 41
0.8
  0
VERTEX
  8
0
 10
0.753472
 20
1.83778
 30
0.0
 40
0.0111111
 41
0.0111111
  0
VERTEX
  8
0
 10
1.1543
 20
2.15306
 30
0.0
 40
0.0111111
 41
0.0111111
  0
VERTEX
  8
0
 10
2.20546
 20
1.33051
 30
0.0
 40
0.0111111
 41
0.0111111
  0
VERTEX
  8
0
 10
1.96935
 20
1.0944
 30
0.0
 40
0.0111111
 41
0.0111111
  0
VERTEX
  8
0
 10
1.96935
 20
0.236436
 30
0.0
 40
0.0111111
 41
0.0111111
  0
VERTEX
  8
0
 10
1.11133
 20
0.236436
 30
0.0
 40
0.0111111
 41
0.0111111
  0
SEQEND
 8
0
  0
POLYLINE
  8
0
 62
     0
 66
     1
 10
0
 20
0
 30
0.0
 40
0.8
 41
0.8
  0
VERTEX
  8
0
 10
1.11225
 20
0.235622
 30
0.0
 40
0.0111111
 41
0.0111111
  0
VERTEX
  8
0
 10
1.11225
 20
0.0640192
 30
0.0
 40
0.0111111
 41
0.0111111
  0
VERTEX
  8
0
 10
0.704482
 20
0.00558811
 30
0.0
 40
0.0111111
 41
0.0111111
  0
SEQEND
 8
0
  0
POLYLINE
  8
0
 62
     0
 66
     1
 10
0
 20
0
 30
0.0
 40
0.8
 41
0.8
  0
VERTEX
  8
0
 10
0.703993
 20
0.00358074
 30
0.0
 40
0.0111111
 41
0.0111111
  0
VERTEX
  8
0
 10
0.703993
 20
0.248643
 30
0.0
 40
0.0111111
 41
0.0111111
  0
VERTEX
  8
0
 10
0.364583
 20
0.248643
 30
0.0
 40
0.0111111
 41
0.0111111
  0
VERTEX
  8
0
 10
0.364583
 20
1.11214
 30
0.0
 40
0.0111111
 41
0.0111111
  0
SEQEND
 8
0
  0
POLYLINE
  8
0
 62
     0
 66
     1
 10
0
 20
0
 30
0.0
 40
0.8
 41
0.8
  0
VERTEX
  8
0
 10
0.360622
 20
1.1091
 30
0.0
 40
0.0111111
 41
0.0111111
  0
VERTEX
  8
0
 10
0.231988
 20
0.984212
 30
0.0
 40
0.0111111
 41
0.0111111
  0
VERTEX
  8
0
 10
0.00819228
 20
1.21772
 30
0.0
 40
0.0111111
 41
0.0111111
  0
VERTEX
  8
0
 10
0.350097
 20
1.49496
 30
0.0
 40
0.0111111
 41
0.0111111
  0
VERTEX
  8
0
 10
0.350097
 20
1.9821
 30
0.0
 40
0.0111111
 41
0.0111111
  0
VERTEX
  8
0
 10
0.417101
 20
1.9821
 30
0.0
 40
0.0111111
 41
0.0111111
  0
SEQEND
 8
0
  0
ENDSEC
  0
EOF
