%FSLAX23Y23*%
%MOIN*%
G04 EasyPC Gerber Version 17.0 Build 3379 *
%ADD101R,0.02969X0.13205*%
%ADD93R,0.04150X0.05331*%
%ADD95R,0.04937X0.05291*%
%ADD98R,0.06500X0.07000*%
%ADD102R,0.08874X0.10843*%
%ADD103R,0.08874X0.13992*%
%ADD97R,0.07000X0.07000*%
%ADD104C,0.05343*%
%ADD99C,0.07000*%
%ADD96C,0.07890*%
%ADD94R,0.05291X0.04937*%
%ADD100R,0.07000X0.06500*%
X0Y0D02*
D02*
D93*
X3964Y809D03*
X4001Y690D03*
X4038Y809D03*
D02*
D94*
X3055Y568D03*
X3125D03*
X3253Y367D03*
X3323D03*
X3343Y275D03*
X3413D03*
X3688Y807D03*
X3758D03*
D02*
D95*
X3296Y735D03*
Y805D03*
X3838Y1312D03*
Y1382D03*
X3845Y688D03*
Y758D03*
X4184Y897D03*
Y967D03*
D02*
D96*
X3388Y490D03*
Y667D03*
X3644Y490D03*
Y667D03*
D02*
D97*
X2985Y358D03*
Y458D03*
X3025Y982D03*
X3025Y706D03*
Y844D03*
X3090Y1257D03*
X3125Y982D03*
X3125Y706D03*
Y844D03*
X3127Y358D03*
Y458D03*
D02*
D98*
X3254Y181D03*
Y271D03*
D02*
D99*
X2990Y1257D03*
Y1357D03*
Y1457D03*
Y1557D03*
Y1657D03*
X3090Y1357D03*
Y1457D03*
Y1557D03*
Y1657D03*
D02*
D100*
X3428Y369D03*
X3518D03*
D02*
D101*
X3877Y551D03*
X3908D03*
X3940D03*
X3971D03*
X4003D03*
D02*
D102*
X3765Y315D03*
X4115D03*
D02*
D103*
X3765Y547D03*
X4115D03*
D02*
D104*
X3853Y433D03*
X4027D03*
X0Y0D02*
M02*
