%FSLAX23Y23*%
%MOIN*%
G04 EasyPC Gerber Version 17.0 Build 3379 *
%ADD120R,0.02181X0.02969*%
%ADD95R,0.04937X0.05291*%
%ADD123R,0.05724X0.08087*%
%ADD98R,0.06500X0.07000*%
%ADD97R,0.07000X0.07000*%
%ADD122R,0.14780X0.14780*%
%ADD104C,0.05343*%
%ADD99C,0.07000*%
%ADD96C,0.07890*%
%ADD121R,0.02969X0.02181*%
%ADD124R,0.06200X0.03200*%
%ADD119R,0.06787X0.03559*%
%ADD94R,0.05291X0.04937*%
X0Y0D02*
D02*
D94*
X3243Y1530D03*
X3313D03*
D02*
D95*
X3167Y1253D03*
Y1323D03*
X3461Y930D03*
Y1000D03*
X3495Y544D03*
Y614D03*
X3539Y1470D03*
Y1540D03*
X3747Y957D03*
Y1027D03*
X3840Y1417D03*
Y1487D03*
X3916Y1439D03*
Y1509D03*
X4029Y1245D03*
Y1315D03*
D02*
D96*
X3388Y490D03*
Y667D03*
X3644Y490D03*
Y667D03*
D02*
D97*
X2985Y358D03*
Y458D03*
X3025Y982D03*
X3025Y706D03*
Y844D03*
X3090Y1257D03*
X3125Y982D03*
X3125Y706D03*
Y844D03*
X3127Y358D03*
Y458D03*
D02*
D98*
X4186Y653D03*
Y743D03*
D02*
D99*
X2990Y1257D03*
Y1357D03*
Y1457D03*
Y1557D03*
Y1657D03*
X3090Y1357D03*
Y1457D03*
Y1557D03*
Y1657D03*
D02*
D104*
X3853Y433D03*
X4027D03*
D02*
D119*
X3909Y867D03*
Y917D03*
Y967D03*
Y1017D03*
Y1067D03*
Y1117D03*
Y1167D03*
X4107Y867D03*
Y917D03*
Y967D03*
Y1017D03*
Y1067D03*
Y1117D03*
Y1167D03*
D02*
D120*
X3534Y1118D03*
Y1297D03*
X3554Y1118D03*
Y1297D03*
X3574Y1118D03*
Y1297D03*
X3593Y1118D03*
Y1297D03*
X3613Y1118D03*
Y1297D03*
X3633Y1118D03*
Y1297D03*
X3653Y1118D03*
Y1297D03*
X3672Y1118D03*
Y1297D03*
D02*
D121*
X3514Y1138D03*
Y1158D03*
Y1178D03*
Y1197D03*
Y1217D03*
Y1237D03*
Y1256D03*
Y1276D03*
X3693Y1138D03*
Y1158D03*
Y1178D03*
Y1197D03*
Y1217D03*
Y1237D03*
Y1256D03*
Y1276D03*
D02*
D122*
X3603Y1207D03*
D02*
D123*
X3242Y1252D03*
Y1410D03*
X3337Y1252D03*
Y1410D03*
D02*
D124*
X3207Y532D03*
Y569D03*
Y606D03*
X3299Y532D03*
Y606D03*
X0Y0D02*
M02*
