%FSLAX23Y23*%
%MOIN*%
G04 EasyPC Gerber Version 17.0 Build 3379 *
%ADD88R,0.01969X0.12205*%
%ADD80R,0.03150X0.04331*%
%ADD82R,0.03937X0.04291*%
%ADD85R,0.05500X0.06000*%
%ADD89R,0.07874X0.09843*%
%ADD90R,0.07874X0.12992*%
%ADD84R,0.06000X0.06000*%
%ADD92C,0.00984*%
%ADD24C,0.01000*%
%ADD91C,0.04343*%
%ADD23C,0.04800*%
%ADD86C,0.06000*%
%ADD83C,0.06890*%
%ADD81R,0.04291X0.03937*%
%ADD87R,0.06000X0.05500*%
X0Y0D02*
D02*
D23*
X2954Y587D03*
X3212Y918D03*
X3260Y456D03*
X3384Y755D03*
X3386Y980D03*
X3404Y1057D03*
Y1247D03*
X3457Y1322D03*
X3533Y907D03*
X3545Y1382D03*
X3555Y690D03*
X3597Y819D03*
Y905D03*
X3598Y1035D03*
X3660Y1541D03*
X3680Y1374D03*
X3690Y870D03*
X3706Y1642D03*
X3735Y1406D03*
X3751Y1163D03*
X3758Y736D03*
Y1278D03*
X3760Y870D03*
X3778Y1359D03*
X3780Y1528D03*
X3838Y889D03*
X3840Y1035D03*
Y1096D03*
X3840Y973D03*
X3845Y1247D03*
X3904D03*
Y1310D03*
X3956Y1378D03*
X4013Y919D03*
X4017Y1130D03*
X4107Y652D03*
Y723D03*
Y802D03*
X4180Y1222D03*
X4233Y1297D03*
D02*
D24*
X2990Y1457D02*
X2958D01*
X2924Y1491*
Y1570*
X2959Y1605*
X3537*
X3588Y1555*
Y1554*
X3735Y1406*
X3025Y982D02*
X3095Y1053D01*
X3202*
X3431Y823*
Y714*
X3388Y671*
Y667*
X3025Y844D02*
Y836D01*
X3012*
X2903Y945*
Y1254*
X2990Y1341*
Y1357*
X3125Y982D02*
X3221D01*
X3252Y951*
Y764*
X3294Y722*
X3296*
Y735*
X3125Y706D02*
X3212Y793D01*
Y918*
X3125Y568D02*
Y587D01*
X3248Y709*
X3274Y735*
X3296*
X3254Y271D02*
Y367D01*
X3253Y367*
X3457Y1322D02*
Y1069D01*
X3533Y993*
X3626*
X3661Y1028*
Y1129*
X3734Y1202*
X3776*
X3794Y1184*
Y1080*
X3840Y1035*
X3518Y369D02*
Y317D01*
X3476Y275*
X3413*
X3545Y1382D02*
X3182D01*
X3104Y1305*
X3048*
X3035Y1292*
Y1151*
X2951Y1067*
Y936*
X2969Y917*
X3083*
X3125Y959*
Y982*
X3597Y819D02*
Y836D01*
X3673Y912*
X3815*
X3838Y889*
X3597Y905D02*
X3631D01*
X3667Y941*
X3809*
X3840Y973*
X3598Y1035D02*
Y1222D01*
X3690Y1314*
X3823*
X3825Y1312*
X3838*
X3680Y1374D02*
X3668D01*
X3536Y1505*
X3040*
X2990Y1555*
Y1557*
X3690Y870D02*
X3688D01*
Y807*
X3706Y1642D02*
Y1603D01*
X3780Y1528*
X3751Y1163D02*
Y1067D01*
X3650Y965*
X3521*
X3487Y932*
Y504*
X3424Y442*
Y373*
X3428Y369*
X3758Y1278D02*
Y1254D01*
X3840Y1172*
Y1096*
X3760Y870D02*
Y866D01*
X3793*
X3812Y847*
X4015*
X4046Y815*
Y809*
X4038*
X3845Y1247D02*
Y1231D01*
X4013Y1064*
Y919*
X3877Y551D02*
Y656D01*
X3845Y688*
X3904Y1247D02*
X3965D01*
X4184Y1028*
X3904Y1310D02*
X4092D01*
X4180Y1222*
X3908Y551D02*
Y753D01*
X3964Y809*
X3940Y551D02*
Y710D01*
X4038Y809*
X3956Y1378D02*
X3951Y1382D01*
X3838*
X3964Y809D02*
X3760D01*
X3758Y807*
X4003Y551D02*
X4007D01*
Y614*
X4045Y652*
X4107*
X4184Y1028D02*
X4184Y1027D01*
Y967*
X4233Y1297D02*
Y1072D01*
X4188Y1028*
X4184*
D02*
D80*
X3964Y809D03*
X4001Y690D03*
X4038Y809D03*
D02*
D81*
X3055Y568D03*
X3125D03*
X3253Y367D03*
X3323D03*
X3343Y275D03*
X3413D03*
X3688Y807D03*
X3758D03*
D02*
D82*
X3296Y735D03*
Y805D03*
X3838Y1312D03*
Y1382D03*
X3845Y688D03*
Y758D03*
X4184Y897D03*
Y967D03*
D02*
D83*
X3388Y490D03*
Y667D03*
X3644Y490D03*
Y667D03*
D02*
D84*
X2985Y358D03*
Y458D03*
X3025Y982D03*
X3025Y706D03*
Y844D03*
X3090Y1257D03*
X3125Y982D03*
X3125Y706D03*
Y844D03*
X3127Y358D03*
Y458D03*
D02*
D85*
X3254Y181D03*
Y271D03*
D02*
D86*
X2990Y1257D03*
Y1357D03*
Y1457D03*
Y1557D03*
Y1657D03*
X3090Y1357D03*
Y1457D03*
Y1557D03*
Y1657D03*
D02*
D87*
X3428Y369D03*
X3518D03*
D02*
D88*
X3877Y551D03*
X3908D03*
X3940D03*
X3971D03*
X4003D03*
D02*
D89*
X3765Y315D03*
X4115D03*
D02*
D90*
X3765Y547D03*
X4115D03*
D02*
D91*
X3853Y433D03*
X4027D03*
D02*
D92*
X3055Y568D02*
X2972D01*
X2954Y587*
X3055Y568D02*
Y533D01*
X3055Y533*
Y381*
X3027Y353*
X2985*
Y358*
X3090Y1257D02*
X3180D01*
X3285Y1363*
X3490*
X3523Y1330*
X3753*
X3778Y1355*
Y1359*
X3090Y1257D02*
X3104D01*
X3105Y1255*
X3110*
X3386Y980*
X3127Y458D02*
X3258D01*
X3260Y456*
X3254Y181D02*
X3224D01*
X3194Y211*
Y291*
X3127Y358*
X3296Y805D02*
X3334D01*
X3384Y755*
X3323Y367D02*
Y393D01*
X3260Y456*
X3323Y367D02*
X3343D01*
Y275*
X3343*
X3386Y980D02*
Y916D01*
X3461Y841*
Y657*
X3260Y456*
X3404Y1247D02*
Y1057D01*
X3533Y907D02*
Y711D01*
X3555Y690*
X3660Y1541D02*
X3819Y1382D01*
X3838*
X3845Y758D02*
X3780D01*
X3758Y736*
X3971Y551D02*
Y469D01*
X3887Y384*
X3696*
X3644Y436*
Y490*
X3971Y551D02*
Y661D01*
X4001Y690*
Y695*
X4107Y802*
X4184Y897D02*
X4116Y965D01*
Y1030*
X4017Y1129*
Y1130*
X0Y0D02*
M02*
