%FSLAX23Y23*%
%MOIN*%
G04 EasyPC Gerber Version 17.0 Build 3379 *
%ADD126R,0.00781X0.01569*%
%ADD107R,0.03537X0.03891*%
%ADD129R,0.04324X0.06687*%
%ADD108R,0.05100X0.05600*%
%ADD128R,0.13380X0.13380*%
%ADD127R,0.01569X0.00781*%
%ADD130R,0.04800X0.01800*%
%ADD125R,0.05387X0.02159*%
%ADD106R,0.03891X0.03537*%
X0Y0D02*
D02*
D106*
X3243Y1530D03*
X3313D03*
D02*
D107*
X3167Y1253D03*
Y1323D03*
X3461Y930D03*
Y1000D03*
X3495Y544D03*
Y614D03*
X3539Y1470D03*
Y1540D03*
X3747Y957D03*
Y1027D03*
X3840Y1417D03*
Y1487D03*
X3916Y1439D03*
Y1509D03*
X4029Y1245D03*
Y1315D03*
D02*
D108*
X4186Y653D03*
Y743D03*
D02*
D125*
X3909Y867D03*
Y917D03*
Y967D03*
Y1017D03*
Y1067D03*
Y1117D03*
Y1167D03*
X4107Y867D03*
Y917D03*
Y967D03*
Y1017D03*
Y1067D03*
Y1117D03*
Y1167D03*
D02*
D126*
X3534Y1118D03*
Y1297D03*
X3554Y1118D03*
Y1297D03*
X3574Y1118D03*
Y1297D03*
X3593Y1118D03*
Y1297D03*
X3613Y1118D03*
Y1297D03*
X3633Y1118D03*
Y1297D03*
X3653Y1118D03*
Y1297D03*
X3672Y1118D03*
Y1297D03*
D02*
D127*
X3514Y1138D03*
Y1158D03*
Y1178D03*
Y1197D03*
Y1217D03*
Y1237D03*
Y1256D03*
Y1276D03*
X3693Y1138D03*
Y1158D03*
Y1178D03*
Y1197D03*
Y1217D03*
Y1237D03*
Y1256D03*
Y1276D03*
D02*
D128*
X3603Y1207D03*
D02*
D129*
X3242Y1252D03*
Y1410D03*
X3337Y1252D03*
Y1410D03*
D02*
D130*
X3207Y532D03*
Y569D03*
Y606D03*
X3299Y532D03*
Y606D03*
X0Y0D02*
M02*
