%FSLAX23Y23*%
%MOIN*%
G04 EasyPC Gerber Version 17.0 Build 3379 *
%ADD78C,0.00100*%
%ADD132C,0.00300*%
%ADD77C,0.00500*%
%ADD131C,0.00600*%
%ADD133C,0.00820*%
X0Y0D02*
D02*
D77*
X3141Y1226D02*
X3194D01*
Y1349*
X3141*
Y1226*
X3184Y1178D02*
X3187Y1174D01*
X3194Y1171*
X3203*
X3209Y1174*
X3212Y1178*
X3215Y1184*
Y1196*
X3212Y1203*
X3209Y1206*
X3203Y1209*
X3194*
X3187Y1206*
X3184Y1203*
X3150Y1171D02*
Y1209D01*
X3165Y1184*
X3140*
X3245Y1085D02*
X3430Y1105D01*
X3428Y680*
X3434Y646*
X3444Y619*
X3455Y602*
X3467Y590*
X3480Y581*
X3490Y575*
X3521Y564*
X3535Y562*
X3549Y561*
X3564Y561*
X3577Y562*
X3592Y565*
X3603Y567*
X3618Y573*
X3631Y578*
X3645Y586*
X3661Y596*
X3677Y611*
X3689Y625*
X3698Y641*
X3706Y654*
X3713Y670*
X3715Y686*
X3718Y704*
X3719Y727*
X3719Y1085*
X3902Y1105*
Y443*
X3730Y432*
X3729Y520*
X3715Y503*
X3696Y485*
X3680Y470*
X3663Y458*
X3644Y448*
X3622Y439*
X3601Y433*
X3587Y429*
X3569Y427*
X3545Y423*
X3526Y423*
X3509Y422*
X3487*
X3470Y423*
X3453Y425*
X3439Y428*
X3428Y430*
Y235*
X3246Y214*
X3245Y1085*
G36*
X3430Y1105*
X3428Y680*
X3434Y646*
X3444Y619*
X3455Y602*
X3467Y590*
X3480Y581*
X3490Y575*
X3521Y564*
X3535Y562*
X3549Y561*
X3564Y561*
X3577Y562*
X3592Y565*
X3603Y567*
X3618Y573*
X3631Y578*
X3645Y586*
X3661Y596*
X3677Y611*
X3689Y625*
X3698Y641*
X3706Y654*
X3713Y670*
X3715Y686*
X3718Y704*
X3719Y727*
X3719Y1085*
X3902Y1105*
Y443*
X3730Y432*
X3729Y520*
X3715Y503*
X3696Y485*
X3680Y470*
X3663Y458*
X3644Y448*
X3622Y439*
X3601Y433*
X3587Y429*
X3569Y427*
X3545Y423*
X3526Y423*
X3509Y422*
X3487*
X3470Y423*
X3453Y425*
X3439Y428*
X3428Y430*
Y235*
X3246Y214*
X3245Y1085*
G37*
X3317Y1568D02*
Y1606D01*
X3295*
X3289Y1602*
X3286Y1596*
X3289Y1590*
X3295Y1587*
X3317*
X3295D02*
X3286Y1568D01*
X3264Y1571D02*
X3257Y1568D01*
X3251*
X3245Y1571*
X3242Y1577*
X3245Y1584*
X3251Y1587*
X3257*
X3251D02*
X3245Y1590D01*
X3242Y1596*
X3245Y1602*
X3251Y1606*
X3257*
X3264Y1602*
X3336Y1158D02*
X3304Y1195D01*
X3336D02*
X3304Y1158D01*
X3279D02*
X3267D01*
X3273D02*
Y1195D01*
X3279Y1189*
X3339Y1504D02*
Y1557D01*
X3216*
Y1504*
X3339*
X3368Y1453D02*
Y1209D01*
X3215*
Y1453*
X3368*
X3487Y1027D02*
X3434D01*
Y904*
X3487*
Y1027*
X3468Y860D02*
X3471Y857D01*
X3477Y853*
X3486*
X3493Y857*
X3496Y860*
X3499Y866*
Y878*
X3496Y885*
X3493Y888*
X3486Y891*
X3477*
X3471Y888*
X3468Y885*
X3424Y853D02*
X3449D01*
X3427Y875*
X3424Y882*
X3427Y888*
X3433Y891*
X3443*
X3449Y888*
X3513Y1444D02*
X3566D01*
Y1567*
X3513*
Y1444*
X3522Y641D02*
X3469D01*
Y518*
X3522*
Y641*
X3490Y667D02*
X3493Y664D01*
X3500Y661*
X3509*
X3515Y664*
X3518Y667*
X3522Y673*
Y686*
X3518Y692*
X3515Y695*
X3509Y698*
X3500*
X3493Y695*
X3490Y692*
X3465Y661D02*
X3453D01*
X3459D02*
Y698D01*
X3465Y692*
X3554Y1854D02*
X2625Y1109D01*
X2721Y1015*
X3557Y1680*
X4279Y1121*
X4370Y1209*
X3555Y1854*
Y1959*
X4476Y1209*
X4270Y997*
Y215*
X3467Y215*
X3467Y298*
X4215*
Y1059*
X3557Y1573*
X2899Y1054*
Y304*
X3201*
Y91*
X3467Y120*
Y212*
X3521*
X3520Y58*
X3163Y4*
X3163Y226*
X2848*
X2846Y1010*
X2721Y897*
X2517Y1109*
X2854Y1385*
Y1804*
X3207*
X3207Y1678*
X3143Y1633*
Y1743*
X2910*
Y1436*
X3207Y1676*
X3554Y1959*
X3554Y1854*
G36*
X2625Y1109*
X2721Y1015*
X3557Y1680*
X4279Y1121*
X4370Y1209*
X3555Y1854*
Y1959*
X4476Y1209*
X4270Y997*
Y215*
X3467Y215*
X3467Y298*
X4215*
Y1059*
X3557Y1573*
X2899Y1054*
Y304*
X3201*
Y91*
X3467Y120*
Y212*
X3521*
X3520Y58*
X3163Y4*
X3163Y226*
X2848*
X2846Y1010*
X2721Y897*
X2517Y1109*
X2854Y1385*
Y1804*
X3207*
X3207Y1678*
X3143Y1633*
Y1743*
X2910*
Y1436*
X3207Y1676*
X3554Y1959*
X3554Y1854*
G37*
X3546Y1586D02*
X3550Y1583D01*
X3556Y1580*
X3565*
X3571Y1583*
X3575Y1586*
X3578Y1592*
Y1605*
X3575Y1611*
X3571Y1614*
X3565Y1617*
X3556*
X3550Y1614*
X3546Y1611*
X3528Y1583D02*
X3521Y1580D01*
X3512*
X3506Y1583*
X3503Y1589*
Y1592*
X3506Y1599*
X3512Y1602*
X3528*
Y1617*
X3503*
X3603Y1229D02*
Y1201D01*
X3600Y1195*
X3594Y1192*
X3581*
X3575Y1195*
X3572Y1201*
Y1229*
X3547Y1192D02*
X3535D01*
X3541D02*
Y1229D01*
X3547Y1223*
X3651Y777D02*
Y739D01*
X3672*
X3679Y742*
X3682Y748*
X3679Y755*
X3672Y758*
X3651*
X3672D02*
X3682Y777D01*
X3707D02*
X3719D01*
X3713D02*
Y739D01*
X3707Y745*
X3676Y1092D02*
G75*
G02X3668I-4D01*
G01*
G75*
G02X3676I4*
G01*
G36*
G75*
G02X3668I-4*
G01*
G75*
G02X3676I4*
G01*
G37*
X3720Y930D02*
X3773D01*
Y1053*
X3720*
Y930*
X3722Y1326D02*
X3484D01*
Y1088*
X3713*
X3722Y1098*
Y1326*
X3802Y1442D02*
Y1480D01*
X3780*
X3774Y1476*
X3771Y1470*
X3774Y1464*
X3780Y1461*
X3802*
X3780D02*
X3771Y1442D01*
X3746D02*
X3733D01*
X3740D02*
Y1480D01*
X3746Y1473*
X3699Y1445D02*
X3693Y1442D01*
X3686*
X3680Y1445*
X3677Y1451*
Y1470*
X3680Y1476*
X3686Y1480*
X3693*
X3699Y1476*
X3702Y1470*
Y1451*
X3699Y1445*
X3680Y1476*
X3814Y1391D02*
X3867D01*
Y1514*
X3814*
Y1391*
X3943Y1535D02*
X3890D01*
Y1412*
X3943*
Y1535*
X3922Y1552D02*
X3926Y1548D01*
X3932Y1545*
X3941*
X3947Y1548*
X3951Y1552*
X3954Y1558*
Y1570*
X3951Y1577*
X3947Y1580*
X3941Y1583*
X3932*
X3926Y1580*
X3922Y1577*
X3901Y1548D02*
X3894Y1545D01*
X3888*
X3882Y1548*
X3879Y1555*
X3882Y1561*
X3888Y1564*
X3894*
X3888D02*
X3882Y1567D01*
X3879Y1573*
X3882Y1580*
X3888Y1583*
X3894*
X3901Y1580*
X3954Y1180D02*
Y854D01*
X4063*
Y1180*
X4023*
Y1165*
X3993*
Y1180*
X3954*
X4003Y1219D02*
X4056D01*
Y1342*
X4003*
Y1219*
X4051Y839D02*
Y811D01*
X4048Y804*
X4042Y801*
X4029*
X4023Y804*
X4020Y811*
Y839*
X3998Y804D02*
X3992Y801D01*
X3985*
X3979Y804*
X3976Y811*
X3979Y817*
X3985Y820*
X3992*
X3985D02*
X3979Y823D01*
X3976Y829*
X3979Y836*
X3985Y839*
X3992*
X3998Y836*
X4054Y1176D02*
G75*
G02Y1158J-9D01*
G01*
G75*
G02Y1176J9*
G01*
G36*
G75*
G02Y1158J-9*
G01*
G75*
G02Y1176J9*
G01*
G37*
X4189Y1266D02*
Y1303D01*
X4167*
X4161Y1300*
X4158Y1294*
X4161Y1288*
X4167Y1285*
X4189*
X4167D02*
X4158Y1266D01*
X4133D02*
X4120D01*
X4126D02*
Y1303D01*
X4133Y1297*
X4083Y1266D02*
X4070D01*
X4076D02*
Y1303D01*
X4083Y1297*
X4221Y778D02*
Y618D01*
X4151*
Y778*
X4221*
X4230Y598D02*
Y560D01*
X4199*
X4174D02*
X4162D01*
X4168D02*
Y598D01*
X4174Y591*
D02*
D78*
X3198Y541D02*
X3222D01*
Y522*
X3198*
Y541*
Y579D02*
X3222D01*
Y559*
X3198*
Y579*
Y616D02*
X3222D01*
Y597*
X3198*
Y616*
X3222Y522D02*
Y512D01*
X3284*
Y522*
X3222Y541D02*
Y559D01*
Y579D02*
Y597D01*
X3265Y512D02*
G75*
G03X3241I-12D01*
G01*
G75*
G02X3265I12*
G01*
X3284Y597D02*
Y541D01*
Y616D02*
Y626D01*
X3222*
Y616*
X3308Y522D02*
X3284D01*
Y541*
X3308*
Y522*
Y597D02*
X3284D01*
Y616*
X3308*
Y597*
D02*
D131*
X3242Y626D02*
X3264D01*
X3260Y521D02*
X3264Y512*
X3242D01*
X3284Y582D02*
Y556D01*
D02*
D132*
X3174Y494D02*
X3199D01*
X3180Y506D02*
X3193Y481D01*
X3180D02*
X3193Y506D01*
X3174Y494D02*
X3199D01*
X3180Y506D02*
X3193Y481D01*
X3180D02*
X3193Y506D01*
X3174Y494D02*
X3199D01*
X3180Y506D02*
X3193Y481D01*
X3180D02*
X3193Y506D01*
X3174Y494D02*
X3199D01*
X3180Y506D02*
X3193Y481D01*
X3180D02*
X3193Y506D01*
D02*
D133*
X3313Y705D02*
Y659D01*
X3308Y649*
X3298Y644*
X3277*
X3267Y649*
X3262Y659*
Y705*
X3231Y649D02*
X3221Y644D01*
X3205*
X3195Y649*
X3190Y659*
Y664*
X3195Y675*
X3205Y680*
X3231*
Y705*
X3190*
X0Y0D02*
M02*
