%FSLAX23Y23*%
%MOIN*%
G04 EasyPC Gerber Version 17.0 Build 3379 *
%AMT24*0 Octagon Pad at angle 0*4,1,8,-0.01367,-0.03300,0.01367,-0.03300,0.03300,-0.01367,0.03300,0.01367,0.01367,0.03300,-0.01367,0.03300,-0.03300,0.01367,-0.03300,-0.01367,-0.01367,-0.03300,0*%
%ADD24T24*%
%ADD22C,0.02953*%
%ADD86C,0.05000*%
%ADD83C,0.05000*%
%ADD126C,0.05512*%
%ADD20C,0.05906*%
%ADD73C,0.05906*%
%ADD23C,0.06000*%
%ADD25C,0.06000*%
%ADD29C,0.06000*%
%ADD28C,0.06693*%
%ADD85C,0.07874*%
%ADD27C,0.07874*%
%ADD70C,0.11811*%
X0Y0D02*
D02*
D70*
X2511Y1345D02*
X2806Y1640D01*
X2878*
D02*
D20*
X486Y1405D02*
X696Y1195D01*
X1006*
X1026Y1215*
X746Y365D02*
Y465D01*
X1066Y785*
X1201*
X1206Y780*
X1256*
X1281Y805*
X771Y1470D02*
X701D01*
X556Y1615*
Y1895*
X466Y1985*
X771Y1670D02*
X836D01*
X921Y1585*
Y1320*
X971Y1270*
X1071Y1370*
X1061Y1180D02*
X946D01*
X1066Y1150D02*
X951D01*
X1076Y1210D02*
X961D01*
X1256Y1330D02*
X1061D01*
Y1305*
X1031Y1275*
X1041*
X1076Y1240*
X1131Y1295*
X1076*
Y1360*
X1086Y1370*
X1336*
X1341Y1365*
X1281Y890D02*
X1174Y783D01*
X1281Y1005D02*
Y895D01*
X1421Y1165D02*
X1269Y1013D01*
X1456Y570D02*
X1431D01*
X1286Y715*
Y800*
X1281Y805*
X1456Y570D02*
X1576D01*
X1681Y465*
X1554Y1742D02*
Y1843D01*
X1586Y1875*
X2111*
X2426Y1560*
Y1525*
X2521Y1430*
Y1355*
X2511Y1345*
X1554Y1742D02*
Y1533D01*
X1341Y1320*
X1216*
X1081Y1185*
X1056*
X971Y1270*
X2466Y1190D02*
Y1300D01*
X2511Y1345*
X2878Y1640D02*
X2881Y1643D01*
D02*
D22*
X1681Y465D02*
Y450D01*
X1791Y340*
Y160*
X1751Y120*
X1651*
X1601Y170*
Y210*
X1841Y635D02*
Y625D01*
X1681Y465*
D02*
D23*
X466Y1985D03*
X746Y365D03*
X981Y1160D03*
X1026Y1215D03*
X1056Y1150D03*
X1681Y465D03*
X1841Y635D03*
D02*
D24*
X641Y2010D03*
Y2110D03*
X741Y2010D03*
Y2110D03*
X841Y2010D03*
Y2110D03*
X941Y2010D03*
Y2110D03*
X1001Y210D03*
Y310D03*
X1041Y2010D03*
Y2110D03*
X1101Y210D03*
Y310D03*
X1141Y2010D03*
Y2110D03*
X1201Y210D03*
Y310D03*
X1241Y2010D03*
Y2110D03*
X1301Y210D03*
Y310D03*
X1341Y2010D03*
Y2110D03*
X1401Y210D03*
Y310D03*
X1441Y2010D03*
Y2110D03*
X1501Y210D03*
Y310D03*
X1541Y2010D03*
Y2110D03*
X1601Y210D03*
Y310D03*
X1701Y210D03*
Y310D03*
Y2010D03*
Y2110D03*
X1801Y2010D03*
Y2110D03*
X1901Y210D03*
Y310D03*
Y2010D03*
Y2110D03*
X2001Y210D03*
Y310D03*
Y2010D03*
Y2110D03*
X2101Y210D03*
Y310D03*
Y2010D03*
Y2110D03*
X2201Y210D03*
Y310D03*
Y2010D03*
Y2110D03*
X2301Y210D03*
Y310D03*
Y2010D03*
Y2110D03*
X2401Y210D03*
Y310D03*
Y2010D03*
Y2110D03*
D02*
D25*
X771Y1370D03*
Y1470D03*
Y1570D03*
Y1670D03*
X1071Y1370D03*
Y1470D03*
Y1570D03*
Y1670D03*
X2768Y1376D03*
X2965Y1313D03*
D02*
D27*
X1447Y1138D03*
Y1742D03*
X1554D03*
X1584Y1138D03*
X1661Y1742D03*
X1738Y1138D03*
X1768Y1742D03*
X1875Y1138D03*
Y1742D03*
X2881Y1643D03*
Y1840D03*
Y2037D03*
D02*
D28*
X2506Y1705D03*
Y1905D03*
D02*
D29*
X486Y1405D03*
Y1505D03*
X1281Y805D03*
X1431D03*
X1456Y470D03*
Y570D03*
X2266Y1190D03*
X2466D03*
X2796Y600D03*
X2996D03*
D02*
D73*
X2224Y458D03*
Y792D03*
X2519Y458D03*
Y792D03*
D02*
D83*
X1922Y790D03*
X2001D03*
D02*
D85*
X1281Y805D02*
Y972D01*
X1443Y1134*
X1447Y1138*
D02*
D86*
X1271Y1027D02*
X1337D01*
X1443Y1134*
X1271Y1027D02*
X1337D01*
X1447Y1138*
D02*
D126*
X1271Y1027D03*
Y1323D03*
X0Y0D02*
M02*
