%FSLAX23Y23*%
%MOIN*%
G04 EasyPC Gerber Version 17.0 Build 3379 *
%ADD17C,0.00096*%
%ADD16C,0.00100*%
%ADD11C,0.00394*%
%ADD18C,0.00400*%
%ADD10C,0.00500*%
%ADD12C,0.00787*%
%ADD15C,0.00800*%
%ADD13C,0.01200*%
%ADD14C,0.01969*%
X0Y0D02*
D02*
D10*
X217Y406D02*
X214Y403D01*
X208Y399*
X199*
X192Y403*
X189Y406*
X186Y412*
Y424*
X189Y431*
X192Y434*
X199Y437*
X208*
X214Y434*
X217Y431*
X242Y399D02*
X255D01*
X249D02*
Y437D01*
X242Y431*
X302Y399D02*
Y437D01*
X286Y412*
X311*
X216Y304D02*
Y342D01*
X238*
X244Y339*
X247Y333*
X244Y326*
X238Y323*
X216*
X238D02*
X247Y304D01*
X266D02*
X291Y342D01*
X266*
X226Y1904D02*
Y1942D01*
X248*
X254Y1939*
X257Y1933*
X254Y1926*
X248Y1923*
X226*
X248D02*
X257Y1904D01*
X279Y1908D02*
X286Y1904D01*
X292*
X298Y1908*
X301Y1914*
X298Y1920*
X292Y1923*
X286*
X292D02*
X298Y1926D01*
X301Y1933*
X298Y1939*
X292Y1942*
X286*
X279Y1939*
X231Y499D02*
Y537D01*
X253*
X259Y534*
X262Y528*
X259Y521*
X253Y518*
X231*
X253D02*
X262Y499D01*
X281Y509D02*
X284Y515D01*
X291Y518*
X297*
X303Y515*
X306Y509*
X303Y503*
X297Y499*
X291*
X284Y503*
X281Y509*
Y518*
X284Y528*
X291Y534*
X297Y537*
X276Y1140D02*
X322Y1145D01*
X322Y1039*
X323Y1030*
X326Y1024*
X329Y1019*
X332Y1016*
X335Y1014*
X337Y1012*
X341Y1011*
X345Y1010*
X349Y1009*
X352Y1009*
X356Y1009*
X359Y1009*
X363Y1010*
X366Y1011*
X369Y1012*
X373Y1013*
X376Y1015*
X380Y1018*
X384Y1021*
X387Y1025*
X389Y1029*
X391Y1032*
X393Y1036*
X394Y1040*
X394Y1045*
X395Y1051*
X395Y1140*
X441Y1145*
X441Y980*
X397Y977*
X397Y999*
X394Y994*
X389Y990*
X385Y986*
X381Y983*
X376Y981*
X371Y979*
X365Y977*
X362Y976*
X357Y975*
X351Y975*
X346Y974*
X342Y974*
X337Y974*
X332Y975*
X328Y975*
X325Y976*
X322Y976*
X322Y928*
X277Y922*
X276Y1140*
G36*
X322Y1145*
X322Y1039*
X323Y1030*
X326Y1024*
X329Y1019*
X332Y1016*
X335Y1014*
X337Y1012*
X341Y1011*
X345Y1010*
X349Y1009*
X352Y1009*
X356Y1009*
X359Y1009*
X363Y1010*
X366Y1011*
X369Y1012*
X373Y1013*
X376Y1015*
X380Y1018*
X384Y1021*
X387Y1025*
X389Y1029*
X391Y1032*
X393Y1036*
X394Y1040*
X394Y1045*
X395Y1051*
X395Y1140*
X441Y1145*
X441Y980*
X397Y977*
X397Y999*
X394Y994*
X389Y990*
X385Y986*
X381Y983*
X376Y981*
X371Y979*
X365Y977*
X362Y976*
X357Y975*
X351Y975*
X346Y974*
X342Y974*
X337Y974*
X332Y975*
X328Y975*
X325Y976*
X322Y976*
X322Y928*
X277Y922*
X276Y1140*
G37*
X296Y1705D02*
Y1865D01*
X226*
Y1705*
X296*
X362Y1556D02*
X359Y1553D01*
X353Y1549*
X344*
X337Y1553*
X334Y1556*
X331Y1562*
Y1574*
X334Y1581*
X337Y1584*
X344Y1587*
X353*
X359Y1584*
X362Y1581*
X384Y1553D02*
X391Y1549D01*
X397*
X403Y1553*
X406Y1559*
X403Y1565*
X397Y1568*
X391*
X397D02*
X403Y1571D01*
X406Y1578*
X403Y1584*
X397Y1587*
X391*
X384Y1584*
X353Y1351D02*
X121Y1165D01*
X145Y1141*
X354Y1307*
X535Y1168*
X557Y1190*
X354Y1351*
X354Y1377*
X584Y1190*
X532Y1137*
X532Y941*
X332Y941*
X332Y962*
X519Y962*
X519Y1152*
X354Y1281*
X190Y1151*
Y964*
X265Y964*
Y910*
X332Y918*
X332Y940*
X345Y941*
X345Y902*
X256Y889*
X256Y944*
X177Y944*
X176Y1140*
X145Y1112*
X94Y1165*
X178Y1234*
X178Y1339*
X267*
X267Y1307*
X251Y1296*
X251Y1323*
X192*
X192Y1247*
X267Y1307*
X354Y1377*
X353Y1351*
G36*
X121Y1165*
X145Y1141*
X354Y1307*
X535Y1168*
X557Y1190*
X354Y1351*
X354Y1377*
X584Y1190*
X532Y1137*
X532Y941*
X332Y941*
X332Y962*
X519Y962*
X519Y1152*
X354Y1281*
X190Y1151*
Y964*
X265Y964*
Y910*
X332Y918*
X332Y940*
X345Y941*
X345Y902*
X256Y889*
X256Y944*
X177Y944*
X176Y1140*
X145Y1112*
X94Y1165*
X178Y1234*
X178Y1339*
X267*
X267Y1307*
X251Y1296*
X251Y1323*
X192*
X192Y1247*
X267Y1307*
X354Y1377*
X353Y1351*
G37*
X421Y129D02*
Y167D01*
X443*
X449Y164*
X452Y158*
X449Y151*
X443Y148*
X421*
X443D02*
X452Y129D01*
X481Y148D02*
X487D01*
X493Y151*
X496Y158*
X493Y164*
X487Y167*
X481*
X474Y164*
X471Y158*
X474Y151*
X481Y148*
X474Y145*
X471Y139*
X474Y133*
X481Y129*
X487*
X493Y133*
X496Y139*
X493Y145*
X487Y148*
X421Y229D02*
Y267D01*
X443*
X449Y264*
X452Y258*
X449Y251*
X443Y248*
X421*
X443D02*
X452Y229D01*
X481D02*
X487Y233D01*
X493Y239*
X496Y248*
Y258*
X493Y264*
X487Y267*
X481*
X474Y264*
X471Y258*
X474Y251*
X481Y248*
X487*
X493Y251*
X496Y258*
X426Y1685D02*
X586D01*
Y1755*
X426*
Y1685*
Y1855D02*
X586D01*
Y1925*
X426*
Y1855*
X468Y437D02*
Y384D01*
X345*
Y437*
X468*
X481Y355D02*
X321D01*
Y285*
X481*
Y355*
X486Y1555D02*
G75*
G02X586Y1455J-100D01*
G01*
G75*
G02X486Y1355I-100*
G01*
G75*
G02X386Y1455J100*
G01*
G75*
G02X486Y1555I100*
G01*
X491Y535D02*
X331D01*
Y465*
X491*
Y535*
X526Y110D02*
X686D01*
Y180*
X526*
Y110*
X583Y1580D02*
Y1555D01*
X571Y1568D02*
X596D01*
X595Y984D02*
Y1037D01*
X718*
Y984*
X595*
X606Y1699D02*
Y1737D01*
X628*
X634Y1734*
X637Y1728*
X634Y1721*
X628Y1718*
X606*
X628D02*
X637Y1699D01*
X681D02*
X656D01*
X678Y1721*
X681Y1728*
X678Y1734*
X672Y1737*
X662*
X656Y1734*
X642Y941D02*
X639Y938D01*
X633Y934*
X624*
X617Y938*
X614Y941*
X611Y947*
Y959*
X614Y966*
X617Y969*
X624Y972*
X633*
X639Y969*
X642Y966*
X661Y938D02*
X667Y934D01*
X677*
X683Y938*
X686Y944*
Y947*
X683Y953*
X677Y956*
X661*
Y972*
X686*
X616Y1869D02*
Y1907D01*
X638*
X644Y1904*
X647Y1898*
X644Y1891*
X638Y1888*
X616*
X638D02*
X647Y1869D01*
X672D02*
X685D01*
X679D02*
Y1907D01*
X672Y1901*
X660Y1079D02*
Y1132D01*
X783*
Y1079*
X660*
X712Y1151D02*
X709Y1148D01*
X703Y1144*
X694*
X687Y1148*
X684Y1151*
X681Y1157*
Y1169*
X684Y1176*
X687Y1179*
X694Y1182*
X703*
X709Y1179*
X712Y1176*
X747Y1144D02*
Y1182D01*
X731Y1157*
X756*
X686Y275D02*
X526D01*
Y205*
X686*
Y275*
X698Y441D02*
Y299D01*
X514*
Y441*
X601*
Y436*
X611*
Y441*
X698*
X753Y315D02*
X716Y299D01*
X753Y284*
X716Y265D02*
X753D01*
Y243*
X750Y237*
X744Y234*
X737Y237*
X734Y243*
Y265*
Y243D02*
X716Y234D01*
Y209D02*
Y196D01*
Y203D02*
X753D01*
X747Y209*
X744Y472D02*
Y905D01*
X547*
Y472*
X744*
X781Y727D02*
Y699D01*
X784Y693*
X791Y689*
X803*
X809Y693*
X812Y699*
Y727*
X834Y693D02*
X841Y689D01*
X847*
X853Y693*
X856Y699*
X853Y705*
X847Y708*
X841*
X847D02*
X853Y711D01*
X856Y718*
X853Y724*
X847Y727*
X841*
X834Y724*
X816Y1750D02*
Y1838D01*
X814*
X816Y445D02*
Y285D01*
X886*
Y445*
X816*
Y914D02*
Y952D01*
X838*
X844Y949*
X847Y943*
X844Y936*
X838Y933*
X816*
X838D02*
X847Y914D01*
X882D02*
Y952D01*
X866Y927*
X891*
X821Y464D02*
Y502D01*
X843*
X849Y499*
X852Y493*
X849Y486*
X843Y483*
X821*
X843D02*
X852Y464D01*
X871Y468D02*
X877Y464D01*
X887*
X893Y468*
X896Y474*
Y477*
X893Y483*
X887Y486*
X871*
Y502*
X896*
X825Y1929D02*
Y1862D01*
X824*
X831Y1130D02*
Y970D01*
X901*
Y1130*
X831*
X886Y1302D02*
Y1274D01*
X889Y1268*
X896Y1264*
X908*
X914Y1268*
X917Y1274*
Y1302*
X961Y1264D02*
X936D01*
X958Y1286*
X961Y1293*
X958Y1299*
X952Y1302*
X942*
X936Y1299*
X937Y1930D02*
X755D01*
Y1860*
X937*
Y1930*
X966Y1884D02*
Y1922D01*
X985*
X991Y1919*
X994Y1916*
X997Y1909*
Y1897*
X994Y1891*
X991Y1888*
X985Y1884*
X966*
X1019Y1888D02*
X1026Y1884D01*
X1032*
X1038Y1888*
X1041Y1894*
X1038Y1900*
X1032Y1903*
X1026*
X1032D02*
X1038Y1906D01*
X1041Y1913*
X1038Y1919*
X1032Y1922*
X1026*
X1019Y1919*
X969Y1839D02*
X723D01*
Y1751*
X969*
Y1839*
X991Y1769D02*
Y1807D01*
X1010*
X1016Y1804*
X1019Y1801*
X1022Y1794*
Y1782*
X1019Y1776*
X1016Y1773*
X1010Y1769*
X991*
X1057D02*
Y1807D01*
X1041Y1782*
X1066*
X1152Y1101D02*
X1149Y1098D01*
X1143Y1094*
X1134*
X1127Y1098*
X1124Y1101*
X1121Y1107*
Y1119*
X1124Y1126*
X1127Y1129*
X1134Y1132*
X1143*
X1149Y1129*
X1152Y1126*
X1171Y1104D02*
X1174Y1110D01*
X1181Y1113*
X1187*
X1193Y1110*
X1196Y1104*
X1193Y1098*
X1187Y1094*
X1181*
X1174Y1098*
X1171Y1104*
Y1113*
X1174Y1123*
X1181Y1129*
X1187Y1132*
X1126Y1725D02*
Y1315D01*
X716*
Y1725*
X915*
Y1719*
X927*
Y1725*
X1126*
X1192Y626D02*
X1189Y623D01*
X1183Y619*
X1174*
X1167Y623*
X1164Y626*
X1161Y632*
Y644*
X1164Y651*
X1167Y654*
X1174Y657*
X1183*
X1189Y654*
X1192Y651*
X1211Y619D02*
X1236Y657D01*
X1211*
X1246Y1694D02*
Y1732D01*
X1265*
X1271Y1729*
X1274Y1726*
X1277Y1719*
Y1707*
X1274Y1701*
X1271Y1698*
X1265Y1694*
X1246*
X1321D02*
X1296D01*
X1318Y1716*
X1321Y1723*
X1318Y1729*
X1312Y1732*
X1302*
X1296Y1729*
X1247Y1678D02*
Y1432D01*
X1335*
Y1678*
X1247*
X1297Y521D02*
X1294Y518D01*
X1288Y514*
X1279*
X1272Y518*
X1269Y521*
X1266Y527*
Y539*
X1269Y546*
X1272Y549*
X1279Y552*
X1288*
X1294Y549*
X1297Y546*
X1326Y533D02*
X1332D01*
X1338Y536*
X1341Y543*
X1338Y549*
X1332Y552*
X1326*
X1319Y549*
X1316Y543*
X1319Y536*
X1326Y533*
X1319Y530*
X1316Y524*
X1319Y518*
X1326Y514*
X1332*
X1338Y518*
X1341Y524*
X1338Y530*
X1332Y533*
X1326Y1030D02*
Y1320D01*
G75*
G03X1216I-55*
G01*
Y1030*
G75*
G03X1326I55*
G01*
X1337Y1525D02*
X1248D01*
Y1523*
X1359Y395D02*
Y420D01*
X1372Y408D02*
X1347D01*
X1456Y420D02*
G75*
G02X1356Y520J100D01*
G01*
G75*
G02X1456Y620I100*
G01*
G75*
G02X1556Y520J-100*
G01*
G75*
G02X1456Y420I-100*
G01*
Y713D02*
X1431D01*
X1444Y726D02*
Y701D01*
X1516Y805D02*
G75*
G02X1356Y645I-160D01*
G01*
G75*
G02X1196Y805J160*
G01*
G75*
G02X1356Y965I160*
G01*
G75*
G02X1516Y805J-160*
G01*
X1536Y964D02*
Y1002D01*
X1555*
X1561Y999*
X1564Y996*
X1567Y989*
Y977*
X1564Y971*
X1561Y968*
X1555Y964*
X1536*
X1586Y968D02*
X1592Y964D01*
X1602*
X1608Y968*
X1611Y974*
Y977*
X1608Y983*
X1602Y986*
X1586*
Y1002*
X1611*
X1682Y381D02*
X1679Y378D01*
X1673Y374*
X1664*
X1657Y378*
X1654Y381*
X1651Y387*
Y399*
X1654Y406*
X1657Y409*
X1664Y412*
X1673*
X1679Y409*
X1682Y406*
X1711Y374D02*
X1717Y378D01*
X1723Y384*
X1726Y393*
Y403*
X1723Y409*
X1717Y412*
X1711*
X1704Y409*
X1701Y403*
X1704Y396*
X1711Y393*
X1717*
X1723Y396*
X1726Y403*
X1731Y940D02*
Y1028D01*
X1729*
X1786Y877D02*
Y839D01*
X1817*
X1842D02*
X1855D01*
X1849D02*
Y877D01*
X1842Y871*
X1796Y437D02*
Y409D01*
X1799Y403*
X1806Y399*
X1818*
X1824Y403*
X1827Y409*
Y437*
X1862Y399D02*
Y437D01*
X1846Y412*
X1871*
X1868Y417D02*
Y364D01*
X1745*
Y417*
X1868*
X1884Y1029D02*
X1638D01*
Y941*
X1884*
Y1029*
X1902Y574D02*
Y456D01*
X1760*
Y574*
X1816*
Y559*
X1846*
Y574*
X1902*
X1937Y631D02*
X1934Y628D01*
X1928Y624*
X1919*
X1912Y628*
X1909Y631*
X1906Y637*
Y649*
X1909Y656*
X1912Y659*
X1919Y662*
X1928*
X1934Y659*
X1937Y656*
X1962Y624D02*
X1975D01*
X1969D02*
Y662D01*
X1962Y656*
X2009Y628D02*
X2016Y624D01*
X2022*
X2028Y628*
X2031Y634*
Y653*
X2028Y659*
X2022Y662*
X2016*
X2009Y659*
X2006Y653*
Y634*
X2009Y628*
X2028Y659*
X1940Y1074D02*
X1383D01*
Y1807*
X1940*
Y1446*
X1933*
Y1434*
X1940*
Y1074*
X1987Y1759D02*
Y1797D01*
X1971D02*
X2002D01*
X2027Y1759D02*
X2040D01*
X2034D02*
Y1797D01*
X2027Y1791*
X2023Y732D02*
Y679D01*
X1900*
Y732*
X2023*
X2036Y1594D02*
Y1632D01*
X2055*
X2061Y1629*
X2064Y1626*
X2067Y1619*
Y1607*
X2064Y1601*
X2061Y1598*
X2055Y1594*
X2036*
X2092D02*
X2105D01*
X2099D02*
Y1632D01*
X2092Y1626*
X2132Y1304D02*
Y1556D01*
X2010*
Y1304*
X2132*
X2167Y1001D02*
X2164Y998D01*
X2158Y994*
X2149*
X2142Y998*
X2139Y1001*
X2136Y1007*
Y1019*
X2139Y1026*
X2142Y1029*
X2149Y1032*
X2158*
X2164Y1029*
X2167Y1026*
X2211Y994D02*
X2186D01*
X2208Y1016*
X2211Y1023*
X2208Y1029*
X2202Y1032*
X2192*
X2186Y1029*
X2166Y1190D02*
G75*
G02X2366Y1390I200D01*
G01*
G75*
G02X2566Y1190J-200*
G01*
G75*
G02X2366Y990I-200*
G01*
G75*
G02X2166Y1190J200*
G01*
X2241Y1282D02*
X2266D01*
X2254Y1269D02*
Y1294D01*
X2241Y1884D02*
Y1922D01*
X2272*
X2266Y1903D02*
X2241D01*
X2297Y1884D02*
X2310D01*
X2304D02*
Y1922D01*
X2297Y1916*
X2487Y884D02*
Y922D01*
X2471D02*
X2502D01*
X2546Y884D02*
X2521D01*
X2543Y906*
X2546Y913*
X2543Y919*
X2537Y922*
X2527*
X2521Y919*
X2496Y1497D02*
X2512Y1459D01*
X2527Y1497*
X2546Y1459D02*
X2562Y1497D01*
X2577Y1459*
X2552Y1475D02*
X2571D01*
X2596Y1459D02*
Y1497D01*
X2618*
X2624Y1494*
X2627Y1488*
X2624Y1481*
X2618Y1478*
X2596*
X2618D02*
X2627Y1459D01*
X2652D02*
X2665D01*
X2659D02*
Y1497D01*
X2652Y1491*
X2573Y403D02*
X2169D01*
Y847*
X2573*
Y631*
X2573*
Y619*
X2573*
Y403*
X2591Y2151D02*
X2594Y2148D01*
X2601Y2144*
X2607Y2148*
X2610Y2151*
Y2182*
X2616*
X2610D02*
X2597D01*
X2647Y2144D02*
X2660D01*
X2654D02*
Y2182D01*
X2647Y2176*
X2696Y600D02*
G75*
G02X2896Y800I200D01*
G01*
G75*
G02X3096Y600J-200*
G01*
G75*
G02X2896Y400I-200*
G01*
G75*
G02X2696Y600J200*
G01*
X2706Y1102D02*
Y1074D01*
X2709Y1068*
X2716Y1064*
X2728*
X2734Y1068*
X2737Y1074*
Y1102*
X2762Y1064D02*
X2775D01*
X2769D02*
Y1102D01*
X2762Y1096*
X2706Y1493D02*
Y2193D01*
X3056*
Y1518*
X3031Y1493*
X2706*
X2771Y692D02*
X2796D01*
X2784Y679D02*
Y704D01*
X3077Y416D02*
X3074Y413D01*
X3068Y409*
X3059*
X3052Y413*
X3049Y416*
X3046Y422*
Y434*
X3049Y441*
X3052Y444*
X3059Y447*
X3068*
X3074Y444*
X3077Y441*
X3102Y409D02*
X3115D01*
X3109D02*
Y447D01*
X3102Y441*
X3066Y1203D02*
X2804D01*
Y893*
X3066*
Y1203*
D02*
D11*
X2015Y845D02*
Y858D01*
X2022Y851D02*
X2009D01*
X2020Y872D02*
X2022Y875D01*
Y878*
X2020Y881*
X2017Y883*
X2014Y881*
X2012Y878*
Y875*
Y878D02*
X2011Y881D01*
X2007Y883*
X2004Y881*
X2003Y878*
Y875*
X2004Y872*
X2022Y897D02*
X2020Y898D01*
X2018Y897*
X2020Y895*
X2022Y897*
X2020Y922D02*
X2022Y925D01*
Y928*
X2020Y931*
X2017Y933*
X2014Y931*
X2012Y928*
Y925*
Y928D02*
X2011Y931D01*
X2007Y933*
X2004Y931*
X2003Y928*
Y925*
X2004Y922*
X2003Y945D02*
X2022Y953D01*
X2003Y961*
X2846Y991D02*
X2859D01*
X2852Y985D02*
Y997D01*
D02*
D12*
X3016Y1006D02*
X3029D01*
X3091Y2047D02*
Y2017D01*
X3116*
X3113Y1620D02*
X3121D01*
Y1617*
X3118Y1612*
X3116Y1610*
X3111Y1607*
X3106*
X3101Y1610*
X3099Y1612*
X3096Y1617*
Y1627*
X3099Y1632*
X3101Y1635*
X3106Y1637*
X3111*
X3116Y1635*
X3118Y1632*
X3121Y1627*
X3096Y1822D02*
Y1852D01*
X3121Y1822*
Y1852*
D02*
D13*
X2656Y1805D02*
G75*
G03X2344I-156D01*
G01*
G75*
G03X2656I156*
G01*
D02*
D14*
X1584Y792D02*
Y737D01*
X1749Y792D02*
Y737D01*
X2609Y524D02*
G75*
G03X2598Y536I-5J6D01*
G01*
G75*
G03X2609Y524I5J-6*
G01*
X2614Y674D02*
G75*
G03X2603Y686I-5J6D01*
G01*
G75*
G03X2614Y674I5J-6*
G01*
D02*
D15*
X1945Y757D02*
G75*
G02X1977I16J-7D01*
G01*
X2036*
Y824*
X1977*
G75*
G02X1945I-16J7*
G01*
X1886*
Y757*
X1945*
D02*
D16*
X1932Y780D02*
Y800D01*
X1912*
Y780*
X1932*
G36*
Y800*
X1912*
Y780*
X1932*
G37*
X2010D02*
Y800D01*
X1991*
Y780*
X2010*
G36*
Y800*
X1991*
Y780*
X2010*
G37*
D02*
D17*
X2028Y766D02*
Y769D01*
Y768D02*
X2019D01*
X2020Y766*
D02*
D18*
X2051Y781D02*
X2054Y778D01*
X2061Y774*
X2067Y778*
X2070Y781*
Y812*
X2076*
X2070D02*
X2057D01*
X2126Y774D02*
X2101D01*
X2123Y796*
X2126Y803*
X2123Y809*
X2117Y812*
X2107*
X2101Y809*
X0Y0D02*
M02*
