%FSLAX23Y23*%
%MOIN*%
G04 EasyPC Gerber Version 17.0 Build 3379 *
%ADD10C,0.00500*%
%ADD125C,0.10000*%
X0Y0D02*
D02*
D10*
X566Y2044D02*
X582Y2082D01*
X597Y2044*
X572Y2060D02*
X591D01*
X586Y1464D02*
Y1502D01*
X617*
X611Y1483D02*
X586D01*
Y1464D02*
X617D01*
X586Y1564D02*
Y1602D01*
X617*
X611Y1583D02*
X586D01*
Y1564D02*
X617D01*
X763Y2088D02*
X769Y2085D01*
X772Y2079*
X769Y2073*
X763Y2069*
X741*
Y2107*
X763*
X769Y2104*
X772Y2098*
X769Y2091*
X763Y2088*
X741*
X763Y2188D02*
X769Y2185D01*
X772Y2179*
X769Y2173*
X763Y2169*
X741*
Y2207*
X763*
X769Y2204*
X772Y2198*
X769Y2191*
X763Y2188*
X741*
X863Y2088D02*
X869Y2085D01*
X872Y2079*
X869Y2073*
X863Y2069*
X841*
Y2107*
X863*
X869Y2104*
X872Y2098*
X869Y2091*
X863Y2088*
X841*
X863Y2188D02*
X869Y2185D01*
X872Y2179*
X869Y2173*
X863Y2169*
X841*
Y2207*
X863*
X869Y2204*
X872Y2198*
X869Y2191*
X863Y2188*
X841*
X846Y424D02*
X862Y462D01*
X877Y424*
X852Y440D02*
X871D01*
X902Y1436D02*
X899Y1433D01*
X893Y1429*
X884*
X877Y1433*
X874Y1436*
X871Y1442*
Y1454*
X874Y1461*
X877Y1464*
X884Y1467*
X893*
X899Y1464*
X902Y1461*
Y1536D02*
X899Y1533D01*
X893Y1529*
X884*
X877Y1533*
X874Y1536*
X871Y1542*
Y1554*
X874Y1561*
X877Y1564*
X884Y1567*
X893*
X899Y1564*
X902Y1561*
Y1636D02*
X899Y1633D01*
X893Y1629*
X884*
X877Y1633*
X874Y1636*
X871Y1642*
Y1654*
X874Y1661*
X877Y1664*
X884Y1667*
X893*
X899Y1664*
X902Y1661*
Y1736D02*
X899Y1733D01*
X893Y1729*
X884*
X877Y1733*
X874Y1736*
X871Y1742*
Y1754*
X874Y1761*
X877Y1764*
X884Y1767*
X893*
X899Y1764*
X902Y1761*
X963Y2088D02*
X969Y2085D01*
X972Y2079*
X969Y2073*
X963Y2069*
X941*
Y2107*
X963*
X969Y2104*
X972Y2098*
X969Y2091*
X963Y2088*
X941*
X963Y2188D02*
X969Y2185D01*
X972Y2179*
X969Y2173*
X963Y2169*
X941*
Y2207*
X963*
X969Y2204*
X972Y2198*
X969Y2191*
X963Y2188*
X941*
X1063Y2088D02*
X1069Y2085D01*
X1072Y2079*
X1069Y2073*
X1063Y2069*
X1041*
Y2107*
X1063*
X1069Y2104*
X1072Y2098*
X1069Y2091*
X1063Y2088*
X1041*
X1063Y2188D02*
X1069Y2185D01*
X1072Y2179*
X1069Y2173*
X1063Y2169*
X1041*
Y2207*
X1063*
X1069Y2204*
X1072Y2198*
X1069Y2191*
X1063Y2188*
X1041*
X1081Y1219D02*
X1097Y1257D01*
X1112Y1219*
X1087Y1235D02*
X1106D01*
X1123Y288D02*
X1129Y285D01*
X1132Y279*
X1129Y273*
X1123Y269*
X1101*
Y307*
X1123*
X1129Y304*
X1132Y298*
X1129Y291*
X1123Y288*
X1101*
X1123Y388D02*
X1129Y385D01*
X1132Y379*
X1129Y373*
X1123Y369*
X1101*
Y407*
X1123*
X1129Y404*
X1132Y398*
X1129Y391*
X1123Y388*
X1101*
X1126Y1274D02*
X1142Y1312D01*
X1157Y1274*
X1132Y1290D02*
X1151D01*
X1163Y2088D02*
X1169Y2085D01*
X1172Y2079*
X1169Y2073*
X1163Y2069*
X1141*
Y2107*
X1163*
X1169Y2104*
X1172Y2098*
X1169Y2091*
X1163Y2088*
X1141*
X1163Y2188D02*
X1169Y2185D01*
X1172Y2179*
X1169Y2173*
X1163Y2169*
X1141*
Y2207*
X1163*
X1169Y2204*
X1172Y2198*
X1169Y2191*
X1163Y2188*
X1141*
X1156Y1209D02*
X1172Y1247D01*
X1187Y1209*
X1162Y1225D02*
X1181D01*
X1202Y1436D02*
X1199Y1433D01*
X1193Y1429*
X1184*
X1177Y1433*
X1174Y1436*
X1171Y1442*
Y1454*
X1174Y1461*
X1177Y1464*
X1184Y1467*
X1193*
X1199Y1464*
X1202Y1461*
Y1536D02*
X1199Y1533D01*
X1193Y1529*
X1184*
X1177Y1533*
X1174Y1536*
X1171Y1542*
Y1554*
X1174Y1561*
X1177Y1564*
X1184Y1567*
X1193*
X1199Y1564*
X1202Y1561*
Y1636D02*
X1199Y1633D01*
X1193Y1629*
X1184*
X1177Y1633*
X1174Y1636*
X1171Y1642*
Y1654*
X1174Y1661*
X1177Y1664*
X1184Y1667*
X1193*
X1199Y1664*
X1202Y1661*
Y1736D02*
X1199Y1733D01*
X1193Y1729*
X1184*
X1177Y1733*
X1174Y1736*
X1171Y1742*
Y1754*
X1174Y1761*
X1177Y1764*
X1184Y1767*
X1193*
X1199Y1764*
X1202Y1761*
X1223Y288D02*
X1229Y285D01*
X1232Y279*
X1229Y273*
X1223Y269*
X1201*
Y307*
X1223*
X1229Y304*
X1232Y298*
X1229Y291*
X1223Y288*
X1201*
X1223Y388D02*
X1229Y385D01*
X1232Y379*
X1229Y373*
X1223Y369*
X1201*
Y407*
X1223*
X1229Y404*
X1232Y398*
X1229Y391*
X1223Y388*
X1201*
X1263Y2088D02*
X1269Y2085D01*
X1272Y2079*
X1269Y2073*
X1263Y2069*
X1241*
Y2107*
X1263*
X1269Y2104*
X1272Y2098*
X1269Y2091*
X1263Y2088*
X1241*
X1263Y2188D02*
X1269Y2185D01*
X1272Y2179*
X1269Y2173*
X1263Y2169*
X1241*
Y2207*
X1263*
X1269Y2204*
X1272Y2198*
X1269Y2191*
X1263Y2188*
X1241*
X1323Y288D02*
X1329Y285D01*
X1332Y279*
X1329Y273*
X1323Y269*
X1301*
Y307*
X1323*
X1329Y304*
X1332Y298*
X1329Y291*
X1323Y288*
X1301*
X1323Y388D02*
X1329Y385D01*
X1332Y379*
X1329Y373*
X1323Y369*
X1301*
Y407*
X1323*
X1329Y404*
X1332Y398*
X1329Y391*
X1323Y388*
X1301*
X1363Y2088D02*
X1369Y2085D01*
X1372Y2079*
X1369Y2073*
X1363Y2069*
X1341*
Y2107*
X1363*
X1369Y2104*
X1372Y2098*
X1369Y2091*
X1363Y2088*
X1341*
X1363Y2188D02*
X1369Y2185D01*
X1372Y2179*
X1369Y2173*
X1363Y2169*
X1341*
Y2207*
X1363*
X1369Y2204*
X1372Y2198*
X1369Y2191*
X1363Y2188*
X1341*
X1393Y1106D02*
X1399Y1102D01*
X1402Y1096*
X1399Y1090*
X1393Y1087*
X1371*
Y1124*
X1393*
X1399Y1121*
X1402Y1115*
X1399Y1109*
X1393Y1106*
X1371*
X1393Y1401D02*
X1399Y1398D01*
X1402Y1391*
X1399Y1385*
X1393Y1382*
X1371*
Y1420*
X1393*
X1399Y1416*
X1402Y1410*
X1399Y1404*
X1393Y1401*
X1371*
X1381Y864D02*
Y902D01*
X1412*
X1406Y883D02*
X1381D01*
Y864D02*
X1412D01*
X1423Y288D02*
X1429Y285D01*
X1432Y279*
X1429Y273*
X1423Y269*
X1401*
Y307*
X1423*
X1429Y304*
X1432Y298*
X1429Y291*
X1423Y288*
X1401*
X1423Y388D02*
X1429Y385D01*
X1432Y379*
X1429Y373*
X1423Y369*
X1401*
Y407*
X1423*
X1429Y404*
X1432Y398*
X1429Y391*
X1423Y388*
X1401*
X1463Y2088D02*
X1469Y2085D01*
X1472Y2079*
X1469Y2073*
X1463Y2069*
X1441*
Y2107*
X1463*
X1469Y2104*
X1472Y2098*
X1469Y2091*
X1463Y2088*
X1441*
X1463Y2188D02*
X1469Y2185D01*
X1472Y2179*
X1469Y2173*
X1463Y2169*
X1441*
Y2207*
X1463*
X1469Y2204*
X1472Y2198*
X1469Y2191*
X1463Y2188*
X1441*
X1523Y288D02*
X1529Y285D01*
X1532Y279*
X1529Y273*
X1523Y269*
X1501*
Y307*
X1523*
X1529Y304*
X1532Y298*
X1529Y291*
X1523Y288*
X1501*
X1523Y388D02*
X1529Y385D01*
X1532Y379*
X1529Y373*
X1523Y369*
X1501*
Y407*
X1523*
X1529Y404*
X1532Y398*
X1529Y391*
X1523Y388*
X1501*
X1531Y864D02*
Y902D01*
X1562*
X1556Y883D02*
X1531D01*
Y864D02*
X1562D01*
X1563Y2088D02*
X1569Y2085D01*
X1572Y2079*
X1569Y2073*
X1563Y2069*
X1541*
Y2107*
X1563*
X1569Y2104*
X1572Y2098*
X1569Y2091*
X1563Y2088*
X1541*
X1563Y2188D02*
X1569Y2185D01*
X1572Y2179*
X1569Y2173*
X1563Y2169*
X1541*
Y2207*
X1563*
X1569Y2204*
X1572Y2198*
X1569Y2191*
X1563Y2188*
X1541*
X1569Y1213D02*
X1578D01*
Y1210*
X1575Y1204*
X1572Y1200*
X1566Y1197*
X1560*
X1553Y1200*
X1550Y1204*
X1547Y1210*
Y1222*
X1550Y1229*
X1553Y1232*
X1560Y1235*
X1566*
X1572Y1232*
X1575Y1229*
X1578Y1222*
X1569Y1817D02*
X1578D01*
Y1814*
X1575Y1808*
X1572Y1805*
X1566Y1802*
X1560*
X1553Y1805*
X1550Y1808*
X1547Y1814*
Y1827*
X1550Y1833*
X1553Y1836*
X1560Y1839*
X1566*
X1572Y1836*
X1575Y1833*
X1578Y1827*
X1556Y529D02*
Y567D01*
X1587*
X1581Y548D02*
X1556D01*
Y529D02*
X1587D01*
X1556Y629D02*
Y667D01*
X1587*
X1581Y648D02*
X1556D01*
Y629D02*
X1587D01*
X1623Y288D02*
X1629Y285D01*
X1632Y279*
X1629Y273*
X1623Y269*
X1601*
Y307*
X1623*
X1629Y304*
X1632Y298*
X1629Y291*
X1623Y288*
X1601*
X1623Y388D02*
X1629Y385D01*
X1632Y379*
X1629Y373*
X1623Y369*
X1601*
Y407*
X1623*
X1629Y404*
X1632Y398*
X1629Y391*
X1623Y388*
X1601*
X1663Y2088D02*
X1669Y2085D01*
X1672Y2079*
X1669Y2073*
X1663Y2069*
X1641*
Y2107*
X1663*
X1669Y2104*
X1672Y2098*
X1669Y2091*
X1663Y2088*
X1641*
X1663Y2188D02*
X1669Y2185D01*
X1672Y2179*
X1669Y2173*
X1663Y2169*
X1641*
Y2207*
X1663*
X1669Y2204*
X1672Y2198*
X1669Y2191*
X1663Y2188*
X1641*
X1676Y1817D02*
X1685D01*
Y1814*
X1682Y1808*
X1679Y1805*
X1673Y1802*
X1667*
X1660Y1805*
X1657Y1808*
X1654Y1814*
Y1827*
X1657Y1833*
X1660Y1836*
X1667Y1839*
X1673*
X1679Y1836*
X1682Y1833*
X1685Y1827*
X1706Y1213D02*
X1715D01*
Y1210*
X1712Y1204*
X1709Y1200*
X1703Y1197*
X1697*
X1690Y1200*
X1687Y1204*
X1684Y1210*
Y1222*
X1687Y1229*
X1690Y1232*
X1697Y1235*
X1703*
X1709Y1232*
X1712Y1229*
X1715Y1222*
X1723Y288D02*
X1729Y285D01*
X1732Y279*
X1729Y273*
X1723Y269*
X1701*
Y307*
X1723*
X1729Y304*
X1732Y298*
X1729Y291*
X1723Y288*
X1701*
X1723Y388D02*
X1729Y385D01*
X1732Y379*
X1729Y373*
X1723Y369*
X1701*
Y407*
X1723*
X1729Y404*
X1732Y398*
X1729Y391*
X1723Y388*
X1701*
X1783Y1817D02*
X1792D01*
Y1814*
X1789Y1808*
X1786Y1805*
X1780Y1802*
X1774*
X1767Y1805*
X1764Y1808*
X1761Y1814*
Y1827*
X1764Y1833*
X1767Y1836*
X1774Y1839*
X1780*
X1786Y1836*
X1789Y1833*
X1792Y1827*
X1781Y524D02*
X1797Y562D01*
X1812Y524*
X1787Y540D02*
X1806D01*
X1823Y288D02*
X1829Y285D01*
X1832Y279*
X1829Y273*
X1823Y269*
X1801*
Y307*
X1823*
X1829Y304*
X1832Y298*
X1829Y291*
X1823Y288*
X1801*
X1823Y388D02*
X1829Y385D01*
X1832Y379*
X1829Y373*
X1823Y369*
X1801*
Y407*
X1823*
X1829Y404*
X1832Y398*
X1829Y391*
X1823Y388*
X1801*
X1823Y2088D02*
X1829Y2085D01*
X1832Y2079*
X1829Y2073*
X1823Y2069*
X1801*
Y2107*
X1823*
X1829Y2104*
X1832Y2098*
X1829Y2091*
X1823Y2088*
X1801*
X1823Y2188D02*
X1829Y2185D01*
X1832Y2179*
X1829Y2173*
X1823Y2169*
X1801*
Y2207*
X1823*
X1829Y2204*
X1832Y2198*
X1829Y2191*
X1823Y2188*
X1801*
X1859Y1213D02*
X1869D01*
Y1210*
X1866Y1204*
X1863Y1200*
X1856Y1197*
X1850*
X1844Y1200*
X1841Y1204*
X1838Y1210*
Y1222*
X1841Y1229*
X1844Y1232*
X1850Y1235*
X1856*
X1863Y1232*
X1866Y1229*
X1869Y1222*
X1890Y1817D02*
X1900D01*
Y1814*
X1896Y1808*
X1893Y1805*
X1887Y1802*
X1881*
X1875Y1805*
X1871Y1808*
X1868Y1814*
Y1827*
X1871Y1833*
X1875Y1836*
X1881Y1839*
X1887*
X1893Y1836*
X1896Y1833*
X1900Y1827*
X1923Y2088D02*
X1929Y2085D01*
X1932Y2079*
X1929Y2073*
X1923Y2069*
X1901*
Y2107*
X1923*
X1929Y2104*
X1932Y2098*
X1929Y2091*
X1923Y2088*
X1901*
X1923Y2188D02*
X1929Y2185D01*
X1932Y2179*
X1929Y2173*
X1923Y2169*
X1901*
Y2207*
X1923*
X1929Y2204*
X1932Y2198*
X1929Y2191*
X1923Y2188*
X1901*
X1941Y694D02*
X1957Y732D01*
X1972Y694*
X1947Y710D02*
X1966D01*
X1997Y1213D02*
X2007D01*
Y1210*
X2003Y1204*
X2000Y1200*
X1994Y1197*
X1988*
X1982Y1200*
X1979Y1204*
X1975Y1210*
Y1222*
X1979Y1229*
X1982Y1232*
X1988Y1235*
X1994*
X2000Y1232*
X2003Y1229*
X2007Y1222*
X1997Y1817D02*
X2007D01*
Y1814*
X2003Y1808*
X2000Y1805*
X1994Y1802*
X1988*
X1982Y1805*
X1979Y1808*
X1975Y1814*
Y1827*
X1979Y1833*
X1982Y1836*
X1988Y1839*
X1994*
X2000Y1836*
X2003Y1833*
X2007Y1827*
X2023Y288D02*
X2029Y285D01*
X2032Y279*
X2029Y273*
X2023Y269*
X2001*
Y307*
X2023*
X2029Y304*
X2032Y298*
X2029Y291*
X2023Y288*
X2001*
X2023Y388D02*
X2029Y385D01*
X2032Y379*
X2029Y373*
X2023Y369*
X2001*
Y407*
X2023*
X2029Y404*
X2032Y398*
X2029Y391*
X2023Y388*
X2001*
X2023Y2088D02*
X2029Y2085D01*
X2032Y2079*
X2029Y2073*
X2023Y2069*
X2001*
Y2107*
X2023*
X2029Y2104*
X2032Y2098*
X2029Y2091*
X2023Y2088*
X2001*
X2023Y2188D02*
X2029Y2185D01*
X2032Y2179*
X2029Y2173*
X2023Y2169*
X2001*
Y2207*
X2023*
X2029Y2204*
X2032Y2198*
X2029Y2191*
X2023Y2188*
X2001*
X2022Y849D02*
Y887D01*
Y868D02*
X2053D01*
Y849D02*
Y887D01*
X2101Y849D02*
Y887D01*
Y868D02*
X2132D01*
Y849D02*
Y887D01*
X2123Y288D02*
X2129Y285D01*
X2132Y279*
X2129Y273*
X2123Y269*
X2101*
Y307*
X2123*
X2129Y304*
X2132Y298*
X2129Y291*
X2123Y288*
X2101*
X2123Y388D02*
X2129Y385D01*
X2132Y379*
X2129Y373*
X2123Y369*
X2101*
Y407*
X2123*
X2129Y404*
X2132Y398*
X2129Y391*
X2123Y388*
X2101*
X2123Y2088D02*
X2129Y2085D01*
X2132Y2079*
X2129Y2073*
X2123Y2069*
X2101*
Y2107*
X2123*
X2129Y2104*
X2132Y2098*
X2129Y2091*
X2123Y2088*
X2101*
X2123Y2188D02*
X2129Y2185D01*
X2132Y2179*
X2129Y2173*
X2123Y2169*
X2101*
Y2207*
X2123*
X2129Y2204*
X2132Y2198*
X2129Y2191*
X2123Y2188*
X2101*
X2223Y288D02*
X2229Y285D01*
X2232Y279*
X2229Y273*
X2223Y269*
X2201*
Y307*
X2223*
X2229Y304*
X2232Y298*
X2229Y291*
X2223Y288*
X2201*
X2223Y388D02*
X2229Y385D01*
X2232Y379*
X2229Y373*
X2223Y369*
X2201*
Y407*
X2223*
X2229Y404*
X2232Y398*
X2229Y391*
X2223Y388*
X2201*
X2223Y2088D02*
X2229Y2085D01*
X2232Y2079*
X2229Y2073*
X2223Y2069*
X2201*
Y2107*
X2223*
X2229Y2104*
X2232Y2098*
X2229Y2091*
X2223Y2088*
X2201*
X2223Y2188D02*
X2229Y2185D01*
X2232Y2179*
X2229Y2173*
X2223Y2169*
X2201*
Y2207*
X2223*
X2229Y2204*
X2232Y2198*
X2229Y2191*
X2223Y2188*
X2201*
X2323Y288D02*
X2329Y285D01*
X2332Y279*
X2329Y273*
X2323Y269*
X2301*
Y307*
X2323*
X2329Y304*
X2332Y298*
X2329Y291*
X2323Y288*
X2301*
X2323Y388D02*
X2329Y385D01*
X2332Y379*
X2329Y373*
X2323Y369*
X2301*
Y407*
X2323*
X2329Y404*
X2332Y398*
X2329Y391*
X2323Y388*
X2301*
X2323Y2088D02*
X2329Y2085D01*
X2332Y2079*
X2329Y2073*
X2323Y2069*
X2301*
Y2107*
X2323*
X2329Y2104*
X2332Y2098*
X2329Y2091*
X2323Y2088*
X2301*
X2323Y2188D02*
X2329Y2185D01*
X2332Y2179*
X2329Y2173*
X2323Y2169*
X2301*
Y2207*
X2323*
X2329Y2204*
X2332Y2198*
X2329Y2191*
X2323Y2188*
X2301*
X2324Y517D02*
Y555D01*
X2355*
X2349Y536D02*
X2324D01*
Y852D02*
Y889D01*
X2355*
X2349Y871D02*
X2324D01*
X2366Y1249D02*
Y1287D01*
X2397*
X2391Y1268D02*
X2366D01*
Y1249D02*
X2397D01*
X2423Y288D02*
X2429Y285D01*
X2432Y279*
X2429Y273*
X2423Y269*
X2401*
Y307*
X2423*
X2429Y304*
X2432Y298*
X2429Y291*
X2423Y288*
X2401*
X2423Y388D02*
X2429Y385D01*
X2432Y379*
X2429Y373*
X2423Y369*
X2401*
Y407*
X2423*
X2429Y404*
X2432Y398*
X2429Y391*
X2423Y388*
X2401*
X2423Y2088D02*
X2429Y2085D01*
X2432Y2079*
X2429Y2073*
X2423Y2069*
X2401*
Y2107*
X2423*
X2429Y2104*
X2432Y2098*
X2429Y2091*
X2423Y2088*
X2401*
X2423Y2188D02*
X2429Y2185D01*
X2432Y2179*
X2429Y2173*
X2423Y2169*
X2401*
Y2207*
X2423*
X2429Y2204*
X2432Y2198*
X2429Y2191*
X2423Y2188*
X2401*
X2523Y288D02*
X2529Y285D01*
X2532Y279*
X2529Y273*
X2523Y269*
X2501*
Y307*
X2523*
X2529Y304*
X2532Y298*
X2529Y291*
X2523Y288*
X2501*
X2523Y388D02*
X2529Y385D01*
X2532Y379*
X2529Y373*
X2523Y369*
X2501*
Y407*
X2523*
X2529Y404*
X2532Y398*
X2529Y391*
X2523Y388*
X2501*
X2523Y2088D02*
X2529Y2085D01*
X2532Y2079*
X2529Y2073*
X2523Y2069*
X2501*
Y2107*
X2523*
X2529Y2104*
X2532Y2098*
X2529Y2091*
X2523Y2088*
X2501*
X2523Y2188D02*
X2529Y2185D01*
X2532Y2179*
X2529Y2173*
X2523Y2169*
X2501*
Y2207*
X2523*
X2529Y2204*
X2532Y2198*
X2529Y2191*
X2523Y2188*
X2501*
X2566Y1249D02*
Y1287D01*
X2597*
X2591Y1268D02*
X2566D01*
Y1249D02*
X2597D01*
X2628Y1783D02*
X2634Y1780D01*
X2637Y1774*
X2634Y1768*
X2628Y1764*
X2606*
Y1802*
X2628*
X2634Y1799*
X2637Y1793*
X2634Y1786*
X2628Y1783*
X2606*
X2628Y1983D02*
X2634Y1980D01*
X2637Y1974*
X2634Y1968*
X2628Y1964*
X2606*
Y2002*
X2628*
X2634Y1999*
X2637Y1993*
X2634Y1986*
X2628Y1983*
X2606*
X2619Y517D02*
Y555D01*
X2650*
X2644Y536D02*
X2619D01*
Y852D02*
Y889D01*
X2650*
X2644Y871D02*
X2619D01*
X2899Y1441D02*
X2896Y1438D01*
X2890Y1435*
X2880*
X2874Y1438*
X2871Y1441*
X2868Y1447*
Y1460*
X2871Y1466*
X2874Y1469*
X2880Y1472*
X2890*
X2896Y1469*
X2899Y1466*
X2896Y659D02*
Y697D01*
X2927*
X2921Y678D02*
X2896D01*
Y659D02*
X2927D01*
X2981Y1703D02*
Y1740D01*
X3000*
X3006Y1737*
X3009Y1734*
X3012Y1728*
Y1715*
X3009Y1709*
X3006Y1706*
X3000Y1703*
X2981*
Y1899D02*
Y1937D01*
X3000*
X3006Y1934*
X3009Y1931*
X3012Y1924*
Y1912*
X3009Y1906*
X3006Y1903*
X3000Y1899*
X2981*
Y2096D02*
Y2134D01*
X3000*
X3006Y2131*
X3009Y2128*
X3012Y2121*
Y2109*
X3009Y2103*
X3006Y2099*
X3000Y2096*
X2981*
X3096Y1378D02*
X3093Y1375D01*
X3087Y1372*
X3077*
X3071Y1375*
X3068Y1378*
X3065Y1384*
Y1397*
X3068Y1403*
X3071Y1406*
X3077Y1409*
X3087*
X3093Y1406*
X3096Y1403*
X3096Y659D02*
Y697D01*
X3127*
X3121Y678D02*
X3096D01*
Y659D02*
X3127D01*
D02*
D125*
X466Y1985D03*
X486Y1405D03*
Y1505D03*
X641Y2010D03*
Y2110D03*
X741Y2010D03*
Y2110D03*
X746Y365D03*
X771Y1370D03*
Y1470D03*
Y1570D03*
Y1670D03*
X841Y2010D03*
Y2110D03*
X941Y2010D03*
Y2110D03*
X981Y1160D03*
X1001Y210D03*
Y310D03*
X1026Y1215D03*
X1041Y2010D03*
Y2110D03*
X1056Y1150D03*
X1071Y1370D03*
Y1470D03*
Y1570D03*
Y1670D03*
X1101Y210D03*
Y310D03*
X1141Y2010D03*
Y2110D03*
X1201Y210D03*
Y310D03*
X1241Y2010D03*
Y2110D03*
X1271Y1027D03*
Y1323D03*
X1281Y805D03*
X1301Y210D03*
Y310D03*
X1341Y2010D03*
Y2110D03*
X1401Y210D03*
Y310D03*
X1431Y805D03*
X1441Y2010D03*
Y2110D03*
X1447Y1138D03*
Y1742D03*
X1456Y470D03*
Y570D03*
X1501Y210D03*
Y310D03*
X1541Y2010D03*
Y2110D03*
X1554Y1742D03*
X1584Y1138D03*
X1601Y210D03*
Y310D03*
X1661Y1742D03*
X1681Y465D03*
X1701Y210D03*
Y310D03*
Y2010D03*
Y2110D03*
X1738Y1138D03*
X1768Y1742D03*
X1801Y2010D03*
Y2110D03*
X1841Y635D03*
X1875Y1138D03*
Y1742D03*
X1901Y210D03*
Y310D03*
Y2010D03*
Y2110D03*
X1922Y790D03*
X2001D03*
X2001Y210D03*
Y310D03*
Y2010D03*
Y2110D03*
X2101Y210D03*
Y310D03*
Y2010D03*
Y2110D03*
X2201Y210D03*
Y310D03*
Y2010D03*
Y2110D03*
X2224Y458D03*
Y792D03*
X2266Y1190D03*
X2301Y210D03*
Y310D03*
Y2010D03*
Y2110D03*
X2401Y210D03*
Y310D03*
Y2010D03*
Y2110D03*
X2466Y1190D03*
X2506Y1705D03*
Y1905D03*
X2519Y458D03*
Y792D03*
X2768Y1376D03*
X2796Y600D03*
X2881Y1643D03*
Y1840D03*
Y2037D03*
X2965Y1313D03*
X2996Y600D03*
X0Y0D02*
M02*
