%FSLAX23Y23*%
%MOIN*%
G04 EasyPC Gerber Version 17.0 Build 3379 *
%ADD16R,0.01969X0.09843*%
%ADD20R,0.02756X0.03346*%
%ADD17R,0.03150X0.04331*%
%ADD21R,0.03937X0.04291*%
%ADD71R,0.05500X0.06000*%
%ADD14R,0.07874X0.09843*%
%ADD22R,0.06000X0.06000*%
%ADD23R,0.06000X0.06000*%
%ADD24C,0.00984*%
%ADD12C,0.01000*%
%ADD13C,0.03189*%
%ADD25C,0.04800*%
%ADD15C,0.06000*%
%ADD19R,0.04291X0.03937*%
%ADD18R,0.06000X0.05500*%
%ADD70C,0.06890*%
X0Y0D02*
D02*
D12*
X508Y1326D02*
X516D01*
X575Y1267*
X683*
X708Y1242*
X1139*
X1193Y1295*
X508Y1426D02*
X516D01*
X567Y1376*
Y1301*
X582Y1285*
X1139*
X1134Y1291*
Y1297*
X510Y982D02*
X602Y889D01*
X811*
X854Y846*
Y679*
X875Y658*
X510Y706D02*
X490D01*
X389Y807*
Y1007*
X508Y1126*
X510Y844D02*
X498D01*
X431Y911*
Y994*
X502Y1065*
X515*
X551Y1100*
Y1183*
X508Y1226*
X514Y596D02*
Y612D01*
X561Y659*
Y744*
X584Y767*
X669*
X701Y799*
X781*
X783Y800*
X610Y982D02*
Y950D01*
X624*
X659Y915*
X846*
X874Y887*
Y728*
X907Y694*
X917*
X927Y685*
Y626*
X911Y610*
X850*
X823Y637*
Y677*
X834Y689*
Y749*
X783Y800*
X708Y1344D02*
X1143D01*
X1193Y1295*
X736Y352D02*
Y314D01*
X785Y265*
X783Y800D02*
Y797D01*
X718Y732*
X789Y619D02*
X812D01*
X850Y580*
X921*
X949Y608*
Y733*
X942Y740*
X941*
X799Y1045D02*
X736Y982D01*
Y960*
X760Y937*
X819*
X834Y952*
Y1023D02*
X791Y980D01*
Y964*
X907Y354D02*
Y301D01*
X872Y265*
X956Y411D02*
Y313D01*
X921Y277*
Y206*
X890Y175*
X872*
X1045Y1442D02*
X1141D01*
X1232Y1352*
Y1248*
X1325Y1155*
Y1059*
X1323Y1057*
X1195*
X1110Y972*
X1082*
X1035Y925*
Y907*
X1043Y899*
Y870*
X1000Y826*
X984*
X1067Y915D02*
Y913D01*
X1075*
X1199Y1037*
X1342*
Y1165*
X1258Y1250*
Y1357*
X1291*
X1093Y846D02*
Y892D01*
X1114Y913*
X1183Y846D02*
Y852D01*
X1334*
X1467Y719*
X1464*
Y713*
X1201Y970D02*
X1236D01*
X1242Y976*
X1545*
X1569Y952*
X1622*
X1212Y1565D02*
X1153D01*
X1084Y1496*
X1220Y742D02*
Y608D01*
X1232Y596*
Y379D02*
X1582D01*
X1232Y596D02*
Y379D01*
X1256Y923D02*
X1452D01*
X1488Y887*
X1297Y1086D02*
Y1076D01*
X1165*
X1086Y1155*
X891*
X860Y1187*
X1370Y1212D02*
Y1023D01*
X1350Y1004*
X1291*
X1285Y1009*
X1389Y713D02*
Y718D01*
X1315Y793*
X1407Y596D02*
Y696D01*
X1389Y713*
X1438Y596D02*
Y687D01*
X1464Y713*
X1470Y596D02*
Y617D01*
X1553Y700*
X1521Y917D02*
X1484Y954D01*
X1240*
X1216Y931*
X1582Y596D02*
Y379D01*
X1622Y952D02*
X1633D01*
X1752Y1070*
Y1269*
X1592Y1429*
X1565*
X1456Y1537*
X1425*
X1354Y1608*
X1307*
X1212Y1702*
X939*
X764Y1527*
D02*
D13*
X718Y732D03*
X791Y964D03*
X799Y1045D03*
X834Y952D03*
Y1023D03*
X956Y411D03*
X984Y826D03*
X996Y966D03*
X1010Y891D03*
X1045Y1442D03*
X1067Y915D03*
X1084Y1496D03*
X1114Y913D03*
X1201Y970D03*
X1212Y1565D03*
X1216Y931D03*
X1256Y923D03*
X1285Y1009D03*
X1297Y1086D03*
X1315Y793D03*
X1370Y1212D03*
X1478Y1269D03*
X1488Y887D03*
X1521Y917D03*
X1553Y830D03*
D02*
D14*
X1232Y379D03*
Y596D03*
X1582Y379D03*
Y596D03*
D02*
D15*
X508Y1126D03*
Y1226D03*
Y1326D03*
Y1426D03*
Y1526D03*
X608Y1226D03*
Y1326D03*
Y1426D03*
Y1526D03*
X1320Y498D03*
X1494D03*
D02*
D16*
X1344Y596D03*
X1375D03*
X1407D03*
X1438D03*
X1470D03*
D02*
D17*
X1389Y713D03*
X1427Y831D03*
X1464Y713D03*
D02*
D18*
X514Y596D03*
X604D03*
X736Y352D03*
X764Y1527D03*
X826Y352D03*
X854Y1527D03*
X907Y354D03*
X997D03*
X1093Y846D03*
X1183D03*
D02*
D19*
X941Y740D03*
X1011D03*
X1150Y742D03*
X1220D03*
X1553Y700D03*
X1623D03*
D02*
D70*
X875Y481D03*
Y658D03*
X1131Y481D03*
Y658D03*
D02*
D71*
X783Y710D03*
Y800D03*
X785Y175D03*
Y265D03*
X872Y175D03*
Y265D03*
X1622Y862D03*
Y952D03*
D02*
D20*
X714Y530D03*
Y619D03*
X752Y530D03*
X789D03*
Y619D03*
D02*
D21*
X949Y949D03*
Y1019D03*
X1291Y1287D03*
Y1357D03*
D02*
D22*
X466Y376D03*
Y476D03*
X510Y982D03*
X510Y706D03*
Y844D03*
X608Y382D03*
Y482D03*
X610Y982D03*
X610Y706D03*
Y844D03*
D02*
D23*
X608Y1126D03*
D02*
D24*
X466Y376D02*
X602D01*
X608Y382*
X466Y476D02*
X476D01*
X559Y559*
Y629*
X586Y657*
X651*
X673Y679*
X751*
X783Y710*
X604Y596D02*
X604D01*
Y584*
X681Y651*
X740*
X742Y653*
Y540*
X752Y530*
X608Y382D02*
Y385D01*
X563Y431*
Y529*
X604Y570*
X604Y596*
X608Y482D02*
Y512D01*
X714Y619*
X608Y482D02*
X614D01*
X695Y401*
X777*
X826Y352*
X714Y530D02*
Y515D01*
X728Y502*
X779*
Y520*
X789Y530*
X783Y710D02*
X766D01*
X760Y704*
Y592*
X785Y567*
X789*
Y530*
X785Y175D02*
Y177D01*
X752*
X738Y191*
Y246*
X608Y376*
Y382*
X826Y352D02*
Y501D01*
X856Y531*
X984*
X1027Y488*
Y384*
X997Y354*
X854Y1527D02*
X858D01*
X929Y1598*
X1218*
X1393Y1423*
Y1335*
X1346Y1287*
X854Y1527D02*
Y1499D01*
X795Y1441*
X723*
X608Y1326*
X949Y949D02*
X979D01*
X996Y966*
X949Y1019D02*
X878D01*
X771Y1126*
X609*
X608Y1126*
X1010Y891D02*
Y923D01*
X1033Y946*
Y1076*
X878*
X779Y1175*
X590*
X553Y1212*
Y1255*
X539Y1269*
X437*
X368Y1200*
Y574*
X466Y476*
X1011Y740D02*
X1148D01*
X1150Y742*
X1131Y481D02*
Y375D01*
X1037Y281*
X998*
X958Y242*
Y124*
X937Y102*
X807*
X785Y124*
Y175*
X1131Y481D02*
Y537D01*
X1171Y576*
Y626*
X1177Y631*
Y649*
X1179Y651*
Y713*
X1150Y742*
X1145Y746*
Y805*
X1138Y813*
Y878*
X1151Y891*
X1354*
X1414Y831*
X1427*
X1150Y742D02*
Y743D01*
X1100Y793*
X972*
X949Y816*
Y949*
X1291Y1287D02*
X1346D01*
X1344Y596D02*
Y687D01*
X1246Y785*
X1193*
X1150Y742*
X1346Y1287D02*
X1460D01*
X1478Y1269*
X1427Y831D02*
X1552D01*
X1553Y830*
X1623Y700D02*
Y699D01*
X1665Y657*
Y291*
X1628Y254*
X1008*
X978Y224*
Y104*
X954Y80*
X781*
X706Y155*
Y226*
X669Y263*
X476*
X399Y340*
Y409*
X427Y437*
Y476*
X466*
X1623Y700D02*
Y861D01*
X1622Y862*
D02*
D25*
X708Y1344D03*
X860Y1187D03*
X1134Y1297D03*
X1193Y1295D03*
X0Y0D02*
M02*
