%FSLAX23Y23*%
%MOIN*%
G04 EasyPC Gerber Version 17.0 Build 3379 *
%ADD96R,0.02181X0.02969*%
%ADD84R,0.04937X0.05291*%
%ADD99R,0.05724X0.08087*%
%ADD82R,0.06500X0.07000*%
%ADD85R,0.07000X0.07000*%
%ADD86R,0.07000X0.07000*%
%ADD98R,0.14780X0.14780*%
%ADD74C,0.04189*%
%ADD97R,0.02969X0.02181*%
%ADD95R,0.06787X0.03559*%
%ADD76C,0.07000*%
%ADD81C,0.07890*%
%ADD79R,0.07000X0.06500*%
X0Y0D02*
D02*
D74*
X718Y732D03*
X791Y964D03*
X799Y1045D03*
X834Y952D03*
Y1023D03*
X956Y411D03*
X984Y826D03*
X996Y966D03*
X1010Y891D03*
X1045Y1442D03*
X1067Y915D03*
X1084Y1496D03*
X1114Y913D03*
X1201Y970D03*
X1212Y1565D03*
X1216Y931D03*
X1256Y923D03*
X1285Y1009D03*
X1297Y1086D03*
X1315Y793D03*
X1370Y1212D03*
X1478Y1269D03*
X1488Y887D03*
X1553Y830D03*
D02*
D76*
X508Y1126D03*
Y1226D03*
Y1326D03*
Y1426D03*
Y1526D03*
X608Y1226D03*
Y1326D03*
Y1426D03*
Y1526D03*
X1320Y498D03*
X1494D03*
D02*
D79*
X1012Y1620D03*
X1102D03*
D02*
D81*
X875Y481D03*
Y658D03*
X1131Y481D03*
Y658D03*
D02*
D82*
X728Y1006D03*
Y1096D03*
X1147Y756D03*
Y846D03*
X1197Y1368D03*
Y1458D03*
X1401Y1368D03*
Y1458D03*
D02*
D84*
X1533Y1270D03*
Y1340D03*
D02*
D85*
X466Y376D03*
Y476D03*
X510Y982D03*
X510Y706D03*
Y844D03*
X608Y382D03*
Y482D03*
X610Y982D03*
X610Y706D03*
Y844D03*
D02*
D86*
X608Y1126D03*
D02*
D95*
X1394Y867D03*
Y917D03*
Y967D03*
Y1017D03*
Y1067D03*
Y1117D03*
Y1167D03*
X1592Y867D03*
Y917D03*
Y967D03*
Y1017D03*
Y1067D03*
Y1117D03*
Y1167D03*
D02*
D96*
X1014Y1017D03*
Y1196D03*
X1033Y1017D03*
Y1196D03*
X1053Y1017D03*
Y1196D03*
X1073Y1017D03*
Y1196D03*
X1092Y1017D03*
Y1196D03*
X1112Y1017D03*
Y1196D03*
X1132Y1017D03*
Y1196D03*
X1151Y1017D03*
Y1196D03*
D02*
D97*
X993Y1038D03*
Y1058D03*
Y1077D03*
Y1097D03*
Y1117D03*
Y1136D03*
Y1156D03*
Y1176D03*
X1172Y1038D03*
Y1058D03*
Y1077D03*
Y1097D03*
Y1117D03*
Y1136D03*
Y1156D03*
Y1176D03*
D02*
D98*
X1082Y1107D03*
D02*
D99*
X800Y1353D03*
Y1510D03*
X895Y1353D03*
Y1510D03*
X0Y0D02*
M02*
