%FSLAX23Y23*%
%MOIN*%
G04 EasyPC Gerber Version 17.0 Build 3379 *
%ADD10C,0.00500*%
X0Y0D02*
D02*
D10*
X709Y1180D02*
X706Y1183D01*
X700Y1186*
X691*
X684Y1183*
X681Y1180*
X678Y1174*
Y1161*
X681Y1155*
X684Y1152*
X691Y1149*
X700*
X706Y1152*
X709Y1155*
X744Y1186D02*
Y1149D01*
X728Y1174*
X753*
X693Y971D02*
Y1131D01*
X763*
Y971*
X693*
X726Y1055D02*
X911Y1074D01*
X909Y649*
X915Y616*
X925Y589*
X937Y571*
X948Y560*
X961Y551*
X971Y544*
X1002Y533*
X1016Y531*
X1030Y531*
X1045Y530*
X1058Y532*
X1073Y535*
X1084Y537*
X1099Y542*
X1112Y547*
X1126Y555*
X1142Y565*
X1158Y580*
X1170Y595*
X1179Y610*
X1187Y623*
X1194Y639*
X1196Y656*
X1199Y673*
X1200Y696*
X1200Y1055*
X1383Y1075*
Y413*
X1211Y402*
X1210Y489*
X1196Y472*
X1177Y454*
X1161Y439*
X1144Y428*
X1125Y418*
X1104Y409*
X1082Y402*
X1068Y399*
X1050Y396*
X1026Y393*
X1007Y392*
X990Y392*
X968*
X951Y393*
X934Y394*
X921Y397*
X909Y399*
Y205*
X727Y184*
X726Y1055*
G36*
X911Y1074*
X909Y649*
X915Y616*
X925Y589*
X937Y571*
X948Y560*
X961Y551*
X971Y544*
X1002Y533*
X1016Y531*
X1030Y531*
X1045Y530*
X1058Y532*
X1073Y535*
X1084Y537*
X1099Y542*
X1112Y547*
X1126Y555*
X1142Y565*
X1158Y580*
X1170Y595*
X1179Y610*
X1187Y623*
X1194Y639*
X1196Y656*
X1199Y673*
X1200Y696*
X1200Y1055*
X1383Y1075*
Y413*
X1211Y402*
X1210Y489*
X1196Y472*
X1177Y454*
X1161Y439*
X1144Y428*
X1125Y418*
X1104Y409*
X1082Y402*
X1068Y399*
X1050Y396*
X1026Y393*
X1007Y392*
X990Y392*
X968*
X951Y393*
X934Y394*
X921Y397*
X909Y399*
Y205*
X727Y184*
X726Y1055*
G37*
X744Y1534D02*
X706Y1502D01*
Y1534D02*
X744Y1502D01*
Y1477D02*
Y1465D01*
Y1471D02*
X706D01*
X712Y1477*
X926Y1553D02*
Y1309D01*
X773*
Y1553*
X926*
X977Y1655D02*
X1137D01*
Y1585*
X977*
Y1655*
X1037Y1277D02*
Y1249D01*
X1034Y1242*
X1028Y1239*
X1015*
X1009Y1242*
X1006Y1249*
Y1277*
X981Y1239D02*
X968D01*
X975D02*
Y1277D01*
X981Y1271*
X1039Y1852D02*
X110Y1107D01*
X206Y1013*
X1042Y1678*
X1764Y1119*
X1855Y1207*
X1040Y1852*
Y1957*
X1961Y1207*
X1755Y995*
Y213*
X952Y213*
X952Y296*
X1700*
Y1057*
X1042Y1571*
X384Y1052*
Y302*
X686*
Y89*
X952Y118*
Y210*
X1006*
X1005Y56*
X648Y2*
X648Y224*
X333*
X331Y1008*
X206Y895*
X2Y1107*
X339Y1383*
Y1802*
X692*
X692Y1676*
X628Y1631*
Y1741*
X395*
Y1434*
X692Y1674*
X1039Y1957*
X1039Y1852*
G36*
X110Y1107*
X206Y1013*
X1042Y1678*
X1764Y1119*
X1855Y1207*
X1040Y1852*
Y1957*
X1961Y1207*
X1755Y995*
Y213*
X952Y213*
X952Y296*
X1700*
Y1057*
X1042Y1571*
X384Y1052*
Y302*
X686*
Y89*
X952Y118*
Y210*
X1006*
X1005Y56*
X648Y2*
X648Y224*
X333*
X331Y1008*
X206Y895*
X2Y1107*
X339Y1383*
Y1802*
X692*
X692Y1676*
X628Y1631*
Y1741*
X395*
Y1434*
X692Y1674*
X1039Y1957*
X1039Y1852*
G37*
X1037Y1679D02*
X1040Y1675D01*
X1047Y1672*
X1056*
X1062Y1675*
X1065Y1679*
X1069Y1685*
Y1697*
X1065Y1704*
X1062Y1707*
X1056Y1710*
X1047*
X1040Y1707*
X1037Y1704*
X1019Y1675D02*
X1012Y1672D01*
X1003*
X997Y1675*
X994Y1682*
Y1685*
X997Y1691*
X1003Y1694*
X1019*
Y1710*
X994*
X1102Y741D02*
Y779D01*
X1080*
X1074Y776*
X1071Y769*
X1074Y763*
X1080Y760*
X1102*
X1080D02*
X1071Y741D01*
X1046D02*
X1033D01*
X1040D02*
Y779D01*
X1046Y772*
X1112Y721D02*
Y881D01*
X1182*
Y721*
X1112*
X1145Y1367D02*
Y1405D01*
X1124*
X1117Y1402*
X1114Y1395*
X1117Y1389*
X1124Y1386*
X1145*
X1124D02*
X1114Y1367D01*
X1086D02*
X1080Y1370D01*
X1074Y1377*
X1070Y1386*
Y1395*
X1074Y1402*
X1080Y1405*
X1086*
X1092Y1402*
X1095Y1395*
X1092Y1389*
X1086Y1386*
X1080*
X1074Y1389*
X1070Y1395*
X1155Y992D02*
G75*
G02X1147I-4D01*
G01*
G75*
G02X1155I4*
G01*
G36*
G75*
G02X1147I-4*
G01*
G75*
G02X1155I4*
G01*
G37*
X1201Y1226D02*
X963D01*
Y988*
X1192*
X1201Y998*
Y1226*
X1232Y1493D02*
Y1333D01*
X1162*
Y1493*
X1232*
X1436D02*
Y1333D01*
X1366*
Y1493*
X1436*
X1439Y1180D02*
Y854D01*
X1548*
Y1180*
X1508*
Y1165*
X1478*
Y1180*
X1439*
X1468Y1503D02*
Y1541D01*
X1446*
X1440Y1537*
X1437Y1531*
X1440Y1525*
X1446Y1522*
X1468*
X1446D02*
X1437Y1503D01*
X1412D02*
X1399D01*
X1406D02*
Y1541D01*
X1412Y1534*
X1365Y1506D02*
X1359Y1503D01*
X1353*
X1346Y1506*
X1343Y1512*
Y1531*
X1346Y1537*
X1353Y1541*
X1359*
X1365Y1537*
X1368Y1531*
Y1512*
X1365Y1506*
X1346Y1537*
X1475Y1070D02*
X1503D01*
X1509Y1067*
X1512Y1061*
Y1049*
X1509Y1042*
X1503Y1039*
X1475*
X1509Y1017D02*
X1512Y1011D01*
Y1005*
X1509Y999*
X1503Y995*
X1496Y999*
X1493Y1005*
Y1011*
Y1005D02*
X1490Y999D01*
X1484Y995*
X1478Y999*
X1475Y1005*
Y1011*
X1478Y1017*
X1539Y1176D02*
G75*
G02Y1158J-9D01*
G01*
G75*
G02Y1176J9*
G01*
G36*
G75*
G02Y1158J-9*
G01*
G75*
G02Y1176J9*
G01*
G37*
X1560Y1366D02*
X1507D01*
Y1243*
X1560*
Y1366*
X1545Y1385D02*
X1548Y1382D01*
X1555Y1379*
X1564*
X1570Y1382*
X1573Y1385*
X1576Y1392*
Y1404*
X1573Y1410*
X1570Y1413*
X1564Y1417*
X1555*
X1548Y1413*
X1545Y1410*
X1523Y1382D02*
X1517Y1379D01*
X1511*
X1505Y1382*
X1501Y1388*
X1505Y1395*
X1511Y1398*
X1517*
X1511D02*
X1505Y1401D01*
X1501Y1407*
X1505Y1413*
X1511Y1417*
X1517*
X1523Y1413*
X0Y0D02*
M02*
