%FSLAX23Y23*%
%MOIN*%
G04 EasyPC Gerber Version 17.0 Build 3379 *
%ADD10C,0.00500*%
%ADD73C,0.10000*%
X0Y0D02*
D02*
D10*
X566Y435D02*
Y473D01*
X585*
X591Y470*
X594Y467*
X598Y460*
Y448*
X594Y442*
X591Y438*
X585Y435*
X566*
Y535D02*
Y573D01*
X585*
X591Y570*
X594Y567*
X598Y560*
Y548*
X594Y542*
X591Y538*
X585Y535*
X566*
X608Y1185D02*
Y1223D01*
X640*
X633Y1204D02*
X608D01*
Y1185D02*
X640D01*
X608Y1285D02*
Y1323D01*
X640*
X633Y1304D02*
X608D01*
Y1285D02*
X640D01*
X608Y1385D02*
Y1423D01*
X640*
X633Y1404D02*
X608D01*
Y1385D02*
X640D01*
X608Y1485D02*
Y1523D01*
X640*
X633Y1504D02*
X608D01*
Y1485D02*
X640D01*
X608Y1585D02*
Y1623D01*
X640*
X633Y1604D02*
X608D01*
Y1585D02*
X640D01*
X610Y1041D02*
Y1079D01*
X628*
X635Y1076*
X638Y1072*
X641Y1066*
Y1054*
X638Y1047*
X635Y1044*
X628Y1041*
X610*
X610Y766D02*
Y803D01*
X629*
X635Y800*
X638Y797*
X641Y791*
Y778*
X638Y772*
X635Y769*
X629Y766*
X610*
Y903D02*
Y941D01*
X629*
X635Y938*
X638Y935*
X641Y928*
Y916*
X638Y910*
X635Y907*
X629Y903*
X610*
X708Y441D02*
Y479D01*
X727*
X733Y476*
X736Y472*
X739Y466*
Y454*
X736Y447*
X733Y444*
X727Y441*
X708*
Y541D02*
Y579D01*
X727*
X733Y576*
X736Y572*
X739Y566*
Y554*
X736Y547*
X733Y544*
X727Y541*
X708*
X708Y1185D02*
Y1223D01*
X740*
X733Y1204D02*
X708D01*
Y1185D02*
X740D01*
X708Y1285D02*
Y1323D01*
X740*
X733Y1304D02*
X708D01*
Y1285D02*
X740D01*
X708Y1385D02*
Y1423D01*
X740*
X733Y1404D02*
X708D01*
Y1385D02*
X740D01*
X708Y1485D02*
Y1523D01*
X740*
X733Y1504D02*
X708D01*
Y1485D02*
X740D01*
X708Y1585D02*
Y1623D01*
X740*
X733Y1604D02*
X708D01*
Y1585D02*
X740D01*
X710Y1041D02*
Y1079D01*
X728*
X735Y1076*
X738Y1072*
X741Y1066*
Y1054*
X738Y1047*
X735Y1044*
X728Y1041*
X710*
X710Y766D02*
Y803D01*
X729*
X735Y800*
X738Y797*
X741Y791*
Y778*
X738Y772*
X735Y769*
X729Y766*
X710*
Y903D02*
Y941D01*
X729*
X735Y938*
X738Y935*
X741Y928*
Y916*
X738Y910*
X735Y907*
X729Y903*
X710*
X808Y1403D02*
Y1441D01*
X840*
X833Y1422D02*
X808D01*
X818Y791D02*
X834Y829D01*
X849Y791*
X824Y807D02*
X843D01*
X891Y1024D02*
X907Y1061D01*
X922Y1024*
X897Y1039D02*
X916D01*
X899Y1104D02*
X915Y1142D01*
X930Y1104*
X905Y1120D02*
X924D01*
X934Y1012D02*
X950Y1049D01*
X966Y1012*
X941Y1027D02*
X959D01*
X934Y1083D02*
X950Y1120D01*
X966Y1083*
X941Y1098D02*
X959D01*
X960Y1246D02*
Y1283D01*
X991*
X985Y1265D02*
X960D01*
X1007Y546D02*
X1003Y543D01*
X997Y540*
X988*
X982Y543*
X978Y546*
X975Y553*
Y565*
X978Y571*
X982Y574*
X988Y578*
X997*
X1003Y574*
X1007Y571*
Y723D02*
X1003Y720D01*
X997Y717*
X988*
X982Y720*
X978Y723*
X975Y730*
Y742*
X978Y748*
X982Y752*
X988Y755*
X997*
X1003Y752*
X1007Y748*
X1056Y470D02*
X1072Y508D01*
X1088Y470*
X1063Y486D02*
X1081D01*
X1084Y886D02*
X1100Y923D01*
X1115Y886*
X1090Y901D02*
X1109D01*
X1096Y1025D02*
X1111Y1063D01*
X1127Y1025*
X1102Y1041D02*
X1121D01*
X1110Y951D02*
X1125Y988D01*
X1141Y951*
X1116Y966D02*
X1135D01*
X1145Y1502D02*
X1161Y1539D01*
X1176Y1502*
X1151Y1517D02*
X1170D01*
X1167Y974D02*
X1182Y1012D01*
X1198Y974*
X1173Y990D02*
X1192D01*
X1184Y1555D02*
X1200Y1593D01*
X1216Y1555*
X1191Y1571D02*
X1209D01*
X1214Y972D02*
X1230Y1010D01*
X1245Y972*
X1220Y988D02*
X1239D01*
X1262Y546D02*
X1259Y543D01*
X1253Y540*
X1244*
X1237Y543*
X1234Y546*
X1231Y553*
Y565*
X1234Y571*
X1237Y574*
X1244Y578*
X1253*
X1259Y574*
X1262Y571*
Y723D02*
X1259Y720D01*
X1253Y717*
X1244*
X1237Y720*
X1234Y723*
X1231Y730*
Y742*
X1234Y748*
X1237Y752*
X1244Y755*
X1253*
X1259Y752*
X1262Y748*
X1234Y1356D02*
Y1394D01*
X1265*
X1259Y1375D02*
X1234D01*
X1293Y1354D02*
Y1392D01*
X1324*
X1318Y1373D02*
X1293D01*
X1301Y1029D02*
X1316Y1067D01*
X1332Y1029*
X1307Y1045D02*
X1326D01*
X1312Y1624D02*
X1328Y1661D01*
X1344Y1624*
X1319Y1640D02*
X1337D01*
X1316Y990D02*
X1332Y1028D01*
X1348Y990*
X1323Y1006D02*
X1341D01*
X1356Y982D02*
X1371Y1020D01*
X1387Y982*
X1362Y998D02*
X1381D01*
X1385Y1069D02*
X1401Y1106D01*
X1416Y1069*
X1391Y1084D02*
X1410D01*
X1397Y1146D02*
X1413Y1183D01*
X1428Y1146*
X1403Y1161D02*
X1422D01*
X1415Y852D02*
X1430Y890D01*
X1446Y852*
X1421Y868D02*
X1440D01*
X1442Y576D02*
X1448Y573D01*
X1452Y566*
X1448Y560*
X1442Y557*
X1420*
Y594*
X1442*
X1448Y591*
X1452Y585*
X1448Y579*
X1442Y576*
X1420*
X1470Y1272D02*
X1485Y1309D01*
X1501Y1272*
X1476Y1287D02*
X1495D01*
X1578Y1329D02*
X1594Y1366D01*
X1609Y1329*
X1584Y1344D02*
X1603D01*
X1588Y947D02*
X1604Y984D01*
X1619Y947*
X1594Y962D02*
X1613D01*
X1615Y576D02*
X1622Y573D01*
X1625Y566*
X1622Y560*
X1615Y557*
X1594*
Y594*
X1615*
X1622Y591*
X1625Y585*
X1622Y579*
X1615Y576*
X1594*
X1621Y976D02*
X1637Y1014D01*
X1653Y976*
X1628Y992D02*
X1646D01*
X1653Y890D02*
X1669Y927D01*
X1684Y890*
X1659Y905D02*
X1678D01*
D02*
D73*
X466Y376D03*
Y476D03*
X508Y1126D03*
Y1226D03*
Y1326D03*
Y1426D03*
Y1526D03*
X510Y982D03*
X510Y706D03*
Y844D03*
X608Y382D03*
Y482D03*
X608Y1126D03*
Y1226D03*
Y1326D03*
Y1426D03*
Y1526D03*
X610Y982D03*
X610Y706D03*
Y844D03*
X708Y1344D03*
X718Y732D03*
X791Y964D03*
X799Y1045D03*
X834Y952D03*
Y1023D03*
X860Y1187D03*
X875Y481D03*
Y658D03*
X956Y411D03*
X984Y826D03*
X996Y966D03*
X1010Y891D03*
X1045Y1442D03*
X1067Y915D03*
X1084Y1496D03*
X1114Y913D03*
X1131Y481D03*
Y658D03*
X1134Y1297D03*
X1193Y1295D03*
X1201Y970D03*
X1212Y1565D03*
X1216Y931D03*
X1256Y923D03*
X1285Y1009D03*
X1297Y1086D03*
X1315Y793D03*
X1320Y498D03*
X1370Y1212D03*
X1478Y1269D03*
X1488Y887D03*
X1494Y498D03*
X1521Y917D03*
X1553Y830D03*
X0Y0D02*
M02*
