%FSLAX23Y23*%
%MOIN*%
G04 EasyPC Gerber Version 17.0 Build 3379 *
%ADD27R,0.01181X0.01969*%
%ADD21R,0.03937X0.04291*%
%ADD72R,0.04724X0.07087*%
%ADD71R,0.05500X0.06000*%
%ADD22R,0.06000X0.06000*%
%ADD23R,0.06000X0.06000*%
%ADD29R,0.13780X0.13780*%
%ADD24C,0.00984*%
%ADD12C,0.01000*%
%ADD13C,0.03189*%
%ADD25C,0.04800*%
%ADD15C,0.06000*%
%ADD28R,0.01969X0.01181*%
%ADD26R,0.05787X0.02559*%
%ADD18R,0.06000X0.05500*%
%ADD70C,0.06890*%
X0Y0D02*
D02*
D12*
X508Y1526D02*
Y1571D01*
X543Y1606*
X762*
X862Y1706*
X1159*
X1206Y1659*
Y1598*
X1136Y1527*
Y1435*
X1157Y1413*
X510Y982D02*
X476D01*
X389Y1068*
Y1407*
X508Y1526*
X510Y844D02*
X526D01*
X551Y819*
Y334*
X671*
X769Y433*
X903*
X935Y464*
X1059*
X1116Y407*
X1157*
X1199Y448*
Y529*
X1346Y677*
Y809*
X1319Y836*
Y976*
X1362Y1019*
X1394*
Y1017*
X610Y844D02*
X671D01*
X791Y964*
X718Y732D02*
X889D01*
X984Y826*
X728Y1096D02*
Y1280D01*
X800Y1353*
Y1323*
X925Y1198*
X1014*
Y1196*
X834Y952D02*
Y931D01*
X610Y706*
X860Y1187D02*
X889D01*
X899Y1177*
X992*
X993Y1176*
X895Y1510D02*
X1015D01*
Y1269*
X1033Y1252*
Y1196*
X956Y411D02*
Y309D01*
X980Y285*
X1352*
X1405Y338*
Y702*
X1480Y777*
Y838*
X1521Y879*
Y917*
X993Y1097D02*
X908D01*
X834Y1023*
X993Y1156D02*
X910D01*
X799Y1045*
X1053Y1017D02*
Y954D01*
X1025Y927*
Y907*
X1010Y891*
X1053Y1196D02*
Y1435D01*
X1045Y1442*
X1073Y1017D02*
Y921D01*
X1067Y915*
X1084Y1496D02*
Y1486D01*
X1073Y1474*
Y1196*
X1092Y1017D02*
Y935D01*
X1114Y913*
X1102Y1620D02*
Y1590D01*
X1053Y1541*
X926*
X895Y1510*
X1112Y1017D02*
Y962D01*
X1143Y931*
Y875*
X1147Y871*
Y846*
X1134Y1297D02*
X1151Y1279D01*
Y1196*
X1147Y756D02*
X1278D01*
X1315Y793*
X1157Y1413D02*
X1147Y1403D01*
Y1374*
X1092Y1318*
Y1196*
X1172Y1038D02*
Y999D01*
X1201Y970*
X1172Y1097D02*
Y1096D01*
X1217*
X1232Y1081*
Y946*
X1216Y931*
X1172Y1136D02*
X1345D01*
X1350Y1141*
X1521*
X1546Y1117*
X1592*
X1172Y1156D02*
X1314D01*
X1370Y1212*
X1193Y1295D02*
Y1196D01*
X1172Y1176*
X1197Y1458D02*
Y1464D01*
X1250Y1517*
X1271*
X1212Y1565D02*
X1224D01*
X1271Y1517*
X1256Y923D02*
X1250D01*
Y1090*
X1222Y1118*
X1172*
Y1117*
X1271Y1517D02*
X1443D01*
X1612Y1348*
Y1187*
X1592Y1167*
X1394Y867D02*
X1467D01*
X1488Y887*
X1394Y917D02*
X1364D01*
X1348Y901*
Y842*
X1378Y813*
Y683*
X1224Y529*
Y446*
X1167Y389*
X1104*
X1049Y444*
X943*
X913Y415*
X779*
X681Y317*
X523*
Y693*
X510Y706*
X1394Y917D02*
X1458D01*
X1496Y954*
Y1043*
X1517Y1065*
X1590*
X1592Y1067*
X1394D02*
X1352D01*
X1334Y1049*
X1325*
X1285Y1009*
X1394Y1117D02*
X1328D01*
X1297Y1086*
X1394Y1117D02*
X1447D01*
X1454Y1110*
Y978*
X1443Y966*
X1395*
X1394Y967*
X1401Y1458D02*
X1291D01*
X1246Y1413*
X1157*
X1533Y1340D02*
X1520D01*
X1401Y1458*
D02*
D13*
X718Y732D03*
X791Y964D03*
X799Y1045D03*
X834Y952D03*
Y1023D03*
X956Y411D03*
X984Y826D03*
X996Y966D03*
X1010Y891D03*
X1045Y1442D03*
X1067Y915D03*
X1084Y1496D03*
X1114Y913D03*
X1201Y970D03*
X1212Y1565D03*
X1216Y931D03*
X1256Y923D03*
X1285Y1009D03*
X1297Y1086D03*
X1315Y793D03*
X1370Y1212D03*
X1478Y1269D03*
X1488Y887D03*
X1521Y917D03*
X1553Y830D03*
D02*
D15*
X508Y1126D03*
Y1226D03*
Y1326D03*
Y1426D03*
Y1526D03*
X608Y1226D03*
Y1326D03*
Y1426D03*
Y1526D03*
X1320Y498D03*
X1494D03*
D02*
D18*
X1012Y1620D03*
X1102D03*
D02*
D70*
X875Y481D03*
Y658D03*
X1131Y481D03*
Y658D03*
D02*
D71*
X728Y1006D03*
Y1096D03*
X1147Y756D03*
Y846D03*
X1197Y1368D03*
Y1458D03*
X1401Y1368D03*
Y1458D03*
D02*
D21*
X1533Y1270D03*
Y1340D03*
D02*
D22*
X466Y376D03*
Y476D03*
X510Y982D03*
X510Y706D03*
Y844D03*
X608Y382D03*
Y482D03*
X610Y982D03*
X610Y706D03*
Y844D03*
D02*
D23*
X608Y1126D03*
D02*
D24*
X608Y482D02*
X771D01*
X848Y559*
X951*
X1008Y616*
Y738*
X1071Y801*
X608Y482D02*
Y492D01*
X569Y531*
Y1077*
X608Y1116*
Y1126*
Y1226D02*
Y1216D01*
X614*
X681Y1149*
Y1053*
X728Y1006*
X608Y1326D02*
Y1226D01*
X728Y1006D02*
Y992D01*
X842*
X888Y946*
X976*
X996Y966*
X800Y1510D02*
Y1530D01*
X876Y1606*
X998*
X1012Y1620*
X800Y1510D02*
X792D01*
X608Y1326*
X895Y1353D02*
Y1416D01*
X800Y1510*
X1014Y1017D02*
Y984D01*
X996Y966*
X1014Y1017D02*
Y1038D01*
X1082Y1107*
X1033Y1017D02*
X1035D01*
Y962*
X980Y907*
Y879*
X1059Y801*
X1071*
X1073Y799*
X1187*
Y919*
X1082Y1107D02*
Y1084D01*
X1132Y1035*
Y1017*
X1187Y919D02*
X1151Y954D01*
Y1017*
X1197Y1368D02*
X1401D01*
X1394Y1167D02*
X1531D01*
X1555Y1143*
X1632*
X1639Y1135*
Y1106*
X1626Y1092*
X1500*
X1476Y1068*
Y972*
X1447Y942*
X1360*
X1340Y962*
Y974*
X1358Y992*
X1433*
X1437Y996*
Y1035*
X1431Y1041*
X1358*
X1293Y976*
Y905*
X1283Y895*
X1210*
X1187Y919*
X1401Y1368D02*
Y1174D01*
X1394Y1167*
X1533Y1270D02*
X1479D01*
X1478Y1269*
X1592Y867D02*
X1589D01*
X1553Y830*
D02*
D25*
X708Y1344D03*
X860Y1187D03*
X1134Y1297D03*
X1193Y1295D03*
D02*
D26*
X1394Y867D03*
Y917D03*
Y967D03*
Y1017D03*
Y1067D03*
Y1117D03*
Y1167D03*
X1592Y867D03*
Y917D03*
Y967D03*
Y1017D03*
Y1067D03*
Y1117D03*
Y1167D03*
D02*
D27*
X1014Y1017D03*
Y1196D03*
X1033Y1017D03*
Y1196D03*
X1053Y1017D03*
Y1196D03*
X1073Y1017D03*
Y1196D03*
X1092Y1017D03*
Y1196D03*
X1112Y1017D03*
Y1196D03*
X1132Y1017D03*
Y1196D03*
X1151Y1017D03*
Y1196D03*
D02*
D28*
X993Y1038D03*
Y1058D03*
Y1077D03*
Y1097D03*
Y1117D03*
Y1136D03*
Y1156D03*
Y1176D03*
X1172Y1038D03*
Y1058D03*
Y1077D03*
Y1097D03*
Y1117D03*
Y1136D03*
Y1156D03*
Y1176D03*
D02*
D29*
X1082Y1107D03*
D02*
D72*
X800Y1353D03*
Y1510D03*
X895Y1353D03*
Y1510D03*
X0Y0D02*
M02*
