%FSLAX23Y23*%
%MOIN*%
G04 EasyPC Gerber Version 17.0 Build 3379 *
%ADD77R,0.02969X0.10843*%
%ADD83R,0.03756X0.04346*%
%ADD78R,0.04150X0.05331*%
%ADD84R,0.04937X0.05291*%
%ADD82R,0.06500X0.07000*%
%ADD75R,0.08874X0.10843*%
%ADD85R,0.07000X0.07000*%
%ADD86R,0.07000X0.07000*%
%ADD74C,0.04189*%
%ADD80R,0.05291X0.04937*%
%ADD76C,0.07000*%
%ADD81C,0.07890*%
%ADD79R,0.07000X0.06500*%
X0Y0D02*
D02*
D74*
X718Y732D03*
X791Y964D03*
X799Y1045D03*
X834Y952D03*
Y1023D03*
X956Y411D03*
X984Y826D03*
X996Y966D03*
X1010Y891D03*
X1045Y1442D03*
X1067Y915D03*
X1084Y1496D03*
X1114Y913D03*
X1201Y970D03*
X1212Y1565D03*
X1216Y931D03*
X1256Y923D03*
X1285Y1009D03*
X1297Y1086D03*
X1315Y793D03*
X1370Y1212D03*
X1478Y1269D03*
X1488Y887D03*
X1553Y830D03*
D02*
D75*
X1232Y379D03*
Y596D03*
X1582Y379D03*
Y596D03*
D02*
D76*
X508Y1126D03*
Y1226D03*
Y1326D03*
Y1426D03*
Y1526D03*
X608Y1226D03*
Y1326D03*
Y1426D03*
Y1526D03*
X1320Y498D03*
X1494D03*
D02*
D77*
X1344Y596D03*
X1375D03*
X1407D03*
X1438D03*
X1470D03*
D02*
D78*
X1389Y713D03*
X1427Y831D03*
X1464Y713D03*
D02*
D79*
X514Y596D03*
X604D03*
X736Y352D03*
X764Y1527D03*
X826Y352D03*
X854Y1527D03*
X907Y354D03*
X997D03*
X1093Y846D03*
X1183D03*
D02*
D80*
X941Y740D03*
X1011D03*
X1150Y742D03*
X1220D03*
X1553Y700D03*
X1623D03*
D02*
D81*
X875Y481D03*
Y658D03*
X1131Y481D03*
Y658D03*
D02*
D82*
X783Y710D03*
Y800D03*
X785Y175D03*
Y265D03*
X872Y175D03*
Y265D03*
X1622Y862D03*
Y952D03*
D02*
D83*
X714Y530D03*
Y619D03*
X752Y530D03*
X789D03*
Y619D03*
D02*
D84*
X949Y949D03*
Y1019D03*
X1291Y1287D03*
Y1357D03*
D02*
D85*
X466Y376D03*
Y476D03*
X510Y982D03*
X510Y706D03*
Y844D03*
X608Y382D03*
Y482D03*
X610Y982D03*
X610Y706D03*
Y844D03*
D02*
D86*
X608Y1126D03*
X0Y0D02*
M02*
