%FSLAX23Y23*%
%MOIN*%
G04 EasyPC Gerber Version 17.0 Build 3379 *
%ADD104R,0.04324X0.05506*%
%ADD97R,0.04521X0.02159*%
%ADD99R,0.05100X0.05600*%
%ADD102R,0.05899X0.06450*%
%ADD94R,0.02356X0.01962*%
%ADD101R,0.04324X0.02356*%
%ADD93R,0.03891X0.03537*%
%ADD100R,0.05506X0.04718*%
%ADD98R,0.05600X0.05100*%
%ADD96R,0.06450X0.05899*%
%ADD103R,0.16529X0.05899*%
%ADD95R,0.09836X0.06293*%
X0Y0D02*
D02*
D93*
X371Y410D03*
X441D03*
X621Y1010D03*
X686Y1105D03*
X691Y1010D03*
X756Y1105D03*
X1771Y390D03*
X1841D03*
X1926Y705D03*
X1996D03*
D02*
D94*
X1784Y478D03*
Y515D03*
Y553D03*
X1878Y478D03*
Y515D03*
Y553D03*
D02*
D95*
X2071Y1348D03*
Y1513D03*
D02*
D96*
X1291Y1474D03*
Y1636D03*
D02*
D97*
X790Y1895D03*
X902D03*
D02*
D98*
X356Y320D03*
X366Y500D03*
X446Y320D03*
X456Y500D03*
X461Y1720D03*
Y1890D03*
X551Y1720D03*
Y1890D03*
X561Y145D03*
Y240D03*
X651Y145D03*
Y240D03*
D02*
D99*
X261Y1740D03*
Y1830D03*
X851Y320D03*
Y410D03*
X866Y1005D03*
Y1095D03*
D02*
D100*
X597Y513D03*
Y867D03*
X697Y513D03*
Y867D03*
D02*
D101*
X558Y333D03*
Y407D03*
X655Y370D03*
D02*
D102*
X765Y1795D03*
X928D03*
X1680Y985D03*
X1843D03*
D02*
D103*
X1666Y690D03*
Y840D03*
D02*
D104*
X2851Y931D03*
Y1160D03*
X3016Y931D03*
Y1160D03*
X0Y0D02*
M02*
